<?xml version="1.0" encoding="UTF-8"?>
<svg xmlns="http://www.w3.org/2000/svg" viewBox="0 0 355.3868852 241.9515125">
  <defs>
    <style>
      .cls-1 {
        fill: #e09640;
      }

      .cls-1, .cls-2, .cls-3, .cls-4, .cls-5, .cls-6, .cls-7, .cls-8, .cls-9, .cls-10, .cls-11, .cls-12, .cls-13, .cls-14, .cls-15 {
        stroke-width: 0px;
      }

      .cls-1, .cls-2, .cls-5, .cls-7, .cls-9, .cls-11, .cls-12, .cls-14 {
        mix-blend-mode: multiply;
        opacity: .7;
      }

      .cls-16 {
        isolation: isolate;
      }

      .cls-2 {
        fill: #e7aeb5;
      }

      .cls-3 {
        fill: #c5252c;
      }

      .cls-4 {
        fill: #040000;
      }

      .cls-5 {
        fill: #df919b;
      }

      .cls-6 {
        fill: #c96b90;
      }

      .cls-7 {
        fill: #aa1e2c;
      }

      .cls-8 {
        fill: #211613;
      }

      .cls-9 {
        fill: #d85f0f;
      }

      .cls-10 {
        fill: #c31d1d;
      }

      .cls-11 {
        fill: #d7818a;
      }

      .cls-12 {
        fill: #cb3856;
      }

      .cls-13 {
        fill: #874d7a;
      }

      .cls-14 {
        fill: #996fa3;
      }

      .cls-15 {
        fill: #143367;
      }
    </style>
  </defs>
  <g class="cls-16">
    <g id="_レイヤー_2" data-name="レイヤー 2">
      <g id="top">
        <g>
          <path class="cls-7" d="m34.3985752,198.8401065h-.8637437c-.5361029,0-.834252-.2978461-.834252-.83405v-19.6603706c0-.5361029.2981491-.83405.834252-.83405h1.1021014c.4767154,0,.7744606.208563.9530269.625588l5.3323449,11.8259767,5.3024492-11.8259767c.1785663-.417025.4763114-.625588.9530269-.625588h1.1913846c.5365069,0,.834252.2979471.834252.83405v19.6603706c0,.5362039-.2977451.83405-.834252.83405h-.9231312c-.5361029,0-.834252-.2978461-.834252-.83405v-15.6090974l-4.170452,9.3535204c-.1785663.417025-.4763114.625588-.9530269.625588h-1.1319972c-.4767154,0-.7744606-.208563-.9534309-.625588l-4.170048-9.3535204v15.6090974c0,.5362039-.2981491.83405-.834252.83405Z"/>
          <path class="cls-5" d="m63.2628865,188.4141784c0-2.6809183-.7445649-3.4851736-2.7702014-3.4851736-1.1319972,0-2.3532774.2680514-3.7830197.8936394-.5958943.2382567-.9833266,0-.9833266-.625588,0-.4766144.1789703-.7744606.62579-.9532289,1.2806677-.5064091,2.710814-.7744606,4.1405563-.7744606,4.0213775,0,5.3024492,1.4894327,5.3024492,5.5406049v8.9960848c0,.5362039-.2981491.83405-.834252.83405h-.7445649c-.5361029,0-.834252-.2978461-.8641477-.83405v-.8936394c-.9231312,1.251075-2.4126649,2.0256366-4.2298395,2.0256366-2.5318437,0-4.1106606-1.9064577-4.1106606-4.4682982,0-2.9788654,2.1743072-5.2427588,7.1192198-5.2427588h1.1319972v-1.0128183Zm-1.1319972,2.2341996c-3.0085592,0-4.587376,1.251075-4.587376,3.8427102,0,2.0255356.8641477,3.1873275,1.9363534,3.1873275,2.1149197,0,3.7830197-2.0256366,3.7830197-5.421527v-1.6085106h-1.1319972Z"/>
          <path class="cls-9" d="m71.9904149,198.0060565v-13.4047935c0-.5362039.2977451-.83405.834252-.83405h.8043563c.5361029,0,.833848.2978461.8637437.83405v.4468197c.7744606-.9532289,1.876562-1.5787159,3.0679466-1.5787159,1.6087126,0,2.6514266.7148711,3.2174252,2.085125.833848-1.2808697,2.085024-2.085125,3.544662-2.085125,2.919276,0,4.0512732,1.6978947,4.0512732,5.7491679v8.7875218c0,.5362039-.2977451.83405-.834252.83405h-.833848c-.5361029,0-.834252-.2978461-.834252-.83405v-8.1918295c0-3.8427102-.6552817-4.9746063-2.0551283-4.9746063-.8936394,0-2.3831732,1.9064577-2.3831732,3.8129155v9.3535204c0,.5362039-.2977451.83405-.834252.83405h-.8039523c-.5365069,0-.834252-.2978461-.834252-.83405v-8.1918295c0-3.8427102-.6851774-4.9746063-2.0555323-4.9746063-.8936394,0-2.3827692,1.876663-2.3827692,3.8129155v9.3535204c0,.5362039-.2981491.83405-.834252.83405h-.8637437c-.5365069,0-.834252-.2978461-.834252-.83405Z"/>
          <path class="cls-1" d="m101.9572317,188.4141784c0-2.6809183-.7445649-3.4851736-2.7702014-3.4851736-1.1319972,0-2.3532774.2680514-3.7830197.8936394-.5958943.2382567-.9833266,0-.9833266-.625588,0-.4766144.1789703-.7744606.62579-.9532289,1.2806677-.5064091,2.710814-.7744606,4.1405563-.7744606,4.0213775,0,5.3024492,1.4894327,5.3024492,5.5406049v8.9960848c0,.5362039-.2981491.83405-.834252.83405h-.7445649c-.5361029,0-.834252-.2978461-.8641477-.83405v-.8936394c-.9231312,1.251075-2.4126649,2.0256366-4.2298395,2.0256366-2.5318437,0-4.1106606-1.9064577-4.1106606-4.4682982,0-2.9788654,2.1743072-5.2427588,7.1192198-5.2427588h1.1319972v-1.0128183Zm-1.1319972,2.2341996c-3.0085592,0-4.587376,1.251075-4.587376,3.8427102,0,2.0255356.8641477,3.1873275,1.9363534,3.1873275,2.1149197,0,3.7830197-2.0256366,3.7830197-5.421527v-1.6085106h-1.1319972Z"/>
          <path class="cls-4" d="m115.4115147,191.6124138c.0428236,1.0887696.2775453,2.1775391.7684006,2.9034192,1.2596599,1.878683,3.3947795.6191241,4.3554823-.2562345,1.5153895-1.3876257,2.2413705-2.9461418,2.7326298-4.6113128.106655-.3415787.3199649-.4696455.6403339-.3843013.2989571.106756.4270239.3202679.3627885.6405359-.5550907,2.4123619-1.4729699,4.4618342-3.5010304,6.1697279-1.2168363,1.0034254-4.1417683,1.9427164-5.9351071-.4483347-.8750556-1.1741137-1.152601-2.604563-1.2168363-3.9281554-.0424196-.9820136-.0638314-2.2202617-.0852432-3.5225432h-2.2417745c-.3413767,0-.5336789-.1921002-.5336789-.5336789v-.0213108c0-.3415787.1923022-.5337799.5336789-.5337799h2.2417745c0-1.2382481,0-2.4978071.0214118-3.6078874h-1.8147506c-.3417807,0-.5336789-.1921002-.5336789-.5336789v-.0214118c0-.3415787.1918982-.5336789.5336789-.5336789h1.8147506c.0214118-1.0247362.0214118-1.878683.0424196-2.3910511,0-.3415787.1923022-.5337799.5336789-.5550907h.7902164c.3413767,0,.5336789.1921002.5336789.5336789,0,.5123681-.0214118,1.3663149-.0428236,2.4124629h6.2978956c.3413767,0,.5336789.1921002.5336789.5336789v.0214118c0,.3415787-.1923022.5336789-.5336789.5336789h-6.3193074c-.0214118,1.1100804-.0214118,2.3696393-.0424196,3.6078874h6.1694249c.3417807,0,.5336789.1922012.5336789.5337799v.0213108c0,.3415787-.1918982.5336789-.5336789.5336789h-6.1694249c.0210078,1.2596599.0210078,2.4550845.0638314,3.4371991Z"/>
          <path class="cls-4" d="m151.9509445,183.1557648h-.8148602c-.5058032,0-.7865805-.2809793-.7865805-.7866815v-3.5682958h-15.7061575v3.8492751c0,.5057022-.2811813.7866815-.7865805.7866815h-.7869845c-.5058032,0-.7865805-.2809793-.7865805-.7866815v-4.4393115c0-.5057022.2807773-.7866815.7865805-.7866815h8.2043534v-1.6858758c0-.5057022.2807773-.7866815.7865805-.7866815h.8992954c.5058032,0,.7865805.2809793.7865805.7866815v1.6858758h8.2043534c.5058032,0,.7865805.2809793.7865805.7866815v4.1583321c0,.5057022-.2807773.7866815-.7865805.7866815Zm-10.6768097,1.039583c2.7253579,2.8658475,4.0460212,6.7432004,4.0460212,10.8734548,0,3.9335083-.4779274,5.0854023-2.5290158,5.0854023-.5898343,0-1.6293164-.0280777-3.0905704-.1123109-.5058032-.0281787-.7865805-.2809793-.8148602-.7867825,0-.4776244.309057-.7023473.8148602-.6742695,1.039886.0843342,1.8543422.1124119,2.5290158.1124119.4775234,0,.5336789-.0280777.730425-1.2644069.0840312-.421469.0840312-1.2362282.0840312-2.3038889,0-.6461918-.0278757-1.2924846-.0561555-1.8543422-2.1633993,2.191477-5.3101251,4.2144876-9.2438354,5.9564179-.5053992.2248238-.8710157.0562565-1.039482-.421469l-.0278757-.0561555c-.1688704-.4776244-.0282797-.8429379.4492437-1.039583,3.961586-1.6857748,7.0804361-3.7649409,9.5528924-6.4341433-.2529016-.9833266-.5058032-1.8262645-.7587047-2.4163008-1.9383734,1.770109-4.6637313,3.4558839-8.0916384,4.9169359-.4775234.1966451-.8427359.0280777-1.0116063-.4776244-.1401867-.4495467.0282797-.7586037.5058032-.9553498,3.2032853-1.2923836,5.8159283-2.8658475,7.9514518-4.9169359-.5902383-.9552488-1.1239172-1.6295184-1.4891297-2.0790651-1.461254,1.039583-3.3717517,2.0790651-5.7318971,3.0624926-.4775234.1966451-.8427359.0280777-1.0112023-.4495467-.1405907-.4495467.0278757-.7586037.5058032-.9552488,2.8938243-1.151995,5.3380008-2.5287128,7.3890892-4.2988218h-4.9449126c-.5058032,0-.7865805-.2809793-.7865805-.7866815,0-.421469.2807773-.6462928.7865805-.6462928h13.0369551c.5058032,0,.7865805.2809793.7865805.7867825,0,.421469-.2807773.6461918-.7865805.6461918h-3.6246533c.3373368,2.191578.9554508,4.2707441,1.7141556,6.1250863.8427359-.8429379,1.8543422-1.9948319,2.9782595-3.5121403.3369328-.4495467.730425-.4776244,1.1239172-.1123109l.2524976.2528006c.3373368.3372358.3656165.7024483.0844352,1.0958395-1.0116063,1.3767178-2.2195547,2.7253579-3.7086845,4.0178425,1.4046945,2.8939253,2.9782595,5.1697365,4.6079798,6.883589.3369328.3372358.3652125.7024483.1123109,1.0958395l-.2811813.3932902c-.309057.4495467-.7021453.5058032-1.0956375.1124119-3.9337103-3.961586-7.0521564-10.1429288-8.1199182-16.3522483h-.1967461c-.3934922.3933912-.9271711.8710157-1.6014407,1.4891297Z"/>
          <path class="cls-4" d="m168.1366454,185.6001434c0,4.2707441-.0561555,7.4737264-.2250258,9.5248147-.1401867,2.1633993-.3369328,3.4558839-.6459898,4.1864099-.1684664.3652125-.8148602.7586037-1.6297204.7586037-.4496477,0-1.1239172-.0562565-1.8543422-.1685674-.4775234-.0843342-.7025493-.3933912-.7025493-.8710157v-.0561555c0-.5619586.3373368-.7587047.8992954-.6462928.3934922.0843342.7587047.1124119.9833266.1124119q.1967461,0,.4775234-1.1239172c.0844352-.309057.1688704-1.039482.2250258-1.9385754.1123109-1.6577981.1967461-4.6641353.1967461-9.075268h-2.0232126c-.2807773,6.6307884-.9271711,10.2834184-2.4441766,13.7393023-.2529016.5618576-.7025493.6181141-1.0960415.1685674l-.5058032-.5619586c-.309057-.3371348-.3652125-.6461918-.1963421-1.0676608,1.3764148-3.4558839,1.9666532-8.1479959,1.9945289-17.8133003h-1.3764148c-.5058032,0-.7869845-.2809793-.7869845-.7866815,0-.4776244.2811813-.730526.7869845-.730526h2.6409227v-2.9501817c0-.5057022.2811813-.7866815.7865805-.7866815h.8148602c.5058032,0,.7869845.2809793.7869845.7866815v2.9501817h2.4441766c.5058032,0,.7865805.2809793.7865805.7866815,0,.4776244-.2807773.730526-.7865805.730526h-3.7931196c0,.9834276,0,2.3038889-.0278757,4.0178425h3.4840626c.5053992,0,.7865805.2809793.7865805.8147592Zm1.2641039-1.6857748c-.309057.4495467-.730425.4776244-1.1235132.1124119l-.1967461-.1685674c-.3652125-.3372358-.421368-.7024483-.1405907-1.1239172,1.2645079-1.8543422,2.3318657-4.1583321,3.2028813-6.8274336.1688704-.5058032.5058032-.6743705,1.0116063-.5058032l.3934922.1404897c.5058032.1404897.6742695.4776244.5336789.9553498-.1405907.4495467-.3369328.9833266-.5619586,1.6295184h8.035887c.5053992,0,.7865805.2809793.7865805.7867825,0,.4495467-.2811813.7023473-.7865805.7023473h-8.6818768c-.5902383,1.3768188-1.4050985,2.7816143-2.4728603,4.2988218Zm-.6742695,7.1927471c0-.4776244.2811813-.730526.7869845-.730526h4.5235446v-4.8887571h-1.3768188c-.5902383,1.0114043-1.2923836,1.9948319-2.1355235,2.9781585-.3369328.421469-.730425.421469-1.0956375.0562565l-.2807773-.2809793c-.3373368-.3371348-.3656165-.730526-.0565595-1.0957385,1.1239172-1.3768188,2.1355235-3.1468268,3.0348189-5.2540706.2246218-.4777254.5615546-.6462928,1.039482-.4495467l.5336789.1966451c.4775234.1685674.6181141.5337799.421368,1.0115053-.1684664.3932902-.3652125.8428369-.6181141,1.3486401h6.6029127c.5058032,0,.7865805.2809793.7865805.7866815,0,.4495467-.2807773.7024483-.7865805.7024483h-3.652529v4.8887571h4.1021767c.5053992,0,.7865805.2809793.7865805.7866815,0,.4777254-.2811813.730526-.7865805.730526h-3.9054306c.5053992,3.2030833,2.0228086,5.4508168,4.2706431,6.8275346.421368.2529016.5619586.5900363.3930882,1.039583l-.1123109.2809793c-.1684664.5057022-.5619586.6742695-1.039482.421469-2.2478345-1.2644069-4.0177415-3.3997284-5.0010681-5.8160293-1.2083524,2.4724563-3.4561869,4.6640343-5.8724877,5.8160293-.4775234.2247228-.8427359.0561555-1.0112023-.4777254l-.0844352-.2528006c-.1405907-.4777254,0-.7867825.3652125-.9553498,2.613047-1.2643059,4.4956689-3.4558839,5.2539696-6.88369h-4.2985188c-.5058032,0-.7869845-.2809793-.7869845-.7866815Z"/>
          <path class="cls-4" d="m192.9573595,191.6124138c.0428236,1.0887696.2775453,2.1775391.7684006,2.9034192,1.2596599,1.878683,3.3947795.6191241,4.3554823-.2562345,1.5153895-1.3876257,2.2413705-2.9461418,2.7326298-4.6113128.106655-.3415787.3199649-.4696455.6403339-.3843013.2989571.106756.4270239.3202679.3627885.6405359-.5550907,2.4123619-1.4729699,4.4618342-3.5010304,6.1697279-1.2168363,1.0034254-4.1417683,1.9427164-5.9351071-.4483347-.8750556-1.1741137-1.152601-2.604563-1.2168363-3.9281554-.0428236-.9820136-.0638314-2.2202617-.0852432-3.5225432h-2.2417745c-.3413767,0-.5336789-.1921002-.5336789-.5336789v-.0213108c0-.3415787.1923022-.5337799.5336789-.5337799h2.2417745c0-1.2382481,0-2.4978071.0214118-3.6078874h-1.8147506c-.3417807,0-.5336789-.1921002-.5336789-.5336789v-.0214118c0-.3415787.1918982-.5336789.5336789-.5336789h1.8147506c.0210078-1.0247362.0210078-1.878683.0424196-2.3910511,0-.3415787.1923022-.5337799.5336789-.5550907h.7902164c.3413767,0,.5336789.1921002.5336789.5336789,0,.5123681-.0214118,1.3663149-.0428236,2.4124629h6.2978956c.3413767,0,.5336789.1921002.5336789.5336789v.0214118c0,.3415787-.1923022.5336789-.5336789.5336789h-6.3193074c-.0214118,1.1100804-.0214118,2.3696393-.0424196,3.6078874h6.1694249c.3417807,0,.5336789.1922012.5336789.5337799v.0213108c0,.3415787-.1918982.5336789-.5336789.5336789h-6.1694249c.0210078,1.2596599.0210078,2.4550845.0638314,3.4371991Z"/>
          <path class="cls-4" d="m223.0801188,183.6920697c-.106655,1.6438602-.2989571,3.2663087-.9178792,5.636049.4694435.2561335,1.2592559.6831575,2.1561273,1.2381471.2989571.1922012.3627885.4483347.1918982.7471908l-.3413767.6191241c-.1923022.3202679-.4698475.3629905-.7473928.1281678-.6617457-.5337799-1.2592559-.9607028-1.6862798-1.2595589-.725981,2.1775391-1.8575742,4.2270115-3.6295012,6.2764838-.2347218.2775453-.4908553.2775453-.725577.0640334-.2351257-.2348227-.2775453-.4696455-.0856472-.7471908,1.5157935-2.2629843,2.3056059-4.0989447,2.924932-6.4473742-2.1775391-1.1100804-3.3733677-1.5584151-4.4621372-1.8145486-.106655.2775453-1.3020795,3.864021-3.2663087,5.8281491-1.1311892,1.1314922-3.3087283,1.0674588-3.543854-1.1955255-.1494786-1.4090375.3417807-2.818075,1.2382481-3.9068446,1.1744167-1.4516591,2.7968652-1.9640272,4.1845919-1.985439.5122671-1.771927.9607028-3.4157873,1.2382481-5.6146372h-4.9315807c-.3417807,0-.5336789-.1922012-.5336789-.5337799v-.0213108c0-.3415787.1918982-.5336789.5336789-.5336789h6.3189034c.3631925,0,.5550907.213411.5126711.5764015-.2989571,2.4337737-.725981,4.1629781-1.3663149,6.255173,1.0031224.1493776,2.3056059.3628895,4.4403214,1.4730709.4484357-2.1135057.5550907-3.5012324.6403339-4.9315807.0214118-.3415787.213714-.5123681.5550907-.4910573l.8112242.0640334c.3417807.0214118.5340829.2349237.4912593.5765025Zm-12.5105481,8.8383243c.0856472.8966694.5126711.832535.9607028.3202679,1.4519621-1.6012387,2.4126649-4.4619352,2.5407316-4.803514-.7898124.0854452-1.985641.5978133-2.711218,1.7506162-.5126711.7899134-.8968714,1.7506162-.7902164,2.7326298Z"/>
          <path class="cls-4" d="m246.3070682,189.3281187c-.4484357,2.3910511-1.1101814,5.0169249-2.7540416,6.6180626-1.0031224.9607028-2.5831512,1.1314922-3.757164.2988561-.7473928-.5336789-1.1315932-1.3235923-1.3877267-2.2842951-.1280668-.4696455-.2347218-.9820136-.3203689-1.5157935-.0852432-.5336789-.1280668-1.0887696-.1708904-1.6437592-.1280668-1.4730709-.6617457-2.8607976-1.7076916-2.0708842-1.045946.7686026-1.878582,2.0921949-2.5617394,3.5225432-.3417807.7044682-.6407379,1.4090375-.8968714,2.1775391-.21331.6404349-.4270239,1.2809707-.6403339,1.985439-.106655.3415787-.3627885.4483347-.6831575.3202679l-.8540478-.3629905c-.2989571-.1493776-.4056121-.3842003-.2775453-.7044682l5.9779307-16.0328893c.1280668-.3415787.3627885-.4482337.7041653-.2988561l.8968714.4270239c.2989571.1493776.3842003.4056121.2347218.725779-1.6866838,3.6079884-3.1596537,7.2585984-3.5866776,8.3686788.5336789-.8752576,1.6866838-1.8359604,2.818277-1.7292044,1.5368013.1494786,2.0494724,1.9214056,2.3056059,3.3944765.106655.6191241.21331,1.4943817.3627885,2.3270177.1494786.832535.3631925,1.5797259.7898124,1.9427164.5550907.4909563,1.1530049.4909563,1.7509192-.0641344,1.2168363-1.1313912,2.1561273-3.5864756,2.6898062-5.7213932.0852432-.3415787.3203689-.4696455.6617457-.3628895l.0428236.0213108c.3199649.106756.4480317.3202679.3627885.6618467Z"/>
          <path class="cls-4" d="m259.5427893,182.7099551v.0214118c0,.3415787-.1918982.5336789-.5336789.5336789h-1.9424134c-.8754596,3.2236871-1.878986,6.0416611-3.6080894,9.9698164-.1494786.3202679-.4056121.4270239-.725981.2562345l-.6831575-.3629905c-.2989571-.1707894-.3627885-.4056121-.2347218-.725779,1.6224485-3.4799216,2.6683944-6.1911397,3.4586109-9.1372814h-2.5831512c-.3417807,0-.5336789-.1921002-.5336789-.5336789v-.0214118c0-.3415787.1918982-.5336789.5336789-.5336789h2.8606966c.1918982-.832636.3842003-1.7078936.5760985-2.6471846.0642354-.3415787.2989571-.4910573.6407379-.4057131l.725577.1707894c.3203689.0854452.4698475.2989571.3846043.6405359-.1708904.7898124-.3417807,1.5584151-.5126711,2.2415725h1.6438602c.3417807,0,.5336789.1921002.5336789.5336789Zm3.5014344-.4482337c1.5796249.8538458,2.8821084,2.0494724,4.2270115,3.5651648.21331.2562345.21331.5123681-.0214118.7471908l-.4698475.5123681c-.21331.2348227-.4480317.2562345-.7469888.0854452-.725981-.4056121-1.4091385-.6405359-1.9642292-.6618467-.725577-.0427226-1.0245342.4696455-1.1311892,1.4517601-.0428236.4909563-.0428236,1.1100804-.0214118,1.8146496,0,.6831575.0638314,1.4303483.106655,2.2628833.4270239.1922012,2.1137077,1.2169373,3.6290972,2.5192189.2565375.213411.2775453.4909563.0856472.7471908l-.4270239.5549897c-.21331.2989571-.4908553.3202679-.7684006.0427226-1.1744167-1.152803-1.9642292-1.8573722-2.4979081-2.3696393v.7898124c-.0214118.3415787-.106655.7045692-.2561335,1.0674588-.7045692,1.5585161-2.5193199,1.878683-3.864223,1.7292044-.6403339-.0853442-1.3877267-.2988561-2.0066488-.8752576-1.3877267-1.3449031-.8112242-3.6078874.7684006-4.3978009,1.2168363-.5978133,2.5403277-.5337799,3.6290972-.2562345-.0210078-.8539468-.0852432-1.5797259-.0852432-2.1988499-.0214118-.6831575.0214118-1.2595589.1708904-1.771927.3842003-1.3663149,1.5582131-1.878683,2.6683944-1.878683.2989571,0,.7688046.0853442.9182832.106655-.5765025-.8538458-1.4305503-1.7292044-2.4764963-2.4763953-.2775453-.213512-.3417807-.4483347-.1923022-.7471908l.0642354-.106756c.1704864-.3202679.4056121-.4056121.6617457-.2561335Zm-4.803514,10.4607727c-.6831575.4270239-.9178792,1.6225494-.3203689,2.3697403.2561335.3201669.6617457.4696455,1.1530049.5336789.939291.106756,1.9428174-.3201669,2.1775391-1.0887696.0852432-.2561335.106655-.5336789.106655-.832636v-.9179802c-.9821146-.4269229-2.091892-.6831575-3.1168301-.0640334Z"/>
          <path class="cls-4" d="m280.54978,179.9132919c-.1923022.832636-.5979143,2.5405297-1.0887696,4.3551793.9821146,0,2.6259748.3843013,3.3305441,1.8146496,1.3449031,2.6899072.1280668,6.7675411-.939695,9.3506924-.7041653,1.6864818-1.1954245,1.878683-2.9031162.9179802-.5126711-.2775453-.939291-.5336789-1.2596599-.7685016-.2561335-.1708904-.3203689-.4270239-.1708904-.7045692.1494786-.3415787.4056121-.3843013.7045692-.1707894.2775453.1707894.6403339.3628895,1.0673578.6191241.3842003.2348227.5336789.2562345.7473928-.106756l.2775453-.6617457c.3627885-1.046148.8112242-2.3484295,1.0887696-3.7147444.2989571-1.4303483.4056121-2.8820074,0-4.0775329-.4056121-1.2169373-1.4305503-1.3022815-2.3270177-1.3450041-.9182832,3.2449979-3.0529987,8.7957027-3.7361562,10.5462179-.1280668.3415787-.4056121.4270239-.7045692.2562345l-.7045692-.3843013c-.2985531-.1707894-.3627885-.4056121-.2347218-.72588.6617457-1.4303483,2.6259748-5.8708717,3.6080894-9.5642043-.9182832.106756-1.9214056.2988561-3.3943755.72588-.3631925.106756-.5979143-.0427226-.6621497-.4056121l-.0210078-.1707894c-.0428236-.3415787.106655-.5550907.4480317-.6404349,1.8361624-.4056121,2.8821084-.5765025,4.0137015-.7045692.5122671-2.0280606.9178792-3.9494661,1.0887696-4.8674463.0638314-.3415787.2989571-.4910573.6403339-.4056121l.7473928.1921002c.3413767.0853442.4694435.2988561.3842003.6404349Zm6.468786,11.7417435c-.5979143-3.9921887-1.1744167-6.1910387-2.9887634-7.9629657-.2351257-.2349237-.2775453-.4697465-.0856472-.7471908.1708904-.2562345.4270239-.2989571.6831575-.0854452,2.5617394,2.0921949,3.5224422,4.7393796,4.2270115,8.4114014.0642354.3415787-.0852432.5550907-.4270239.6404349l-.7898124.1921002c-.3413767.0854452-.5550907-.0853442-.6189221-.4483347Zm.8750556-8.454023c0,.3628895-.21331.5336789-.5765025.5336789h-.0424196c-.3842003,0-.5550907-.1707894-.5550907-.5336789v-2.3697403c0-.3628895.1708904-.5336789.5550907-.5336789h.0424196c.3631925,0,.5765025.1707894.5765025.5336789v2.3697403Zm1.8361624,0c0,.3628895-.1708904.5336789-.5550907.5336789h-.0428236c-.3627885,0-.5765025-.1707894-.5765025-.5336789v-2.3697403c0-.3628895.213714-.5336789.5765025-.5336789h.0428236c.3842003,0,.5550907.1707894.5550907.5336789v2.3697403Z"/>
          <path class="cls-13" d="m75.525785,234.5639383v-19.6603706c0-.5361029.2981491-.83405.834252-.83405h.9235351c.5361029,0,.833848.2979471.833848.83405v8.2514189h7.8641886v-8.2514189c0-.5361029.2977451-.83405.834252-.83405h.9231312c.5365069,0,.834252.2979471.834252.83405v19.6603706c0,.5362039-.2977451.83405-.834252.83405h-.9231312c-.5365069,0-.834252-.2978461-.834252-.83405v-9.9195189h-7.8641886v9.9195189c0,.5362039-.2977451.83405-.833848.83405h-.9235351c-.5361029,0-.834252-.2978461-.834252-.83405Z"/>
          <path class="cls-14" d="m102.3349681,224.9720602c0-2.6809183-.7445649-3.4851736-2.7702014-3.4851736-1.1319972,0-2.3532774.2680514-3.7830197.8936394-.5958943.2382567-.9833266,0-.9833266-.625588,0-.4766144.1789703-.7744606.62579-.9532289,1.2806677-.5064091,2.710814-.7744606,4.1405563-.7744606,4.0213775,0,5.3024492,1.4894327,5.3024492,5.5406049v8.9960848c0,.5362039-.2981491.83405-.834252.83405h-.7445649c-.5361029,0-.834252-.2978461-.8641477-.83405v-.8936394c-.9231312,1.251075-2.4126649,2.0256366-4.2298395,2.0256366-2.5318437,0-4.1106606-1.9064577-4.1106606-4.4682982,0-2.9788654,2.1743072-5.2427588,7.1192198-5.2427588h1.1319972v-1.0128183Zm-1.1319972,2.2341996c-3.0085592,0-4.587376,1.251075-4.587376,3.8427102,0,2.0255356.8641477,3.1873275,1.9363534,3.1873275,2.1149197,0,3.7830197-2.0256366,3.7830197-5.421527v-1.6085106h-1.1319972Z"/>
          <path class="cls-12" d="m112.2837767,241.9515125h-.8637437c-.5361029,0-.834252-.2979471-.834252-.834151v-19.9582167c0-.5362039.2981491-.83405.834252-.83405h.7445649c.5365069,0,.834252.2978461.8641477.83405v.6553827c.9530269-1.1319972,2.3233817-1.7872789,3.8723029-1.7872789,3.4553789,0,5.4810155,2.9489697,5.4810155,7.8342929,0,4.7363496-2.1448154,7.8343939-5.4810155,7.8343939-1.5190254,0-2.8594846-.5957933-3.7830197-1.5788169v7.0002429c0,.5362039-.2981491.834151-.834252.834151Zm4.2003477-7.6258309c1.9658452,0,3.3660957-2.2044049,3.3660957-6.46414,0-4.3193246-1.2810717-6.464039-3.3660957-6.464039-1.7278914,0-3.3660957,1.8468683-3.3660957,4.3491193v4.2299405c0,2.5319447,1.6681,4.3491193,3.3660957,4.3491193Z"/>
          <path class="cls-11" d="m129.1437471,241.9515125h-.8637437c-.5361029,0-.834252-.2979471-.834252-.834151v-19.9582167c0-.5362039.2981491-.83405.834252-.83405h.7445649c.5365069,0,.834252.2978461.8641477.83405v.6553827c.9530269-1.1319972,2.3233817-1.7872789,3.8723029-1.7872789,3.4553789,0,5.4810155,2.9489697,5.4810155,7.8342929,0,4.7363496-2.1448154,7.8343939-5.4810155,7.8343939-1.5190254,0-2.8594846-.5957933-3.7830197-1.5788169v7.0002429c0,.5362039-.2981491.834151-.834252.834151Zm4.2003477-7.6258309c1.9658452,0,3.3660957-2.2044049,3.3660957-6.46414,0-4.3193246-1.2810717-6.464039-3.3660957-6.464039-1.7278914,0-3.3660957,1.8468683-3.3660957,4.3491193v4.2299405c0,2.5319447,1.6681,4.3491193,3.3660957,4.3491193Z"/>
          <path class="cls-2" d="m144.2463344,220.3250947h.833848c.5066111,0,.8043563.2383577.9534309.7149721l3.1875294,10.9919267,3.544662-11.0217214c.1490746-.4766144.4468197-.6851774.9235351-.6851774h.7146692c.62579,0,.8936394.3574356.6851774.9532289l-6.7915789,19.9880114c-.1789703.4766144-.4767154.6851774-.9534309.6851774h-.7146692c-.62579,0-.8641477-.3872303-.6556857-.9532289l1.9662492-5.4811165-4.378914-14.2388435c-.1785663-.5957933.0892831-.9532289.6851774-.9532289Z"/>
          <path class="cls-4" d="m166.9133451,219.2678369v.0214118c0,.3415787-.1918982.5336789-.5336789.5336789h-1.9424134c-.8754596,3.2236871-1.878986,6.0416611-3.6080894,9.9698164-.1494786.3202679-.4056121.4270239-.725981.2562345l-.6831575-.3629905c-.2985531-.1707894-.3627885-.4056121-.2347218-.725779,1.6224485-3.4798206,2.6687984-6.1911397,3.4586109-9.1372814h-2.5831512c-.3417807,0-.5336789-.1921002-.5336789-.5336789v-.0214118c0-.3415787.1918982-.5336789.5336789-.5336789h2.8606966c.1918982-.832636.3842003-1.7078936.5760985-2.6472856.0642354-.3415787.2989571-.4909563.6407379-.4056121l.725577.1707894c.3203689.0854452.4698475.2989571.3846043.6405359-.1708904.7899134-.3417807,1.5584151-.5126711,2.2415725h1.6438602c.3417807,0,.5336789.1921002.5336789.5336789Zm3.5014344-.4483347c1.5796249.8540478,2.8821084,2.0494724,4.2270115,3.5652658.21331.2562345.21331.5123681-.0214118.7471908l-.4694435.5123681c-.213714.2348227-.4484357.2562345-.7473928.0854452-.725981-.4056121-1.4091385-.6404349-1.9642292-.6618467-.725577-.0427226-1.0245342.4696455-1.1311892,1.4517601-.0428236.4909563-.0428236,1.1100804-.0214118,1.8145486,0,.6831575.0638314,1.4304493.106655,2.2629843.4270239.1922012,2.1137077,1.2169373,3.6290972,2.5191179.2565375.213512.2775453.4910573.0856472.7472918l-.4270239.5549897c-.213714.2989571-.4908553.3202679-.7684006.0427226-1.1744167-1.152803-1.9642292-1.8572712-2.4979081-2.3697403v.7899134c-.0214118.3415787-.106655.7045692-.2561335,1.0674588-.7045692,1.5584151-2.5193199,1.878683-3.864223,1.7293054-.6403339-.0854452-1.3877267-.2989571-2.0066488-.8753586-1.3877267-1.3450041-.8112242-3.6078874.7684006-4.3978009,1.2168363-.5978133,2.5403277-.5336789,3.6295012-.2562345-.0214118-.8539468-.0856472-1.5797259-.0856472-2.1988499-.0214118-.6831575.0214118-1.2595589.1708904-1.771927.3842003-1.3663149,1.5582131-1.878683,2.6683944-1.878683.2989571,0,.7688046.0853442.9182832.106756-.5765025-.8540478-1.4305503-1.7293054-2.4764963-2.4764963-.2775453-.213512-.3417807-.4483347-.1923022-.7471908l.0642354-.106756c.1704864-.3202679.4056121-.4056121.6617457-.2562345Zm-4.803514,10.4608737c-.6831575.4270239-.9178792,1.6225494-.3203689,2.3697403.2561335.3202679.6621497.4696455,1.1530049.5336789.939291.106756,1.9428174-.3201669,2.1775391-1.0887696.0852432-.2561335.106655-.5336789.106655-.832535v-.9180812c-.9821146-.4269229-2.0922959-.6831575-3.1168301-.0640334Z"/>
          <path class="cls-4" d="m184.4197093,237.2459676h-.8148602c-.5058032,0-.7865805-.2809793-.7865805-.7866815v-12.3906622c-.3373368.6743705-.730829,1.3767178-1.1800727,2.1353215-.309057.5338809-.7869845.5058032-1.0960415,0l-.2246218-.3652125c-.2246218-.3653135-.2246218-.7024483,0-1.0676608,1.882622-3.1187491,3.3151922-7.0241797,4.1862079-11.6039808.0844352-.5057022.421772-.730526.9271711-.6461918l.6463938.1124119c.5058032.0842332.730425.3932902.6463938.8990934-.3656165,1.9667542-.8431399,3.9054306-1.5174095,5.9002625v17.0266188c0,.5057022-.2807773.7866815-.7865805.7866815Zm16.6612043-10.9296102c0,.5057022-.2807773.7586037-.7865805.7586037h-4.8608814v7.6985502h6.0971096c.5058032,0,.7865805.2808783.7865805.7866815,0,.4776244-.2807773.730526-.7865805.730526h-14.8068621c-.5058032,0-.7869845-.2809793-.7869845-.7867825,0-.4776244.2811813-.730425.7869845-.730425h6.2934517v-7.6985502h-5.0855033c-.5058032,0-.7865805-.2809793-.7865805-.7866815,0-.4495467.2807773-.7024483.7865805-.7024483h5.0855033v-6.4341433h-6.0126744c-.5058032,0-.7865805-.2809793-.7865805-.7866815,0-.4776244.2807773-.730526.7865805-.730526h14.2170277c.5058032,0,.7865805.2809793.7865805.7866815,0,.4777254-.2807773.730526-.7865805.730526h-5.7880525v6.4341433h4.8608814c.5058032,0,.7865805.2529016.7865805.730526Zm-4.1021767-9.9461827c-1.9949329-1.0958395-3.9894618-1.9105987-6.0967056-2.5287128-.4779274-.1404897-.6746735-.4495467-.5340829-.9553498l.0282797-.0561555c.1123109-.5057022.4492437-.7024483.9550468-.5619586,2.1633993.5900363,4.2989228,1.4329743,6.3778869,2.5287128.421772.2248238.5619586.5619586.3934922,1.039583l-.0561555.1685674c-.1967461.5058032-.5902383.6181141-1.0677618.3653135Z"/>
          <path class="cls-4" d="m222.3808015,230.9669587c.2565375.213512.2989571.4696455.107059.7471908l-.5336789.72588c-.213714.2988561-.4912593.3201669-.7688046.0640334-1.878582-1.7293054-3.2448969-2.4978071-3.4371991-2.6258738,0,.3843013-.0638314.7899134-.1918982,1.1741137-.6193261,1.9214056-2.6473866,2.4124629-4.1631801,2.3484295-1.3877267-.0640334-3.9280544-1.0034254-3.3729637-3.4798206.4270239-1.9641282,2.7326298-2.1776401,4.1203565-2.1776401.725577,0,1.4515581.0854452,1.9214056.2348227v-4.5685902h-5.3371928c-.3417807,0-.5336789-.1921002-.5336789-.5336789v-.0214118c0-.3415787.1918982-.5336789.5336789-.5336789h5.3157811v-3.0955193h-5.9136953c-.3413767,0-.5336789-.1922012-.5336789-.5337799v-.0213108c0-.3415787.1923022-.5337799.5336789-.5337799h5.9136953v-2.1135057c0-.3415787.1918982-.5336789.5336789-.5549897h.7684006c.3417807,0,.5336789.1921002.5336789.5336789v2.1348165h4.2484233c.3417807,0,.5336789.1922012.5336789.5337799v.0213108c0,.3415787-.1918982.5337799-.5336789.5337799h-4.2694311v3.0955193h3.6933326c.3413767,0,.5336789.1921002.5336789.5336789v.0214118c0,.3415787-.1923022.5336789-.5336789.5336789h-3.7147444v4.9742023c1.985237.7472918,3.757164,1.985439,4.5469764,2.5832522Zm-10.8662839-.7686026c-.1494786,1.2595589.9821146,1.665272,1.9214056,1.6865828,1.0245342.0213108,2.0708842-.1921002,2.4550845-1.4730709.106655-.3202679.106655-.7044682.106655-1.046047-.5122671-.2348227-1.1954245-.4056121-1.878582-.4270239-.8540478-.0426216-2.4764963.106756-2.604563,1.2595589Z"/>
          <path class="cls-4" d="m232.4358611,218.4993352c-.1923022,2.1775391-.3842003,3.9068446-.3203689,5.6787716.0428236,1.6438602.107059,3.5865766,1.771927,5.7854266.0856472-.4483347.1494786-1.0247362.3417807-1.665171.21331-.6831575.4484357-1.2168363.7045692-1.7292044.1708904-.3415787.3627885-.6831575.5765025-1.046148.1704864-.3201669.4266199-.3842003.7041653-.213512.2565375.1922012.3417807.3843013.213714.5978133-.3417807.5764015-.6831575,1.3450041-.9607028,2.2415725-.3842003,1.3663149-.3417807,2.4124629-.2561335,2.9674526.0424196.2775453,0,.4910573-.213714.6831575l-.5336789.4910573c-.2347218.2348227-.4908553.2348227-.7469888.0214118-1.5586171-1.3663149-2.6473866-3.1383429-3.0529987-5.4439488-.2561335-1.4730709-.3413767-2.9461418-.2989571-4.4192126.0214118-1.3022815.1494786-2.6258738.2775453-4.0349113.0214118-.3415787.213714-.5123681.5550907-.4696455h.725981c.3627885,0,.5336789.1921002.5122671.5550907Zm10.9947546,9.3293816c-.3631925-3.4585099-1.3024835-5.2731595-3.1172341-7.1731533-.2347218-.2348227-.2561335-.4697465-.0638314-.7045692.1918982-.2348227.6403339-.213411,1.2596599.213512,3.1596537,2.0921949,3.7999876,5.9776277,3.9280544,7.3653544.0214118.3415787-.1494786.5336789-.4698475.5977123l-.9178792.1707894c-.3627885.0427226-.5765025-.106756-.6189221-.4696455Z"/>
        </g>
        <g>
          <path class="cls-10" d="m161.5454643,17.672763s7.4777586-21.7152924,27.3477684-17.0036374c19.8728803,4.7124219,18.8469987,21.9202183,17.0038296,29.70302-1.8460551,7.7979271-14.3404868,20.8960825-25.6067796,28.2708886-11.2670597,7.374806-18.1288293,15.3636839-18.7448183,18.0277935-.613305-2.6641096-7.4777586-10.6529875-18.7440515-18.0277935-11.2670597-7.374806-23.7597709-20.4729615-25.6075465-28.2708886-1.8431743-7.7828017-2.8673305-24.9905982,17.0045964-29.70302,19.8692429-4.711655,27.3470015,17.0036374,27.3470015,17.0036374Z"/>
          <g>
            <g>
              <g>
                <path class="cls-15" d="m68.5395746,81.8207644h1.2959389c.4196399,0,.955444.0757757.9547476.5703895.0006964.4984895.0006964,4.5039124.0006964,4.5039124,0,0-1.4493895.5337713-4.0824295.5325685-2.6304727,0-6.1393051-1.4493614-6.1393051-5.4541161s3.6622269-5.5689157,6.3702407-5.5689157c1.2189604,0,2.7446321.0769785,2.7446321.7621677l.0006682,1.3338936c-1.0303897-.8379434-1.449896-.9893612-3.0140289-.9893612-1.5636264-.0006682-4.3669559,1.0297215-4.3662877,4.3682644,0,3.33587,3.7567127,5.319671,6.8843664,4.0602167,0,0-.0005346-2.021622,0-2.5553933,0-.5337713-.0384893-1.5636264-.6492391-1.5636264Z"/>
                <path class="cls-15" d="m88.1827315,87.160081h3.3176945c-.9155615-.3419932-1.2967408-1.4486932-1.6027839-2.2500184-.3033703-.8013251-2.7061428-6.6365919-2.9742312-7.4379171-.2663225-.8013251-.6448288-.8013251-.9515402-.8013251h-1.9080251c.9167929.3041721.4189717.9540794.2675539,1.4122086-.1532888.4567927-3.358723,8.3918628-3.358723,8.3918628-1.1053636-.3067113-3.8891532-4.3865736-3.8891532-4.3865736,3.6999427-1.0682108,3.1296584-5.4174979-.493411-5.4174979h-4.1587117c.841819.1919118.7621676,1.068879.7621676,1.7554046v7.209387c0,.9919005-.3053749,1.2581179-.7986523,1.524469l3.0493388-.0013364c-.8352705-.3798142-.6100816-1.2567815-.6100816-1.6770896-.0013364-.4203081-.0013364-7.7804448-.0013364-7.7804448h1.6418077c.8757644,0,1.5243353,1.067008,1.5243353,1.7952303,0,1.1791347-.9154565,1.6365957-1.8310466,1.9811281-.9149219.3419932-.4189717,1.1067,0,1.7169153.4215109.6100816,1.6411395,2.3249922,2.3648179,3.1642721.7243466.8404826,1.3730511.7999887,1.7189199.7999887h2.7446321c-1.0663397-.3406567-.4966184-1.1818076-.3445039-1.6014475.1525922-.4176353.8391177-2.2108609.8391177-2.2108609h4.1182177s.4972867,1.2947361.9540794,2.4405937c.457461,1.1439865.114265,1.2986118-.3804824,1.3730511Zm-4.2715066-5.0351444l1.564161-4.081065,1.6776241,4.0817332-3.2417851-.0006682Z"/>
                <path class="cls-15" d="m121.5896763,87.1587445h3.3182291c-.9142537-.3406567-1.2946025-1.4473568-1.6006456-2.2486819-.3041721-.8001223-2.7074498-6.6365919-2.9763695-7.4379171-.2662174-.8013251-.6460316-.8013251-.9514065-.8013251h-1.9061541c.9187976.3053749.4183035.9540794.2656828,1.4122086-.1540907.4567927-3.3573865,8.3918628-3.3573865,8.3918628-.2140673.4919409-.52602.5037015-.7204709.6851891.3438642-.0013364,2.7446321,0,2.7446321,0-1.0668743-.341325-.4966184-1.1818076-.3452006-1.6027839.1527543-.4176353.838478-2.2108609.838478-2.2108609h4.119049s.497153,1.2960726.9539163,2.4405937c.4581292,1.1433183.1149332,1.2986118-.3823534,1.3717147Zm-4.2682991-5.033808l1.5614881-4.081065,1.678426,4.081065h-3.2399141Z"/>
                <path class="cls-15" d="m109.8522169,87.3511909c.3829925-.3418595.7243466-.6094134.7243466-1.8317149v-7.209387c0-.5703895-.0366474-1.2189604-.7243466-1.4473568h2.9371829c-.3048403.2662174-.6682164.6094134-.6682164,1.3729175v7.2824899c0,.6500409-.1325741,1.6039867.7053692,1.8323831l-2.9743358.0006682Z"/>
                <path class="cls-15" d="m94.0576901,79.1127505s-.0384893,5.7588228-.0384893,6.405389c0,.6500409.078315,1.6039867.9155901,1.8323831l-2.7857942.0006682c.3830503-.3425277.687862-.6094134.687862-1.8330513,0-1.2201632.0763103-6.6357901.0763103-7.2080506,0-.5715923-.0763103-1.2189604-.7641723-1.4473568h2.1391231l6.4055227,8.0473304v-6.5614844c0-.4196399.0756132-1.2196286-.8020222-1.5243353l2.8633073.0006682c-.3438642.2662174-.8397855.3796806-.8397855,1.4851778v9.4620783s-.8026905.1512842-2.0979612-1.4128768c-1.2979147-1.5621564-5.7594909-7.2465399-5.7594909-7.2465399Z"/>
                <path class="cls-3" d="m112.2776797,95.4775045c-8.3839777-7.0762783-11.5932874-15.3977111-.1186752-26.754183.356293-.358164.6981525-.1447357.4162988.1782801-5.0344761,5.7509379-10.6386735,14.9473333-.1200117,26.2182734.1689251.1762755.1043754.5468683-.1776119.3576294Z"/>
              </g>
              <path class="cls-15" d="m127.6506665,87.6232886c-.2813191,0-.5455319-.0534573-.7909009-.1605056-.2460077-.1070483-.460802-.2519176-.6448288-.4358108-.1833586-.1834922-.3281984-.3981233-.435113-.6441606-.1070778-.2460373-.1606688-.5095818-.1606688-.790901,0-.277978.053591-.5403198.1606688-.7863571.1069146-.2453691.2517544-.459332.435113-.6413541.1840268-.1814876.3988211-.3256887.6448288-.432737.2453691-.1069146.5095818-.1605056.7909009-.1605056.277978,0,.5396516.053591.7856889.1605056.2459036.1070483.4606684.2512494.644027.432737.1840268.1820222.3282279.3959851.4332715.6413541.1050436.2460373.1579664.5083791.1579664.7863571,0,.2813191-.0529227.5448637-.1579664.790901s-.2492447.4606684-.4332715.6441606c-.1833586.1838932-.3981233.3287625-.644027.4358108-.2460373.1070483-.5077108.1605056-.7856889.1605056Zm0-.2675539c.2459036,0,.4730972-.0455724.6811798-.1363162.2088844-.0907438.3876992-.2152993.5378102-.3739339.1493836-.1585009.266856-.3452006.3522541-.5586289.0861999-.2139629.1285648-.4457004.1285648-.6949451,0-.2460373-.0423649-.4756365-.1285648-.689733-.0853981-.2139629-.2028705-.3993261-.3522541-.5559561-.150111-.1566299-.3289257-.2806509-.5378102-.371261-.2080826-.091412-.4352762-.1364498-.6811798-.1364498-.2460373,0-.4737654.0450378-.6845209.1364498-.2102209.0906101-.3909066.2146311-.5423244.371261s-.2700931.3419932-.3556248.5559561c-.0855317.2140965-.1278966.4436957-.1278966.689733,0,.2492447.0423649.4809822.1278966.6949451.0855317.2134283.2042069.400128.3556248.5586289.1514178.1586346.3321036.2831901.5423244.3739339.2107555.0907438.4384836.1363162.6845209.1363162Zm1.0100759-.63093h-.3314353l-.6466998-1.0421503h-.5077108v1.0421503h-.277978v-2.2611107h.9885594c.2996282,0,.5084086.0534573.6258515.1605056.1174724.1070483.1761418.253254.1761418.4384836,0,.1102557-.0175073.2048752-.0534573.2831901-.0352818.078315-.0855317.1416619-.1494132.1899071-.0639855.0477107-.1396572.0835271-.2270303.1070483-.0875659.022853-.180849.0364846-.2806509.0398257l.6838231,1.0421503Zm-1.0636669-1.261459h.2564615c.0927484,0,.1795125-.0104242.2598025-.0319407.0795178-.0215166.1454039-.0606741.197688-.1174724.0515567-.0574666.0769489-.1428647.0769489-.2571297,0-.0887391-.0163045-.1591692-.0502203-.2107555-.033975-.0515863-.0776763-.0907438-.1311337-.1174724-.053591-.0267287-.114265-.0450378-.1820222-.0534573-.0672226-.0092214-.1351134-.0137653-.2030041-.0137653h-.6466998v.8019934h.4221791Z"/>
            </g>
            <path class="cls-6" d="m61.4640751,115.7243403c.3760591,0,1.1745264.4229349,1.1745264,2.443331,0,5.2163722-2.6782363,8.8347563-6.8607092,8.8347563-6.1554666,0-7.7065789-4.6991592-7.7065789-10.9963064v-10.4785667c0-6.202869-1.3156803-11.0900578-5.4507508-11.0900578-5.4981532,0-8.4112948,5.403875-8.4112948,13.0635782v16.352779c0,2.0203962-1.2219289,2.8662659-2.3027039,2.8662659-1.3156803,0-1.9266447-.6578401-1.9266447-.6578401v-20.5347252c0-6.202869-1.3156803-11.0900578-5.4507508-11.0900578-6.0148395,0-8.4586972,6.5315258-8.4586972,15.3188797v6.0148395c0,7.2836441-2.1141476,12.6406434-7.7060522,12.6406434-4.7465616,0-7.2367683-2.5844849-7.2367683-6.2497448,0-2.960544,1.1745264-3.6183842,2.3495796-3.6183842,1.2219289,0,1.6917394,1.080775,1.6917394,1.080775,0,0-.3760591.9870236-.3760591,2.6313606,0,3.1954493,1.6917394,4.2293486,3.5715084,4.2293486,1.9266447,0,3.3360765-1.7854909,3.3360765-7.8946085v-18.1851456c0-3.6652599-1.6448637-6.0148395-3.9939166-6.0148395-2.396982,0-4.3236267,1.3156803-4.3236267,6.9544606,0,.9401479.3760591,1.6917394.3760591,1.6917394,0,0-.4229349.5640887-1.644337.5640887-.7521183,0-2.1146743-.6109644-2.1146743-3.0074197,0-4.9340645,3.242325-8.3644191,8.2701409-8.3644191,4.6522835,0,6.6726796,2.725112,7.3773955,6.7664311,1.3630827-4.0881947,4.558532-6.9075849,8.8816321-6.9075849,4.8871887.0468757,7.7534546,3.0074197,8.9753835,7.6128275,1.2214022-4.4642539,4.5580053-7.6128275,9.1160107-7.6128275,6.7669578.0468757,9.7269751,5.6861827,9.7269751,13.4396374v13.2984835c0,3.6652599,1.6448637,6.0148395,3.9944433,6.0148395,2.5844849,0,4.4168515-2.0677986,4.4168515-8.8347563,0,0,.0474024-.281781.7052426-.281781Z"/>
            <path class="cls-8" d="m86.743255,114.8784706c.3760591,0,.8458697.4698106.8458697,2.4907334,0,5.2158455-2.3495796,8.7873539-6.5320525,8.7873539-3.242325,0-5.3095969-1.5037099-6.2966205-4.1824729-1.1276507,2.4438577-3.242325,4.1824729-5.9679638,4.1824729-5.1689698,0-8.2232652-3.1016979-8.2232652-10.7608744,0-7.6597032,4.1350705-10.6202472,9.3514426-10.6202472,2.3964553,0,3.805887.5640887,4.604881,1.362556.4229349-.9396212,1.2688046-1.362556,2.16155-1.362556,1.3156803,0,1.7854909.6578401,1.7854909.6578401v13.4865131c0,3.6652599,1.2688046,5.403875,3.1485736,5.403875,2.5844849,0,4.4173782-2.3964553,4.4173782-9.1634131,0,0,.0468757-.281781.7047159-.281781Zm-12.5468919,3.1016979v-6.4377743c0-3.1016979-1.9266447-4.9340645-3.8527628-4.9340645-3.1016979,0-5.3101236.9396212-5.3101236,8.7873539,0,7.8472061,2.0203962,8.9279811,4.3231,8.9279811,1.5974613,0,4.8397863-2.16155,4.8397863-6.3434962Z"/>
            <path class="cls-6" d="m98.0671647,112.0122047c0-4.1350705-1.1281774-5.5919046-2.8199169-5.5919046-2.9131416,0-4.8397863,2.4902067-4.8397863,11.7004955v7.3779222s-.4698106.6578401-1.7854909.6578401c-1.2688046,0-2.4438577-.8458697-2.4438577-2.8667926v-17.8564889s.4698106-.6578401,1.7860176-.6578401c1.2682779,0,2.443331.8458697,2.443331,2.8662659,1.0338993-1.8323666,2.7256387-2.8662659,5.403875-2.8662659,2.7725144,0,4.9809402,1.2688046,6.0148395,3.8064137,1.0338993-2.4438577,2.9136683-3.8064137,5.9679638-3.8064137,3.9470409,0,6.6726796,2.5376092,6.6726796,7.4716736v6.6726796c0,3.6652599,1.2688046,5.403875,3.1485736,5.403875,2.1141476,0,4.4168515-1.9266447,4.4168515-9.1634131,0,0,.0468757-.281781.7047159-.281781.3760591,0,.8458697.4698106.8458697,2.4907334,0,5.2158455-2.3495796,8.7873539-6.5315258,8.7873539-4.7460349,0-7.001863-3.2897274-7.001863-8.6467268v-5.4976265c0-4.1350705-1.1276507-5.5919046-2.8193902-5.5919046-2.443331,0-4.7929106,2.443331-4.7929106,11.7947737v7.2836441s-.4698106.6578401-1.7854909.6578401c-1.2688046,0-2.5844849-.8458697-2.5844849-2.8667926v-11.2775607Z"/>
            <path class="cls-8" d="m148.2526257,114.8784706c.3760591,0,.8458697.4698106.8458697,2.4907334,0,5.2158455-2.3495796,8.7873539-6.5320525,8.7873539-3.242325,0-5.3095969-1.5037099-6.2966205-4.1824729-1.1276507,2.4438577-3.242325,4.1824729-5.9679638,4.1824729-5.1689698,0-8.2232652-3.1016979-8.2232652-10.7608744,0-7.6597032,4.1350705-10.6202472,9.3514426-10.6202472,2.3964553,0,3.805887.5640887,4.604881,1.362556.4229349-.9396212,1.2688046-1.362556,2.16155-1.362556,1.3156803,0,1.7854909.6578401,1.7854909.6578401v13.4865131c0,3.6652599,1.2688046,5.403875,3.1485736,5.403875,2.5844849,0,4.4173782-2.3964553,4.4173782-9.1634131,0,0,.0468757-.281781.7047159-.281781Zm-12.5468919,3.1016979v-6.4377743c0-3.1016979-1.9266447-4.9340645-3.8527628-4.9340645-3.1016979,0-5.3101236.9396212-5.3101236,8.7873539,0,7.8472061,2.0203962,8.9279811,4.3231,8.9279811,1.5974613,0,4.8397863-2.16155,4.8397863-6.3434962Z"/>
            <path class="cls-8" d="m152.0579861,104.0707205c-1.2688046,0-2.2089524-.8458697-2.2089524-2.8667926l-.0468757-8.5519219s.2349053-.6578401,1.5505856-.6578401c1.2688046,0,2.2089524.8458697,2.2089524,2.8662659l.0468757,8.5524486s-.2349053.6578401-1.5505856.6578401Z"/>
            <path class="cls-6" d="m155.9576246,109.6626251c.0468757-2.9136683,2.4902067-4.8871887,7.8472061-4.8871887,5.122094,0,7.9414842,2.2084257,7.9414842,4.3699758,0,1.2219289-1.080775,1.879769-2.0203962,1.879769-1.1281774,0-1.4099584-.563562-1.4099584-.563562,0,0,.281781-.3291834.281781-1.080775,0-1.6917394-2.5370825-2.7725144-4.604881-2.7725144-2.3495796,0-4.2293486.7984673-4.2293486,2.5844849,0,5.122094,12.9698268,3.7590113,12.9698268,10.9957797,0,4.1819462-4.1355972,5.9679638-9.4451941,5.9679638-5.8268099,0-9.5863479-3.8532895-9.5863479-8.5993244,0-1.7860176.798994-2.8193902,1.879769-2.8193902,1.1276507,0,1.3156803.563562,1.3156803.563562,0,0-.281781.7047159-.281781,1.7386152,0,3.9944433,2.443331,7.2836441,6.9075849,7.2836441,3.2892007,0,4.9809402-1.0338993,5.0278159-3.524106.0468757-5.4512775-12.7343948-3.8532895-12.593241-11.1369335Z"/>
            <path class="cls-6" d="m243.1232878,114.8784706c.3760591,0,.8458697.4698106.8458697,2.4907334,0,5.2158455-2.3495796,8.7873539-6.5320525,8.7873539-3.242325,0-5.3095969-1.5037099-6.2966205-4.1824729-1.1276507,2.4438577-3.242325,4.1824729-5.9679638,4.1824729-5.1689698,0-8.2232652-3.1016979-8.2232652-10.7608744,0-7.6597032,4.1350705-10.6202472,9.3514426-10.6202472,2.3964553,0,3.805887.5640887,4.604881,1.362556.4229349-.9396212,1.2688046-1.362556,2.16155-1.362556,1.3156803,0,1.7854909.6578401,1.7854909.6578401v13.4865131c0,3.6652599,1.2688046,5.403875,3.1485736,5.403875,2.5844849,0,4.4173782-2.3964553,4.4173782-9.1634131,0,0,.0468757-.281781.7047159-.281781Zm-12.5468919,3.1016979v-6.4377743c0-3.1016979-1.9266447-4.9340645-3.8532895-4.9340645-3.1011712,0-5.3095969.9396212-5.3095969,8.7873539,0,7.8472061,2.0203962,8.9279811,4.3231,8.9279811,1.5974613,0,4.8397863-2.16155,4.8397863-6.3434962Z"/>
            <path class="cls-8" d="m254.118014,126.1091556c-2.3964553,0-5.4981532-1.4563075-5.4981532-6.2966205,0-5.6856561,3.1954493-9.3040402,7.6597032-11.512466-.9864969-1.3630827-2.2553015-1.6917394-3.4303546-1.6917394-2.3027039,0-6.1085909,2.2553015-6.1085909,8.6462001v27.9595231s-.4698106.6578401-1.7860176.6578401c-1.2688046,0-2.443331-.8458697-2.443331-2.8662659v-35.5723506s.4698106-.6578401,1.7854909-.6578401c1.2688046,0,2.4438577.8458697,2.4438577,2.8662659v1.0338993c1.4094317-2.2553015,3.805887-3.9001652,6.6726796-3.9001652,2.3964553,0,4.5111296.7047159,6.0617152,2.2558281,3.4772303-1.1281774,7.4247979-1.597988,11.0426554-1.597988,1.080775,0,1.2688046.7047159,1.2688046,1.0338993,0,.3760591-.281781.7047159-.281781.7047159-2.7725144,0-6.8607092.3760591-10.7139987,1.597988.9870236,1.6917394,1.5505856,3.9939166,1.5505856,6.9075849,0,6.5315258-3.3829522,10.4316909-8.2232652,10.4316909Zm3.1011712-15.835566c-3.524106,1.9266447-6.2023424,4.9340645-6.2023424,9.6800994,0,2.960544,1.5037099,4.3231,3.0074197,4.3231,2.3964553,0,3.8532895-1.6448637,3.8532895-8.5993244,0-2.3495796-.2823077-4.0881947-.6583668-5.403875Z"/>
            <path class="cls-6" d="m279.9154604,126.1091556c-2.3964553,0-5.4981532-1.4563075-5.4981532-6.2966205,0-5.6856561,3.1954493-9.3040402,7.6597032-11.512466-.9864969-1.3630827-2.2553015-1.6917394-3.4303546-1.6917394-2.3027039,0-6.1085909,2.2553015-6.1085909,8.6462001v27.9595231s-.4698106.6578401-1.7860176.6578401c-1.2688046,0-2.443331-.8458697-2.443331-2.8662659v-35.5723506s.4698106-.6578401,1.7854909-.6578401c1.2688046,0,2.4438577.8458697,2.4438577,2.8662659v1.0338993c1.4094317-2.2553015,3.805887-3.9001652,6.6726796-3.9001652,2.3964553,0,4.5111296.7047159,6.0617152,2.2558281,3.4772303-1.1281774,7.4242712-1.597988,11.0426554-1.597988,1.080775,0,1.2693313.7047159,1.2693313,1.0338993,0,.3760591-.2823077.7047159-.2823077.7047159-2.7725144,0-6.8607092.3760591-10.7139987,1.597988.9870236,1.6917394,1.5505856,3.9939166,1.5505856,6.9075849,0,6.5315258-3.3834789,10.4316909-8.2232652,10.4316909Zm3.1011712-15.835566c-3.524106,1.9266447-6.2023424,4.9340645-6.2023424,9.6800994,0,2.960544,1.5037099,4.3231,3.0074197,4.3231,2.3964553,0,3.8527628-1.6448637,3.8527628-8.5993244,0-2.3495796-.2812543-4.0881947-.6578401-5.403875Z"/>
            <path class="cls-8" d="m306.9343089,107.6417023c0-2.0203962,1.1755798-2.8662659,2.4438577-2.8662659,1.3156803,0,1.7854909.6578401,1.7854909.6578401v23.8713283c.5646154-.0468757,1.1281774-.0468757,1.7391419-.0468757,1.080775,0,1.2682779.7047159,1.2682779,1.0338993,0,.3760591-.2812543.7047159-.2812543.7047159-.8932721,0-1.7865443,0-2.7261654.0468757v2.3495796c0,6.5320525-3.1949226,10.4322176-8.0352356,10.4322176-2.3964553,0-5.4976265-1.2688046-5.4976265-5.3569993,0-5.0278159,4.1345438-7.6123008,9.3035135-8.6462001v-7.3305198c-1.2682779,2.3495796-3.3360765,3.6652599-6.3434962,3.6652599-3.9470409,0-6.4846501-2.5376092-6.4846501-7.4716736v-11.0431821c0-2.0203962,1.1745264-2.8662659,2.4438577-2.8662659,1.3156803,0,1.7854909.6578401,1.7854909.6578401v13.4865131c0,4.1350705,1.127124,5.5919046,2.8188635,5.5919046,2.9136683,0,5.7799342-2.4907334,5.7799342-11.7004955v-5.1694964Zm-6.9070582,30.9674695c0,2.3021772,1.5031832,3.3829522,3.0074197,3.3829522,2.3964553,0,3.8996385-1.644337,3.8996385-10.3848152-3.805887.8458697-6.9070582,2.7256387-6.9070582,7.001863Z"/>
            <path class="cls-6" d="m311.2495316,92.6483249c0-2.078096,1.3859727-3.4640687,4.696428-3.4640687h7.3147599v-11.0877814s.2312831-1.0778829,2.3870488-1.0778829c2.078096,0,3.4640687,1.3859727,3.4640687,4.696428v7.4692363l11.0101117-.0776697s1.0787459.2312831,1.0787459,2.3870488c0,2.078959-1.3859727,3.4649317-4.696428,3.4649317l-7.3924296.0768067.0776697,10.8564983s-.2312831,1.0778829-2.3870488,1.0778829c-2.079822,0-3.4640687-1.3859727-3.4640687-4.696428l-.0776697-7.2379532h-10.934168s-1.0770199-.2304201-1.0770199-2.3870488Z"/>
            <path class="cls-8" d="m212.2767932,111.9576179h4.0734473c1.0986826,0,1.6480239.640986,1.6480239,1.3736166,0,.7321039-.4118743,1.0070379-.4118743,1.0070379h-5.3095969v8.6967626c0,1.9682535-1.1903273,2.7920021-2.2431875,2.7920021-1.2814452,0-1.8766088-.640986-1.8766088-.640986v-10.8477788h-13.4111959v2.5628904c0,7.4611398-2.1515428,11.3976468-7.2778504,11.3976468-3.0211138,0-4.8519003-2.0140758-4.8519003-5.6298265,0-6.1338722,4.027625-9.5668603,8.0099544-10.3447865v-19.1790162c0-1.9682535,1.1903273-2.7920021,2.2431875-2.7920021,1.2814452,0,1.8766088.6404593,1.8766088.6404593v21.0098027h13.4111959v-22.8864115c0-1.9682535,1.1903273-2.7920021,2.2431875-2.7920021,1.2814452,0,1.8766088.640986,1.8766088.640986v24.9916053Zm-21.6507886,5.3101236v-2.5634171c-3.3413434.7321039-5.9047605,3.5704551-5.9047605,8.101599,0,2.3801278,1.1903273,3.5704551,2.7467065,3.5704551,1.9224312,0,3.1122317-1.7849642,3.1580541-9.1086369Z"/>
            <path class="cls-8" d="m308.8476693,129.2051881h4.6783252c2.115201,0,4.4179049-1.9266447,4.4179049-9.1634131,0,0,.046349-.281781.7047159-.281781.3760591,0,.8458697.4698106.8458697,2.4907334,0,5.2158455-2.3501063,8.7873539-6.5320525,8.7873539h-3.386835"/>
            <g>
              <path class="cls-8" d="m334.2638165,76.4533504h5.2744211c-.063489-.2539558-.0320468-.4764695.0955358-.6669364.1269779-.2116299.3386078-.3180495.6354943-.3180495.2110252,0,.3912129.0743728.5399585.2225137.1269779.1269779.2013507.2860027.2225137.4764695.0205583.2122345-.021163.3924222-.1269779.5399585-.1064196.1699086-.2757235.2757235-.5085163.3180495-.4450274,1.5043861-1.0279165,2.690118-1.7474581,3.5584051-.6784249.8477288-1.6204802,1.567875-2.8279797,2.1610433l-.794519-1.0170327c2.1392757-.9741021,3.442311-2.3720685,3.9085014-4.1938994h-4.6709736v-1.0805217Zm6.2273601.0320468c.0640936-.063489.0955358-.1378617.0955358-.2225137s-.0314422-.1590247-.0955358-.2225137c-.063489-.063489-.1378617-.0955358-.221909-.0955358-.0852566,0-.1590247.0320468-.2225137.0955358s-.0955358.1378617-.0955358.2225137.0320468.1590247.0955358.2225137.1372571.0949311.2225137.0949311c.0840473,0,.1584201-.0314422.221909-.0949311Z"/>
              <path class="cls-8" d="m341.647885,79.0273743v-1.0805217h5.2109321l.0955358-.0955358.7939143.5720053c-.3174448.9747067-.7836352,1.8327147-1.3979665,2.5740239-.7413092.9106131-1.5884333,1.5352236-2.5419771,1.874436l-.7624722-.9535437c1.6095963-.6772156,2.6580712-1.6410385,3.1460292-2.890864h-4.5439957Zm.7624722-1.7480627v-1.0484748h4.321482v1.0484748h-4.321482Z"/>
              <path class="cls-8" d="m348.5234372,81.3147909c1.1228476-.4655857,2.0122977-1.0170327,2.668955-1.652527.6995879-.6560526,1.2074996-1.4505716,1.525549-2.3829524h-3.463474v-1.1119638h4.1938994l.1590247-.0949311.73103.6348896c-.5720053,1.2709885-.9958697,2.1289965-1.2709885,2.5740239.8259612.6778202,1.5993172,1.3876873,2.3194523,2.1289965l-.9535327.9849859c-.6566573-.8471241-1.3556405-1.5461074-2.0969497-2.0975544-.8054028.9323807-1.8218309,1.6634108-3.0498888,2.1924855l-.7630769-1.1754528Z"/>
            </g>
          </g>
        </g>
      </g>
    </g>
  </g>
</svg>