<?xml version="1.0" encoding="UTF-8"?>
<svg id="_レイヤー_2" data-name="レイヤー 2" xmlns="http://www.w3.org/2000/svg" viewBox="0 0 400.4995117 78.7128906">
  <defs>
    <style>
      .cls-1 {
        fill: #221714;
        stroke-width: 0px;
      }
    </style>
  </defs>
  <g id="top">
    <g>
      <path class="cls-1" d="m63.3515625,3.0234375h12.375l.28125-.2109375,1.7578125,2.0390625c-2.4379883,2.953125-4.4067383,5.109375-5.90625,6.46875l1.6171875,1.8984375-2.109375,1.6875c-1.6875-2.0625-3.515625-3.9375-5.484375-5.625l1.96875-1.8984375c.703125.703125,1.40625,1.3828125,2.109375,2.0390625,1.0776367-.9375,2.3432617-2.25,3.796875-3.9375h-10.40625v-2.4609375Z"/>
      <path class="cls-1" d="m81.3515625,3.0234375h12.375l.28125-.2109375,1.7578125,2.0390625c-2.4379883,2.953125-4.4067383,5.109375-5.90625,6.46875l1.6171875,1.8984375-2.109375,1.6875c-1.6875-2.0625-3.515625-3.9375-5.484375-5.625l1.96875-1.8984375c.703125.703125,1.40625,1.3828125,2.109375,2.0390625,1.0776367-.9375,2.3432617-2.25,3.796875-3.9375h-10.40625v-2.4609375Z"/>
      <path class="cls-1" d="m98.578125,14.625c1.6401367-2.203125,2.953125-4.6865234,3.9375-7.453125-.6572266.140625-1.7119141.3984375-3.1640625.7734375l-.5625-2.4609375c1.4521484-.234375,2.9057617-.4677734,4.359375-.703125.28125-1.0302734.4921875-2.2958984.6328125-3.796875l2.7421875.5625-.84375,2.953125c1.7333984-.28125,2.9057617.1650391,3.515625,1.3359375.5151367.9384766.6328125,2.3671875.3515625,4.2890625-.140625,1.125-.3759766,2.1337891-.703125,3.0234375-.4692383,1.3125-1.0546875,2.1552734-1.7578125,2.53125-.6098633.3271484-1.5712891.421875-2.8828125.28125l-.5625-2.53125c.984375.046875,1.5927734.046875,1.828125,0,.3271484-.09375.6083984-.3515625.84375-.7734375.421875-.796875.7260742-1.6630859.9140625-2.6015625.2338867-1.0302734.2568359-1.8515625.0703125-2.4609375-.140625-.515625-.4462891-.796875-.9140625-.84375-.28125,0-.7275391.0244141-1.3359375.0703125-.984375,3.375-2.4379883,6.46875-4.359375,9.28125l-2.109375-1.4765625Zm10.7578125-12.7265625l1.1953125-.9140625,1.4765625,1.96875-1.1953125.84375-1.4765625-1.8984375Zm.2109375,3.0234375l2.109375-1.3359375c.84375,1.265625,1.7578125,3.3291016,2.7421875,6.1875l-2.3203125,1.125c-.7978516-2.7177734-1.6416016-4.7109375-2.53125-5.9765625Zm1.6875-3.9375l1.1953125-.84375,1.40625,1.96875-1.1953125.84375-1.40625-1.96875Z"/>
      <path class="cls-1" d="m116.2265625,7.03125h16.3828125v2.53125h-16.3828125v-2.53125Z"/>
      <path class="cls-1" d="m137.953125,6.3984375h-3.65625v-2.1796875h3.09375l-.28125-.9140625h-1.4765625l-.703125-2.4609375c4.5458984.2353516,8.9755859-.0458984,13.2890625-.84375l1.3359375,2.3203125c-.5625.2353516-1.4306641.3515625-2.6015625.3515625l1.0546875.3515625-.703125,1.1953125h3.234375v2.1796875h-3.5859375c.703125.890625,1.9916992,1.8046875,3.8671875,2.7421875l-1.40625,2.3203125c-.4692383-.1865234-.8911133-.4677734-1.265625-.84375v5.765625h-2.4609375v-.6328125h-6.5390625v.703125h-2.4609375v-5.6953125c-.421875.421875-.9140625.75-1.4765625.984375l-1.1953125-2.6015625c.6083984-.1865234,1.3115234-.5625,2.109375-1.125.9370117-.65625,1.546875-1.1953125,1.828125-1.6171875Zm1.1953125,4.7109375h1.96875v-.703125h-1.96875v.703125Zm0,2.6015625h1.96875v-.7734375h-1.96875v.7734375Zm.421875-5.34375h1.546875v-1.8984375c-.421875.7978516-.9384766,1.4306641-1.546875,1.8984375Zm.140625-5.0625l.28125.9140625h1.125v-.984375l-1.40625.0703125Zm3.9375.9140625h.9140625l.5625-1.3359375-1.4765625.140625v1.1953125Zm0,4.1484375h1.6171875c-.6572266-.515625-1.1953125-1.125-1.6171875-1.828125v1.828125Zm0,2.7421875h2.0390625v-.703125h-2.0390625v.703125Zm0,2.6015625h2.0390625v-.7734375h-2.0390625v.7734375Z"/>
      <path class="cls-1" d="m155.109375.140625l2.4609375.4921875c-.1879883.46875-.3759766.84375-.5625,1.125h3.234375v1.0546875c.6557617-.5625,1.1708984-1.4521484,1.546875-2.671875l2.53125.4921875c-.0947266.3759766-.2583008.75-.4921875,1.125h4.359375v2.25h-2.390625l.3515625,1.3359375-.984375.2109375,1.1953125,1.7578125c-1.5009766.28125-3.0708008.4921875-4.7109375.6328125v.703125h6.8203125v2.25h-5.765625c1.3115234,1.875,3.234375,3.0703125,5.765625,3.5859375l-1.4765625,2.3203125c-2.9072266-.75-5.0869141-2.3662109-6.5390625-4.8515625-1.546875,2.4853516-3.7509766,4.1240234-6.609375,4.921875l-1.6171875-2.390625c1.1708984-.234375,2.2255859-.6328125,3.1640625-1.1953125,1.265625-.703125,2.109375-1.5,2.53125-2.390625h-5.625v-2.25h6.75v-.5625c-1.0317383.0947266-2.4609375.140625-4.2890625.140625l-.84375-2.25c4.1713867.0947266,7.3354492-.09375,9.4921875-.5625l-.2109375-1.40625h-.703125c-.28125.609375-.7275391,1.1015625-1.3359375,1.4765625l-1.6171875-1.4765625h-1.1953125l.3515625,1.40625-2.4609375.2109375-.2109375-1.6171875h-.6328125c-.6098633.75-1.1494141,1.2421875-1.6171875,1.4765625l-1.546875-1.828125c1.265625-.8896484,2.2255859-2.0625,2.8828125-3.515625Z"/>
      <path class="cls-1" d="m171.703125,6.609375c1.828125-.5625,3.3276367-.9599609,4.5-1.1953125,2.0146484-.375,3.5385742-.3974609,4.5703125-.0703125,1.6401367.5625,2.6245117,1.6875,2.953125,3.375.3745117,1.734375-.0703125,3.1884766-1.3359375,4.359375-.84375.84375-2.0634766,1.40625-3.65625,1.6875-1.125.1865234-2.3676758.234375-3.7265625.140625l-.140625-2.109375c1.125.046875,2.109375.0244141,2.953125-.0703125,1.265625-.140625,2.1796875-.4677734,2.7421875-.984375.6083984-.5625.9370117-1.2890625.984375-2.1796875.0458984-.8896484-.3056641-1.546875-1.0546875-1.96875-.9384766-.515625-2.2973633-.5625-4.078125-.140625-.6572266.1875-1.40625.421875-2.25.703125-.6572266.2353516-1.2900391.46875-1.8984375.703125l-.5625-2.25Z"/>
      <path class="cls-1" d="m188.71875,2.7421875c5.5776367-.28125,10.3588867-.8193359,14.34375-1.6171875l.421875,2.4609375c-1.1723633.1875-1.9228516.328125-2.25.421875-.6572266.1875-1.3603516.5390625-2.109375,1.0546875-1.0317383.703125-1.8984375,1.6640625-2.6015625,2.8828125-.84375,1.453125-.984375,2.671875-.421875,3.65625.421875.703125,1.125,1.1953125,2.109375,1.4765625.421875.140625,1.2885742.3056641,2.6015625.4921875l-.7734375,2.4609375c-1.3129883-.2353516-2.3447266-.4921875-3.09375-.7734375-1.125-.375-2.0161133-.9375-2.671875-1.6875-1.265625-1.359375-1.546875-2.9765625-.84375-4.8515625.6083984-1.5927734,1.6875-2.9990234,3.234375-4.21875-1.5009766.2353516-4.0322266.4921875-7.59375.7734375l-.3515625-2.53125Z"/>
      <path class="cls-1" d="m210.5859375,2.390625c-.3286133.890625-.5625,1.8525391-.703125,2.8828125-.140625.890625-.2353516,1.7119141-.28125,2.4609375-.0473633.5166016,0,1.2421875.140625,2.1796875.0932617.5625.2109375,1.0087891.3515625,1.3359375.1865234.421875.3974609.6328125.6328125.6328125.3271484,0,.6557617-.375.984375-1.125l.703125-1.546875,1.96875,1.4765625c-.28125.890625-.703125,1.7822266-1.265625,2.671875-.6572266,1.03125-1.2900391,1.6630859-1.8984375,1.8984375-.6098633.234375-1.2426758.0458984-1.8984375-.5625-.6572266-.5625-1.125-1.21875-1.40625-1.96875-1.0791016-2.7177734-1.0317383-6.421875.140625-11.109375l2.53125.7734375Zm6.328125,1.546875l2.1796875-1.125c1.4521484,2.578125,2.5068359,5.3203125,3.1640625,8.2265625l-2.4609375.9140625c-.6572266-2.90625-1.6171875-5.578125-2.8828125-8.015625Z"/>
      <path class="cls-1" d="m225.84375,10.6171875c.5625-2.1552734,1.1479492-4.3349609,1.7578125-6.5390625l2.4609375.7734375c-.3286133,1.265625-.6801758,2.4853516-1.0546875,3.65625,2.53125-1.78125,4.8974609-2.4140625,7.1015625-1.8984375,1.1708984.28125,2.0390625.9384766,2.6015625,1.96875.5625.984375.6787109,2.0634766.3515625,3.234375-.4692383,1.875-2.1796875,3.1640625-5.1328125,3.8671875-1.2197266.28125-3.0478516.375-5.484375.28125l-.5625-2.390625c3.3276367.328125,5.7182617.046875,7.171875-.84375.6083984-.375,1.0302734-.796875,1.265625-1.265625.2338867-.4677734.2568359-.9140625.0703125-1.3359375-.421875-.9375-1.546875-1.265625-3.375-.984375-1.546875.328125-3.0478516,1.171875-4.5,2.53125l-2.671875-1.0546875Zm2.953125-7.5234375l.7734375-2.25c2.4365234.421875,4.4052734.9384766,5.90625,1.546875l-1.0546875,2.390625c-1.546875-.65625-3.4223633-1.21875-5.625-1.6875Z"/>
      <path class="cls-1" d="m242.71875,12.5859375l3.375-4.4296875v-.9140625l-2.671875.84375-.4921875-2.53125,3.1640625-.84375.0703125-3.796875,2.53125.140625c-.0947266,1.2197266-.140625,2.2265625-.140625,3.0234375l.5625-.2109375.5625.984375,1.125-.84375c1.125-.84375,2.109375-1.125,2.953125-.84375,1.265625.421875,1.828125,1.6171875,1.6875,3.5859375l-.3515625,4.7109375c-.0473633.6572266.28125.7978516.984375.421875.5151367-.234375.9599609-.5380859,1.3359375-.9140625l1.0546875,2.25c-.7504883.6572266-1.40625,1.1494141-1.96875,1.4765625-.984375.6083984-1.828125.8193359-2.53125.6328125-1.125-.328125-1.6171875-1.4765625-1.4765625-3.4453125l.2109375-2.953125c.0458984-.6083984.0932617-1.1708984.140625-1.6875,0-.515625-.140625-.8193359-.421875-.9140625-.2353516-.0458984-.5166016.0244141-.84375.2109375-.3286133.1875-.7504883.5166016-1.265625.984375-.703125.609375-1.3129883,1.1953125-1.828125,1.7578125.0458984,2.296875.0932617,4.5947266.140625,6.890625l-2.4609375.0703125-.0703125-4.359375-1.6875,2.4609375-1.6875-1.7578125Z"/>
      <path class="cls-1" d="m261.3515625,10.6875c2.4838867-2.203125,4.8974609-4.453125,7.2421875-6.75-1.7348633.28125-3.4453125.4921875-5.1328125.6328125l-.4921875-2.4609375c3.6088867-.28125,6.3984375-.65625,8.3671875-1.125l1.40625,1.96875c-1.3603516,1.3603516-2.5083008,2.5078125-3.4453125,3.4453125,1.125-.1865234,2.1552734-.1162109,3.09375.2109375,1.0302734.328125,1.8037109.9609375,2.3203125,1.8984375.6557617,1.2197266.7260742,2.4853516.2109375,3.796875-.4692383,1.265625-1.2900391,2.2265625-2.4609375,2.8828125-.984375.5625-2.1337891.8671875-3.4453125.9140625-1.3129883.0458984-2.4379883-.2109375-3.375-.7734375-.9384766-.515625-1.3359375-1.2890625-1.1953125-2.3203125.140625-1.0302734.703125-1.7333984,1.6875-2.109375,1.125-.421875,2.2026367-.4921875,3.234375-.2109375,1.125.28125,1.8984375.9384766,2.3203125,1.96875.6083984-.421875.9599609-.984375,1.0546875-1.6875.0932617-.703125-.1176758-1.3115234-.6328125-1.828125-.5166016-.515625-1.4536133-.7265625-2.8125-.6328125-.8911133.0947266-1.6875.328125-2.390625.703125-1.5009766.84375-2.8125,1.96875-3.9375,3.375l-1.6171875-1.8984375Zm8.296875,3.0234375c-.140625-.65625-.4921875-1.0546875-1.0546875-1.1953125-.421875-.09375-.8208008-.0703125-1.1953125.0703125-.3759766.140625-.5166016.3759766-.421875.703125.0932617.28125.421875.46875.984375.5625.7490234.140625,1.3115234.0947266,1.6875-.140625Z"/>
      <path class="cls-1" d="m285.46875,9.984375c-.0473633-2.671875-.1176758-5.71875-.2109375-9.140625l2.8125.140625c-.0473633,1.171875-.0947266,2.3447266-.140625,3.515625,1.4521484,0,3.0693359-.1162109,4.8515625-.3515625l-.0703125,2.390625c-1.546875.140625-3.1411133.2578125-4.78125.3515625,0,1.265625.0458984,2.4609375.140625,3.5859375,2.0620117.46875,3.9604492,1.4306641,5.6953125,2.8828125l-1.6171875,1.96875c-1.40625-1.1708984-2.7192383-1.9921875-3.9375-2.4609375-.0947266,1.6875-.9140625,2.671875-2.4609375,2.953125-1.40625.28125-2.7192383.2568359-3.9375-.0703125-1.6416016-.421875-2.4609375-1.2890625-2.4609375-2.6015625,0-1.359375.703125-2.2958984,2.109375-2.8125,1.0776367-.375,2.4135742-.4921875,4.0078125-.3515625Zm.0703125,2.25c-.703125-.140625-1.3129883-.2109375-1.828125-.2109375-.703125.046875-1.1953125.2353516-1.4765625.5625-.1879883.3759766-.1176758.6796875.2109375.9140625.28125.1875.6557617.3056641,1.125.3515625.5151367.046875,1.0073242-.0703125,1.4765625-.3515625.421875-.28125.5854492-.703125.4921875-1.265625Z"/>
      <path class="cls-1" d="m298.0546875,6.6796875c2.5771484-1.078125,4.6162109-1.7333984,6.1171875-1.96875,2.4838867-.375,4.2416992-.0458984,5.2734375.984375.8896484.9384766,1.3115234,2.0859375,1.265625,3.4453125-.0473633,1.265625-.4692383,2.4150391-1.265625,3.4453125-1.3603516,1.7822266-3.6333008,2.9990234-6.8203125,3.65625l-1.0546875-2.25c1.0776367-.140625,2.1323242-.421875,3.1640625-.84375,1.1708984-.515625,2.0146484-1.078125,2.53125-1.6875.6083984-.703125.9140625-1.546875.9140625-2.53125,0-1.0302734-.4692383-1.6630859-1.40625-1.8984375-1.7348633-.375-4.3134766.3056641-7.734375,2.0390625l-.984375-2.390625Zm3.375-3.5859375l.3515625-2.3203125c1.7333984.3759766,3.796875.6796875,6.1875.9140625l-.3515625,2.25c-2.109375-.140625-4.1728516-.421875-6.1875-.84375Z"/>
      <path class="cls-1" d="m315.28125,12.515625c1.3588867-2.109375,2.390625-4.2646484,3.09375-6.46875-1.0791016.140625-1.8754883.2109375-2.390625.2109375l-.2109375-2.4609375c1.0302734,0,2.109375-.0703125,3.234375-.2109375.1865234-.515625.3974609-1.40625.6328125-2.671875l2.6015625.4921875c-.140625.6572266-.3286133,1.2900391-.5625,1.8984375.5625-.0458984,1.2412109-.1640625,2.0390625-.3515625l.28125,2.390625c-.984375.1875-1.9458008.328125-2.8828125.421875-.8911133,2.859375-2.0864258,5.53125-3.5859375,8.015625l-2.25-1.265625Zm8.15625-1.6171875c-.0473633-1.5927734.2338867-2.8828125.84375-3.8671875l2.109375,1.0546875c-.5625.9384766-.7275391,2.015625-.4921875,3.234375,1.3588867.46875,2.5541992,1.0546875,3.5859375,1.7578125l-1.265625,1.828125c-1.0317383-.7490234-1.828125-1.21875-2.390625-1.40625.140625,1.40625-.5166016,2.25-1.96875,2.53125-.9384766.1865234-1.8051758.1865234-2.6015625,0-1.0317383-.2353516-1.7348633-.703125-2.109375-1.40625-.6098633-1.1708984-.4692383-2.1552734.421875-2.953125.8896484-.796875,2.1796875-1.0546875,3.8671875-.7734375Zm.140625,1.96875c-.4692383-.09375-.8911133-.140625-1.265625-.140625-.5625-.0458984-.9140625.046875-1.0546875.28125-.28125.421875-.140625.7275391.421875.9140625.5151367.1875.984375.2109375,1.40625.0703125s.5854492-.515625.4921875-1.125Zm.7734375-6.9609375l1.265625-2.0390625c1.9213867.84375,3.3046875,1.5234375,4.1484375,2.0390625l-1.3359375,2.1796875c-1.7822266-1.0302734-3.1411133-1.7578125-4.078125-2.1796875Z"/>
      <path class="cls-1" d="m332.3671875,13.0078125l1.6171875-1.40625,3.3046875,3.515625-1.96875,1.4765625-2.953125-3.5859375Z"/>
      <path class="cls-1" d="m27,37.8447266c1.40625-.140625,2.8125-.3046875,4.21875-.4921875l3.375-2.8828125c-1.546875.1875-3.0708008.3515625-4.5703125.4921875l-.3515625-2.4609375c2.6245117-.140625,5.4599609-.3974609,8.5078125-.7734375l.84375,2.109375-3.65625,3.09375c2.0146484-.28125,4.0078125-.5859375,5.9765625-.9140625l.3515625,2.390625-2.390625.28125c-1.0317383.140625-1.96875.5166016-2.8125,1.125-.84375.6572266-1.40625,1.4306641-1.6875,2.3203125-.3759766,1.265625.0458984,2.0634766,1.265625,2.390625.703125.1875,1.828125.2109375,3.375.0703125l-.3515625,2.390625c-1.8754883.09375-3.1411133.09375-3.796875,0-1.265625-.1875-2.2041016-.7734375-2.8125-1.7578125-.5166016-.796875-.6572266-1.78125-.421875-2.953125.2338867-1.125.7490234-2.0625,1.546875-2.8125l-6.1875.9140625-.421875-2.53125Z"/>
      <path class="cls-1" d="m45.140625,45.7900391c1.9213867-4.734375,3.9130859-9.4453125,5.9765625-14.1328125l2.6015625.9140625c-1.125,2.296875-2.0634766,4.40625-2.8125,6.328125.8896484-.65625,1.7578125-.84375,2.6015625-.5625.8896484.328125,1.3359375.9609375,1.3359375,1.8984375v3.09375c0,.5625.1865234.7978516.5625.703125.421875-.140625,1.0073242-.6328125,1.7578125-1.4765625.5625-.6083984.9370117-1.1484375,1.125-1.6171875l1.828125,1.96875c-.984375,1.6416016-2.2270508,2.8369141-3.7265625,3.5859375-.984375.515625-1.8984375.65625-2.7421875.421875-.984375-.28125-1.4536133-.9384766-1.40625-1.96875l.0703125-3.1640625c0-.984375-.4462891-1.21875-1.3359375-.703125-.9384766.5166016-1.6171875,1.3125-2.0390625,2.390625-.2353516.6572266-.6328125,1.8046875-1.1953125,3.4453125l-2.6015625-1.125Z"/>
      <path class="cls-1" d="m63.28125,43.4697266c1.3588867-2.109375,2.390625-4.2646484,3.09375-6.46875-1.0791016.140625-1.8754883.2109375-2.390625.2109375l-.2109375-2.4609375c1.0302734,0,2.109375-.0703125,3.234375-.2109375.1865234-.515625.3974609-1.40625.6328125-2.671875l2.6015625.4921875c-.140625.6572266-.3286133,1.2900391-.5625,1.8984375.5625-.0458984,1.2412109-.1640625,2.0390625-.3515625l.28125,2.390625c-.984375.1875-1.9458008.328125-2.8828125.421875-.8911133,2.859375-2.0864258,5.53125-3.5859375,8.015625l-2.25-1.265625Zm8.15625-1.6171875c-.0473633-1.5927734.2338867-2.8828125.84375-3.8671875l2.109375,1.0546875c-.5625.9384766-.7275391,2.015625-.4921875,3.234375,1.3588867.46875,2.5541992,1.0546875,3.5859375,1.7578125l-1.265625,1.828125c-1.0317383-.7490234-1.828125-1.21875-2.390625-1.40625.140625,1.40625-.5166016,2.25-1.96875,2.53125-.9384766.1865234-1.8051758.1865234-2.6015625,0-1.0317383-.2353516-1.7348633-.703125-2.109375-1.40625-.6098633-1.1708984-.4692383-2.1552734.421875-2.953125.8896484-.796875,2.1796875-1.0546875,3.8671875-.7734375Zm.140625,1.96875c-.4692383-.09375-.8911133-.140625-1.265625-.140625-.5625-.0458984-.9140625.046875-1.0546875.28125-.28125.421875-.140625.7275391.421875.9140625.5151367.1875.984375.2109375,1.40625.0703125s.5854492-.515625.4921875-1.125Zm.7734375-6.9609375l1.265625-2.0390625c1.9213867.84375,3.3046875,1.5234375,4.1484375,2.0390625l-1.3359375,2.1796875c-1.7822266-1.0302734-3.1411133-1.7578125-4.078125-2.1796875Z"/>
      <path class="cls-1" d="m94.078125,37.6337891l1.7578125,1.828125-2.53125,2.25c.5625,1.125,1.7807617,2.15625,3.65625,3.09375l-1.6875,2.25c-.84375-.46875-1.6875-1.125-2.53125-1.96875-.84375-.796875-1.5712891-1.78125-2.1796875-2.953125l.140625.84375c.0932617.5625.1162109,1.2421875.0703125,2.0390625,0,.609375-.0703125,1.078125-.2109375,1.40625-.140625.375-.3286133.6328125-.5625.7734375-.140625.1865234-.6572266.3046875-1.546875.3515625h-2.0390625l-.703125-2.109375c-1.4536133.796875-2.7895508,1.359375-4.0078125,1.6875l-1.125-2.109375c1.546875-.421875,2.8583984-.8896484,3.9375-1.40625,1.4521484-.703125,2.6245117-1.4521484,3.515625-2.25l-.2109375-.421875c-1.7348633,1.453125-3.7509766,2.390625-6.046875,2.8125l-1.0546875-1.8984375c2.8583984-.4677734,5.0151367-1.3359375,6.46875-2.6015625l-.140625-.28125c-1.7822266.9384766-3.5400391,1.546875-5.2734375,1.828125l-1.0546875-2.0390625c.7963867-.0458984,1.7104492-.2109375,2.7421875-.4921875,1.0776367-.28125,1.7333984-.5380859,1.96875-.7734375h-2.109375v-2.0390625h10.125v2.0390625h-3.5859375l-.6328125.421875.421875.84375,2.1796875-.4921875c.0932617.3759766.1865234.7275391.28125,1.0546875l1.96875-1.6875Zm-13.4296875-.84375v-4.2890625h6.3984375v-1.265625h2.7421875v1.265625h6.3984375v4.2890625h-2.4609375v-2.1796875h-10.6875v2.1796875h-2.390625Zm7.734375,6.890625c-.3759766.46875-1.1020508.9609375-2.1796875,1.4765625h.984375c.3271484,0,.5625-.0234375.703125-.0703125.421875-.140625.5854492-.6083984.4921875-1.40625Z"/>
      <path class="cls-1" d="m98.71875,33.6962891c5.5776367-.28125,10.3588867-.8193359,14.34375-1.6171875l.421875,2.4609375c-1.1723633.1875-1.9228516.328125-2.25.421875-.6572266.1875-1.3603516.5390625-2.109375,1.0546875-1.0317383.703125-1.8984375,1.6640625-2.6015625,2.8828125-.84375,1.453125-.984375,2.671875-.421875,3.65625.421875.703125,1.125,1.1953125,2.109375,1.4765625.421875.140625,1.2885742.3056641,2.6015625.4921875l-.7734375,2.4609375c-1.3129883-.2353516-2.3447266-.4921875-3.09375-.7734375-1.125-.375-2.0161133-.9375-2.671875-1.6875-1.265625-1.359375-1.546875-2.9765625-.84375-4.8515625.6083984-1.5927734,1.6875-2.9990234,3.234375-4.21875-1.5009766.2353516-4.0322266.4921875-7.59375.7734375l-.3515625-2.53125Zm11.0390625,3.515625l1.40625-.6328125.984375,1.8984375-1.40625.703125-.984375-1.96875Zm1.8984375-.84375l1.4765625-.6328125.9140625,1.8984375-1.3359375.6328125-1.0546875-1.8984375Z"/>
      <path class="cls-1" d="m121.5,38.2666016c0-.28125.0458984-.796875.140625-1.546875-.984375.0947266-1.8525391.140625-2.6015625.140625l-.140625-2.3203125c1.4995117,0,2.5068359-.0234375,3.0234375-.0703125.0932617-.5625.28125-1.4765625.5625-2.7421875l2.671875.4921875c-.28125.84375-.4921875,1.5234375-.6328125,2.0390625,1.7333984-.1865234,3.1640625-.3974609,4.2890625-.6328125l.3515625,2.390625c-1.6416016.328125-3.3046875.5390625-4.9921875.6328125l-.0703125.84375c1.2182617-.09375,2.1323242-.1162109,2.7421875-.0703125,1.0302734.0947266,1.8984375.3515625,2.6015625.7734375.984375.5625,1.6401367,1.3603516,1.96875,2.390625.421875,1.2197266.3515625,2.3671875-.2109375,3.4453125-.9384766,1.7822266-2.6962891,2.8125-5.2734375,3.09375l-.984375-2.0390625c.84375-.140625,1.5224609-.3046875,2.0390625-.4921875.8896484-.3271484,1.4995117-.8193359,1.828125-1.4765625.3271484-.65625.3745117-1.2890625.140625-1.8984375-.1879883-.6083984-.5869141-1.0546875-1.1953125-1.3359375-1.0791016,1.828125-2.1796875,3.1884766-3.3046875,4.078125l.2109375.703125-2.390625,1.265625-.0703125-.2109375c-1.0317383.6083984-2.0161133.8896484-2.953125.84375-.7504883-.046875-1.3359375-.4462891-1.7578125-1.1953125-.3759766-.65625-.4921875-1.3359375-.3515625-2.0390625.3745117-2.0146484,1.828125-3.7021484,4.359375-5.0625Zm.28125,5.203125c-.0947266-.3271484-.1650391-.7490234-.2109375-1.265625,0-.4677734-.0244141-.9375-.0703125-1.40625-1.2197266.9384766-1.8525391,1.828125-1.8984375,2.671875-.0473633.5625.2338867.7978516.84375.703125.5151367-.09375.9599609-.3271484,1.3359375-.703125Zm2.3203125-2.3203125c.3745117-.375.7734375-.9375,1.1953125-1.6875-.5625,0-.984375.0244141-1.265625.0703125,0,.75.0229492,1.2900391.0703125,1.6171875Z"/>
      <path class="cls-1" d="m135.703125,37.5634766c1.828125-.5625,3.3276367-.9599609,4.5-1.1953125,2.0146484-.375,3.5385742-.3974609,4.5703125-.0703125,1.6401367.5625,2.6245117,1.6875,2.953125,3.375.3745117,1.734375-.0703125,3.1884766-1.3359375,4.359375-.84375.84375-2.0634766,1.40625-3.65625,1.6875-1.125.1865234-2.3676758.234375-3.7265625.140625l-.140625-2.109375c1.125.046875,2.109375.0244141,2.953125-.0703125,1.265625-.140625,2.1796875-.4677734,2.7421875-.984375.6083984-.5625.9370117-1.2890625.984375-2.1796875.0458984-.8896484-.3056641-1.546875-1.0546875-1.96875-.9384766-.515625-2.2973633-.5625-4.078125-.140625-.6572266.1875-1.40625.421875-2.25.703125-.6572266.2353516-1.2900391.46875-1.8984375.703125l-.5625-2.25Z"/>
      <path class="cls-1" d="m153,45.7900391c1.546875-2.625,2.7651367-5.3896484,3.65625-8.296875-1.0317383.140625-2.0634766.2109375-3.09375.2109375v-2.3203125c1.265625-.0458984,2.4838867-.140625,3.65625-.28125.28125-1.0302734.4921875-2.109375.6328125-3.234375l2.6015625.421875c-.140625.84375-.3056641,1.6640625-.4921875,2.4609375,1.3115234-.1865234,2.2958984-.3515625,2.953125-.4921875l.28125,2.390625c-1.1723633.28125-2.4853516.4921875-3.9375.6328125-.9384766,3.515625-2.25,6.7744141-3.9375,9.7734375l-2.3203125-1.265625Zm8.9296875-3.515625c-.4692383.703125-.5395508,1.1953125-.2109375,1.4765625.3745117.328125,1.2885742.4462891,2.7421875.3515625,1.2182617-.09375,2.2255859-.2109375,3.0234375-.3515625l.2109375,2.3203125c-2.671875.4677734-4.78125.5625-6.328125.28125-1.2197266-.2353516-1.96875-.8193359-2.25-1.7578125-.28125-.9375-.0947266-1.9443359.5625-3.0234375l2.25.703125Zm-.6328125-4.359375c1.96875,0,3.9375-.0458984,5.90625-.140625l.0703125,2.3203125c-2.0161133.046875-4.0078125.0703125-5.9765625.0703125v-2.25Z"/>
      <path class="cls-1" d="m171.84375,41.5712891c.5625-2.1552734,1.1479492-4.3349609,1.7578125-6.5390625l2.4609375.7734375c-.3286133,1.265625-.6801758,2.4853516-1.0546875,3.65625,2.53125-1.78125,4.8974609-2.4140625,7.1015625-1.8984375,1.1708984.28125,2.0390625.9384766,2.6015625,1.96875.5625.984375.6787109,2.0634766.3515625,3.234375-.4692383,1.875-2.1796875,3.1640625-5.1328125,3.8671875-1.2197266.28125-3.0478516.375-5.484375.28125l-.5625-2.390625c3.3276367.328125,5.7182617.046875,7.171875-.84375.6083984-.375,1.0302734-.796875,1.265625-1.265625.2338867-.4677734.2568359-.9140625.0703125-1.3359375-.421875-.9375-1.546875-1.265625-3.375-.984375-1.546875.328125-3.0478516,1.171875-4.5,2.53125l-2.671875-1.0546875Zm2.953125-7.5234375l.7734375-2.25c2.4365234.421875,4.4052734.9384766,5.90625,1.546875l-1.0546875,2.390625c-1.546875-.65625-3.4223633-1.21875-5.625-1.6875Z"/>
      <path class="cls-1" d="m188.3671875,43.9619141l1.6171875-1.40625,3.3046875,3.515625-1.96875,1.4765625-2.953125-3.5859375Z"/>
      <path class="cls-1" d="m220.078125,37.6337891l1.7578125,1.828125-2.53125,2.25c.5625,1.125,1.7807617,2.15625,3.65625,3.09375l-1.6875,2.25c-.84375-.46875-1.6875-1.125-2.53125-1.96875-.84375-.796875-1.5712891-1.78125-2.1796875-2.953125l.140625.84375c.0932617.5625.1162109,1.2421875.0703125,2.0390625,0,.609375-.0703125,1.078125-.2109375,1.40625-.140625.375-.3286133.6328125-.5625.7734375-.140625.1865234-.6572266.3046875-1.546875.3515625h-2.0390625l-.703125-2.109375c-1.4536133.796875-2.7895508,1.359375-4.0078125,1.6875l-1.125-2.109375c1.546875-.421875,2.8583984-.8896484,3.9375-1.40625,1.4521484-.703125,2.6245117-1.4521484,3.515625-2.25l-.2109375-.421875c-1.7348633,1.453125-3.7509766,2.390625-6.046875,2.8125l-1.0546875-1.8984375c2.8583984-.4677734,5.0151367-1.3359375,6.46875-2.6015625l-.140625-.28125c-1.7822266.9384766-3.5400391,1.546875-5.2734375,1.828125l-1.0546875-2.0390625c.7963867-.0458984,1.7104492-.2109375,2.7421875-.4921875,1.0776367-.28125,1.7333984-.5380859,1.96875-.7734375h-2.109375v-2.0390625h10.125v2.0390625h-3.5859375l-.6328125.421875.421875.84375,2.1796875-.4921875c.0932617.3759766.1865234.7275391.28125,1.0546875l1.96875-1.6875Zm-13.4296875-.84375v-4.2890625h6.3984375v-1.265625h2.7421875v1.265625h6.3984375v4.2890625h-2.4609375v-2.1796875h-10.6875v2.1796875h-2.390625Zm7.734375,6.890625c-.3759766.46875-1.1020508.9609375-2.1796875,1.4765625h.984375c.3271484,0,.5625-.0234375.703125-.0703125.421875-.140625.5854492-.6083984.4921875-1.40625Z"/>
      <path class="cls-1" d="m225.421875,40.0244141v-4.2890625h-1.1953125v-2.3203125h2.0390625v-2.25h2.390625v2.25h2.0390625v.6328125c.84375-.84375,1.4291992-1.828125,1.7578125-2.953125l2.390625.4921875c-.0947266.46875-.28125.890625-.5625,1.265625h6.1171875v2.25h-6.46875l1.828125.703125-.4921875.7734375h4.640625v2.1796875h-3.1640625v1.1953125h3.5859375v2.25h-3.0234375c.421875,1.0791016,1.6401367,2.109375,3.65625,3.09375l-1.4765625,2.3203125c-1.546875-.6572266-2.8598633-1.78125-3.9375-3.375-.3759766.75-.9140625,1.453125-1.6171875,2.109375s-1.4536133,1.1484375-2.25,1.4765625l-1.1953125-2.390625c.703125-.28125,1.3818359-.7265625,2.0390625-1.3359375.6557617-.65625,1.0776367-1.2890625,1.265625-1.8984375h-3.0234375v-2.25h1.265625l-1.546875-1.4765625-.140625,4.0078125-.140625,3.375c-.0473633,1.078125-.5166016,1.6171875-1.40625,1.6171875h-1.40625l-.703125-1.96875c-.2353516.8896484-.5625,1.546875-.984375,1.96875l-1.8984375-2.1796875c.5151367-.703125.9140625-1.5703125,1.1953125-2.6015625.28125-.984375.421875-1.8740234.421875-2.671875Zm2.671875,4.5l.140625-1.828125.140625-2.8828125h-.4921875c-.0947266,2.390625-.421875,4.125-.984375,5.203125h.84375c.2338867-.0458984.3515625-.2109375.3515625-.4921875Zm5.34375-9.421875h-.4921875c-.0947266.2353516-.3759766.609375-.84375,1.125-.4692383.5625-.9140625.9609375-1.3359375,1.1953125l-1.6171875-1.6875h-1.265625v1.8984375h2.6015625v.6328125c1.40625-.8896484,2.390625-1.9443359,2.953125-3.1640625Zm-1.1953125,4.8515625h2.109375v-1.1953125h-.9140625c-.3286133.421875-.7275391.8203125-1.1953125,1.1953125Z"/>
      <path class="cls-1" d="m244.0546875,32.0791016l2.671875.5625c-.84375,3.4697266-1.1723633,6.7744141-.984375,9.9140625.140625-.515625.3041992-.9599609.4921875-1.3359375l1.40625,1.265625c-.5625,1.3125-1.0317383,2.7421875-1.40625,4.2890625l-2.25.140625c-.9384766-4.359375-.9140625-9.3046875.0703125-14.8359375Zm8.296875,9.140625c-.140625-1.078125-.2109375-2.1796875-.2109375-3.3046875l-4.2890625.0703125v-2.390625c1.40625,0,2.8125-.0234375,4.21875-.0703125v-3.5859375l2.6015625.0703125-.140625,3.3046875c.984375-.09375,1.8984375-.1640625,2.7421875-.2109375l.0703125,2.390625c-.5166016.0947266-1.4536133.1875-2.8125.28125,0,1.453125.0932617,2.71875.28125,3.796875,1.4995117.5625,2.671875,1.125,3.515625,1.6875l-1.125,2.1796875c-.9384766-.65625-1.6416016-1.078125-2.109375-1.265625,0,1.546875-.7978516,2.484375-2.390625,2.8125-.7978516.1865234-1.5942383.1865234-2.390625,0-1.0317383-.1875-1.7348633-.5869141-2.109375-1.1953125-.7504883-1.21875-.6801758-2.34375.2109375-3.375.9370117-1.0302734,2.25-1.4296875,3.9375-1.1953125Zm.2109375,2.25c-.4692383-.09375-.8681641-.140625-1.1953125-.140625-.5166016,0-.8681641.140625-1.0546875.421875-.140625.2353516-.140625.46875,0,.703125.1865234.2353516.4448242.3515625.7734375.3515625,1.125.046875,1.6171875-.3974609,1.4765625-1.3359375Z"/>
      <path class="cls-1" d="m262.125,37.9150391l-1.96875-2.390625,1.125-2.0390625.3515625.4921875,1.265625-2.8125,1.96875.84375-1.7578125,3.5859375.3515625.421875,1.4765625-2.53125,1.828125,1.0546875c.421875-.3271484.8896484-.796875,1.40625-1.40625.6557617-.7490234,1.1005859-1.4296875,1.3359375-2.0390625l2.3203125.6328125-.6328125.984375h2.4609375l.140625-.140625,1.546875,1.7578125-1.6875,2.0390625h2.1796875v6.046875h-6.3984375v1.4765625c-.0947266.703125.140625,1.0546875.703125,1.0546875h3.4453125c.2338867,0,.3745117-.1162109.421875-.3515625,0-.140625.0703125-.6787109.2109375-1.6171875l2.390625.6328125c0,1.125-.1879883,2.015625-.5625,2.671875-.3286133.6083984-1.0087891.9140625-2.0390625.9140625h-5.0625c-.5166016,0-.9384766-.1171875-1.265625-.3515625-.3759766-.28125-.5625-.6328125-.5625-1.0546875v-4.921875l-1.4765625.4921875-.140625-.7734375-.5625.0703125v6.890625h-2.390625v-6.6796875l-2.109375.140625-.3515625-2.25h1.40625l.6328125-.84375Zm-1.96875,8.015625c.140625-.421875.2568359-1.125.3515625-2.109375.0932617-1.0302734.1635742-1.828125.2109375-2.390625l1.6171875.2109375c0,.7978516-.0473633,1.7119141-.140625,2.7421875-.0947266,1.125-.1650391,1.78125-.2109375,1.96875l-1.828125-.421875Zm4.078125-7.3828125l.7734375-.0703125-.140625-.421875,1.546875-.5625.703125,2.1796875v-2.25l-.28125.2109375-.984375-1.4765625-1.6171875,2.390625Zm.9140625,3.234375l1.546875-.2109375.28125,3.7265625-1.6875.140625-.140625-3.65625Zm3.3046875-5.4140625h2.25l1.3359375-1.40625h-2.25c-.4692383.5625-.9140625,1.03125-1.3359375,1.40625Zm.984375,3.8671875h.9140625v-1.6171875h-.9140625v1.6171875Zm3.09375,0h.9140625v-1.6171875h-.9140625v1.6171875Z"/>
      <path class="cls-1" d="m283.078125,35.8056641h-4.78125v-2.3203125h3.234375v-2.25h2.53125v2.25h2.390625v1.546875h4.078125v-3.796875h2.4609375v3.796875h1.546875v2.25h-1.546875v8.4375c0,1.21875-.5395508,1.828125-1.6171875,1.828125h-3.515625l-.703125-2.4609375h2.671875c.5151367.046875.7490234-.1640625.703125-.6328125v-7.171875h-4.078125v-1.4765625h-.9140625c-.0947266,1.03125-.2353516,1.96875-.421875,2.8125-.2353516.984375-.4692383,1.7578125-.703125,2.3203125.7490234.84375,1.3818359,1.7578125,1.8984375,2.7421875l-1.828125,1.7578125c-.140625-.28125-.3759766-.6787109-.703125-1.1953125-.28125-.4677734-.5166016-.7734375-.703125-.9140625-.5166016.7978516-1.0791016,1.546875-1.6875,2.25-.5166016.6083984-1.1494141,1.21875-1.8984375,1.828125l-1.4765625-2.390625c.7490234-.515625,1.40625-1.078125,1.96875-1.6875.6557617-.703125,1.125-1.3818359,1.40625-2.0390625-.140625-.234375-.4692383-.6328125-.984375-1.1953125-.6572266-.703125-1.2197266-1.2412109-1.6875-1.6171875l1.4765625-1.8984375c.3745117.2353516,1.1479492,1.03125,2.3203125,2.390625.3745117-.984375.5625-2.0390625.5625-3.1640625Zm3.1640625,3.3046875l2.0390625-1.0546875c.4677734.46875,1.0302734,1.6875,1.6875,3.65625l-2.1796875.9140625c-.0473633-.375-.2583008-.984375-.6328125-1.828125-.3759766-.84375-.6801758-1.40625-.9140625-1.6875Z"/>
      <path class="cls-1" d="m297.9140625,31.2353516l2.4609375.4921875c-.984375,3.703125-1.2900391,6.9853516-.9140625,9.84375.2338867-.4677734.4921875-.9140625.7734375-1.3359375l1.40625,1.546875c-.703125,1.125-1.2900391,2.671875-1.7578125,4.640625l-2.109375.2109375c-1.2197266-5.2490234-1.1723633-10.3818359.140625-15.3984375Zm4.7109375,9.140625l2.671875.4921875c-.0947266.28125-.2109375.609375-.3515625.984375-.140625.46875-.0947266.7978516.140625.984375.28125.28125,1.265625.3759766,2.953125.28125,1.4521484-.09375,2.6474609-.1865234,3.5859375-.28125l.0703125,2.671875c-1.6875.1875-3.2114258.28125-4.5703125.28125-2.1567383,0-3.5629883-.3046875-4.21875-.9140625-.6098633-.5625-.8681641-1.2890625-.7734375-2.1796875.0458984-.5625.2109375-1.3359375.4921875-2.3203125Zm.421875-4.8515625v-2.4609375c2.7177734-.09375,5.4599609-.234375,8.2265625-.421875l.0703125,2.53125c-2.7666016.1875-5.5317383.3056641-8.296875.3515625Z"/>
      <path class="cls-1" d="m314.3671875,35.8759766h6.8203125v-.984375h-5.34375v-2.25h5.34375v-1.40625h2.6015625v1.40625h5.2734375v2.25h-5.2734375v.984375h6.75v2.25h-3.4453125l-.6328125,1.265625h4.078125v2.1796875h-6.75v.984375h5.625v2.3203125h-5.625v2.7421875h-2.6015625v-2.7421875h-5.6953125v-2.25h5.6953125v-1.0546875h-6.8203125v-2.1796875h4.0078125l-.4921875-1.265625h-3.515625v-2.25Zm6.46875,2.25l.4921875,1.265625h2.390625l.421875-1.265625h-3.3046875Z"/>
      <path class="cls-1" d="m332.6484375,39.5322266l-.28125-2.7421875,3.375-.3515625v-3.8671875l2.53125-.0703125v3.65625l3.8671875-.3515625c-.0473633-1.359375-.0703125-2.7177734-.0703125-4.078125h2.671875c0,1.265625.0229492,2.53125.0703125,3.796875l2.8828125-.2109375.0703125,2.4609375-3.0234375.140625v2.6015625c0,.9384766-.4462891,1.5712891-1.3359375,1.8984375-.9384766.328125-1.9228516.3759766-2.953125.140625l-.3515625-2.3203125c.4677734.046875.8666992.0703125,1.1953125.0703125.5151367,0,.7734375-.234375.7734375-.703125v-1.3359375l-3.796875.421875.0703125,4.2890625c0,.46875.0932617.7734375.28125.9140625.1865234.140625.5854492.2109375,1.1953125.2109375,1.9213867,0,4.1484375-.1162109,6.6796875-.3515625v2.671875c-2.25.1865234-4.4296875.3046875-6.5390625.3515625-1.4536133.0458984-2.5083008-.1650391-3.1640625-.6328125-.6572266-.4677734-.984375-1.21875-.984375-2.25l-.0703125-4.8515625-3.09375.4921875Z"/>
      <path class="cls-1" d="m351,45.7900391c1.546875-2.625,2.7651367-5.3896484,3.65625-8.296875-1.0317383.140625-2.0634766.2109375-3.09375.2109375v-2.3203125c1.265625-.0458984,2.4838867-.140625,3.65625-.28125.28125-1.0302734.4921875-2.109375.6328125-3.234375l2.6015625.421875c-.140625.84375-.3056641,1.6640625-.4921875,2.4609375,1.3115234-.1865234,2.2958984-.3515625,2.953125-.4921875l.28125,2.390625c-1.1723633.28125-2.4853516.4921875-3.9375.6328125-.9384766,3.515625-2.25,6.7744141-3.9375,9.7734375l-2.3203125-1.265625Zm8.9296875-3.515625c-.4692383.703125-.5395508,1.1953125-.2109375,1.4765625.3745117.328125,1.2885742.4462891,2.7421875.3515625,1.2182617-.09375,2.2260742-.2109375,3.0229492-.3515625l.2109375,2.3203125c-2.671875.4677734-4.7807617.5625-6.3276367.28125-1.2197266-.2353516-1.96875-.8193359-2.25-1.7578125-.28125-.9375-.0947266-1.9443359.5625-3.0234375l2.25.703125Zm-.6328125-4.359375c1.96875,0,3.9370117-.0458984,5.9057617-.140625l.0703125,2.3203125c-2.015625.046875-4.0073242.0703125-5.9760742.0703125v-2.25Zm2.53125-3.796875l1.1948242-.84375,1.4765625,1.828125-1.1953125.984375-1.4760742-1.96875Zm1.5463867-1.125l1.125-.84375,1.546875,1.7578125-1.1953125.984375-1.4765625-1.8984375Z"/>
      <path class="cls-1" d="m370.9682617,47.5478516c-.6572266,0-1.2421875-.2578125-1.7578125-.7734375-.5166016-.5166016-.7734375-1.1005859-.7734375-1.7578125,0-.65625.2568359-1.2412109.7734375-1.7578125.515625-.515625,1.1005859-.7734375,1.7578125-.7734375.65625,0,1.2412109.2578125,1.7578125.7734375.515625.5166016.7734375,1.1015625.7734375,1.7578125,0,.6572266-.2578125,1.2412109-.7734375,1.7578125-.5166016.515625-1.1015625.7734375-1.7578125.7734375Zm.7734375-1.828125c.1865234-.1865234.28125-.421875.28125-.703125s-.0947266-.515625-.28125-.703125c-.2353516-.234375-.4921875-.3515625-.7734375-.3515625s-.5390625.1171875-.7734375.3515625c-.1875.1875-.28125.421875-.28125.703125s.09375.5166016.28125.703125c.234375.234375.4921875.3515625.7734375.3515625s.5380859-.1171875.7734375-.3515625Z"/>
      <path class="cls-1" d="m0,68.7988281c1.40625-.140625,2.8125-.3046875,4.21875-.4921875l3.375-2.8828125c-1.546875.1875-3.0708008.3515625-4.5703125.4921875l-.3515625-2.4609375c2.6245117-.140625,5.4599609-.3974609,8.5078125-.7734375l.84375,2.109375-3.65625,3.09375c2.0146484-.28125,4.0078125-.5859375,5.9765625-.9140625l.3515625,2.390625-2.390625.28125c-1.0317383.140625-1.96875.5166016-2.8125,1.125-.84375.6572266-1.40625,1.4306641-1.6875,2.3203125-.3759766,1.265625.0458984,2.0634766,1.265625,2.390625.703125.1875,1.828125.2109375,3.375.0703125l-.3515625,2.390625c-1.8754883.09375-3.1411133.09375-3.796875,0-1.265625-.1875-2.2041016-.7734375-2.8125-1.7578125-.5166016-.796875-.6572266-1.78125-.421875-2.953125.2338867-1.125.7490234-2.0625,1.546875-2.8125l-6.1875.9140625-.421875-2.53125Z"/>
      <path class="cls-1" d="m27.140625,77.8691406l-1.265625-2.25c1.7807617-.6083984,2.9760742-1.359375,3.5859375-2.25,1.1708984-1.7333984,1.3818359-3.3984375.6328125-4.9921875-.703125-1.546875-1.96875-2.2958984-3.796875-2.25,0,4.8759766-1.0317383,8.203125-3.09375,9.984375-.84375.703125-1.7119141.8896484-2.6015625.5625-.9384766-.375-1.6416016-1.0546875-2.109375-2.0390625-.9384766-1.8740234-.9614258-3.8671875-.0703125-5.9765625.8896484-2.0146484,2.3432617-3.4208984,4.359375-4.21875,1.4521484-.5625,2.8828125-.7490234,4.2890625-.5625,1.4995117.140625,2.7651367.703125,3.796875,1.6875,1.2182617,1.125,1.8984375,2.53125,2.0390625,4.21875.140625,1.828125-.28125,3.4453125-1.265625,4.8515625-1.0317383,1.453125-2.53125,2.53125-4.5,3.234375Zm-3.234375-11.4609375c-2.109375.75-3.2817383,2.2744141-3.515625,4.5703125-.0947266.6572266-.0244141,1.3125.2109375,1.96875.28125.7978516.6557617,1.0791016,1.125.84375.6083984-.28125,1.125-1.0546875,1.546875-2.3203125s.6328125-2.953125.6328125-5.0625Z"/>
      <path class="cls-1" d="m37.0546875,63.0332031l2.671875.5625c-.84375,3.4697266-1.1723633,6.7744141-.984375,9.9140625.140625-.515625.3041992-.9599609.4921875-1.3359375l1.40625,1.265625c-.5625,1.3125-1.0317383,2.7421875-1.40625,4.2890625l-2.25.140625c-.9384766-4.359375-.9140625-9.3046875.0703125-14.8359375Zm8.5078125,9.0703125c-.0947266-.9375-.140625-1.640625-.140625-2.109375-1.4536133.046875-2.8828125.0703125-4.2890625.0703125l-.0703125-2.3203125c1.96875,0,3.4453125-.0458984,4.4296875-.140625v-1.546875c-1.265625.0947266-2.53125.140625-3.796875.140625v-2.390625c2.2958984.046875,4.9677734-.09375,8.015625-.421875v2.3203125l-1.6875.140625-.0703125,1.546875c1.125-.0458984,2.0146484-.140625,2.671875-.28125v2.3203125c-.6572266.0947266-1.546875.1875-2.671875.28125,0,1.125.0703125,2.15625.2109375,3.09375,1.0302734.421875,2.1323242,1.03125,3.3046875,1.828125l-1.125,2.109375c-.6098633-.5625-1.3603516-1.0546875-2.25-1.4765625-.0473633.5166016-.2353516.984375-.5625,1.40625-.3759766.515625-.8911133.84375-1.546875.984375-1.1723633.28125-2.2041016.234375-3.09375-.140625-1.125-.46875-1.7348633-1.2412109-1.828125-2.3203125-.0947266-1.1708984.3515625-2.0625,1.3359375-2.671875.8896484-.5625,1.9443359-.703125,3.1640625-.421875Zm.140625,2.1796875c-1.125-.3271484-1.828125-.234375-2.109375.28125-.1879883.328125-.1879883.5869141,0,.7734375.140625.1875.3974609.28125.7734375.28125.984375,0,1.4291992-.4453125,1.3359375-1.3359375Z"/>
      <path class="cls-1" d="m54.140625,76.7441406c1.9213867-4.734375,3.9130859-9.4453125,5.9765625-14.1328125l2.6015625.9140625c-1.125,2.296875-2.0634766,4.40625-2.8125,6.328125.8896484-.65625,1.7578125-.84375,2.6015625-.5625.8896484.328125,1.3359375.9609375,1.3359375,1.8984375v3.09375c0,.5625.1865234.7978516.5625.703125.421875-.140625,1.0073242-.6328125,1.7578125-1.4765625.5625-.6083984.9370117-1.1484375,1.125-1.6171875l1.828125,1.96875c-.984375,1.6416016-2.2270508,2.8369141-3.7265625,3.5859375-.984375.515625-1.8984375.65625-2.7421875.421875-.984375-.28125-1.4536133-.9384766-1.40625-1.96875l.0703125-3.1640625c0-.984375-.4462891-1.21875-1.3359375-.703125-.9384766.5166016-1.6171875,1.3125-2.0390625,2.390625-.2353516.6572266-.6328125,1.8046875-1.1953125,3.4453125l-2.6015625-1.125Z"/>
      <path class="cls-1" d="m81.140625,77.8691406l-1.265625-2.25c1.7807617-.6083984,2.9760742-1.359375,3.5859375-2.25,1.1708984-1.7333984,1.3818359-3.3984375.6328125-4.9921875-.703125-1.546875-1.96875-2.2958984-3.796875-2.25,0,4.8759766-1.0317383,8.203125-3.09375,9.984375-.84375.703125-1.7119141.8896484-2.6015625.5625-.9384766-.375-1.6416016-1.0546875-2.109375-2.0390625-.9384766-1.8740234-.9614258-3.8671875-.0703125-5.9765625.8896484-2.0146484,2.3432617-3.4208984,4.359375-4.21875,1.4521484-.5625,2.8828125-.7490234,4.2890625-.5625,1.4995117.140625,2.7651367.703125,3.796875,1.6875,1.2182617,1.125,1.8984375,2.53125,2.0390625,4.21875.140625,1.828125-.28125,3.4453125-1.265625,4.8515625-1.0317383,1.453125-2.53125,2.53125-4.5,3.234375Zm-3.234375-11.4609375c-2.109375.75-3.2817383,2.2744141-3.515625,4.5703125-.0947266.6572266-.0244141,1.3125.2109375,1.96875.28125.7978516.6557617,1.0791016,1.125.84375.6083984-.28125,1.125-1.0546875,1.546875-2.3203125s.6328125-2.953125.6328125-5.0625Z"/>
      <path class="cls-1" d="m89.15625,70.0644531c.7490234-.6083984,1.546875-1.5,2.390625-2.671875.703125-.9375,1.1708984-2.0390625,1.40625-3.3046875l2.1796875,1.125c-.1879883,1.171875-.6328125,2.3203125-1.3359375,3.4453125-.7978516,1.265625-1.7348633,2.3671875-2.8125,3.3046875l-1.828125-1.8984375Zm10.4765625-4.640625l2.1796875-1.3359375c.3745117.984375.9370117,1.9931641,1.6875,3.0234375.8896484,1.265625,1.6875,2.1796875,2.390625,2.7421875l-1.6171875,2.0390625c-.5625-.421875-.9384766-.796875-1.125-1.125-.5166016,1.3603516-1.2900391,2.6015625-2.3203125,3.7265625-1.1723633,1.265625-2.6259766,2.25-4.359375,2.953125-1.6875.703125-3.4697266,1.125-5.34375,1.265625l-1.3359375-2.53125c1.828125-.09375,3.375-.3271484,4.640625-.703125,1.6401367-.4677734,3.0463867-1.2412109,4.21875-2.3203125.4677734-.421875.9370117-1.0078125,1.40625-1.7578125.4677734-.7490234.7734375-1.40625.9140625-1.96875l2.109375,1.265625c-.8911133-.796875-2.0390625-2.5546875-3.4453125-5.2734375Zm-3.3046875,4.5703125v-7.59375h2.3203125v8.859375c0,1.2197266-.5625,1.828125-1.6875,1.828125h-2.4609375l-.7734375-2.390625h2.0390625c.421875.046875.6083984-.1865234.5625-.703125Z"/>
      <path class="cls-1" d="m110.3203125,62.6113281l2.671875.2109375c-.140625,1.453125-.2353516,2.9072266-.28125,4.359375-.0473633,1.5009766-.0947266,2.9775391-.140625,4.4296875v1.40625c0,.6572266.0932617,1.1494141.28125,1.4765625.2338867.5166016.7734375.7734375,1.6171875.7734375.703125,0,1.3588867-.1640625,1.96875-.4921875,1.5927734-.796875,2.9057617-2.34375,3.9375-4.640625l2.0390625,1.7578125c-1.125,2.0634766-2.6015625,3.65625-4.4296875,4.78125-2.0161133,1.265625-3.9848633,1.5927734-5.90625.984375-.7978516-.2353516-1.3359375-.6796875-1.6171875-1.3359375-.28125-.6083984-.421875-1.4765625-.421875-2.6015625.0458984-3.65625.140625-7.3583984.28125-11.109375Z"/>
      <path class="cls-1" d="m126.5625,71.4003906c.984375-1.40625,1.9213867-2.8359375,2.8125-4.2890625h-1.828125v-2.25h3.1640625l1.125-2.0390625,2.6015625.421875-.984375,1.6171875c1.2182617-.09375,2.4838867-.2109375,3.796875-.3515625v2.25c-1.5942383.140625-3.2817383.2578125-5.0625.3515625l-.703125.984375c1.96875-.8896484,3.4453125-.6083984,4.4296875.84375,1.0302734-.421875,2.0390625-.796875,3.0234375-1.125l.9140625,2.1796875c-1.265625.46875-2.4609375.9384766-3.5859375,1.40625l-.0703125,2.53125-2.53125-.0703125.0703125-1.1953125c-.5625.28125-.9384766.5166016-1.125.703125-.3759766.328125-.5869141.703125-.6328125,1.125,0,.3759766.3041992.6328125.9140625.7734375.5151367.0947266,1.2412109.140625,2.1796875.140625,1.0776367,0,2.4135742-.1162109,4.0078125-.3515625l-.28125,2.4609375c-1.5942383.28125-3.3994141.3515625-5.4140625.2109375-1.0317383-.0947266-1.8525391-.3056641-2.4609375-.6328125-.984375-.515625-1.4765625-1.3115234-1.4765625-2.390625,0-.84375.3515625-1.640625,1.0546875-2.390625.6557617-.703125,1.6171875-1.40625,2.8828125-2.109375-.140625-.28125-.421875-.421875-.84375-.421875-.3759766.046875-.84375.2109375-1.40625.4921875-.7978516.421875-1.7119141,1.2421875-2.7421875,2.4609375l-1.828125-1.3359375Z"/>
      <path class="cls-1" d="m143.3671875,74.9160156l1.6171875-1.40625,3.3046875,3.515625-1.96875,1.4765625-2.953125-3.5859375Z"/>
      <path class="cls-1" d="m175.078125,68.5878906l1.7578125,1.828125-2.53125,2.25c.5625,1.125,1.7807617,2.15625,3.65625,3.09375l-1.6875,2.25c-.84375-.46875-1.6875-1.125-2.53125-1.96875-.84375-.796875-1.5712891-1.78125-2.1796875-2.953125l.140625.84375c.0932617.5625.1162109,1.2421875.0703125,2.0390625,0,.609375-.0703125,1.078125-.2109375,1.40625-.140625.375-.3286133.6328125-.5625.7734375-.140625.1865234-.6572266.3046875-1.546875.3515625h-2.0390625l-.703125-2.109375c-1.4536133.796875-2.7895508,1.359375-4.0078125,1.6875l-1.125-2.109375c1.546875-.421875,2.8583984-.8896484,3.9375-1.40625,1.4521484-.703125,2.6245117-1.4521484,3.515625-2.25l-.2109375-.421875c-1.7348633,1.453125-3.7509766,2.390625-6.046875,2.8125l-1.0546875-1.8984375c2.8583984-.4677734,5.0151367-1.3359375,6.46875-2.6015625l-.140625-.28125c-1.7822266.9384766-3.5400391,1.546875-5.2734375,1.828125l-1.0546875-2.0390625c.7963867-.0458984,1.7104492-.2109375,2.7421875-.4921875,1.0776367-.28125,1.7333984-.5380859,1.96875-.7734375h-2.109375v-2.0390625h10.125v2.0390625h-3.5859375l-.6328125.421875.421875.84375,2.1796875-.4921875c.0932617.3759766.1865234.7275391.28125,1.0546875l1.96875-1.6875Zm-13.4296875-.84375v-4.2890625h6.3984375v-1.265625h2.7421875v1.265625h6.3984375v4.2890625h-2.4609375v-2.1796875h-10.6875v2.1796875h-2.390625Zm7.734375,6.890625c-.3759766.46875-1.1020508.9609375-2.1796875,1.4765625h.984375c.3271484,0,.5625-.0234375.703125-.0703125.421875-.140625.5854492-.6083984.4921875-1.40625Z"/>
      <path class="cls-1" d="m179.578125,76.5332031c1.6401367-2.203125,2.953125-4.6865234,3.9375-7.453125-.6572266.140625-1.7119141.3984375-3.1640625.7734375l-.5625-2.4609375c1.4521484-.234375,2.9057617-.4677734,4.359375-.703125.28125-1.0302734.4921875-2.2958984.6328125-3.796875l2.7421875.5625-.84375,2.953125c1.7333984-.28125,2.9057617.1650391,3.515625,1.3359375.5151367.9384766.6328125,2.3671875.3515625,4.2890625-.140625,1.125-.3759766,2.1337891-.703125,3.0234375-.4692383,1.3125-1.0546875,2.1552734-1.7578125,2.53125-.6098633.3271484-1.5712891.421875-2.8828125.28125l-.5625-2.53125c.984375.046875,1.5927734.046875,1.828125,0,.3271484-.09375.6083984-.3515625.84375-.7734375.421875-.796875.7260742-1.6630859.9140625-2.6015625.2338867-1.0302734.2568359-1.8515625.0703125-2.4609375-.140625-.515625-.4462891-.796875-.9140625-.84375-.28125,0-.7275391.0244141-1.3359375.0703125-.984375,3.375-2.4379883,6.46875-4.359375,9.28125l-2.109375-1.4765625Zm10.265625-10.828125l2.3203125-1.1953125c1.2182617,2.0634766,2.2958984,4.4541016,3.234375,7.171875l-2.3203125,1.125c-.8911133-2.953125-1.96875-5.3193359-3.234375-7.1015625Z"/>
      <path class="cls-1" d="m198.84375,72.5253906c.5625-2.1552734,1.1479492-4.3349609,1.7578125-6.5390625l2.4609375.7734375c-.3286133,1.265625-.6801758,2.4853516-1.0546875,3.65625,2.53125-1.78125,4.8974609-2.4140625,7.1015625-1.8984375,1.1708984.28125,2.0390625.9384766,2.6015625,1.96875.5625.984375.6787109,2.0634766.3515625,3.234375-.4692383,1.875-2.1796875,3.1640625-5.1328125,3.8671875-1.2197266.28125-3.0478516.375-5.484375.28125l-.5625-2.390625c3.3276367.328125,5.7182617.046875,7.171875-.84375.6083984-.375,1.0302734-.796875,1.265625-1.265625.2338867-.4677734.2568359-.9140625.0703125-1.3359375-.421875-.9375-1.546875-1.265625-3.375-.984375-1.546875.328125-3.0478516,1.171875-4.5,2.53125l-2.671875-1.0546875Zm2.953125-7.5234375l.7734375-2.25c2.4365234.421875,4.4052734.9384766,5.90625,1.546875l-1.0546875,2.390625c-1.546875-.65625-3.4223633-1.21875-5.625-1.6875Z"/>
      <path class="cls-1" d="m216.0703125,68.7285156v-2.390625h3.0234375v-3.234375h2.6015625v3.234375h3.4453125v-3.375h2.6015625v3.375h2.953125v2.390625h-2.953125c0,2.25-.421875,4.1025391-1.265625,5.5546875-.8911133,1.5009766-2.2973633,2.7177734-4.21875,3.65625l-1.8984375-1.96875c1.7333984-.84375,2.953125-1.8037109,3.65625-2.8828125.7490234-1.078125,1.125-2.53125,1.125-4.359375h-3.4453125v3.8671875h-2.6015625v-3.8671875h-3.0234375Z"/>
      <path class="cls-1" d="m233.6484375,73.7910156c1.2182617-.984375,2.3432617-2.34375,3.375-4.078125l2.25,1.40625c-.984375,1.7822266-2.2041016,3.3291016-3.65625,4.640625l-1.96875-1.96875Zm.6328125-7.5234375h5.90625v-3.4453125h2.671875v3.4453125h5.625v2.390625h-5.625v6.8203125c0,1.5927734-.8681641,2.390625-2.6015625,2.390625h-1.3359375l-.703125-2.6015625h1.0546875c.6083984,0,.9140625-.3046875.9140625-.9140625v-5.6953125h-5.90625v-2.390625Zm9.421875,4.8515625l1.96875-1.4765625c1.2182617,1.3125,2.3432617,2.8125,3.375,4.5l-2.25,1.4765625c-.984375-1.6875-2.0161133-3.1875-3.09375-4.5Zm3.8671875-5.5546875c-.5625.046875-1.0087891-.1162109-1.3359375-.4921875-.28125-.3271484-.421875-.7265625-.421875-1.1953125,0-.4677734.1162109-.84375.3515625-1.125.3271484-.421875.7734375-.6328125,1.3359375-.6328125.5151367,0,.9599609.2109375,1.3359375.6328125.2338867.28125.3515625.6328125.3515625,1.0546875s-.1176758.7978516-.3515625,1.125c-.3286133.421875-.7504883.6328125-1.265625.6328125Zm.421875-1.1953125c.140625-.140625.2109375-.3046875.2109375-.4921875,0-.1865234-.0703125-.3515625-.2109375-.4921875s-.3056641-.2109375-.4921875-.2109375c-.1879883,0-.3515625.0703125-.4921875.2109375s-.2109375.3056641-.2109375.4921875c0,.1875.0703125.3515625.2109375.4921875s.3041992.2109375.4921875.2109375c.1865234,0,.3515625-.0703125.4921875-.2109375Z"/>
      <path class="cls-1" d="m252.6328125,69.2207031h13.640625v2.390625h-13.640625v-2.390625Z"/>
      <path class="cls-1" d="m273.796875,62.6816406h2.671875v5.9765625l1.265625-1.546875c1.546875.890625,3.515625,2.25,5.90625,4.078125l-1.6875,2.109375c-2.6259766-2.0625-4.4541016-3.375-5.484375-3.9375v8.578125h-2.671875v-15.2578125Z"/>
      <path class="cls-1" d="m287.71875,64.6503906c5.5776367-.28125,10.3588867-.8193359,14.34375-1.6171875l.421875,2.4609375c-1.1723633.1875-1.9228516.328125-2.25.421875-.6572266.1875-1.3603516.5390625-2.109375,1.0546875-1.0317383.703125-1.8984375,1.6640625-2.6015625,2.8828125-.84375,1.453125-.984375,2.671875-.421875,3.65625.421875.703125,1.125,1.1953125,2.109375,1.4765625.421875.140625,1.2885742.3056641,2.6015625.4921875l-.7734375,2.4609375c-1.3129883-.2353516-2.3447266-.4921875-3.09375-.7734375-1.125-.375-2.0161133-.9375-2.671875-1.6875-1.265625-1.359375-1.546875-2.9765625-.84375-4.8515625.6083984-1.5927734,1.6875-2.9990234,3.234375-4.21875-1.5009766.2353516-4.0322266.4921875-7.59375.7734375l-.3515625-2.53125Zm11.0390625,3.515625l1.40625-.6328125.984375,1.8984375-1.40625.703125-.984375-1.96875Zm1.8984375-.84375l1.4765625-.6328125.9140625,1.8984375-1.3359375.6328125-1.0546875-1.8984375Z"/>
      <path class="cls-1" d="m306.7734375,68.5878906c2.1552734-.234375,4.2646484-.4921875,6.328125-.7734375l-.4921875-.84375c-1.40625.28125-2.9775391.46875-4.7109375.5625l-.3515625-2.3203125c1.96875-.09375,3.375-.2109375,4.21875-.3515625-.1879883-.375-.421875-1.0078125-.703125-1.8984375l2.7421875-.421875c.3271484.984375.5625,1.6171875.703125,1.8984375.8896484-.140625,1.8740234-.375,2.953125-.703125l.703125,2.109375c-.9384766.28125-1.9228516.4921875-2.953125.6328125l.421875.84375c1.3115234-.28125,2.4838867-.5625,3.515625-.84375l.6328125,2.25c-.5625.140625-1.6171875.3759766-3.1640625.703125.7963867,1.3603516,1.4291992,2.3671875,1.8984375,3.0234375l-1.4765625,1.6875c-1.2197266-.703125-2.7192383-1.1005859-4.5-1.1953125-.5625-.0458984-1.0317383-.0234375-1.40625.0703125-.5625.140625-.8911133.3984375-.984375.7734375-.28125,1.03125.5151367,1.6416016,2.390625,1.828125,1.6401367.140625,3.234375-.0234375,4.78125-.4921875l.140625,2.390625c-2.0634766.4677734-3.9375.6083984-5.625.421875-2.390625-.2353516-3.796875-1.21875-4.21875-2.953125-.28125-1.0302734-.0947266-1.8984375.5625-2.6015625.6083984-.65625,1.4291992-1.0546875,2.4609375-1.1953125,1.0302734-.140625,2.390625-.1162109,4.078125.0703125l-.6328125-1.1953125c-2.2973633.328125-4.6176758.6328125-6.9609375.9140625l-.3515625-2.390625Z"/>
      <path class="cls-1" d="m324,76.7441406c1.546875-2.625,2.7651367-5.3896484,3.65625-8.296875-1.0317383.140625-2.0634766.2109375-3.09375.2109375v-2.3203125c1.265625-.0458984,2.4838867-.140625,3.65625-.28125.28125-1.0302734.4921875-2.109375.6328125-3.234375l2.6015625.421875c-.140625.84375-.3056641,1.6640625-.4921875,2.4609375,1.3115234-.1865234,2.2958984-.3515625,2.953125-.4921875l.28125,2.390625c-1.1723633.28125-2.4853516.4921875-3.9375.6328125-.9384766,3.515625-2.25,6.7744141-3.9375,9.7734375l-2.3203125-1.265625Zm8.9296875-3.515625c-.4692383.703125-.5395508,1.1953125-.2109375,1.4765625.3745117.328125,1.2885742.4462891,2.7421875.3515625,1.2182617-.09375,2.2255859-.2109375,3.0234375-.3515625l.2109375,2.3203125c-2.671875.4677734-4.78125.5625-6.328125.28125-1.2197266-.2353516-1.96875-.8193359-2.25-1.7578125-.28125-.9375-.0947266-1.9443359.5625-3.0234375l2.25.703125Zm-.6328125-4.359375c1.96875,0,3.9375-.0458984,5.90625-.140625l.0703125,2.3203125c-2.0161133.046875-4.0078125.0703125-5.9765625.0703125v-2.25Z"/>
      <path class="cls-1" d="m342.28125,74.4238281c1.3588867-2.109375,2.390625-4.2646484,3.09375-6.46875-1.0791016.140625-1.8754883.2109375-2.390625.2109375l-.2109375-2.4609375c1.0302734,0,2.109375-.0703125,3.234375-.2109375.1865234-.515625.3974609-1.40625.6328125-2.671875l2.6015625.4921875c-.140625.6572266-.3286133,1.2900391-.5625,1.8984375.5625-.0458984,1.2412109-.1640625,2.0390625-.3515625l.28125,2.390625c-.984375.1875-1.9458008.328125-2.8828125.421875-.8911133,2.859375-2.0864258,5.53125-3.5859375,8.015625l-2.25-1.265625Zm8.15625-1.6171875c-.0473633-1.5927734.2338867-2.8828125.84375-3.8671875l2.109375,1.0546875c-.5625.9384766-.7275391,2.015625-.4921875,3.234375,1.3588867.46875,2.5541992,1.0546875,3.5859375,1.7578125l-1.265625,1.828125c-1.0317383-.7490234-1.828125-1.21875-2.390625-1.40625.140625,1.40625-.5166016,2.25-1.96875,2.53125-.9384766.1865234-1.8051758.1865234-2.6015625,0-1.0317383-.2353516-1.7348633-.703125-2.109375-1.40625-.6098633-1.1708984-.4692383-2.1552734.421875-2.953125.8896484-.796875,2.1796875-1.0546875,3.8671875-.7734375Zm.140625,1.96875c-.4692383-.09375-.8911133-.140625-1.265625-.140625-.5625-.0458984-.9140625.046875-1.0546875.28125-.28125.421875-.140625.7275391.421875.9140625.5151367.1875.984375.2109375,1.40625.0703125s.5854492-.515625.4921875-1.125Zm.7734375-6.9609375l1.265625-2.0390625c1.9213867.84375,3.3046875,1.5234375,4.1484375,2.0390625l-1.3359375,2.1796875c-1.7822266-1.0302734-3.1411133-1.7578125-4.078125-2.1796875Z"/>
      <path class="cls-1" d="m360.84375,72.5253906c.5625-2.1552734,1.1479492-4.3349609,1.7578125-6.5390625l2.4604492.7734375c-.328125,1.265625-.6796875,2.4853516-1.0546875,3.65625,2.53125-1.78125,4.8984375-2.4140625,7.1015625-1.8984375,1.171875.28125,2.0390625.9384766,2.6015625,1.96875.5625.984375.6796875,2.0634766.3515625,3.234375-.46875,1.875-2.1796875,3.1640625-5.1328125,3.8671875-1.21875.28125-3.046875.375-5.484375.28125l-.5625-2.390625c3.328125.328125,5.71875.046875,7.171875-.84375.609375-.375,1.03125-.796875,1.265625-1.265625.234375-.4677734.2578125-.9140625.0703125-1.3359375-.421875-.9375-1.546875-1.265625-3.375-.984375-1.546875.328125-3.046875,1.171875-4.5,2.53125l-2.6713867-1.0546875Zm2.9526367-7.5234375l.7734375-2.25c2.4375.421875,4.40625.9384766,5.90625,1.546875l-1.0546875,2.390625c-1.546875-.65625-3.421875-1.21875-5.625-1.6875Z"/>
      <path class="cls-1" d="m377.2963867,71.2597656v-2.109375h16.3125v2.109375h-16.3125Z"/>
      <path class="cls-1" d="m397.9682617,78.5019531c-.6572266,0-1.2421875-.2578125-1.7578125-.7734375-.5166016-.5166016-.7734375-1.1005859-.7734375-1.7578125,0-.65625.2568359-1.2412109.7734375-1.7578125.515625-.515625,1.1005859-.7734375,1.7578125-.7734375.65625,0,1.2412109.2578125,1.7578125.7734375.515625.5166016.7734375,1.1015625.7734375,1.7578125,0,.6572266-.2578125,1.2412109-.7734375,1.7578125-.5166016.515625-1.1015625.7734375-1.7578125.7734375Zm.7734375-1.828125c.1865234-.1865234.28125-.421875.28125-.703125s-.0947266-.515625-.28125-.703125c-.2353516-.234375-.4921875-.3515625-.7734375-.3515625s-.5390625.1171875-.7734375.3515625c-.1875.1875-.28125.421875-.28125.703125s.09375.5166016.28125.703125c.234375.234375.4921875.3515625.7734375.3515625s.5380859-.1171875.7734375-.3515625Z"/>
    </g>
  </g>
</svg>