<?xml version="1.0" encoding="UTF-8"?>
<svg xmlns="http://www.w3.org/2000/svg" viewBox="0 0 301.9325321 78.7049848">
  <defs>
    <style>
      .cls-1 {
        isolation: isolate;
      }

      .cls-2, .cls-3, .cls-4, .cls-5, .cls-6, .cls-7, .cls-8, .cls-9, .cls-10, .cls-11 {
        stroke-width: 0px;
      }

      .cls-3 {
        fill: #ea9b3f;
      }

      .cls-3, .cls-4, .cls-5, .cls-6, .cls-7, .cls-8, .cls-9, .cls-10 {
        mix-blend-mode: multiply;
        opacity: .7;
      }

      .cls-4 {
        fill: #a173ac;
      }

      .cls-5 {
        fill: #d8385a;
      }

      .cls-6 {
        fill: #e56100;
      }

      .cls-7 {
        fill: #e996a1;
      }

      .cls-8 {
        fill: #eeb2ba;
      }

      .cls-9 {
        fill: #e18690;
      }

      .cls-10 {
        fill: #b5142c;
      }

      .cls-11 {
        fill: #8e4f7f;
      }
    </style>
  </defs>
  <g class="cls-1">
    <g id="_レイヤー_2" data-name="レイヤー 2">
      <g id="_ヘッダー" data-name="ヘッダー">
        <g>
          <path class="cls-10" d="m1.9946377,28.0619617H.9799969c-.6297607,0-.9799969-.3498802-.9799969-.9797596V3.9871399c0-.6297607.3502362-.9797596.9799969-.9797596h1.29464c.5599982,0,.9097598.2449992,1.1195219.734879l6.2639123,13.8919898L15.8868648,3.7422593c.209762-.4898798.5595236-.734879,1.1195219-.734879h1.399521c.6302353,0,.9799969.3499989.9799969.9797596v23.0950622c0,.6298794-.3497616.9797596-.9799969.9797596h-1.0844033c-.6297607,0-.9799969-.3498802-.9799969-.9797596V8.7461756l-4.8990353,10.9875922c-.209762.4898798-.5595236.734879-1.1195219.734879h-1.3297585c-.5599982,0-.9097598-.2449992-1.1199964-.734879L2.9746346,8.7461756v18.3360265c0,.6298794-.3502362.9797596-.9799969.9797596Z"/>
          <path class="cls-7" d="m35.9015808,15.8146108c0-3.1492781-.8746413-4.0940378-3.2541592-4.0940378-1.3297585,0-2.764398.3148804-4.4439181,1.0497594-.6999978.2798805-1.155115,0-1.155115-.734879,0-.5598796.2102366-.9097598.7351163-1.1197592,1.504402-.5948795,3.1843967-.9097598,4.8639167-.9097598,4.7239172,0,6.2287938,1.7496385,6.2287938,6.5085556v10.5677122c0,.6298794-.3502362.9797596-.9799969.9797596h-.8746413c-.6297607,0-.9799969-.3498802-1.0151154-.9797596v-1.0497594c-1.0844033,1.4696394-2.8341605,2.3795179-4.9687978,2.3795179-2.97416,0-4.8287982-2.2395183-4.8287982-5.2489155,0-3.499277,2.5541614-6.1586753,8.3629565-6.1586753h1.3297585v-1.1897589Zm-1.3297585,2.6245171c-3.5341583,0-5.3887964,1.4696394-5.3887964,4.5140365,0,2.3793992,1.0151154,3.7441576,2.2746368,3.7441576,2.4843989,0,4.4439181-2.3795179,4.4439181-6.3686747v-1.8895194h-1.3297585Z"/>
          <path class="cls-6" d="m46.1538194,27.0822021v-15.7466279c0-.6298794.3497616-.9797596.9799969-.9797596h.9448784c.6297607,0,.9795223.3498802,1.0146408.9797596v.5248797c.9097598-1.1197592,2.2043998-1.8545195,3.6039208-1.8545195,1.8897567,0,3.1146342.83976,3.7795134,2.449399.9795223-1.5046393,2.4492804-2.449399,4.163919-2.449399,3.4292772,0,4.7590357,1.9945191,4.7590357,6.7535548v10.322713c0,.6298794-.3497616.9797596-.9799969.9797596h-.9795223c-.6297607,0-.9799969-.3498802-.9799969-.9797596v-9.6229525c0-4.5140365-.7697603-5.8436763-2.4141618-5.8436763-1.0497594,0-2.7995165,2.2395183-2.7995165,4.4790366v10.9875922c0,.6298794-.3497616.9797596-.9799969.9797596h-.9444038c-.6302353,0-.9799969-.3498802-.9799969-.9797596v-9.6229525c0-4.5140365-.8048788-5.8436763-2.4146364-5.8436763-1.0497594,0-2.799042,2.2045184-2.799042,4.4790366v10.9875922c0,.6298794-.3502362.9797596-.9799969.9797596h-1.0146408c-.6302353,0-.9799969-.3498802-.9799969-.9797596Z"/>
          <path class="cls-3" d="m81.3558771,15.8146108c0-3.1492781-.8746413-4.0940378-3.2541592-4.0940378-1.3297585,0-2.764398.3148804-4.4439181,1.0497594-.6999978.2798805-1.155115,0-1.155115-.734879,0-.5598796.2102366-.9097598.7351163-1.1197592,1.504402-.5948795,3.1843967-.9097598,4.8639167-.9097598,4.7239172,0,6.2287938,1.7496385,6.2287938,6.5085556v10.5677122c0,.6298794-.3502362.9797596-.9799969.9797596h-.8746413c-.6297607,0-.9799969-.3498802-1.0151154-.9797596v-1.0497594c-1.0844033,1.4696394-2.8341605,2.3795179-4.9687978,2.3795179-2.97416,0-4.8287982-2.2395183-4.8287982-5.2489155,0-3.499277,2.5541614-6.1586753,8.3629565-6.1586753h1.3297585v-1.1897589Zm-1.3297585,2.6245171c-3.5341583,0-5.3887964,1.4696394-5.3887964,4.5140365,0,2.3793992,1.0151154,3.7441576,2.2746368,3.7441576,2.4843989,0,4.4439181-2.3795179,4.4439181-6.3686747v-1.8895194h-1.3297585Z"/>
          <path class="cls-2" d="m97.1606404,19.5715819c.0503049,1.278979.3260329,2.557958.9026412,3.4106502,1.4797241,2.2068913,3.9878517.7272858,5.1163905-.300999,1.7801299-1.6300457,2.6329408-3.4608365,3.2100237-5.416915.1252877-.401253.3758632-.5516932.752201-.4514392.3511853.1254064.5016255.3762191.4261681.7524383-.6520657,2.8338046-1.7302996,5.2413223-4.1126649,7.2475871-1.4294192,1.1787251-4.8653405,2.2821114-6.9719778-.5266593-1.0279289-1.3792329-1.3539618-3.0595835-1.4294192-4.6144091-.0498304-1.1535726-.0749828-2.6081443-.1001353-4.137936h-2.6334154c-.4010157,0-.6269133-.2256603-.6269133-.6269133v-.0250338c0-.401253.2258976-.6270319.6269133-.6270319h2.6334154c0-1.4545716,0-2.9341771.0251525-4.2381899h-2.1317898c-.4014902,0-.6269133-.2256603-.6269133-.6269133v-.0251525c0-.401253.225423-.6269133.6269133-.6269133h2.1317898c.0251525-1.2037589.0251525-2.2068913.0498304-2.8087707,0-.401253.2258976-.6270319.6269133-.6520657h.9282682c.4010157,0,.6269133.2256603.6269133.6269133,0,.6018794-.0251525,1.6050118-.0503049,2.8339232h7.398146c.4010157,0,.6269133.2256603.6269133.6269133v.0251525c0,.401253-.2258976.6269133-.6269133.6269133h-7.4232984c-.0251525,1.3040128-.0251525,2.7836183-.0498304,4.2381899h7.2472312c.4014902,0,.6269133.2257789.6269133.6270319v.0250338c0,.401253-.225423.6269133-.6269133.6269133h-7.2472312c.0246779,1.4797241.0246779,2.8839908.0749828,4.0376821Z"/>
          <path class="cls-2" d="m140.0835549,9.6375456h-.9572173c-.5941676,0-.9239971-.3300667-.9239971-.9241157v-4.1916816h-18.4500431v4.5217483c0,.594049-.330304.9241157-.9239971.9241157h-.9244716c-.5941676,0-.9239971-.3300667-.9239971-.9241157V3.8286319c0-.594049.3298295-.9241157.9239971-.9241157h9.6376643V.9241157c0-.594049.3298295-.9241157.9239971-.9241157h1.0564034c.5941676,0,.9239971.3300667.9239971.9241157v1.9804005h9.6376643c.5941676,0,.9239971.3300667.9239971.9241157v4.884798c0,.594049-.3298295.9241157-.9239971.9241157Zm-12.5420618,1.2211995c3.2014814,3.3665147,4.7528663,7.921246,4.7528663,12.7730611,0,4.6206972-.5614219,5.9738285-2.970838,5.9738285-.6928792,0-1.91396-.0329829-3.6304969-.1319318-.5941676-.0331016-.9239971-.3300667-.9572173-.9242344,0-.561066.3630497-.8250482.9572173-.7920653,1.2215554.0990675,2.1782982.1320504,2.970838.1320504.5609474,0,.6269133-.0329829.8580312-1.4853004.0987116-.4951001.0987116-1.4521988.0987116-2.7063812,0-.7590823-.0327457-1.5182833-.0659659-2.1782982-2.5413479,2.5743308-6.2378107,4.9507639-10.8587452,6.9970117-.593693.2641009-1.0231832.0660845-1.2210809-.4951001l-.0327457-.0659659c-.1983723-.561066-.0332202-.9902002.5277271-1.2211995,4.6536801-1.9802818,8.3173973-4.4226809,11.2217948-7.5581963-.2970838-1.155115-.5941676-2.1453152-.8912514-2.8384317-2.2770097,2.0793493-5.4784911,4.0596312-9.5052579,5.7759308-.5609474.2309993-.989963.0329829-1.1883352-.561066-.1646774-.5280831.0332202-.8911328.5941676-1.1222507,3.7629033-1.5181647,6.8319783-3.3665147,9.3405805-5.7759308-.6933537-1.122132-1.320267-1.9141973-1.7492826-2.4422804-1.7165369,1.2211995-3.960801,2.4422804-6.7332667,3.597514-.5609474.2309993-.989963.0329829-1.1878606-.5280831-.165152-.5280831.0327457-.8911328.5941676-1.122132,3.399379-1.3532499,6.2705563-2.9704821,8.6799724-5.0498314h-5.8087951c-.5941676,0-.9239971-.3300667-.9239971-.9241157,0-.4951001.3298295-.759201.9239971-.759201h15.3145276c.5941676,0,.9239971.3300667.9239971.9242344,0,.4951001-.3298295.7590823-.9239971.7590823h-4.2578848c.3962699,2.5744494,1.1223693,5.0168485,2.0136207,7.1951466.989963-.9902002,2.1782982-2.3433315,3.4985652-4.1257157.3957954-.5280831.8580312-.561066,1.320267-.1319318l.2966092.2969652c.3962699.3961513.4294902.8251669.0991861,1.287284-1.1883352,1.6172321-2.6073137,3.2014814-4.3565963,4.7197647,1.6500965,3.3994977,3.4985652,6.072896,5.4129997,8.0861607.3957954.3961513.4290156.8251669.1319318,1.287284l-.330304.4619985c-.3630497.5280831-.8248109.5941676-1.2870468.1320504-4.6209345-4.6536801-8.2841771-11.9149113-9.5384782-19.2090068h-.2311179c-.4622358.4621172-1.0891491,1.0231832-1.8812144,1.7492826Z"/>
          <path class="cls-2" d="m159.0969182,12.5089603c0,5.0168485-.0659659,8.7793958-.2643381,11.1888119-.1646774,2.5413479-.3957954,4.0596312-.758845,4.917781-.1978977.4290156-.9572173.8911328-1.9144346.8911328-.5282017,0-1.320267-.0660845-2.1782982-.1980163-.5609474-.0990675-.8252855-.4621172-.8252855-1.0231832v-.0659659c0-.6601335.3962699-.8912514,1.0564034-.759201.4622358.0990675.8912514.1320504,1.155115.1320504q.2311179,0,.5609474-1.320267c.0991861-.3630497.1983723-1.2210809.2643381-2.277247.1319318-1.9474175.2311179-5.4789656.2311179-10.6607288h-2.3766704c-.3298295,7.7891956-1.0891491,12.0799447-2.8711773,16.1395758-.2970838.6600149-.8252855.7260994-1.2875213.1980163l-.5941676-.6601335c-.3630497-.3960326-.4290156-.7590823-.2306433-1.2541825,1.6168762-4.0596312,2.3102299-9.5714611,2.3429756-20.9253064h-1.6168762c-.5941676,0-.9244716-.3300667-.9244716-.9241157,0-.561066.330304-.8581498.9244716-.8581498h3.1022952V1.5842492c0-.594049.330304-.9241157.9239971-.9241157h.9572173c.5941676,0,.9244716.3300667.9244716.9241157v3.4655822h2.8711773c.5941676,0,.9239971.3300667.9239971.9241157,0,.561066-.3298295.8581498-.9239971.8581498h-4.4557825c0,1.1552336,0,2.7063812-.0327457,4.7197647h4.0927328c.593693,0,.9239971.3300667.9239971.9570987Zm1.4849444-1.9802818c-.3630497.5280831-.8580312.561066-1.3197924.1320504l-.2311179-.1980163c-.4290156-.3961513-.4949815-.8251669-.165152-1.320267,1.485419-2.1782982,2.7392455-4.884798,3.7624287-8.0201949.1983723-.5941676.5941676-.7921839,1.1883352-.5941676l.4622358.1650334c.5941676.1650334.7920653.561066.6269133,1.1222507-.165152.5280831-.3957954,1.155115-.6601335,1.9141973h9.4397666c.593693,0,.9239971.3300667.9239971.9242344,0,.5280831-.330304.8250482-.9239971.8250482h-10.1986117c-.6933537,1.6173508-1.650571,3.2675659-2.9048721,5.0498314Zm-.7920653,8.4493291c0-.561066.330304-.8581498.9244716-.8581498h5.3138136v-5.7428292h-1.6173508c-.6933537,1.1880979-1.5181647,2.3433315-2.5086022,3.4984465-.3957954.4951001-.8580312.4951001-1.2870468.0660845l-.3298295-.3300667c-.3962699-.3960326-.4294902-.8581498-.0664405-1.2871654,1.320267-1.6173508,2.5086022-3.6965815,3.5650056-6.1719634.2638636-.5611847.6596589-.759201,1.2210809-.5280831l.6269133.2309993c.5609474.1980163.7260994.6270319.4949815,1.1882166-.1978977.4619985-.4290156.9900816-.7260994,1.5842492h7.7564499c.5941676,0,.9239971.3300667.9239971.9241157,0,.5280831-.3298295.8251669-.9239971.8251669h-4.2906304v5.7428292h4.8188321c.593693,0,.9239971.3300667.9239971.9241157,0,.5611847-.330304.8581498-.9239971.8581498h-4.5877142c.593693,3.762666,2.3761958,6.4030813,5.0167298,8.0203135.4949815.2970838.6601335.6931164.4617612,1.2211995l-.1319318.3300667c-.1978977.594049-.6601335.7920653-1.2210809.4951001-2.640534-1.4853004-4.719646-3.9936653-5.874761-6.8320969-1.4194531,2.9043976-4.0599871,5.478847-6.8984188,6.8320969-.5609474.2639822-.989963.0659659-1.1878606-.5611847l-.0991861-.2969652c-.165152-.5611847,0-.9242344.4290156-1.1222507,3.0695496-1.4851817,5.281068-4.0596312,6.1718448-8.0862794h-5.0494755c-.5941676,0-.9244716-.3300667-.9244716-.9241157Z"/>
          <path class="cls-2" d="m188.2538425,19.5715819c.0503049,1.278979.3260329,2.557958.9026412,3.4106502,1.4797241,2.2068913,3.9878517.7272858,5.1163905-.300999,1.7801299-1.6300457,2.6329408-3.4608365,3.2100237-5.416915.1252877-.401253.3758632-.5516932.752201-.4514392.3511853.1254064.5016255.3762191.4261681.7524383-.6520657,2.8338046-1.7302996,5.2413223-4.1126649,7.2475871-1.4294192,1.1787251-4.8653405,2.2821114-6.9719778-.5266593-1.0279289-1.3792329-1.3539618-3.0595835-1.4294192-4.6144091-.0503049-1.1535726-.0749828-2.6081443-.1001353-4.137936h-2.6334154c-.4010157,0-.6269133-.2256603-.6269133-.6269133v-.0250338c0-.401253.2258976-.6270319.6269133-.6270319h2.6334154c0-1.4545716,0-2.9341771.0251525-4.2381899h-2.1317898c-.4014902,0-.6269133-.2256603-.6269133-.6269133v-.0251525c0-.401253.225423-.6269133.6269133-.6269133h2.1317898c.0246779-1.2037589.0246779-2.2068913.0498304-2.8087707,0-.401253.2258976-.6270319.6269133-.6520657h.9282682c.4010157,0,.6269133.2256603.6269133.6269133,0,.6018794-.0251525,1.6050118-.0503049,2.8339232h7.398146c.4010157,0,.6269133.2256603.6269133.6269133v.0251525c0,.401253-.2258976.6269133-.6269133.6269133h-7.4232984c-.0251525,1.3040128-.0251525,2.7836183-.0498304,4.2381899h7.2472312c.4014902,0,.6269133.2257789.6269133.6270319v.0250338c0,.401253-.225423.6269133-.6269133.6269133h-7.2472312c.0246779,1.4797241.0246779,2.8839908.0749828,4.0376821Z"/>
          <path class="cls-2" d="m223.639086,10.2675436c-.1252877,1.9310447-.3511853,3.836937-1.0782339,6.6206739.5514559.3008804,1.4792495.8025059,2.5328055,1.454453.3511853.2257789.4261681.5266593.225423.877726l-.4010157.7272858c-.2258976.3762191-.5519304.4264054-.8779633.1505588-.7773535-.6270319-1.4792495-1.1285388-1.9808751-1.4796055-.8528108,2.557958-2.1820948,4.9654757-4.2635797,7.3729935-.2757279.3260329-.5766083.3260329-.8523363.0752201-.2762025-.2758466-.3260329-.5516932-.1006098-.877726,1.7806045-2.6583305,2.7083982-4.8150355,3.4359213-7.5737386-2.557958-1.3040128-3.9626993-1.8306721-5.2416783-2.1315525-.1252877.3260329-1.5295545,4.5390703-3.836937,6.8463342-1.3288093,1.3291653-3.8867673,1.2539452-4.1629698-1.4043854-.1755927-1.6551981.4014902-3.3103963,1.4545716-4.5893752,1.3795888-1.7052658,3.2854811-2.3071452,4.9156454-2.3322977.6017608-2.0814849,1.1285388-4.0125296,1.4545716-6.5955214h-5.7931341c-.4014902,0-.6269133-.2257789-.6269133-.6270319v-.0250338c0-.401253.225423-.6269133.6269133-.6269133h7.4228239c.4266427,0,.6520657.2506941.6022354.6770995-.3511853,2.858957-.8528108,4.8902556-1.6050118,7.3479597,1.1783691.175474,2.7083982.4262868,5.2160512,1.7304182.526778-2.4827379.6520657-4.1129022.752201-5.7931341.0251525-.401253.25105-.6018794.6520657-.5768456l.9529461.0752201c.4014902.0251525.6273878.2759652.5770829.6772182Zm-14.6961567,10.3823907c.1006098,1.0533187.6022354.9779799,1.1285388.3762191,1.7056217-1.8809771,2.8341605-5.241441,2.9846007-5.6426939-.9277937.1003726-2.332535.702252-3.1848712,2.0564511-.6022354.9279123-1.053556,2.0564511-.9282682,3.2100237Z"/>
          <path class="cls-2" d="m250.9238128,16.8882175c-.526778,2.8087707-1.3041314,5.8933881-3.2351762,7.7742465-1.1783691,1.1285388-3.034431,1.3291653-4.4135453.3510667-.8779633-.6269133-1.3292839-1.5548256-1.6301643-2.6833644-.1504402-.5516932-.2757279-1.1535726-.3763378-1.7806045-.1001353-.6269133-.1504402-1.278979-.2007451-1.9309261-.1504402-1.7304182-.7773535-3.3605825-2.0060275-2.4326702-1.2286741.9028785-2.2067726,2.4577041-3.0092786,4.137936-.4014902.8275397-.7526756,1.6551981-1.053556,2.557958-.2505755.7523196-.5016255,1.5047579-.752201,2.3322977-.1252877.401253-.4261681.5266593-.8025059.3762191l-1.003251-.4264054c-.3511853-.175474-.4764731-.4513206-.3260329-.8275397l7.0222828-18.8338554c.1504402-.401253.4261681-.5265407.8271838-.3510667l1.053556.5016255c.3511853.175474.4513206.4764731.2757279.8525736-1.9813496,4.2383086-3.7116492,8.5266848-4.2132747,9.8306976.6269133-1.0281662,1.9813496-2.156705,3.3106335-2.0312986,1.8052824.1755927,2.4075178,2.2570776,2.7083982,3.9874958.1252877.7272858.2505755,1.755452.4261681,2.7335506.1755927.9779799.4266427,1.855706.9277937,2.2821114.6520657.576727,1.3544364.576727,2.056807-.0753387,1.4294192-1.3290466,2.5328055-4.2130375,3.1597188-6.7209278.1001353-.401253.3763378-.5516932.7773535-.4262868l.0503049.0250338c.3758632.1254064.5263034.3762191.4261681.7774721Z"/>
          <path class="cls-2" d="m266.4718312,9.1138524v.0251525c0,.401253-.225423.6269133-.6269133.6269133h-2.2817555c-1.0284035,3.7868693-2.2072472,7.0971469-4.2384272,11.711556-.1755927.3762191-.4764731.5016255-.8528108.300999l-.8025059-.4264054c-.3511853-.2006265-.4261681-.4764731-.2757279-.8525736,1.9058922-4.0878684,3.1345663-7.2727396,4.0628345-10.7335761h-3.034431c-.4014902,0-.6269133-.2256603-.6269133-.6269133v-.0251525c0-.401253.225423-.6269133.6269133-.6269133h3.3604639c.225423-.9780986.4513206-2.0062648.6767436-3.1096511.0754574-.401253.3511853-.5768456.7526756-.4765917l.8523363.2006265c.3763378.1003726.5519304.3511853.4517952.7524383-.2007451.9277937-.4014902,1.8306721-.6022354,2.6331781h1.9310447c.4014902,0,.6269133.2256603.6269133.6269133Zm4.1131395-.5265407c1.8555873,1.0030138,3.3856164,2.4075178,4.9654757,4.1880036.2505755.300999.2505755.6018794-.0251525.877726l-.5519304.6018794c-.2505755.2758466-.5263034.300999-.8774887.1003726-.8528108-.4764731-1.6553168-.7524383-2.3073825-.7774721-.8523363-.0501863-1.2035216.5516932-1.3288093,1.7053844-.0503049.576727-.0503049,1.3040128-.0251525,2.1316712,0,.8025059.0749828,1.6802319.1252877,2.6582119.5016255.2257789,2.4829752,1.4295378,4.2631051,2.9593296.301355.2506941.3260329.576727.1006098.877726l-.5016255.6519471c-.2505755.3511853-.5766083.3762191-.9026412.0501863-1.3795888-1.3541991-2.3073825-2.1818575-2.9342958-2.7836183v.9277937c-.0251525.401253-.1252877.8276584-.3008804,1.2539452-.8276584,1.8307908-2.9594482,2.2068913-4.5393076,2.0312986-.752201-.1002539-1.6301643-.3510667-2.3572128-1.0281662-1.6301643-1.5798594-.9529461-4.2381899.9026412-5.1661022,1.4294192-.702252,2.9841261-.6270319,4.2631051-.300999-.0246779-1.0031324-.1001353-1.855706-.1001353-2.5829918-.0251525-.8025059.0251525-1.4796055.2007451-2.0814849.4513206-1.6050118,1.8304349-2.2068913,3.1345663-2.2068913.3511853,0,.9031158.1002539,1.0787084.1252877-.6772182-1.0030138-1.6804692-2.0312986-2.9091433-2.9090247-.3260329-.2508128-.4014902-.5266593-.2258976-.877726l.0754574-.1254064c.2002706-.3762191.4764731-.4764731.7773535-.3008804Zm-5.6426939,12.288283c-.8025059.5016255-1.0782339,1.9060109-.3763378,2.7837369.3008804.3761005.7773535.5516932,1.3544364.6269133,1.1033863.1254064,2.28223-.3761005,2.557958-1.278979.1001353-.3008804.1252877-.6269133.1252877-.9780986v-1.0783525c-1.1536912-.5015069-2.4573481-.8025059-3.6613443-.0752201Z"/>
          <path class="cls-2" d="m291.1487697,5.8286086c-.2258976.9780986-.7023706,2.9843634-1.278979,5.1160346,1.1536912,0,3.084736.4514392,3.9123943,2.1316712,1.5798594,3.1598374.1504402,7.9498391-1.1038609,10.9842702-.8271838,1.9811123-1.4042667,2.2068913-3.4102942,1.0783525-.6022354-.3260329-1.1033863-.6269133-1.4797241-.9027598-.3008804-.2007451-.3763378-.5016255-.2007451-.8276584.1755927-.401253.4764731-.4514392.8276584-.2006265.3260329.2006265.752201.4262868,1.2538265.7272858.4513206.2758466.6269133.300999.8779633-.1254064l.3260329-.7773535c.4261681-1.2289113.9529461-2.7587031,1.278979-4.3637149.3511853-1.6802319.4764731-3.3854977,0-4.7898831-.4764731-1.4295378-1.6804692-1.5297917-2.7335506-1.579978-1.0787084,3.8119031-3.5863615,10.3323231-4.3888674,12.3886555-.1504402.401253-.4764731.5016255-.8276584.300999l-.8276584-.4514392c-.3507107-.2006265-.4261681-.4764731-.2757279-.8526922.7773535-1.6802319,3.084736-6.8965205,4.2384272-11.2350829-1.0787084.1254064-2.2570776.3510667-3.9873772.8526922-.4266427.1254064-.7023706-.0501863-.777828-.4764731l-.0246779-.2006265c-.0503049-.401253.1252877-.6520657.5263034-.7523196,2.1569423-.4764731,3.3856164-.6772182,4.7149003-.8276584.6017608-2.3823653,1.0782339-4.6394429,1.278979-5.7177954.0749828-.401253.3511853-.5768456.752201-.4764731l.8779633.2256603c.4010157.1002539.5514559.3510667.4513206.7523196Zm7.5988911,13.7930409c-.7023706-4.6896292-1.3795888-7.272621-3.5109041-9.3541059-.2762025-.2759652-.3260329-.5518118-.1006098-.877726.2007451-.300999.5016255-.3511853.8025059-.1003726,3.0092786,2.4577041,4.1378174,5.5673552,4.9654757,9.8808839.0754574.401253-.1001353.6520657-.5016255.7523196l-.9277937.2256603c-.4010157.1003726-.6520657-.1002539-.7270485-.5266593Zm1.0279289-9.9309515c0,.4262868-.2505755.6269133-.6772182.6269133h-.0498304c-.4513206,0-.6520657-.2006265-.6520657-.6269133v-2.7837369c0-.4262868.2007451-.6269133.6520657-.6269133h.0498304c.4266427,0,.6772182.2006265.6772182.6269133v2.7837369Zm2.1569423,0c0,.4262868-.2007451.6269133-.6520657.6269133h-.0503049c-.4261681,0-.6772182-.2006265-.6772182-.6269133v-2.7837369c0-.4262868.25105-.6269133.6772182-.6269133h.0503049c.4513206,0,.6520657.2006265.6520657.6269133v2.7837369Z"/>
          <path class="cls-11" d="m50.3068232,70.0267921v-23.0950622c0-.6297607.3502362-.9797596.9799969-.9797596h1.0848779c.6297607,0,.9795223.3499989.9795223.9797596v9.6929522h9.2380723v-9.6929522c0-.6297607.3497616-.9797596.9799969-.9797596h1.0844033c.6302353,0,.9799969.3499989.9799969.9797596v23.0950622c0,.6298794-.3497616.9797596-.9799969.9797596h-1.0844033c-.6302353,0-.9799969-.3498802-.9799969-.9797596v-11.6524714h-9.2380723v11.6524714c0,.6298794-.3497616.9797596-.9795223.9797596h-1.0848779c-.6297607,0-.9799969-.3498802-.9799969-.9797596Z"/>
          <path class="cls-4" d="m81.7996045,58.7592008c0-3.1492781-.8746413-4.0940378-3.2541592-4.0940378-1.3297585,0-2.764398.3148804-4.4439181,1.0497594-.6999978.2798805-1.155115,0-1.155115-.734879,0-.5598796.2102366-.9097598.7351163-1.1197592,1.504402-.5948795,3.1843967-.9097598,4.8639167-.9097598,4.7239172,0,6.2287938,1.7496385,6.2287938,6.5085556v10.5677122c0,.6298794-.3502362.9797596-.9799969.9797596h-.8746413c-.6297607,0-.9799969-.3498802-1.0151154-.9797596v-1.0497594c-1.0844033,1.4696394-2.8341605,2.3795179-4.9687978,2.3795179-2.97416,0-4.8287982-2.2395183-4.8287982-5.2489155,0-3.499277,2.5541614-6.1586753,8.3629565-6.1586753h1.3297585v-1.1897589Zm-1.3297585,2.6245171c-3.5341583,0-5.3887964,1.4696394-5.3887964,4.5140365,0,2.3793992,1.0151154,3.7441576,2.2746368,3.7441576,2.4843989,0,4.4439181-2.3795179,4.4439181-6.3686747v-1.8895194h-1.3297585Z"/>
          <path class="cls-5" d="m93.4864826,78.7049848h-1.0146408c-.6297607,0-.9799969-.3499989-.9799969-.9798782v-23.4449424c0-.6298794.3502362-.9797596.9799969-.9797596h.8746413c.6302353,0,.9799969.3498802,1.0151154.9797596v.7698789c1.1195219-1.3297585,2.7292795-2.0995188,4.5487991-2.0995188,4.0590379,0,6.4385558,3.4641585,6.4385558,9.2029538,0,5.5637959-2.5195174,9.2030725-6.4385558,9.2030725-1.7844011,0-3.3590402-.6998791-4.4439181-1.8546382v8.2231942c0,.6298794-.3502362.9798782-.9799969.9798782Zm4.9341538-8.9580732c2.3092808,0,3.9541569-2.5895172,3.9541569-7.5934335,0-5.0739161-1.5048766-7.5933149-3.9541569-7.5933149-2.0297563,0-3.9541569,2.1695185-3.9541569,5.108916v4.9689164c0,2.9742787,1.9595192,5.108916,3.9541569,5.108916Z"/>
          <path class="cls-9" d="m113.2919112,78.7049848h-1.0146408c-.6297607,0-.9799969-.3499989-.9799969-.9798782v-23.4449424c0-.6298794.3502362-.9797596.9799969-.9797596h.8746413c.6302353,0,.9799969.3498802,1.0151154.9797596v.7698789c1.1195219-1.3297585,2.7292795-2.0995188,4.5487991-2.0995188,4.0590379,0,6.4385558,3.4641585,6.4385558,9.2029538,0,5.5637959-2.5195174,9.2030725-6.4385558,9.2030725-1.7844011,0-3.3590402-.6998791-4.4439181-1.8546382v8.2231942c0,.6298794-.3502362.9798782-.9799969.9798782Zm4.9341538-8.9580732c2.3092808,0,3.9541569-2.5895172,3.9541569-7.5934335,0-5.0739161-1.5048766-7.5933149-3.9541569-7.5933149-2.0297563,0-3.9541569,2.1695185-3.9541569,5.108916v4.9689164c0,2.9742787,1.9595192,5.108916,3.9541569,5.108916Z"/>
          <path class="cls-8" d="m131.0329396,53.3004046h.9795223c.5951168,0,.9448784.2799991,1.1199964.8398787l3.7443949,12.9122302,4.163919-12.94723c.1751181-.5598796.5248797-.8048788,1.0848779-.8048788h.8395228c.7351163,0,1.0497594.41988.8048788,1.1197592l-7.9780763,23.4799423c-.2102366.5598796-.5599982.8048788-1.1199964.8048788h-.8395228c-.7351163,0-1.0151154-.4548799-.7702348-1.1197592l2.3097554-6.4386745-5.1439159-16.7263875c-.209762-.6998791.104881-1.1197592.8048788-1.1197592Z"/>
          <path class="cls-2" d="m157.6599058,52.0584424v.0251525c0,.401253-.225423.6269133-.6269133.6269133h-2.2817555c-1.0284035,3.7868693-2.2072472,7.0971469-4.2384272,11.711556-.1755927.3762191-.4764731.5016255-.8528108.300999l-.8025059-.4264054c-.3507107-.2006265-.4261681-.4764731-.2757279-.8525736,1.9058922-4.0877497,3.1350409-7.2727396,4.0628345-10.7335761h-3.034431c-.4014902,0-.6269133-.2256603-.6269133-.6269133v-.0251525c0-.401253.225423-.6269133.6269133-.6269133h3.3604639c.225423-.9780986.4513206-2.0062648.6767436-3.1097698.0754574-.401253.3511853-.576727.7526756-.4764731l.8523363.2006265c.3763378.1003726.5519304.3511853.4517952.7524383-.2007451.9279123-.4014902,1.8306721-.6022354,2.6331781h1.9310447c.4014902,0,.6269133.2256603.6269133.6269133Zm4.1131395-.5266593c1.8555873,1.003251,3.3856164,2.4075178,4.9654757,4.1881223.2505755.300999.2505755.6018794-.0251525.877726l-.5514559.6018794c-.25105.2758466-.526778.300999-.8779633.1003726-.8528108-.4764731-1.6553168-.7523196-2.3073825-.7774721-.8523363-.0501863-1.2035216.5516932-1.3288093,1.7053844-.0503049.576727-.0503049,1.3040128-.0251525,2.1315525,0,.8025059.0749828,1.6803506.1252877,2.6583305.5016255.2257789,2.4829752,1.4295378,4.2631051,2.9592109.301355.2508128.3260329.5768456.1006098.8778447l-.5016255.6519471c-.25105.3511853-.5766083.3762191-.9026412.0501863-1.3795888-1.3541991-2.3073825-2.1817388-2.9342958-2.7837369v.9279123c-.0251525.401253-.1252877.8276584-.3008804,1.2539452-.8276584,1.8306721-2.9594482,2.2068913-4.5393076,2.0314173-.752201-.1003726-1.6301643-.3511853-2.3572128-1.0282849-1.6301643-1.579978-.9529461-4.2381899.9026412-5.1661022,1.4294192-.702252,2.9841261-.6269133,4.2635797-.300999-.0251525-1.0031324-.1006098-1.855706-.1006098-2.5829918-.0251525-.8025059.0251525-1.4796055.2007451-2.0814849.4513206-1.6050118,1.8304349-2.2068913,3.1345663-2.2068913.3511853,0,.9031158.1002539,1.0787084.1254064-.6772182-1.003251-1.6804692-2.0314173-2.9091433-2.9091433-.3260329-.2508128-.4014902-.5266593-.2258976-.877726l.0754574-.1254064c.2002706-.3762191.4764731-.4764731.7773535-.300999Zm-5.6426939,12.2884016c-.8025059.5016255-1.0782339,1.9060109-.3763378,2.7837369.3008804.3762191.777828.5516932,1.3544364.6269133,1.1033863.1254064,2.28223-.3761005,2.557958-1.278979.1001353-.3008804.1252877-.6269133.1252877-.9779799v-1.0784711c-1.1536912-.5015069-2.4578227-.8025059-3.6613443-.0752201Z"/>
          <path class="cls-2" d="m178.224654,73.1773753h-.9572173c-.5941676,0-.9239971-.3300667-.9239971-.9241157v-14.5553266c-.3962699.7921839-.8585057,1.6172321-1.3862329,2.5083649-.3630497.6271505-.9244716.5941676-1.2875213,0l-.2638636-.4290156c-.2638636-.4291342-.2638636-.8251669,0-1.2541825,2.2115184-3.6635985,3.8943605-8.2513128,4.9175437-13.6312109.0991861-.594049.4954561-.8581498,1.0891491-.7590823l.7593196.1320504c.5941676.0989488.8580312.4619985.7593196,1.0561661-.4294902,2.3103486-.9904375,4.5877142-1.7825028,6.9310458v20.0011907c0,.594049-.3298295.9241157-.9239971.9241157Zm19.5719378-12.839027c0,.594049-.3298295.8911328-.9239971.8911328h-5.7100836v9.0434967h7.1622823c.5941676,0,.9239971.3299481.9239971.9241157,0,.561066-.3298295.8581498-.9239971.8581498h-17.3936396c-.5941676,0-.9244716-.3300667-.9244716-.9242344,0-.561066.330304-.8580312.9244716-.8580312h7.3929257v-9.0434967h-5.9739471c-.5941676,0-.9239971-.3300667-.9239971-.9241157,0-.5280831.3298295-.8251669.9239971-.8251669h5.9739471v-7.5581963h-7.0630962c-.5941676,0-.9239971-.3300667-.9239971-.9241157,0-.561066.3298295-.8581498.9239971-.8581498h16.7007605c.5941676,0,.9239971.3300667.9239971.9241157,0,.5611847-.3298295.8581498-.9239971.8581498h-6.7992326v7.5581963h5.7100836c.5941676,0,.9239971.2970838.9239971.8581498Zm-4.8188321-11.6837934c-2.3434502-1.287284-4.6864258-2.2443827-7.1618078-2.9704821-.5614219-.1650334-.7925399-.5280831-.6273878-1.1222507l.0332202-.0659659c.1319318-.594049.5277271-.8251669,1.1218947-.6601335,2.5413479.6931164,5.0499501,1.6833167,7.4921118,2.9704821.4954561.2641009.6601335.6601335.4622358,1.2211995l-.0659659.1980163c-.2311179.5941676-.6933537.7260994-1.2543011.4291342Z"/>
          <path class="cls-2" d="m222.817597,65.8014157c.301355.2508128.3511853.5516932.1257623.877726l-.6269133.8526922c-.25105.3510667-.5770829.3761005-.9031158.0752201-2.2067726-2.0314173-3.8117845-2.9341771-4.0376821-3.0846173,0,.4514392-.0749828.9279123-.225423,1.3792329-.7275231,2.2570776-3.1098884,2.8339232-4.8904929,2.7587031-1.6301643-.0752201-4.6142904-1.1787251-3.9622247-4.0877497.5016255-2.3072639,3.2100237-2.5580766,4.840188-2.5580766.8523363,0,1.7051471.1003726,2.2570776.2758466v-5.3667287h-6.2696072c-.4014902,0-.6269133-.2256603-.6269133-.6269133v-.0251525c0-.401253.225423-.6269133.6269133-.6269133h6.2444547v-3.6363105h-6.9468254c-.4010157,0-.6269133-.2257789-.6269133-.6270319v-.0250338c0-.401253.2258976-.6270319.6269133-.6270319h6.9468254v-2.4827379c0-.401253.225423-.6269133.6269133-.6519471h.9026412c.4014902,0,.6269133.2256603.6269133.6269133v2.5077717h4.9906282c.4014902,0,.6269133.2257789.6269133.6270319v.0250338c0,.401253-.225423.6270319-.6269133.6270319h-5.0153061v3.6363105h4.3385625c.4010157,0,.6269133.2256603.6269133.6269133v.0251525c0,.401253-.2258976.6269133-.6269133.6269133h-4.3637149v5.8432018c2.3320604.8778447,4.4135453,2.3322977,5.341339,3.0345497Zm-12.7646374-.9028785c-.1755927,1.4796055,1.1536912,1.9561972,2.2570776,1.981231,1.2035216.0250338,2.4326702-.2256603,2.8839908-1.7304182.1252877-.3762191.1252877-.8275397.1252877-1.2287927-.6017608-.2758466-1.4042667-.4764731-2.2067726-.5016255-1.003251-.0500676-2.9091433.1254064-3.0595835,1.4796055Z"/>
          <path class="cls-2" d="m234.6292883,51.1556826c-.2258976,2.557958-.4513206,4.5893752-.3763378,6.6708602.0503049,1.9310447.1257623,4.2131561,2.0814849,6.7961479.1006098-.5266593.1755927-1.2037589.4014902-1.9560785.2505755-.8025059.526778-1.4294192.8276584-2.0312986.2007451-.401253.4261681-.8025059.6772182-1.2289113.2002706-.3761005.5011509-.4513206.8271838-.2508128.301355.2257789.4014902.4514392.25105.702252-.4014902.6770995-.8025059,1.579978-1.1285388,2.6331781-.4513206,1.6050118-.4014902,2.8339232-.3008804,3.4858703.0498304.3260329,0,.5768456-.25105.8025059l-.6269133.5768456c-.2757279.2758466-.5766083.2758466-.8774887.0251525-1.8309094-1.6050118-3.1098884-3.6866154-3.5863615-6.3950136-.3008804-1.7304182-.4010157-3.4608365-.3511853-5.1912547.0251525-1.5297917.1755927-3.0846173.3260329-4.7398154.0251525-.401253.25105-.6018794.6520657-.5516932h.8528108c.4261681,0,.6269133.2256603.6017608.6520657Zm12.9155522,10.9592364c-.4266427-4.0627159-1.530029-6.1943871-3.6618189-8.4263122-.2757279-.2758466-.3008804-.5518118-.0749828-.8276584.225423-.2758466.752201-.2506941,1.4797241.2508128,3.7116492,2.4577041,4.4638502,7.0219268,4.6142904,8.6520912.0251525.401253-.1755927.6269133-.5519304.7021334l-1.0782339.2006265c-.4261681.0501863-.6772182-.1254064-.7270485-.5516932Z"/>
        </g>
      </g>
    </g>
  </g>
</svg>