<?xml version="1.0" encoding="UTF-8"?>
<svg id="_レイヤー_2" data-name="レイヤー 2" xmlns="http://www.w3.org/2000/svg" viewBox="0 0 757.0058594 110.0071182">
  <defs>
    <style>
      .cls-1 {
        fill: #231815;
      }

      .cls-1, .cls-2, .cls-3, .cls-4, .cls-5, .cls-6, .cls-7, .cls-8, .cls-9 {
        stroke-width: 0px;
      }

      .cls-3 {
        fill: none;
      }

      .cls-4 {
        fill: #c5252c;
      }

      .cls-5 {
        fill: #c96b90;
      }

      .cls-6 {
        fill: #211613;
      }

      .cls-7 {
        fill: #c31d1d;
      }

      .cls-8 {
        fill: #bc272d;
      }

      .cls-9 {
        fill: #143367;
      }
    </style>
  </defs>
  <g id="_ヘッダー" data-name="ヘッダー">
    <g>
      <g>
        <path class="cls-7" d="m97.7439841,22.1677582s4.5244596-13.1389588,16.5469198-10.2881456c12.0241971,2.8512771,11.4034817,13.2629503,10.2882619,17.9719779-1.116966,4.7181793-8.6767915,12.6432913-15.4935248,17.1054588-6.8171973,4.4621675-10.9689492,9.2958826-11.3416569,10.907817-.3710836-1.6119344-4.5244596-6.4456495-11.3411929-10.907817-6.8171973-4.4621675-14.3759819-12.3872795-15.4939888-17.1054588-1.1152229-4.7090276-1.7348943-15.1207008,10.2887259-17.9719779,12.0219962-2.8508131,16.5464558,10.2881456,16.5464558,10.2881456Z"/>
        <g>
          <g>
            <path class="cls-9" d="m41.4702518,60.9808642h.7841151c.2539055,0,.5780967.0458485.5776754.3451174.0004213.3016138.0004213,2.7251173.0004213,2.7251173,0,0-.8769612.3229613-2.4700967.3222335-1.5915822,0-3.7146208-.8769442-3.7146208-3.3000434s2.2158508-3.3695035,3.8543497-3.3695035c.7375388,0,1.6606549.0465763,1.6606549.4611538l.0004043.8070798c-.623443-.5070023-.8772676-.5986185-1.823655-.5986185-.9460809-.0004043-2.642251.6230387-2.6418467,2.6430428,0,2.0183868,2.2730199,3.2186966,4.1654243,2.4566567,0,0-.0003234-1.2231937,0-1.5461549,0-.3229613-.0232881-.9460809-.3928257-.9460809Z"/>
            <path class="cls-9" d="m53.3554535,64.2114475h2.0073895c-.5539656-.2069249-.7846002-.8765399-.9697733-1.3613862-.1835559-.4848462-1.6373668-4.0155069-1.7995752-4.5003532-.1611399-.4848462-.3901573-.4848462-.5757347-.4848462h-1.1544613c.5547107.184041.2535012.5772711.1618849.8544647-.0927483.276385-2.0322141,5.0775434-2.0322141,5.0775434-.6688064-.1855774-2.3531538-2.6541208-2.3531538-2.6541208,2.2386709-.6463269,1.8936173-3.2778873-.2985411-3.2778873h-2.5162517c.5093473.1161173.4611538.6467312.4611538,1.0621173v4.3620798c0,.6001549-.1847688.7612312-.483229.9223884l1.8450194-.0008086c-.5053851-.2298087-.3691333-.7604226-.3691333-1.0147324-.0008086-.2543098-.0008086-4.7076015-.0008086-4.7076015h.9933849c.5298862,0,.9223076.6455991.9223076,1.0862141,0,.713442-.553902.9902313-1.107885,1.1986926-.5535786.2069249-.2535012.669615,0,1.0388292.2550375.3691333.9929806,1.4067495,1.4308462,1.9145605.4382699.5085387.8307722.4840376,1.0400421.4840376h1.6606549c-.6451948-.2061163-.3004818-.7150593-.208444-.9689647.0923268-.2526925.5077129-1.3376937.5077129-1.3376937h2.4917506s.3008861.7833873.5772711,1.4766948c.2767893.6921754.0691367.7857323-.230213.8307722Zm-2.5844989-3.0465422l.9464043-2.4692711,1.0150558,2.4696755-1.9614601-.0004043Z"/>
            <path class="cls-9" d="m73.5685117,64.2106388h2.007713c-.5531743-.2061163-.7833064-.8757313-.9684795-1.3605775-.184041-.4841185-1.6381576-4.0155069-1.800869-4.5003532-.1610763-.4848462-.390885-.4848462-.5756538-.4848462h-1.1533292c.5559236.1847688.2530968.5772711.1607529.8544647-.0932334.276385-2.0314054,5.0775434-2.0314054,5.0775434-.1295226.2976516-.3182713.3047674-.435925.4145775.2080569-.0008086,1.6606549,0,1.6606549,0-.6455183-.2065206-.3004818-.7150593-.2088655-.9697734.0924248-.2526925.5073258-1.3376937.5073258-1.3376937h2.4922536s.3008052.7841959.5771724,1.4766948c.2771936.6917711.069541.7857323-.2313451.8299636Zm-2.5825582-3.0457336l.9447871-2.4692711,1.015541,2.4692711h-1.9603281Z"/>
            <path class="cls-9" d="m66.4666965,64.3270796c.2317318-.206844.43827-.368729.43827-1.1082893v-4.3620798c0-.3451174-.0221737-.7375388-.43827-.8757313h1.7771589c-.1844453.1610763-.4043081.368729-.4043081.8306914v4.4063111c0,.3933109-.0802147.9705011.4267876,1.1086936l-1.7996384.0004043Z"/>
            <path class="cls-9" d="m56.91013,59.3423653s-.0232881,3.4844079-.0232881,3.8756164c0,.3933109.0473849.9705011.5539829,1.1086936l-1.6855603.0004043c.2317667-.2072483.4161947-.368729.4161947-1.1090979,0-.7382665.046172-4.0150218.046172-4.3612712,0-.3458451-.046172-.7375388-.4623667-.8757313h1.2942884l3.8756972,4.8690822v-3.9700627c0-.2539055.0457502-.7379431-.485268-.9223076l1.7324601.0004043c-.2080569.1610763-.5081169.2297278-.5081169.8986151v5.7250832s-.4856724.0915353-1.2693831-.854869c-.7853105-.9451914-3.4848121-4.3845594-3.4848121-4.3845594Z"/>
            <path class="cls-4" d="m67.9342363,69.2439509c-5.0727724-4.2815417-7.0145832-9.316471-.0718051-16.1877676.2155771-.2167091.4224211-.0875731.2518839.1078694-3.0461378,3.479637-6.4369887,9.0439673-.0726137,15.8635125.1022091.1066565.0631529.3308857-.1074651.2163857Z"/>
          </g>
          <path class="cls-9" d="m77.2357476,64.4917138c-.1702137,0-.3300771-.0323446-.478539-.0971148-.1488483-.0647702-.2788108-.1524241-.3901573-.2636897-.1109421-.111023-.1985783-.2408868-.2632675-.389753-.064788-.1488662-.0972135-.3083253-.0972135-.478539,0-.1681922.0324255-.3269235.0972135-.4757897.0646893-.1484619.1523254-.2779214.2632675-.3880549.1113464-.1098101.2413089-.1970598.3901573-.2618299.1484619-.0646893.3083253-.0971148.478539-.0971148.1681922,0,.3265192.0324255.4753854.0971148.1487854.0647702.27873.1520198.3896721.2618299.1113464.1101335.1985961.239593.2621533.3880549.0635572.1488662.0955784.3075976.0955784.4757897,0,.1702137-.0320212.3296728-.0955784.478539s-.1508069.27873-.2621533.389753c-.1109421.1112656-.2408867.1989196-.3896721.2636897-.1488662.0647702-.3071933.0971148-.4753854.0971148Zm0-.161885c.1487854,0,.2862501-.0275738.4121516-.0824788.1263867-.054905.2345795-.1302681.325405-.2262508.0903854-.0959019.1614627-.2088656.2131333-.3380016.0521557-.1294594.0777889-.2696735.0777889-.4204804,0-.1488662-.0256331-.2877865-.0777889-.4173268-.0516706-.1294594-.1227479-.2416145-.2131333-.3363843-.0908255-.0947698-.1990183-.1698094-.325405-.2246336-.1259015-.0553093-.2633663-.0825597-.4121516-.0825597-.1488662,0-.2866544.0272504-.4141732.0825597-.1271953.0548242-.2365202.1298638-.3281364.2246336s-.1634213.2069249-.2151728.3363843c-.0517514.1295403-.0773846.2684606-.0773846.4173268,0,.1508069.0256331.291021.0773846.4204804.0517514.129136.1235565.2420997.2151728.3380016.0916162.0959827.2009411.1713458.3281364.2262508.1275188.054905.265307.0824788.4141732.0824788Zm.6111521-.3817477h-.2005368l-.3912893-.6305589h-.3071933v.6305589h-.1681922v-1.3680977h.5981334c.1812917,0,.3076155.0323446.3786749.0971148.0710774.0647702.1065756.1532328.1065756.265307,0,.0667108-.0105929.1239609-.0323446.1713458-.0213475.0473849-.0517514.0857133-.0904033.1149044-.0387148.0288676-.0845004.0505385-.137366.0647702-.0529823.0138273-.1094237.0220752-.1698094.0240968l.413751.6305589Zm-.6435776-.7632528h.1551734c.056118,0,.1086151-.0063072.157195-.0193259.0481127-.0130187.0879774-.0367112.1196122-.0710774.0311947-.0347705.0465584-.0864411.0465584-.1555777,0-.0536921-.0098651-.0963062-.0303861-.1275188-.0205568-.0312126-.0469985-.054905-.0793432-.0710774-.0324255-.0161723-.0691367-.0272504-.1101335-.0323446-.0406734-.0055795-.0817511-.0083287-.1228288-.0083287h-.3912893v.4852506h.2554418Z"/>
        </g>
        <path class="cls-5" d="m37.1891814,81.4944119c.2275367,0,.7106538.2558991.7106538,1.4783511,0,3.1561951-1.6204818,5.3455186-4.1511104,5.3455186-3.7243994,0-4.6629086-2.8432525-4.6629086-6.6533765v-6.3401152c0-3.7530805-.7960597-6.7101013-3.2980071-6.7101013-3.3266882,0-5.0893008,3.2696447-5.0893008,7.9041909v9.8943401c0,1.222452-.7393349,1.7342502-1.3932638,1.7342502-.7960597,0-1.1657271-.3980299-1.1657271-.3980299v-12.42465c0-3.7530805-.7960597-6.7101013-3.2980071-6.7101013-3.6393122,0-5.1179819,3.9519361-5.1179819,9.2687736v3.6393122c0,4.4070095-1.2791768,7.6482918-4.6625899,7.6482918-2.8719336,0-4.378647-1.563757-4.378647-3.7814429,0-1.7912937.7106538-2.1893235,1.4216262-2.1893235.7393349,0,1.0235964.6539289,1.0235964.6539289,0,0-.2275367.5972041-.2275367,1.5921194,0,1.9334244,1.0235964,2.558991,2.1609611,2.558991,1.1657271,0,2.0185117-1.0803212,2.0185117-4.7766769v-11.0030238c0-2.2176859-.995234-3.6393122-2.4165415-3.6393122-1.4503073,0-2.6160345.7960597-2.6160345,4.2078352,0,.5688417.2275367,1.0235964.2275367,1.0235964,0,0-.2558991.341305-.9949153.341305-.4550734,0-1.2794955-.3696674-1.2794955-1.8196561,0-2.9853832,1.9617868-5.0609384,5.0038949-5.0609384,2.8148901,0,4.037342,1.6488442,4.4637343,4.0940668.8247408-2.473585,2.7581652-4.1794728,5.373881-4.1794728,2.9570208.0283624,4.691271,1.8196561,5.4306058,4.6061837.7390162-2.7011217,2.7578465-4.6061837,5.5156931-4.6061837,4.0943855.0283624,5.8853605,3.4404566,5.8853605,8.1317275v8.0463216c0,2.2176859.995234,3.6393122,2.4168602,3.6393122,1.563757,0,2.6724406-1.2511331,2.6724406-5.3455186,0,0,.0286811-.1704932.4267109-.1704932Z"/>
        <path class="cls-6" d="m52.4844902,80.9826137c.2275367,0,.5117982.2842615.5117982,1.5070322,0,3.1558764-1.4216262,5.3168375-3.9522548,5.3168375-1.9617868,0-3.2126012-.909828-3.8098053-2.5306285-.6822914,1.4786697-1.9617868,2.5306285-3.6109498,2.5306285-3.127514,0-4.9755325-1.8766996-4.9755325-6.510927,0-4.6345461,2.5019474-6.4258398,5.6581425-6.4258398,1.4499886,0,2.3027732.341305,2.786209.8244221.2558991-.568523.7676973-.8244221,1.3078579-.8244221.7960597,0,1.0803212.3980299,1.0803212.3980299v8.16009c0,2.2176859.7676973,3.2696447,1.905062,3.2696447,1.563757,0,2.6727593-1.4499886,2.6727593-5.5443742,0,0,.0283624-.1704932.4263923-.1704932Zm-7.5915669,1.8766996v-3.8952113c0-1.8766996-1.1657271-2.9853832-2.3311356-2.9853832-1.8766996,0-3.2129199.568523-3.2129199,5.3168375,0,4.7479958,1.222452,5.4019247,2.6157158,5.4019247.9665529,0,2.9283397-1.3078579,2.9283397-3.8381678Z"/>
        <path class="cls-5" d="m59.3360849,79.2483635c0-2.5019474-.68261-3.3834131-1.7062064-3.3834131-1.7626126,0-2.9283397,1.5067135-2.9283397,7.0794501v4.464053s-.2842615.3980299-1.0803212.3980299c-.7676973,0-1.4786697-.5117982-1.4786697-1.7345688v-10.8041682s.2842615-.3980299,1.0806399-.3980299c.7673786,0,1.4783511.5117982,1.4783511,1.7342502.6255665-1.1086836,1.6491629-1.7342502,3.2696447-1.7342502,1.6775253,0,3.0137456.7676973,3.6393122,2.3030919.6255665-1.4786697,1.7629313-2.3030919,3.6109498-2.3030919,2.3881791,0,4.037342,1.5353946,4.037342,4.5207778v4.037342c0,2.2176859.7676973,3.2696447,1.905062,3.2696447,1.2791768,0,2.6724406-1.1657271,2.6724406-5.5443742,0,0,.0283624-.1704932.4263923-.1704932.2275367,0,.5117982.2842615.5117982,1.5070322,0,3.1558764-1.4216262,5.3168375-3.9519361,5.3168375-2.8716149,0-4.2365163-1.9904679-4.2365163-5.2317503v-3.3263696c0-2.5019474-.6822914-3.3834131-1.7058877-3.3834131-1.4783511,0-2.8999773,1.4783511-2.8999773,7.1364936v4.4070095s-.2842615.3980299-1.0803212.3980299c-.7676973,0-1.563757-.5117982-1.563757-1.7345688v-6.823551Z"/>
        <path class="cls-6" d="m89.701078,80.9826137c.2275367,0,.5117982.2842615.5117982,1.5070322,0,3.1558764-1.4216262,5.3168375-3.9522548,5.3168375-1.9617868,0-3.2126012-.909828-3.8098053-2.5306285-.6822914,1.4786697-1.9617868,2.5306285-3.6109498,2.5306285-3.127514,0-4.9755325-1.8766996-4.9755325-6.510927,0-4.6345461,2.5019474-6.4258398,5.6581425-6.4258398,1.4499886,0,2.3027732.341305,2.786209.8244221.2558991-.568523.7676973-.8244221,1.3078579-.8244221.7960597,0,1.0803212.3980299,1.0803212.3980299v8.16009c0,2.2176859.7676973,3.2696447,1.905062,3.2696447,1.563757,0,2.6727593-1.4499886,2.6727593-5.5443742,0,0,.0283624-.1704932.4263923-.1704932Zm-7.5915669,1.8766996v-3.8952113c0-1.8766996-1.1657271-2.9853832-2.3311356-2.9853832-1.8766996,0-3.2129199.568523-3.2129199,5.3168375,0,4.7479958,1.222452,5.4019247,2.6157158,5.4019247.9665529,0,2.9283397-1.3078579,2.9283397-3.8381678Z"/>
        <path class="cls-6" d="m92.0035325,74.4433242c-.7676973,0-1.336539-.5117982-1.336539-1.7345688l-.0283624-5.1743881s.1421308-.3980299.9381905-.3980299c.7676973,0,1.336539.5117982,1.336539,1.7342502l.0283624,5.1747067s-.1421308.3980299-.9381905.3980299Z"/>
        <path class="cls-5" d="m94.3630305,77.8267373c.0283624-1.7629313,1.5067135-2.9570208,4.7479958-2.9570208,3.0991516,0,4.8050393,1.3362203,4.8050393,2.6440782,0,.7393349-.6539289,1.1373647-1.222452,1.1373647-.68261,0-.8531032-.3409863-.8531032-.3409863,0,0,.1704932-.1991743.1704932-.6539289,0-1.0235964-1.5350759-1.6775253-2.786209-1.6775253-1.4216262,0-2.558991.4831171-2.558991,1.563757,0,3.0991516,7.847466,2.2744108,7.847466,6.6530578,0,2.5303099-2.5022661,3.6109498-5.7148673,3.6109498-3.5255438,0-5.8002733-2.3314543-5.8002733-5.2030692,0-1.0806399.4834358-1.7058877,1.1373647-1.7058877.6822914,0,.7960597.3409863.7960597.3409863,0,0-.1704932.4263923-.1704932,1.0519588,0,2.4168602,1.4783511,4.4070095,4.1794728,4.4070095,1.9901493,0,3.0137456-.6255665,3.0421081-2.13228.0283624-3.2983258-7.7050166-2.3314543-7.6196107-6.7384637Z"/>
        <path class="cls-5" d="m147.1031011,80.9826137c.2275367,0,.5117982.2842615.5117982,1.5070322,0,3.1558764-1.4216262,5.3168375-3.9522548,5.3168375-1.9617868,0-3.2126012-.909828-3.8098053-2.5306285-.6822914,1.4786697-1.9617868,2.5306285-3.6109498,2.5306285-3.127514,0-4.9755325-1.8766996-4.9755325-6.510927,0-4.6345461,2.5019474-6.4258398,5.6581425-6.4258398,1.4499886,0,2.3027732.341305,2.786209.8244221.2558991-.568523.7676973-.8244221,1.3078579-.8244221.7960597,0,1.0803212.3980299,1.0803212.3980299v8.16009c0,2.2176859.7676973,3.2696447,1.905062,3.2696447,1.563757,0,2.6727593-1.4499886,2.6727593-5.5443742,0,0,.0283624-.1704932.4263923-.1704932Zm-7.5915669,1.8766996v-3.8952113c0-1.8766996-1.1657271-2.9853832-2.3314543-2.9853832-1.8763809,0-3.2126012.568523-3.2126012,5.3168375,0,4.7479958,1.222452,5.4019247,2.6157158,5.4019247.9665529,0,2.9283397-1.3078579,2.9283397-3.8381678Z"/>
        <path class="cls-6" d="m153.7555216,87.7778023c-1.4499886,0-3.3266882-.8811469-3.3266882-3.8098053,0-3.4401379,1.9334244-5.6294614,4.6345461-6.9656817-.5968854-.8247408-1.3645827-1.0235964-2.0755552-1.0235964-1.3932638,0-3.696037,1.3645827-3.696037,5.2314316v16.9170654s-.2842615.3980299-1.0806399.3980299c-.7676973,0-1.4783511-.5117982-1.4783511-1.7342502v-21.5232491s.2842615-.3980299,1.0803212-.3980299c.7676973,0,1.4786697.5117982,1.4786697,1.7342502v.6255665c.8527845-1.3645827,2.3027732-2.3598167,4.037342-2.3598167,1.4499886,0,2.7294841.4263923,3.6676746,1.3649014,2.1039176-.68261,4.4924154-.9668716,6.6814202-.9668716.6539289,0,.7676973.4263923.7676973.6255665,0,.2275367-.1704932.4263923-.1704932.4263923-1.6775253,0-4.1511104.2275367-6.4825646.9668716.5972041,1.0235964.9381905,2.4165415.9381905,4.1794728,0,3.9519361-2.0468741,6.3117528-4.9755325,6.3117528Zm1.8763809-9.5813975c-2.13228,1.1657271-3.7527618,2.9853832-3.7527618,5.8569981,0,1.7912937.909828,2.6157158,1.8196561,2.6157158,1.4499886,0,2.3314543-.995234,2.3314543-5.2030692,0-1.4216262-.1708118-2.473585-.3983485-3.2696447Z"/>
        <path class="cls-5" d="m169.3644104,87.7778023c-1.4499886,0-3.3266882-.8811469-3.3266882-3.8098053,0-3.4401379,1.9334244-5.6294614,4.6345461-6.9656817-.5968854-.8247408-1.3645827-1.0235964-2.0755552-1.0235964-1.3932638,0-3.696037,1.3645827-3.696037,5.2314316v16.9170654s-.2842615.3980299-1.0806399.3980299c-.7676973,0-1.4783511-.5117982-1.4783511-1.7342502v-21.5232491s.2842615-.3980299,1.0803212-.3980299c.7676973,0,1.4786697.5117982,1.4786697,1.7342502v.6255665c.8527845-1.3645827,2.3027732-2.3598167,4.037342-2.3598167,1.4499886,0,2.7294841.4263923,3.6676746,1.3649014,2.1039176-.68261,4.4920967-.9668716,6.6814202-.9668716.6539289,0,.768016.4263923.768016.6255665,0,.2275367-.1708118.4263923-.1708118.4263923-1.6775253,0-4.1511104.2275367-6.4825646.9668716.5972041,1.0235964.9381905,2.4165415.9381905,4.1794728,0,3.9519361-2.0471928,6.3117528-4.9755325,6.3117528Zm1.8763809-9.5813975c-2.13228,1.1657271-3.7527618,2.9853832-3.7527618,5.8569981,0,1.7912937.909828,2.6157158,1.8196561,2.6157158,1.4499886,0,2.3311356-.995234,2.3311356-5.2030692,0-1.4216262-.1701745-2.473585-.3980299-3.2696447Z"/>
        <path class="cls-6" d="m185.7123153,76.6039667c0-1.222452.7112911-1.7342502,1.4786697-1.7342502.7960597,0,1.0803212.3980299,1.0803212.3980299v14.4434803c.3416237-.0283624.68261-.0283624,1.0522775-.0283624.6539289,0,.7673786.4263923.7673786.6255665,0,.2275367-.1701745.4263923-.1701745.4263923-.5404793,0-1.0809586,0-1.6494816.0283624v1.4216262c0,3.9522548-1.9331057,6.3120715-4.8617641,6.3120715-1.4499886,0-3.3263696-.7676973-3.3263696-3.2412823,0-3.0421081,2.5016288-4.605865,5.6291427-5.2314316v-4.4353719c-.7673786,1.4216262-2.0185117,2.2176859-3.8381678,2.2176859-2.3881791,0-3.9235737-1.5353946-3.9235737-4.5207778v-6.6817389c0-1.222452.7106538-1.7342502,1.4786697-1.7342502.7960597,0,1.0803212.3980299,1.0803212.3980299v8.16009c0,2.5019474.6819727,3.3834131,1.7055691,3.3834131,1.7629313,0,3.4971814-1.5070322,3.4971814-7.0794501v-3.1278327Zm-4.1791541,18.7370401c0,1.3929451.9095094,2.0468741,1.8196561,2.0468741,1.4499886,0,2.359498-.9949153,2.359498-6.2833904-2.3027732.5117982-4.1791541,1.6491629-4.1791541,4.2365163Z"/>
        <path class="cls-5" d="m188.3232649,67.53214c0-1.2573636.8385905-2.0959541,2.8415999-2.0959541h4.4258363v-6.708724s.1399391-.652179,1.4442972-.652179c1.2573636,0,2.0959541.8385905,2.0959541,2.8415999v4.5193031l6.6617295-.0469945s.6527012.1399391.6527012,1.4442972c0,1.2578858-.8385905,2.0964763-2.8415999,2.0964763l-4.4728308.0464723.0469945,6.5687849s-.1399391.652179-1.4442972.652179c-1.2584079,0-2.0959541-.8385905-2.0959541-2.8415999l-.0469945-4.379364h-6.6157793s-.6516569-.139417-.6516569-1.4442972Z"/>
        <path class="cls-6" d="m128.4392575,79.2153355h2.464662c.664764,0,.997146.3878321.997146.8311144,0,.4429636-.2492068.6093139-.2492068.6093139h-3.2126012v5.2620247c0,1.1909028-.7202141,1.6893164-1.3572531,1.6893164-.7753456,0-1.1354526-.3878321-1.1354526-.3878321v-6.5635091h-8.1145189v1.5506912c0,4.5144042-1.301803,6.8962097-4.403504,6.8962097-1.8279417,0-2.9356693-1.2186278-2.9356693-3.4063579,0-3.7113336,2.436937-5.7884822,4.8464676-6.2591708v-11.6043707c0-1.1909028.7202141-1.6893164,1.3572531-1.6893164.7753456,0,1.1354526.3875134,1.1354526.3875134v12.7120983h8.1145189v-13.8475509c0-1.1909028.7202141-1.6893164,1.3572531-1.6893164.7753456,0,1.1354526.3878321,1.1354526.3878321v15.1213102Zm-13.0999304,3.2129199v-1.5510098c-2.0216985.4429636-3.5727083,2.1603237-3.5727083,4.9019177,0,1.4401096.7202141,2.1603237,1.6619101,2.1603237,1.1631777,0,1.8830732-1.0800025,1.9107982-5.5112316Z"/>
        <path class="cls-6" d="m186.8700047,89.651074h2.8306467c1.2798142,0,2.673078-1.1657271,2.673078-5.5443742,0,0,.0280437-.1704932.4263923-.1704932.2275367,0,.5117982.2842615.5117982,1.5070322,0,3.1558764-1.4219449,5.3168375-3.9522548,5.3168375h-2.0492234"/>
        <g>
          <path class="cls-6" d="m202.2481863,57.7332804h3.1913179c-.0384144-.1536574-.0193901-.2882906.0578045-.4035336.0768287-.1280478.2048765-.1924376.3845094-.1924376.127682,0,.2367056.0449997.3267049.1346332.0768287.0768287.1218284.1730475.1346332.2882906.0124389.1284137-.0128048.2374373-.0768287.3267049-.0643898.1028041-.166828.166828-.3076807.1924376-.2692663.9102372-.6219466,1.6276709-1.0573093,2.1530329-.4104848.512923-.9804806.9486515-1.7110849,1.3075513l-.4807282-.6153613c1.2943807-.5893859,2.0827895-1.4352333,2.3648606-2.5375422h-2.8261986v-.6537757Zm3.767899.0193901c.0387802-.0384144.0578045-.083414.0578045-.1346332s-.0190242-.0962188-.0578045-.1346332c-.0384144-.0384144-.083414-.0578045-.1342673-.0578045-.051585,0-.0962188.0193901-.1346332.0578045s-.0578045.083414-.0578045.1346332.0193901.0962188.0578045.1346332.0830482.0574386.1346332.0574386c.0508533,0,.0958529-.0190242.1342673-.0574386Z"/>
          <path class="cls-6" d="m206.7159581,59.290708v-.6537757h3.1529035l.0578045-.0578045.4803623.346095c-.1920718.5897517-.4741428,1.1088942-.8458474,1.5574275-.4485333.5509715-.9610905.9288956-1.5380374,1.134138l-.4613381-.576947c.9738952-.4097531,1.6082808-.9929195,1.9035225-1.7491334h-2.7493699Zm.4613381-1.0576751v-.6343856h2.6147368v.6343856h-2.6147368Z"/>
          <path class="cls-6" d="m210.8760493,60.6747221c.6793852-.2817052,1.217552-.6153613,1.6148661-.9998707.4232896-.3969483.7306044-.8776764.923042-1.4418186h-2.0955943v-.6727999h2.5375422l.0962188-.0574386.4423138.3841435c-.346095.7690187-.6025565,1.2881612-.7690187,1.5574275.4997524.4101189.9676758.8396279,1.4033976,1.2881612l-.5769403.5959712c-.3973141-.5125572-.8202378-.9354809-1.2687711-1.269137-.4873135.5641422-1.1023089,1.006456-1.8453522,1.3265756l-.4617039-.7112143Z"/>
        </g>
      </g>
      <g>
        <path class="cls-1" d="m245.9858398,47.8408203v-2.0517578h8.4345703v-3.5107422h-5.4711914v-2.0058594h5.4711914v-3.1235352h-5.949707v-1.3447266c-.5473633.2963867-1.4135742.7294922-2.0517578,1.0029297l-1.1625977-2.1655273c6.1777344-2.3481445,9.3920898-6.5429688,9.3920898-6.5429688h1.8007812s3.7387695,4.0805664,9.5063477,6.246582l-1.2084961,2.1655273c-.546875-.2509766-1.4589844-.7294922-1.9604492-1.0258789v1.6640625h-5.9956055v3.1235352h5.402832v2.0058594h-5.402832v3.5107422h8.4350586v2.0517578h-19.2402344Zm16.1396484-12.7207031c-3.9663086-2.3481445-6.4741211-4.9467773-6.4741211-4.9467773,0,0-2.1201172,2.4848633-6.0410156,4.9467773h12.5151367Z"/>
        <g>
          <path class="cls-1" d="m364.8569336,47.5898438v1.1401367h-2.2568359v-19.6738281h18.2602539v2.0517578h-16.003418v14.4301758h16.8920898v2.0517578h-16.8920898Zm12.8344727-3.3056641s-1.7099609-2.0058594-4.331543-4.559082c-3.1230469,3.2827148-6.0864258,4.9926758-6.0864258,4.9926758l-1.5273438-1.7329102s3.2143555-1.5727539,6.0639648-4.7416992c-1.5048828-1.4130859-3.2373047-2.7353516-5.0380859-4.1489258l1.5727539-1.4589844c1.8007812,1.3676758,3.3740234,2.6899414,4.8554688,4.012207,1.1855469-1.4130859,2.1884766-3.0317383,2.9638672-4.878418l2.0742188.8208008c-.9345703,2.1655273-2.2338867,4.012207-3.5332031,5.5625,2.78125,2.644043,4.6049805,4.6044922,4.6049805,4.6044922l-1.6186523,1.5273438Z"/>
          <path class="cls-1" d="m391.9672852,43.6005859v-10.8056641h4.5136719v-1.8691406h-8.3662109v-1.9379883h19.1035156v1.9379883h-8.503418v1.8691406h4.6508789v10.8056641h-11.3984375Zm12.8798828,5.1293945v-1.3452148h-14.3618164v1.3452148h-2.1425781v-14.4990234h2.1425781v11.2163086h14.3618164v-11.2163086h2.1430664v14.4990234h-2.1430664Zm-8.2524414-14.1113281h-2.621582v2.6445312h2.621582v-2.6445312Zm0,4.2402344h-2.621582v2.9179688h2.621582v-2.9179688Zm4.7646484-4.2402344h-2.7583008v2.6445312h2.7583008v-2.6445312Zm0,4.2402344h-2.7583008v2.9179688h2.7583008v-2.9179688Z"/>
          <path class="cls-1" d="m423.2944336,45.355957c4.9013672-.0913086,7.5-3.7387695,7.5-7.2495117,0-2.9404297-1.8461914-5.7675781-5.7446289-6.2236328-.6157227,3.9897461-2.3481445,10.0991211-4.0351562,12.6069336-1.0029297,1.4814453-2.3476562,2.2792969-3.6474609,2.2792969-2.8950195,0-4.012207-3.6699219-4.012207-6.4741211,0-4.9238281,3.2143555-10.3496094,10.3041992-10.5776367h.4331055c6.0639648,0,9.1416016,4.2631836,9.1416016,8.6625977,0,4.1948242-2.8041992,8.4804688-8.5258789,9.3012695l-1.4135742-2.3251953Zm-7.6367188-5.3115234c0,.387207.2280273,4.1030273,1.8920898,4.1030273,2.1425781,0,4.559082-8.4799805,5.0151367-12.2871094-4.4453125.6152344-6.9072266,4.5136719-6.9072266,8.184082Z"/>
          <path class="cls-1" d="m457.9047852,48.7299805c-4.3994141-2.621582-7.4086914-6.6796875-8.7539062-10.2358398-1.0258789,3.8295898-4.3769531,7.9101562-9.0043945,10.2358398l-1.4365234-2.1430664c6.2919922-2.8266602,8.5488281-7.7050781,8.9594727-11.0566406h-8.4350586v-2.097168h8.5258789v-5.2202148h2.3710938v5.2202148h8.5488281v2.097168h-8.4350586s1.230957,6.5429688,8.9819336,10.9882812l-1.3222656,2.2114258Z"/>
          <path class="cls-1" d="m464.3608398,47.9775391v-2.0517578h9.027832v-2.6669922h-7.0673828v-1.9833984h7.0673828v-1.2768555h2.3476562v1.2768555h7.1582031v1.9833984h-7.1582031v2.6669922h9.1416016v2.0517578h-20.5170898Zm7.5229492-8.6401367v-3.4418945h-2.4165039s-.1591797,3.1455078-3.0771484,4.3540039l-1.6870117-1.6640625c2.3935547-.684082,2.5302734-2.6899414,2.5302734-2.6899414h-2.621582v-1.9150391h2.8725586v-3.0092773h-2.0976562v-1.8920898h10.9199219v1.8920898h-2.1884766v3.0092773h2.78125v1.9150391h-2.78125v3.4418945h-2.234375Zm0-8.3662109h-2.2109375v3.0092773h2.2109375v-3.0092773Zm5.9272461,5.5395508v-7.1806641h2.2338867v7.1806641h-2.2338867Zm1.3676758,1.3452148c2.6674805,0,2.6899414-.159668,2.6899414-.7978516v-8.6171875h2.234375v8.5942383c0,2.2338867-.4790039,2.7583008-4.1264648,2.9863281l-.7978516-2.1655273Z"/>
          <path class="cls-1" d="m490.0581055,35.940918c3.3510742-1.9379883,5.2661133-4.0351562,6.6337891-7.7055664l2.0517578.8666992c-1.390625,3.7841797-3.1918945,6.3828125-6.9760742,8.7993164l-1.7094727-1.9604492Zm10.440918,10.2583008c4.1713867,0,4.1943359-.387207,4.1943359-2.3251953v-5.402832h-4.5366211c-.1821289,2.1655273-1.2993164,8.0473633-7.659668,10.2587891l-1.3447266-2.0976562c5.4936523-1.5727539,6.4970703-5.7675781,6.6108398-8.1611328h-3.8295898v-2.0517578h13.0625v6.3374023c0,4.3999023-.2509766,5.4711914-5.5625,5.6083984l-.9345703-2.1660156Zm8.2978516-8.4575195c-3.1689453-2.3935547-5.3574219-4.6958008-6.953125-8.6396484l1.9604492-.8666992c1.550293,3.4882812,3.5566406,5.6992188,6.7021484,7.5688477l-1.7094727,1.9375Z"/>
          <path class="cls-1" d="m515.6630859,33.84375v-1.8237305h7.7055664v1.8237305h-7.7055664Zm2.8041992,14.0195312v.8666992h-2.074707v-7.1811523h6.40625v6.3144531h-4.331543Zm-1.8007812-17.2797852v-1.7094727h5.8359375v1.7094727h-5.8359375Zm0,9.4833984v-1.6640625h5.8359375v1.6640625h-5.8359375Zm.0224609-3.0776367v-1.6640625h5.8134766v1.6640625h-5.8134766Zm3.9897461,6.246582h-2.2114258v2.6899414h2.2114258v-2.6899414Zm14.0654297,5.4711914c-3.7387695-2.3251953-4.7416992-5.9042969-4.9926758-6.8618164h-.8432617c-.2280273.3417969-.5927734.7749023-.9345703,1.0942383v3.3510742c.8886719-.1821289,1.7324219-.4101562,2.621582-.706543l.0908203,1.8237305c-2.3935547.8891602-6.2006836,1.2993164-6.2006836,1.2993164l-.5014648-1.9150391s.7524414-.0454102,1.8237305-.1821289v-2.1201172c-1.0942383.6835938-1.9604492,1.1396484-1.9604492,1.1396484l-.9575195-1.8920898c1.5732422-.4560547,2.8496094-1.1171875,3.7158203-1.8920898h-3.3510742v-1.7099609h2.940918v-1.4814453h-2.1655273v-1.4365234h2.1655273v-1.3447266h-2.4394531v-1.5273438h2.4394531v-1.390625c-.5244141.4331055-1.1171875.7978516-1.1171875.7978516l-1.4360352-1.2539062s1.2768555-.6381836,1.9150391-1.2539062h-1.9833984v-1.8007812h4.7871094v-1.230957h2.2114258v1.230957h5.1748047v1.8007812h-1.8691406c.5698242.5698242,1.6870117,1.1171875,1.6870117,1.1171875l-1.3222656,1.4360352s-1.3222656-.8891602-2.394043-1.9375l.7753906-.6157227h-6.0639648l.8208008.684082c-.2734375.3417969-.7070312.6835938-1.0488281.9575195h1.9604492v1.4589844h2.5991211v-1.4365234h2.097168v1.4365234h2.4165039v1.5273438h-2.4165039v1.3447266h1.9375v1.4365234h-1.9375v1.4814453h3.0092773v1.7099609h-4.1948242c.1367188.5244141.4106445,1.1396484.7524414,1.7324219.5014648-.3647461,1.0483398-1.0029297,1.3222656-1.4589844l1.7553711,1.0258789c-.4790039.684082-1.3681641,1.5048828-1.9833984,1.9379883.5244141.546875,1.5043945,1.230957,2.5073242,1.6411133l-1.4130859,1.9833984Zm-3.8525391-12.8344727h-2.5991211v1.3447266h2.5991211v-1.3447266Zm0,2.78125h-2.5991211v1.4814453h2.5991211v-1.4814453Z"/>
          <path class="cls-1" d="m548.4272461,43.9423828s-2.1201172,1.0712891-6.4741211,2.5532227l-.5927734-2.2797852c.9116211-.2275391,1.777832-.5698242,2.5532227-.8432617v-7.112793h-2.0517578v-2.0512695h2.0517578v-5.3344727h2.1884766v5.3344727h2.097168v2.0512695h-2.097168v6.4516602c1.6186523-.6611328,2.3251953-1.0488281,2.3251953-1.0488281v2.2797852Zm3.8754883,4.171875s-2.0517578,0-2.0517578-2.0288086v-10.0991211l-1.4589844.2734375v-2.1425781l1.4589844-.2734375v-4.171875h2.1655273v3.8071289l1.9379883-.3876953v-4.878418h2.1201172v4.4907227l4.3310547-.8432617v6.9985352c0,2.1430664-.4560547,2.621582-3.1459961,2.7583008l-.6835938-2.0058594c1.6640625,0,1.6640625-.0913086,1.6640625-.9804688v-4.2402344l-2.1655273.4101562v7.9335938h-2.1201172v-7.5683594l-1.9379883.387207v9.7114258c0,.8208008.9121094.7978516.9121094.7978516h3.9892578c1.8007812,0,2.2114258-.0229492,2.2114258-3.2827148l2.2568359,1.3452148c0,3.2368164-1.4589844,3.9892578-3.3056641,3.9892578h-6.1777344Z"/>
          <path class="cls-1" d="m577.3168945,47.7041016l19.9702148-19.9702148,1.2763672,1.2768555-19.9467773,19.9926758-1.2998047-1.2993164Z"/>
        </g>
        <g>
          <path class="cls-8" d="m284.7841797,25.8769531h-9.2680664c.2490234-5.3862305,1.9404297-9.625,5.0756836-12.7143555,3.1342773-3.0893555,7.1572266-4.6337891,12.0688477-4.6337891,3.0327148,0,5.7089844.6396484,8.0288086,1.9179688,2.3198242,1.2788086,4.1757812,3.1235352,5.5678711,5.5336914,1.3920898,2.4106445,2.0878906,4.8608398,2.0878906,7.3500977,0,2.965332-.8442383,6.15625-2.5307617,9.5737305-1.6870117,3.4174805-4.7719727,7.4575195-9.2553711,12.1196289l-5.6044922,5.9072266h17.7978516v8.7929688h-34.5942383v-4.5493164l15.4467773-15.7524414c3.7348633-3.7792969,6.2182617-6.8178711,7.4521484-9.1152344,1.2333984-2.296875,1.8500977-4.3735352,1.8500977-6.2294922,0-1.9238281-.6396484-3.5136719-1.9179688-4.7700195-1.2788086-1.2563477-2.9257812-1.8842773-4.9399414-1.8842773-2.0366211,0-3.734375.7587891-5.0922852,2.2749023s-2.0825195,3.5761719-2.1728516,6.1787109Z"/>
          <path class="cls-8" d="m335.0009766,8.5288086h9.4746094v32.1499023h4.4472656v8.7929688h-4.4472656v10.2524414h-9.3022461v-10.2524414h-21.7954102v-8.7929688l21.6230469-32.1499023Zm.1723633,32.1499023v-16.7368164l-11.4067383,16.7368164h11.4067383Z"/>
        </g>
        <g>
          <path class="cls-1" d="m659.7402344,47.8632813s.4101562-2.9404297.4101562-5.7675781l1.3681641.0688477c0,2.9863281-.2280273,5.9726562-.2280273,5.9726562l-1.550293-.2739258Zm4.3769531-1.3447266c1.6640625,0,2.4165039-.0229492,2.6899414-1.7324219l-.9799805.2963867s-.2509766-1.2998047-.8208008-2.9638672l1.0483398-.3417969c.3193359.9345703.6611328,1.9833984.8208008,2.7128906.0683594-.7294922.0913086-2.0063477.0913086-3.2602539h-6.7021484v-12.3330078h8.5258789v1.8237305h-2.621582v1.6870117h1.9833984v1.6186523h-1.9833984v1.8007812h1.9833984v1.6186523h-1.9833984v1.8920898h2.8496094c-.0913086,6.6337891-.0683594,9.1186523-4.0805664,9.2553711l-.8208008-2.0742188Zm-1.9833984-.0229492s-.0224609-1.8007812-.3188477-3.8525391l1.1166992-.1821289c.4106445,2.4389648.5473633,3.8979492.5473633,3.8979492l-1.3452148.1367188Zm2.0517578-15.7753906h-1.8466797v1.6870117h1.8466797v-1.6870117Zm0,3.3056641h-1.8466797v1.8007812h1.8466797v-1.8007812Zm0,3.4194336h-1.8466797v1.8920898h1.8466797v-1.8920898Zm-.0913086,8.4575195s-.2504883-1.8007812-.6152344-3.487793l1.0712891-.2280273c.5014648,1.8012695.8208008,3.465332.8208008,3.465332l-1.2768555.2504883Zm14.2709961,2.8271484s-2.8041992-3.6704102-3.8071289-11.0795898h-2.1655273v.5927734c0,3.7387695-.3647461,7.5458984-1.9379883,10.4868164l-2.0058594-1.8237305c1.4814453-2.5991211,1.6640625-6.3833008,1.6640625-8.6630859v-9.2783203h9.5517578v8.6855469h-2.8041992c.684082,6.2006836,3.465332,9.5063477,3.465332,9.5063477l-1.9604492,1.5732422Zm-.9121094-17.8271484h-5.0605469v4.8100586h5.0605469v-4.8100586Z"/>
          <path class="cls-1" d="m690.4067383,48.7299805v-11.0566406c-.4785156,2.1655273-1.7094727,5.1064453-3.6474609,7.3178711l-1.390625-2.3481445c1.9150391-1.9150391,3.5107422-5.0380859,3.8754883-6.4057617h-3.328125v-1.9604492h4.4907227v-3.0546875c-1.0942383.1137695-2.2792969.2275391-3.6928711.3188477l-.7294922-2.0517578c3.6704102-.0908203,7.2719727-.5698242,9.5517578-1.230957l.7749023,1.9150391s-1.230957.4101562-3.6928711.7749023v3.3286133h4.1489258v1.9604492h-2.9633789c1.0029297,2.3706055,2.9863281,4.5820312,2.9863281,4.5820312l-1.5048828,2.2568359s-1.8007812-2.3481445-2.6669922-5.5395508v11.1933594h-2.2114258Zm7.6142578-5.3120117v-13.6323242h2.2797852v13.6323242h-2.2797852Zm1.5727539,2.8955078c2.5991211,0,2.9863281-.0229492,2.9863281-.5927734v-17.5078125h2.2797852v17.5078125c0,2.4619141-1.7553711,2.7583008-4.3540039,2.7583008l-.9121094-2.1655273Z"/>
          <path class="cls-1" d="m724.9482422,46.3588867c.4335938.0229492.7978516.0229492,1.0942383.0229492,1.7099609,0,1.7783203-.2509766,1.7783203-.6157227v-4.0576172h-5.4482422v6.2006836h-2.2797852v-6.2006836h-5.2890625c-.2050781,2.5073242-.706543,5.1748047-1.9375,7.0439453l-1.8007812-1.6640625c1.5498047-2.3022461,1.5957031-7.2495117,1.5957031-9.8710938v-8.3432617l17.4394531.0224609v16.9609375c0,1.8466797-.4790039,2.7583008-4.2402344,2.7583008l-.9121094-2.2568359Zm-4.8554688-10.0078125h-5.1518555s-.0229492,2.234375-.0229492,3.3056641h5.1748047v-3.3056641Zm0-5.425293h-5.1518555v3.3735352h5.1518555v-3.3735352Zm7.7280273.0224609h-5.4482422v3.3510742h5.4482422v-3.3510742Zm0,5.402832h-5.4482422v3.3056641h5.4482422v-3.3056641Z"/>
          <path class="cls-1" d="m751.6484375,31.1308594h-14.7949219v-2.0517578h20.1523438v2.0517578h-3.1235352v14.4755859c0,2.0517578-.6835938,3.0322266-5.5395508,3.0322266l-.9799805-2.0517578c4.1035156,0,4.2856445-.1826172,4.2856445-.9804688v-14.4755859Zm-10.3041992,11.831543v2.2338867h-2.2338867v-10.965332h9.5517578v8.7314453h-7.3178711Zm5.0839844-6.6796875h-5.0839844v4.6279297h5.0839844v-4.6279297Z"/>
        </g>
        <path class="cls-8" d="m626.6040039,22.1083984h-9.1323242c.4755859-3.6889648,1.7993164-6.6538086,3.972168-8.8945312,3.0327148-3.1235352,6.8461914-4.6850586,11.440918-4.6850586,4.0961914,0,7.5307617,1.3017578,10.3037109,3.9042969,2.7719727,2.6025391,4.1586914,5.6918945,4.1586914,9.2680664,0,2.2182617-.605957,4.2436523-1.8164062,6.0766602-1.2109375,1.8334961-2.9702148,3.315918-5.2788086,4.4472656,3.0322266.9057617,5.402832,2.484375,7.1123047,4.7363281,1.7084961,2.2519531,2.5629883,4.9052734,2.5629883,7.9609375,0,4.4814453-1.6523438,8.2783203-4.956543,11.3896484-3.3046875,3.1123047-7.5146484,4.668457-12.6289062,4.668457-4.84375,0-8.7929688-1.465332-11.8486328-4.3964844-3.0551758-2.9311523-4.7304688-6.9199219-5.0244141-11.9672852h9.4038086c.4077148,2.5800781,1.3071289,4.4985352,2.6992188,5.7543945,1.3920898,1.2563477,3.1513672,1.8842773,5.2792969,1.8842773,2.2177734,0,4.0566406-.7128906,5.5166016-2.1386719,1.4599609-1.4262695,2.1894531-3.168457,2.1894531-5.2285156,0-2.2626953-.984375-4.1757812-2.9536133-5.7373047-1.96875-1.5615234-4.8095703-2.3647461-8.5209961-2.4101562v-8.1479492c2.2856445-.1811523,3.9887695-.5375977,5.109375-1.0693359,1.1201172-.5317383,1.9912109-1.2617188,2.6142578-2.1899414.6220703-.9277344.9335938-1.9121094.9335938-2.9536133,0-1.3579102-.4755859-2.4833984-1.4262695-3.3779297-.9501953-.8935547-2.1953125-1.3408203-3.734375-1.3408203-1.3579102,0-2.5917969.4130859-3.7001953,1.2392578-1.109375.8261719-1.8671875,1.8955078-2.2749023,3.2080078Z"/>
      </g>
      <g>
        <g>
          <path class="cls-1" d="m319.5219727,109.2468643v-8.3637695c-.6943359,2.1118164-1.9448242,4.7236328-3.3339844,6.2797852l-1.6674805-2.7231445c2.0283203-1.6113281,3.3066406-3.7788086,3.8623047-5.1679688h-3.1118164v-2.3344727h4.2509766v-2.4726562h-4.5288086v-2.3061523h2.5561523c-.277832-1.3339844-.6669922-2.8066406-.9726562-3.5566406h-1.027832v-2.2231445h4.0288086v-2.1396484h2.6674805v2.1396484h4.0292969v2.2231445h-1.0004883c-.1391602.75-.6113281,2.3061523-1.0556641,3.5566406h2.7226562v2.3061523h-4.7236328v2.4726562h4.4458008v2.3344727h-3.1674805c1.3061523,2.4448242,3.0009766,3.9453125,3.0009766,3.9453125l-1.8339844,2.4453125s-1.5839844-2.4174805-2.4453125-5.140625v8.7250977h-2.6953125Zm2.1674805-17.0883789c.4169922-1.1948242.7783203-2.6953125.9169922-3.5566406h-3.4453125c.277832.8056641.6386719,2.2783203.9169922,3.5566406h1.6113281Zm12.2539062,17.0883789v-14.6435547h-2.7788086c0,5.640625-.722168,10.6420898-3.1396484,14.1435547l-2.1118164-2.1953125c2.1948242-3.3896484,2.5283203-6.9462891,2.5283203-12.4760742v-8.2524414c6.1411133-.1943359,8.8916016-1.4169922,8.8916016-1.4169922l1.4726562,2.2504883c-3.5288086,1.3891602-7.6411133,1.5283203-7.6411133,1.5283203v3.9179688h8.3637695v2.5004883h-2.8066406v14.6435547h-2.7783203Z"/>
          <path class="cls-1" d="m369.6508789,108.218544c-4.612793-1.1669922-7.6967773-3.3618164-10.0585938-5.612793v6.6411133h-2.7231445v-6.6132812c-2.1396484,2.3066406-5.5019531,4.4458008-9.6420898,5.612793l-1.4448242-2.6118164c4.0571289-.8334961,6.6967773-2.0561523,8.5307617-3.4731445h-7.8637695v-2.3618164h10.4199219v-1.1948242h.9448242l-1.3061523-1.3339844c-1.1669922.3056641-5.4736328,1.0283203-9.8364258,1.6118164l-.777832-2.3618164c1.5561523-.1113281,3.3896484-.277832,4.5844727-.4448242v-2.8896484h-3.4174805v-2.0839844h1.0283203l-1.8061523-1.8061523s2.8618164-1.9448242,4.4736328-5.0849609l2.5839844.5561523c-.1948242.3608398-.3891602.722168-.5834961,1.0556641h6.0571289v1.9174805c.8061523-.9169922,1.6396484-2.2231445,2.1396484-3.4458008l2.6953125.3891602c-.1665039.3891602-.3334961.777832-.527832,1.1391602h7.2241211v2.1118164h-3.7509766c.4169922.5834961.9169922,1.3613281.9169922,1.3613281l-2.3896484,1.1391602c-.3056641-.8056641-.8334961-1.8056641-1.2783203-2.5004883h-2.0004883c-.6669922,1.0004883-1.5283203,2.1396484-1.9169922,2.5839844h7.1962891v4.862793c0,.9169922.1948242.9448242.7783203.9448242.4443359,0,.5834961-.0556641.5834961-2.9458008l2.3061523,1.1674805c0,3.8344727-1.3061523,4.0844727-2.4731445,4.0844727h-1.3334961c-1.3896484,0-2.4453125-.4726562-2.4453125-2.0561523l-1.6669922,1.5834961s-.5283203-1.3891602-2.0283203-2.6396484c-.6948242,2.0561523-2.4731445,3.0844727-2.4731445,3.0844727h1.2226562v1.1948242h10.5307617v2.3618164h-7.8632812c1.8891602,1.3334961,4.7514648,2.6953125,8.5024414,3.4453125l-1.1113281,2.6118164Zm-13.0317383-11.6699219c1.9169922-1.2226562,2.0004883-2.6396484,2.0004883-4.5571289v-1.4726562h.8891602l-1.8061523-1.5834961s.5556641-.4726562.9726562-1.0004883h-2.9174805c.4443359.6669922,1.1113281,1.5561523,1.1113281,1.5561523l-2.3061523,1.2226562s-.7783203-1.6953125-1.4726562-2.7788086h-1.8618164c-.8056641,1.1391602-2.3896484,2.7509766-2.8896484,3.1674805h8.0576172v2.0839844h-3.2231445v2.4731445c1.8339844-.222168,3.5014648-.5834961,3.5014648-.5834961l-.0556641,1.4726562Zm7.9189453-3.8901367h-3.3066406v.6391602c0,.472168-.0834961,1.1669922-.277832,1.8339844l1.3891602-1.1669922c1.6396484,1.25,2.1953125,2.5004883,2.1953125,2.5004883v-3.8066406Z"/>
          <path class="cls-1" d="m377.0996094,93.6589737c4.0844727-2.3618164,6.418457-4.918457,8.0859375-9.3920898l2.5004883,1.0561523c-1.6948242,4.6123047-3.8896484,7.7797852-8.5024414,10.7255859l-2.0839844-2.3896484Zm12.7260742,12.503418c5.0849609,0,5.112793-.472168,5.112793-2.8339844v-6.5854492h-5.5292969c-.2226562,2.6396484-1.5839844,9.8085938-9.3364258,12.5039062l-1.6391602-2.5561523c6.6962891-1.9174805,7.9189453-7.0302734,8.0576172-9.9477539h-4.6679688v-2.5004883h15.9213867v7.7246094c0,5.3623047-.3051758,6.668457-6.7797852,6.8349609l-1.1391602-2.6396484Zm10.1142578-10.3085938c-3.8623047-2.9174805-6.5297852-5.7241211-8.4746094-10.5307617l2.3896484-1.0561523c1.8891602,4.2514648,4.3344727,6.9467773,8.1689453,9.2250977l-2.0839844,2.3618164Z"/>
          <path class="cls-1" d="m408.3056641,91.102333v-2.2226562h9.3920898v2.2226562h-9.3920898Zm3.4179688,17.0888672v1.0556641h-2.5288086v-8.7529297h7.8081055v7.6972656h-5.2792969Zm-2.1953125-21.0620117v-2.0839844h7.1132812v2.0839844h-7.1132812Zm0,11.559082v-2.0288086h7.1132812v2.0288086h-7.1132812Zm.027832-3.7514648v-2.0283203h7.0854492v2.0283203h-7.0854492Zm4.862793,7.6137695h-2.6953125v3.2783203h2.6953125v-3.2783203Zm17.144043,6.668457c-4.5571289-2.8339844-5.7797852-7.1967773-6.0854492-8.3637695h-1.027832c-.277832.4169922-.7226562.9448242-1.1391602,1.3339844v4.0844727c1.0834961-.222168,2.1118164-.5,3.1953125-.8613281l.1113281,2.2226562c-2.9179688,1.0839844-7.5581055,1.5839844-7.5581055,1.5839844l-.6113281-2.3339844s.9169922-.0556641,2.2231445-.222168v-2.5844727c-1.3339844.8339844-2.3896484,1.3896484-2.3896484,1.3896484l-1.1669922-2.3061523c1.9169922-.5561523,3.4731445-1.3618164,4.5288086-2.3066406h-4.0844727v-2.0839844h3.5844727v-1.8061523h-2.6396484v-1.7504883h2.6396484v-1.6391602h-2.9731445v-1.8618164h2.9731445v-1.6948242c-.6391602.527832-1.3613281.9726562-1.3613281.9726562l-1.7504883-1.5283203s1.5556641-.7783203,2.3339844-1.5283203h-2.4174805v-2.1953125h5.8349609v-1.5004883h2.6953125v1.5004883h6.3076172v2.1953125h-2.2788086c.6948242.6948242,2.0561523,1.3613281,2.0561523,1.3613281l-1.6113281,1.7504883s-1.6118164-1.0834961-2.9174805-2.3618164l.9448242-.75h-7.3911133l1,.8334961c-.3334961.4169922-.8613281.8334961-1.2783203,1.1669922h2.3896484v1.7783203h3.1679688v-1.7504883h2.5561523v1.7504883h2.9453125v1.8618164h-2.9453125v1.6391602h2.3618164v1.7504883h-2.3618164v1.8061523h3.6679688v2.0839844h-5.112793c.1665039.6391602.5,1.3896484.9169922,2.1118164.6113281-.4443359,1.2783203-1.2226562,1.6113281-1.7783203l2.1396484,1.2504883c-.5834961.8334961-1.6669922,1.8339844-2.4174805,2.3618164.6391602.6669922,1.8339844,1.5004883,3.0566406,2.0004883l-1.7226562,2.4174805Zm-4.6958008-15.6435547h-3.1679688v1.6391602h3.1679688v-1.6391602Zm0,3.3896484h-3.1679688v1.8061523h3.1679688v-1.8061523Z"/>
        </g>
        <g>
          <path class="cls-1" d="m481.012207,109.2468643v-1.4726562h-14.6152344v1.4726562h-2.8066406v-21.2011719h6.2241211c.5004883-.75,1.2504883-2.3061523,1.8061523-3.8066406l3.1123047.8061523c-.5283203,1.0834961-1.2226562,2.2504883-1.7783203,3.0004883h10.8642578v21.2011719h-2.8066406Zm0-18.7001953h-14.6152344v3.1674805h14.6152344v-3.1674805Zm0,5.4462891h-14.6152344v3.3618164h14.6152344v-3.3618164Zm0,5.640625h-14.6152344v3.6396484h14.6152344v-3.6396484Z"/>
          <path class="cls-1" d="m513.1630859,109.2468643v-2.0283203h-16.3935547v2.0283203h-2.7509766v-19.6171875h9.3916016v-5.390625h2.7788086v5.390625h9.7250977v19.6171875h-2.7509766Zm-9.7529297-17.1162109h-6.640625v4.9179688h6.640625v-4.9179688Zm0,7.2519531h-6.640625v5.3349609h6.640625v-5.3349609Zm9.7529297-7.2519531h-6.9741211v4.9179688h6.9741211v-4.9179688Zm0,7.2519531h-6.9741211v5.3349609h6.9741211v-5.3349609Z"/>
          <path class="cls-1" d="m523.7241211,91.324501v-2.3618164h10.809082v2.3618164h-10.809082Zm3.6123047,16.8666992v1.0556641h-2.6674805v-8.6416016h8.9472656v7.5859375h-6.2797852Zm-2.3896484-20.7290039v-2.1948242h8.3637695v2.1948242h-8.3637695Zm0,11.5039062v-2.1953125h8.3637695v2.1953125h-8.3637695Zm.027832-3.8344727v-2.1953125h8.3359375v2.1953125h-8.3359375Zm5.9741211,7.6689453h-3.6123047v3.0283203h3.6123047v-3.0283203Zm16.2827148,6.4462891c-2.2504883-.6669922-4.6958008-1.8896484-5.890625-2.9174805-1.1948242,1.027832-3.5009766,2.2783203-5.668457,2.9174805l-1.6391602-2.7788086c2.1113281-.3608398,4.2231445-1,5.2514648-1.8061523-2.2788086-2.3061523-3.3901367-4.5288086-3.3901367-4.5288086l2.2788086-1.4174805s1.0834961,2.2509766,3.1118164,4.2236328c1.4169922-1.2504883,2.4731445-3.5566406,2.6674805-4.5844727h-8.7802734v-2.5009766h11.809082v2.2231445s-.9726562,3.8901367-3.6679688,6.4741211c1.0839844.722168,3.0288086,1.5283203,5.418457,1.8339844l-1.5004883,2.8618164Zm-2.2504883-14.6435547c-1.5004883,0-2.4453125-.9443359-2.4453125-2.3618164v-4.4736328h-3.0288086c-.027832,3.5292969-.4169922,5.9741211-3.7231445,7.4467773l-1.6674805-2.3896484c2.5844727-.75,2.8623047-2.9174805,2.8623047-5.5571289,0-.6391602-.027832-1.3334961-.027832-2.0004883h8.1411133v6.2797852c0,.4443359.1669922.5556641.6948242.5556641.722168,0,.777832-.1669922.777832-1.6948242v-1.4453125l2.1674805,1.3339844c-.1391602,3.5844727-.6113281,4.3066406-2.5288086,4.3066406h-1.222168Z"/>
          <path class="cls-1" d="m554.9858398,91.1579971v-2.2783203h11.9204102v2.2783203h-11.9204102Zm3.5566406,17.0332031v1.0556641h-2.7231445v-8.6416016h10.28125v7.5859375h-7.5581055Zm-2.3339844-21.0620117v-2.0839844h9.4750977v2.0839844h-9.4750977Zm0,11.6699219v-2.0839844h9.4750977v2.0839844h-9.4750977Zm.027832-3.8066406v-2.0839844h9.4472656v2.0839844h-9.4472656Zm7.1411133,7.8359375h-4.8349609v3.0004883h4.8349609v-3.0004883Zm9.0307617,6.4462891v-14.6713867h-5.0571289v-2.3896484h5.0571289v-7.9746094h2.7783203v7.9746094h4.8071289v2.3896484h-4.8071289v14.6713867h-2.7783203Z"/>
        </g>
        <path class="cls-1" d="m454.8886719,107.7717666c-.9799805-.5-2.3344727-1.3754883-3.1894531-2.0424805-1.0004883,1.1464844-2.4384766,2.1049805-4.5644531,2.1049805-3.605957,0-5.4609375-1.9799805-5.4609375-4.7729492,0-1.7924805,1.1669922-3.4394531,3.0219727-4.5854492-.9584961-1.3339844-1.7504883-2.6264648-1.7504883-3.9394531,0-2.0429688,1.4794922-3.7104492,3.9599609-3.7104492,2.4389648,0,3.8769531,1.5009766,3.8769531,3.605957,0,1.8759766-1.0839844,3.3974609-3.3554688,4.5859375.8959961,1.0419922,2.3549805,2.5424805,3.9389648,3.980957.6254883-1.2299805.8754883-2.8139648.9174805-4.0229492l1.7714844.5834961c-.1040039,1.8134766-.4584961,3.230957-1.1669922,4.5859375.9379883.7294922,2.3344727,1.6049805,3.3764648,2.0839844l-1.3754883,1.5424805Zm-9.1713867-7.8994141c-1.2714844.7919922-2.0424805,1.8549805-2.0424805,3.0844727,0,1.6469727,1.2089844,3.0224609,3.5639648,3.0224609,1.3134766,0,2.2514648-.625,2.9389648-1.5004883-1.7509766-1.6049805-3.3554688-3.2724609-4.4604492-4.6064453Zm3.1264648-5.3779297c0-1.1254883-.7294922-1.9589844-1.8759766-1.9589844-1.1669922,0-2.0634766.8544922-2.0634766,2.0009766,0,1.0004883.6669922,1.9799805,1.4799805,3.0639648,1.7509766-.9589844,2.4594727-1.8134766,2.4594727-3.105957Z"/>
        <g>
          <path class="cls-1" d="m248.6777344,109.4231338c-2.0424805,0-3.543457-.7084961-4.5439453-1.6879883-.5209961.6669922-1.3544922,1.5419922-2.2924805,2.2719727l-1.3134766-1.6884766c1.7509766-1.1254883,2.4179688-2.3764648,2.4179688-2.3764648v-5.1479492h-2.1674805v-1.8759766h4.168457v7.003418c.7504883,1.0214844,1.4384766,1.7509766,3.6894531,1.7509766l10.6508789-.1044922-.4169922,1.8549805h-10.1923828Zm-5.2939453-13.3398438s-1.1464844-1.7089844-2.5014648-3.1889648l1.5424805-1.1669922c1.3964844,1.6049805,2.5429688,3.2099609,2.5429688,3.2099609l-1.5839844,1.1459961Zm13.7148438,11.3388672s-1.6884766-1.0629883-3.5224609-1.8964844l1.1044922-.9379883h-4.5854492l1.1669922.7504883c-1.8339844,1.5004883-3.855957,2.1049805-3.855957,2.1049805l-1.2089844-1.5424805s1.6884766-.375,3.1894531-1.3129883h-3.6269531v-1.5634766h2.7094727v-1.3544922h-2.1049805v-1.4799805h2.1049805v-.8964844h-.625c-.9589844,0-1.8134766-.3334961-1.8134766-1.7509766v-2.6679688h3.6264648v-1.2919922h-3.730957v-1.5634766h5.6904297v4.2524414h-3.6474609v1.1254883c0,.3334961.1875.4584961.5419922.4584961h.7709961c.7294922,0,.9379883-.125.9379883-1.1879883l1.7299805.9169922c-.2084961,1.2504883-.6459961,1.5839844-1.5004883,1.6674805v.9379883h3.4179688v-.9589844c-.6044922,0-1.2714844-.5625-1.2714844-1.5629883v-2.793457h3.6269531v-1.2919922h-3.730957v-1.5634766h5.6904297v4.2524414h-3.6269531v1.0629883c0,.3959961.2084961.5209961.5419922.5209961h.7084961c.7294922,0,.9379883-.1459961.9379883-1.1879883l1.7719727.9169922c-.2709961,1.6464844-1.1674805,1.7089844-2.1679688,1.7089844h-.4584961v.8964844h2.1259766v1.4799805h-2.1259766v1.3544922h2.8139648v1.5634766h-3.1474609c1.1879883.4584961,2.8974609,1.3964844,2.8974609,1.3964844l-1.3549805,1.4379883Zm-3.230957-5.7524414h-3.4179688v1.3544922h3.4179688v-1.3544922Z"/>
          <path class="cls-1" d="m281.5664063,106.8596573c-3.480957-2.6054688-7.6914062-6.878418-9.7758789-9.3173828-.4375-.5-.7504883-.7294922-1.0209961-.7294922-.2919922,0-.5629883.2504883-.8964844.7089844-1.0214844,1.3964844-2.9804688,3.8144531-4.4394531,5.5234375l-1.5844727-2.1469727c1.7924805-1.5214844,3.855957-4.043457,4.8359375-5.3984375.625-.8754883,1.2919922-1.2924805,2.0009766-1.2924805.6669922,0,1.3754883.3959961,2.1049805,1.1884766,3.105957,3.3349609,6.4614258,6.6904297,10.2133789,9.2124023l-1.4379883,2.2514648Zm-3.7519531-9.5253906c-.6459961-.7089844-1.4384766-1.4384766-2.2094727-2.0639648l1.0839844-1c.7709961.6040039,1.5839844,1.2919922,2.2509766,2.0009766l-1.1254883,1.0629883Zm1.7714844-1.5424805c-.6459961-.6879883-1.3964844-1.3759766-2.2094727-2.0009766l1.0629883-.9589844c.7924805.5834961,1.5634766,1.2504883,2.2304688,1.9174805l-1.0839844,1.0424805Z"/>
          <path class="cls-1" d="m294.0698242,103.1077041c2.9804688,0,4.480957,1.9594727,4.6269531,3.980957,2.0219727-.4794922,4.0644531-1.7924805,4.0644531-3.8974609,0-1.9179688-1.3754883-3.0849609-4.2519531-3.0849609-2.6889648,0-6.2319336,1.1669922-9.2333984,3.730957l-1.5219727-1.9594727c3.6479492-2.2924805,6.9619141-4.7729492,9.9008789-7.2114258-2.0844727.1665039-4.8359375.3334961-6.628418.4375l-.25-2.1049805c.3125,0,.6879883.0205078,1.0629883.0205078,2.7304688,0,6.940918-.2084961,8.7958984-.5625l1.3339844,1.8339844c-1.8134766,1.0004883-4.8564453,3.2099609-6.8574219,4.6484375,1.4379883-.4169922,2.7514648-.6254883,3.9394531-.6254883,4.5649414,0,6.0029297,2.6264648,6.0029297,5.1274414,0,3.980957-4.4814453,5.8359375-8.3999023,5.8359375-3.8979492,0-5.7529297-1.6254883-5.7529297-3.4804688,0-1.3339844.9794922-2.6264648,2.8974609-2.6889648h.2709961Zm2.6054688,4.3144531c-.0834961-1.2714844-.7714844-2.6259766-2.5849609-2.6259766h-.125c-.625.0205078-1.0629883.4790039-1.0629883,1.0004883,0,.9379883,1.3759766,1.6254883,3.3769531,1.6254883h.3959961Z"/>
        </g>
      </g>
      <g>
        <path class="cls-2" d="m625.3955078,90.2590713v3.8261719c0,1.1855469-.7412109,1.7246094-3.1259766,1.7246094l-.565918-1.2124023c2.0478516,0,2.3041992-.1889648,2.3041992-.7275391v-3.6108398h-5.6323242v-1.2128906h5.6323242v-2.0073242h.7275391c.4985352-.2563477,1.3876953-.7817383,2.3305664-1.6171875h-7.3564453v-1.2124023h9.3100586v1.0644531c-1.3066406,1.5493164-3.1254883,2.5600586-3.6376953,2.815918l.0136719.956543h4.9179688v1.2128906h-4.9179688Z"/>
        <path class="cls-2" d="m644.4116211,89.0598526c-.3369141-.4179688-.7275391-.8085938-1.0512695-1.1318359-1.8051758.1616211-4.4189453.2827148-9.0810547.3369141l-.2021484-1.1860352h1.5493164c.4853516-.3364258,1.0917969-.8349609,1.4418945-1.2392578h-3.3413086v-1.1723633h5.012207v-.9296875h1.5087891v.9296875h5.0390625v1.1723633h-2.4926758c.4716797.390625,1.5361328,1.293457,2.5332031,2.2905273l-.9160156.9296875Zm-4.0693359,5.4433594c2.3579102,0,2.4121094-.0810547,2.4121094-.902832h-6.5078125v2.2636719h-1.3203125v-6.9257812h9.1484375v4.8237305c0,1.737793-.7275391,2.0615234-3.1933594,2.0615234l-.5390625-1.3203125Zm2.4121094-4.5004883h-6.5078125v.8217773h6.5078125v-.8217773Zm0,1.7651367h-6.5078125v.8623047h6.5078125v-.8623047Zm-4.0288086-5.9282227c-.3637695.4174805-.9296875.9428711-1.3608398,1.2529297,2.2636719-.0268555,3.7456055-.0673828,5.0258789-.175293-.3911133-.3637695-.7817383-.6870117-.7817383-.6870117l.8891602-.390625h-3.7724609Z"/>
        <path class="cls-2" d="m658.3481445,95.230751c-2.1157227,0-6.7773438-.3100586-6.7773438-4.3251953,0-1.9536133,1.4013672-3.6918945,3.71875-4.5-2.0883789.1347656-4.7695312.3232422-6.3461914.4443359l-.1479492-1.4550781h.5927734c2.4790039,0,7.3969727-.2695312,10.1723633-.5390625l.2963867,1.3608398c-3.8666992.2021484-6.8447266,2.2099609-6.8447266,4.6352539,0,2.2231445,2.6542969,2.9101562,4.6079102,2.9101562.3237305,0,.6606445-.0268555.9970703-.0537109l-.269043,1.5224609Z"/>
        <path class="cls-2" d="m667.394043,91.727333c-.5253906,1.2128906-.8085938,2.425293-1.1855469,3.0991211-.2021484.3637695-.4179688.5390625-.6201172.5390625-.6601562,0-1.0913086-1.7114258-1.0913086-4.1635742,0-1.9672852.2563477-4.3652344.7275391-6.7368164l1.4550781.2563477c-.6733398,2.1826172-.8754883,4.8500977-.8754883,6.2514648,0,.9160156.0673828,1.2797852.2695312,1.2797852.1347656,0,.3500977-.269043.6870117-1.0913086l.6333008.565918Zm7.6396484,2.8833008c-.8085938.0942383-1.7114258.1484375-2.5600586.1484375-1.5629883,0-4.0556641,0-4.0556641-2.3041992,0-.3637695.0673828-.7543945.2021484-1.1855469l1.2666016.2558594c-.0942383.2290039-.1347656.4448242-.1347656.6469727,0,1.0913086,1.0375977,1.2260742,2.25,1.2260742.9296875,0,2.0478516-.1079102,3.0317383-.2963867v1.5087891Zm-.2695312-7.8007812c-1.1860352.0668945-2.4121094.1210938-3.5839844.1210938-.7543945,0-1.4956055-.0136719-2.1962891-.0673828l-.0405273-1.4013672c.7143555.1079102,1.7382812.1616211,2.7758789.1616211,1.0913086,0,2.1958008-.0537109,3.0449219-.1748047v1.3608398Z"/>
        <path class="cls-2" d="m682.7451172,94.7453994s-.3500977-.6333008-1.0239258-1.347168c-.5791016.956543-1.2260742,1.7246094-1.9399414,2.3579102l-.9838867-.9296875c.7412109-.5927734,1.4550781-1.3071289,1.980957-2.3041992-.4985352-.4848633-1.078125-.9833984-1.6708984-1.3608398,0,0,.4716797-1.7109375.7412109-4.0957031h-.7412109v-1.1992188h.8623047c.0537109-.6870117.0810547-1.3745117.0810547-2.1020508l1.1987305.0273438c0,.7543945-.0400391,1.4277344-.1074219,2.074707h2.1420898c0,2.8969727-.3500977,4.9042969-.9833984,6.3999023.9296875.902832,1.3740234,1.4956055,1.3740234,1.4956055l-.9296875.9833984Zm-1.6977539-7.6796875c-.1748047,1.7109375-.4580078,2.9370117-.6464844,3.5166016.3100586.2421875.6333008.5390625.9296875.8081055.4448242-1.1586914.7138672-2.6000977.7138672-4.324707h-.9970703Zm2.6411133-.1616211v-.9433594h2.6274414v-.7138672h-3.0048828v-.9970703h3.0048828v-.5390625h1.3334961v.5390625h3.1796875v.9970703h-3.1796875v.7138672h2.762207v.9433594h-6.7231445Zm-.3774414,4.9174805v-.9970703h1.7919922c-.1347656-.2558594-.3100586-.6196289-.3500977-.7543945h-.7548828v-2.5732422h6.1308594v2.5732422h-.6738281s-.1210938.390625-.2963867.7543945h1.7514648v.9970703h-7.5991211Zm5.8339844,4.0424805v-.512207h-4.0957031v.512207h-1.293457v-3.4628906h6.6826172v3.4628906h-1.293457Zm0-2.4926758h-4.0957031v1.0102539h4.0957031v-1.0102539Zm-.3095703-5.0390625h-3.5439453v.9023438h3.5439453v-.9023438Zm-2.7084961,1.737793c.0541992.2021484.175293.512207.2695312.7543945h1.4550781c.1079102-.215332.2158203-.5522461.2563477-.7543945h-1.980957Z"/>
        <path class="cls-2" d="m705.0488281,91.2556534c-1.253418,2.1557617-3.2470703,4.2714844-6.3056641,4.2714844-1.7246094,0-3.328125-.8354492-3.328125-3.4628906v-.1616211c.0541992-1.7783203.1347656-4.3115234.1347656-6.8173828v-.902832l1.5766602.0537109c-.1621094,2.7890625-.2294922,5.7802734-.2963867,7.5722656v.1479492c0,1.4150391.7138672,2.1831055,1.9667969,2.1831055.2832031,0,.5927734-.0405273.9296875-.121582,1.46875-.3500977,3.2470703-1.7514648,4.109375-3.8935547l1.2128906,1.1313477Z"/>
        <path class="cls-2" d="m713.6762695,91.9162979c-1.0239258,2.3037109-1.5898438,3.2333984-2.6269531,3.2333984-2.0483398,0-2.1557617-3.8803711-2.1557617-5.065918,0-1.7382812.2290039-3.7050781.6333008-5.4570312l1.4819336.2963867c-.4448242,1.5898438-.7275391,3.7055664-.7275391,5.4570312,0,1.0102539.1210938,2.9775391.78125,2.9775391.5390625,0,1.2529297-1.6708984,1.5224609-2.4926758l1.0913086,1.0512695Zm4.8374023,1.0507812c-.121582-1.8730469-1.2802734-4.8505859-2.371582-6.090332l1.2260742-.6870117c1.1992188,1.4550781,2.3847656,4.1230469,2.6542969,6.3325195l-1.5087891.4448242Z"/>
        <path class="cls-2" d="m628.8041992,101.3787002v-1.4824219h-8.9462891v1.4956055h-1.3203125v-2.640625h5.1333008v-.8759766h1.3203125v.8759766h5.1333008v2.6274414h-1.3203125Zm.6469727,8.1918945c-2.2773438-1.7114258-3.6245117-4.675293-4.0151367-7.5317383h-.6738281c-.1616211.2021484-.3505859.4038086-.565918.605957.7006836.6333008,1.6035156,1.9672852,1.6035156,4.9716797,0,2.0751953-1.0512695,2.3852539-2.8564453,2.3852539l-.5390625-1.2128906h.2021484c1.5087891,0,1.8725586-.2963867,1.8725586-1.1723633,0-.2016602,0-.390625-.0131836-.565918-2.1425781,1.8325195-5.0795898,2.4926758-5.0795898,2.4926758l-.8085938-1.0913086s3.7592773-.7680664,5.7128906-2.7890625c-.0537109-.2695312-.1347656-.5117188-.2021484-.7275391-1.8457031,1.4956055-4.6484375,2.3173828-4.6484375,2.3173828l-.8081055-1.0913086s3.0449219-.6196289,4.9716797-2.2363281c-.1616211-.2290039-.2963867-.390625-.4042969-.512207-.8891602.565918-1.9941406,1.0239258-3.1933594,1.3071289l-.8081055-1.1723633c1.7783203-.2695312,3.2470703-.8754883,3.8935547-1.5087891h-2.7485352v-1.1455078h7.9360352v1.1455078h-1.5361328c.0942383.8623047.2963867,1.7514648.6333008,2.6000977.5253906-.4848633,1.0107422-1.1181641,1.4282227-1.8051758l1.2260742.9023438c-.6601562.8896484-1.3071289,1.6035156-2.0209961,2.1962891.5927734.9838867,1.3608398,1.859375,2.3847656,2.5600586l-.9428711,1.078125Z"/>
        <path class="cls-2" d="m643.3334961,108.6540909v-.6738281h-3.1391602c0,1.293457-.4179688,2.0214844-2.8701172,2.0214844l-.5927734-1.3071289h.4716797c1.3876953,0,1.6166992-.1347656,1.6166992-.7143555h-4.4462891v-1.0639648h4.4462891v-.7817383h-5.3891602v-.9702148h5.3891602v-.7407227h-4.4594727v-1.0107422h4.4594727v-.6738281h-4.1499023v-2.5463867h4.1499023v-.6601562h-5.1469727v-1.0239258h5.1469727v-.6333008h1.3745117v.6333008h5.2143555v1.0239258h-5.2143555v.6601562h4.2172852v2.5463867h-4.2172852v.6738281h4.4594727v1.7514648h.902832v.9702148h-.902832v2.5195312h-1.3203125Zm-4.5136719-7.6123047h-2.7890625v.8217773h2.7890625v-.8217773Zm4.230957,0h-2.8564453v.8217773h2.8564453v-.8217773Zm.2827148,3.3818359h-3.1391602v.7407227h3.1391602v-.7407227Zm0,1.7109375h-3.1391602v.7817383h3.1391602v-.7817383Z"/>
        <path class="cls-2" d="m651.1665039,108.3039932c4.0961914-.3505859,6.5078125-2.4794922,7.1005859-5.1201172-2.1020508,0-7.0195312.0405273-8.9057617.1079102v-1.4418945c1.6030273.0405273,3.7319336.0810547,5.7124023.0810547,1.5629883,0,3.0317383-.0268555,4.0825195-.0810547l.9838867.7275391c-1.2260742,3.8803711-3.2875977,6.3730469-7.9765625,7.1274414l-.9970703-1.4008789Zm7.5854492-8.2324219c-.9296875-.0405273-2.4790039-.0537109-4.0419922-.0537109-1.5493164,0-3.1259766.0131836-4.1225586.0537109v-1.347168c.8486328.0268555,2.1015625.0400391,3.3950195.0400391,1.7788086,0,3.6650391-.0268555,4.7695312-.0537109v1.3608398Z"/>
        <path class="cls-2" d="m664.4296875,108.4924698c4.6347656-.956543,7.2353516-3.8666992,8.0976562-7.1811523-.3369141-.0136719-.7006836-.0136719-1.0913086-.0136719-1.1318359,0-2.3984375.0405273-3.4765625.0673828-.8623047,1.1992188-1.9936523,2.2768555-3.4624023,3.1391602l-1.2128906-.9833984c2.5869141-1.2666016,4.1499023-3.4355469,4.7294922-5.4165039l1.4819336.4311523c-.2021484.4985352-.4311523.9970703-.7006836,1.4824219h.7006836c1.2529297,0,2.6679688-.0273438,3.7998047-.0947266l.9833984.9296875c-1.3339844,4.2041016-3.3413086,7.4243164-8.5424805,8.9331055l-1.3066406-1.293457Z"/>
        <path class="cls-2" d="m677.4365234,101.3113174v-1.1455078h5.2412109v1.1455078h-5.2412109Zm1.7514648,8.1782227v.512207h-1.293457v-4.1904297h4.3383789v3.6782227h-3.0449219Zm-1.1586914-10.0512695v-1.0644531h4.0556641v1.0644531h-4.0556641Zm0,5.578125v-1.0644531h4.0556641v1.0644531h-4.0556641Zm.0131836-1.859375v-1.0644531h4.0424805v1.0644531h-4.0424805Zm2.8969727,3.71875h-1.7514648v1.46875h1.7514648v-1.46875Zm7.8955078,3.1259766c-1.0913086-.3237305-2.2768555-.9165039-2.8564453-1.4150391-.5791016.4985352-1.6977539,1.1049805-2.7485352,1.4150391l-.7949219-1.3476562c1.0239258-.175293,2.0478516-.4848633,2.5463867-.8754883-1.1044922-1.1186523-1.6435547-2.1962891-1.6435547-2.1962891l1.1044922-.6870117s.5258789,1.0913086,1.5092773,2.0478516c.6870117-.6064453,1.1992188-1.7246094,1.293457-2.2231445h-4.2578125v-1.2128906h5.7265625v1.078125s-.4716797,1.8862305-1.7788086,3.1391602c.5253906.3505859,1.46875.7412109,2.6274414.8891602l-.7275391,1.3881836Zm-1.0913086-7.1005859c-.7275391,0-1.1855469-.4584961-1.1855469-1.1455078v-2.1689453h-1.46875c-.0136719,1.7109375-.2021484,2.8964844-1.8056641,3.6108398l-.8081055-1.1586914c1.2529297-.3637695,1.3876953-1.4150391,1.3876953-2.6948242,0-.3100586-.0136719-.6469727-.0136719-.9702148h3.9477539v3.0449219c0,.2158203.0810547.2695312.3369141.2695312.3505859,0,.3774414-.0805664.3774414-.8217773v-.7006836l1.0507812.6469727c-.0673828,1.737793-.2963867,2.0883789-1.2260742,2.0883789h-.5927734Z"/>
        <path class="cls-2" d="m693.8789063,110.0017471v-6.9658203c-.3100586.6464844-.6464844,1.1181641-.6464844,1.1181641l-.6875-1.5092773c.9838867-1.1318359,1.9672852-3.1660156,2.4389648-4.7695312l1.2529297.4716797c-.3100586.8891602-.6738281,1.8999023-1.0644531,2.6542969v9.0004883h-1.293457Zm3.6513672-7.6264648v2.3447266c0,1.3339844-.0810547,3.5297852-1.0107422,5.1064453l-1.171875-.902832c.8486328-1.3071289.902832-3.3549805.902832-4.5v-3.0991211h8.4746094v1.0507812h-7.1948242Zm5.1875-2.3173828v.8491211h-1.3476562v-.8491211h-1.9941406v.902832h-1.3203125v-.902832h-1.6977539v-1.0507812h1.6977539v-.9970703h1.3203125v.9970703h1.9941406v-.9970703h1.3476562v.9970703h1.6972656v1.0507812h-1.6972656Zm-.6601562,8.6772461c.956543,0,1.1044922-.0942383,1.1044922-.4448242v-.390625h-1.4145508v1.7651367h-1.1318359v-1.7651367h-1.347168v2.1020508h-1.1586914v-6.9526367h6.2246094v5.2412109c0,1.4145508-.6601562,1.6035156-1.7382812,1.6572266l-.5385742-1.2124023Zm-1.4418945-4.6352539h-1.347168v.9838867h1.347168v-.9838867Zm0,1.8867188h-1.347168v.9833984h1.347168v-.9833984Zm2.5463867-1.8867188h-1.4145508v.9838867h1.4145508v-.9838867Zm0,1.8867188h-1.4145508v.9833984h1.4145508v-.9833984Z"/>
        <path class="cls-2" d="m711.8305664,107.8186416c.4716797.0673828.8759766.121582,1.2124023.121582.6875,0,1.1049805-.2290039,1.2260742-1.0512695.175293-1.1181641.2695312-2.7348633.2695312-3.5703125v-.2558594c-.0268555-.7006836-.2827148-.8217773-.8891602-.8217773-.2695312,0-.8081055.0131836-1.46875.0268555-.7275391,2.6674805-1.6704102,5.456543-2.4521484,7.1542969l-1.4282227-.8217773c.8491211-1.4013672,1.7651367-3.8398438,2.425293-6.2788086-.7275391.0268555-1.4819336.0673828-2.1152344.1079102l-.1210938-1.4550781c.2695312.0131836.5927734.0131836.956543.0131836.5117188,0,1.0644531,0,1.6303711-.0131836.2290039-1.0375977.4174805-2.034668.4985352-2.9106445l1.5356445.175293c-.1347656.8085938-.3364258,1.7382812-.5791016,2.7084961.565918-.0136719,1.0644531-.0136719,1.4145508-.0273438h.0541992c1.1313477,0,1.9804688.4042969,1.9804688,1.7519531,0,1.3740234-.175293,3.6645508-.2695312,4.4863281-.2290039,1.8862305-.9833984,2.3173828-3.543457,2.3173828l-.3369141-1.6572266Zm6.9121094-3.1796875c-.3369141-1.1855469-1.3476562-3.1391602-2.0751953-4.1225586l1.2666016-.5932617c.78125,1.078125,1.7246094,2.762207,2.2094727,4.0424805l-1.4008789.6733398Zm-.121582-4.675293c-.3500977-.4985352-.7949219-1.0507812-1.2260742-1.5087891l.7817383-.5527344c.4443359.4448242.8891602.9433594,1.2661133,1.4550781l-.8217773.6064453Zm1.293457-.8081055c-.3369141-.4985352-.78125-.9970703-1.2529297-1.4824219l.7680664-.5117188c.4580078.4443359.8891602.9296875,1.2666016,1.4145508l-.7817383.5795898Z"/>
        <path class="cls-2" d="m722.9511719,108.8025284c2.1826172-.9165039,3.2607422-1.859375,3.4624023-4.3251953l1.3071289.0537109c-.2426758,3.3549805-1.8725586,4.4462891-3.8129883,5.4707031l-.956543-1.1992188Zm10.5498047-3.9072266c-.2290039-.4042969-.4716797-.7954102-.7275391-1.1455078-2.6005859.3500977-5.2680664.3774414-9.2563477.3774414l-.2021484-1.3339844c.5927734.0131836,1.1049805.0268555,1.6435547.0405273.7949219-.7548828,1.6977539-1.8193359,2.0483398-2.4521484h-3.7592773v-1.2128906h5.0390625v-1.293457h1.4145508v1.293457h5.0258789v1.2128906h-6.0629883c-.3369141.5927734-1.1992188,1.6704102-1.9941406,2.465332,2.6137695-.0131836,4.3789062-.1079102,5.3354492-.2290039-.6738281-.902832-1.2397461-1.5224609-1.2397461-1.5224609l1.1723633-.5390625s1.3876953,1.5224609,2.7890625,3.5839844l-1.2260742.7548828Zm-2.2099609,4.7695312c-.7275391,0-1.3066406-.175293-1.3066406-1.3339844v-3.7998047h1.3066406v3.4492188c0,.2832031.0810547.4716797.5390625.4716797h1.0644531c.7143555,0,.7412109-.0268555.8085938-2.1420898l1.347168.7275391c-.1479492,1.9536133-.5253906,2.6274414-1.8051758,2.6274414h-1.9541016Z"/>
        <path class="cls-2" d="m749.5932617,109.9206924s-3.6513672-.5927734-5.5375977-3.2739258c-.9296875,1.737793-2.8701172,2.6943359-5.2006836,3.2875977l-.7548828-1.2802734c2.0883789-.3369141,3.7324219-1.0776367,4.5541992-2.1420898h-4.2441406v-1.1860352h4.7963867c.1079102-.2827148.1889648-.6328125.2290039-.9428711h-3.4492188v-1.1181641h3.5302734v-.9970703h-4.0151367v-.6875h-1.1450195v-2.6674805h5.1333008v-1.0375977h1.3203125v1.0375977h5.1333008v2.6542969h-1.1181641v.7006836h-3.9882812v.9970703h3.5166016v1.1181641h-3.5703125c-.0268555.3100586-.0810547.6601562-.175293.9428711h5.2817383v1.1860352h-4.4331055c1.6977539,1.8051758,4.7426758,2.1689453,4.7426758,2.1689453l-.605957,1.2397461Zm-.9702148-9.8354492h-8.9462891v1.0639648h3.8398438v-.7543945h1.3203125v.7543945h3.7861328v-1.0639648Z"/>
        <path class="cls-2" d="m755.3369141,105.9729385l-.1884766-7.4912109h1.6166992l-.175293,7.4912109h-1.2529297Zm-.1616211,3.0180664v-1.7919922h1.5766602v1.7919922h-1.5766602Z"/>
      </g>
      <rect class="cls-8" x="592.5600811" y="82.4" width="3.8508378" height="27.0499893"/>
      <rect class="cls-5" x="596.4109188" y="82.4" width="3.8508378" height="27.0499893"/>
      <rect class="cls-3" width="757" height="110"/>
    </g>
  </g>
</svg>