<?xml version="1.0" encoding="UTF-8"?>
<svg id="_レイヤー_2" data-name="レイヤー 2" xmlns="http://www.w3.org/2000/svg" viewBox="0 0 757.0058594 100.6299213">
  <defs>
    <style>
      .cls-1 {
        fill: #4d4d4d;
      }

      .cls-1, .cls-2, .cls-3, .cls-4, .cls-5, .cls-6, .cls-7, .cls-8, .cls-9 {
        stroke-width: 0px;
      }

      .cls-2 {
        fill: none;
      }

      .cls-3 {
        fill: #c5252c;
      }

      .cls-4 {
        fill: #fff;
      }

      .cls-5 {
        fill: #c96b90;
      }

      .cls-6 {
        fill: #211613;
      }

      .cls-7 {
        fill: #c31d1d;
      }

      .cls-8 {
        fill: #bc272d;
      }

      .cls-9 {
        fill: #143367;
      }
    </style>
  </defs>
  <g id="_レイヤー_2-2" data-name=" レイヤー 2">
    <g>
      <g>
        <path class="cls-7" d="m92.8950659,27.4959122s4.2993729-12.4853106,15.7237294-9.7763222c11.426007,2.7094294,10.8361715,12.6031337,9.7764326,17.0778925-1.0613982,4.4834552-8.245131,12.014302-14.7227396,16.2544818-6.4780495,4.2401798-10.4232565,8.8334231-10.7774224,10.3651656-.3526226-1.5317425-4.2993729-6.1249858-10.7769815-10.3651656-6.4780495-4.2401798-13.6607932-11.7710265-14.7231806-16.2544818-1.0597418-4.4747589-1.6485853-14.3684632,9.7768735-17.0778925,11.4239156-2.7089884,15.7232885,9.7763222,15.7232885,9.7763222Z"/>
        <g>
          <g>
            <path class="cls-9" d="m39.4208876,64.3781105h.7451062c.241274,0,.5493371.0435676.5489367.3279482.0004004.2866089.0004004,2.5895458.0004004,2.5895458,0,0-.8333334.3068943-2.3472122.3062028-1.5124028,0-3.5298226-.8333172-3.5298226-3.13587s2.1056147-3.2018746,3.6626002-3.2018746c.7008471,0,1.5780393.0442592,1.5780393.4382119l.0003842.7669285c-.5924275-.4817795-.8336246-.5688379-1.7329302-.5688379-.8990145-.0003842-2.5108021.5920433-2.5104179,2.5115544,0,1.9179743,2.1599398,3.0585701,3.9581992,2.3344409,0,0-.0003074-1.1623412,0-1.4692355,0-.3068943-.0221296-.8990145-.3732831-.8990145Z"/>
            <path class="cls-9" d="m50.714814,67.4479759h1.9075242c-.5264064-.1966306-.7455673-.832933-.9215282-1.2936587-.1744242-.4607257-1.5559097-3.8157401-1.7100484-4.2764658-.1531234-.4607257-.3707474-.4607257-.5470925-.4607257h-1.0970281c.5271144.1748852.2408898.5485525.1538314.811956-.0881341.2626352-1.9311137,4.8249414-1.9311137,4.8249414-.635534-.1763451-2.2360871-2.5220813-2.2360871-2.5220813,2.1272996-.6141729,1.799412-3.1148161-.283689-3.1148161h-2.391071c.4840079.1103406.4382119.6145571.4382119,1.0092782v4.1450713c0,.5702979-.1755767.7233609-.4591889.8765007l1.7532318-.0007684c-.4802428-.218376-.3507693-.7225925-.3507693-.9642506-.0007684-.2416582-.0007684-4.4734037-.0007684-4.4734037h.9439652c.5035249,0,.8764238.6134813.8764238,1.0321762,0,.6779491-.5263461.9409685-1.0527689,1.139059-.5260387.1966306-.2408898.6363025,0,.9871486.2423497.3507693.943581,1.3367653,1.3596633,1.8193133.4164665.4832395.7894422.4599573.9883012.4599573h1.5780393c-.6130971-.1958622-.2855331-.6794859-.1980742-.9207598.0877336-.2401214.4824547-1.271145.4824547-1.271145h2.3677889s.2859173.7444147.5485525,1.4032309c.2630194.6577405.0656972.746643-.2187602.7894423Zm-2.455923-2.8949802l.8993218-2.3464277.964558,2.3468119-1.8638797-.0003842Z"/>
            <path class="cls-9" d="m69.9222957,67.4472075h1.9078316c-.5256545-.1958622-.7443378-.8321647-.9202988-1.2928904-.1748852-.4600341-1.5566612-3.8157401-1.7112778-4.2764658-.153063-.4607257-.371439-.4607257-.5470157-.4607257h-1.0959524c.528267.1755768.2405056.5485525.1527556.811956-.0885952.2626352-1.9303453,4.8249414-1.9303453,4.8249414-.123079.2828438-.3024377.2896056-.4142382.3939527.1977063-.0007684,1.5780393,0,1.5780393,0-.6134045-.1962464-.2855331-.6794859-.1984747-.9215282.0878268-.2401214.4820869-1.271145.4820869-1.271145h2.3682668s.2858405.7451831.5484587,1.4032309c.2634035.6573563.0660814.746643-.2198359.7886739Zm-2.4540789-2.8942118l.897785-2.3464277.965019,2.3464277h-1.862804Z"/>
            <path class="cls-9" d="m63.1737876,67.5578555c.2202034-.1965538.4164665-.3503851.4164665-1.0531532v-4.1450713c0-.3279482-.0210706-.7008471-.4164665-.8321647h1.6887473c-.1752694.153063-.3841942.3503851-.3841942.7893654v4.1871022c0,.3737441-.0762241.9222198.4055554,1.0535374l-1.7101085.0003842Z"/>
            <path class="cls-9" d="m54.0926494,62.821125s-.0221296,3.3110625-.0221296,3.6828089c0,.3737441.0450276.9222198.5264229,1.0535374l-1.6017056.0003842c.2202366-.196938.3954895-.3503851.3954895-1.0539216,0-.7015386.043875-3.815279.043875-4.144303,0-.3286397-.043875-.7008471-.4393645-.8321647h1.229899l3.6828857,4.6268509v-3.7725566c0-.241274.0434742-.7012313-.4611265-.8764238l1.6462722.0003842c-.1977063.153063-.4828386.2182992-.4828386.8539101v5.4402669s-.4615107.0869816-1.2062327-.8123402c-.7462422-.8981692-3.3114467-4.1664325-3.3114467-4.1664325Z"/>
            <path class="cls-3" d="m64.568319,72.2301181c-4.8204078-4.0685399-6.6656157-8.8529872-.0682329-15.3824447.2048523-.2059281.4014061-.0832165.239353.102503-2.894596,3.3065291-6.1167559,8.5940403-.0690013,15.0743209.0971243.1013504.0600111.3144245-.1021188.2056207Z"/>
          </g>
          <path class="cls-9" d="m73.4070908,67.7142994c-.1617458,0-.3136561-.0307355-.4547323-.0922834-.1414433-.0615479-.2649403-.1448412-.3707474-.2505715-.1054229-.1054997-.1886992-.2289029-.2501703-.3703632-.0615649-.1414603-.0923773-.2929865-.0923773-.4547323,0-.1598248.0308124-.3106594.0923773-.4521197.0614711-.1410761.1447474-.2640951.2501703-.3687496.1058071-.1043471.2293041-.1872563.3707474-.2488042.1410761-.0614711.2929865-.0922834.4547323-.0922834.1598248,0,.3102752.0308124.4517355.0922834.1413835.0615479.2648635.144457.3702864.2488042.1058071.1046545.1887162.2276735.2491115.3687496.0603953.1414603.0908235.292295.0908235.4521197,0,.1617458-.0304282.313272-.0908235.4547323s-.1433044.2648635-.2491115.3703632c-.1054229.1057302-.2289029.1890236-.3702864.2505715-.1414603.0615479-.2919108.0922834-.4517355.0922834Zm0-.1538314c.1413835,0,.2720095-.026202.3916476-.0783756.1200991-.0521736.2229095-.1237874.3092165-.2149951.0858888-.0911309.1534301-.1984747.2025302-.3211864.0495611-.123019.073919-.2562575.073919-.399562,0-.1414603-.0243579-.2734694-.073919-.3965653-.0491-.123019-.1166414-.2295945-.2025302-.3196496-.086307-.0900551-.1891174-.1613616-.3092165-.2134583-.1196381-.0525578-.2502641-.0784525-.3916476-.0784525-.1414603,0-.2723937.0258947-.3935685.0784525-.1208675.0520967-.2247536.1234032-.311812.2134583s-.1552913.1966306-.2044682.3196496c-.0491769.1230958-.0735348.255105-.0735348.3965653,0,.1433044.0243579.276543.0735348.399562.0491769.1227116.1174097.2300555.2044682.3211864.0870584.0912077.1909445.1628215.311812.2149951.1211749.0521736.2521082.0783756.3935685.0783756Zm.580748-.3627562h-.1905603l-.3718231-.5991893h-.2919108v.5991893h-.1598248v-1.3000364h.5683769c.1722727,0,.292312.0307355.3598363.0922834.0675413.0615479.1012736.1456096.1012736.2521082,0,.063392-.0100659.1177939-.0307355.1628215-.0202855.0450276-.0491769.0814492-.0859058.109188-.0367888.0274315-.0802966.0480243-.1305322.0615479-.0503465.0131394-.10398.020977-.1613616.022898l.3931673.5991893Zm-.6115603-.7252818h.1474537c.0533262,0,.1032116-.0059934.1493747-.0183645.0457191-.0123711.0836007-.0348848.1136617-.0675413.0296428-.0330407.0442422-.0821407.0442422-.1478379,0-.051021-.0093743-.0915151-.0288744-.1211749-.0195341-.0296598-.0446604-.0521736-.0753959-.0675413-.0308124-.0153678-.0656972-.0258947-.1046545-.0307355-.0386499-.0053019-.0776841-.0079144-.1167182-.0079144h-.3718231v.4611099h.2427339Z"/>
        </g>
        <path class="cls-5" d="m35.3527955,83.8711326c.216217,0,.6752996.2431684.6752996,1.4048048,0,2.999178-1.5398647,5.0795851-3.9445974,5.0795851-3.5391148,0-4.4309342-2.7018039-4.4309342-6.3223786v-6.0247017c0-3.566369-.7564566-6.3762814-3.1339351-6.3762814-3.1611893,0-4.8361139,3.1069836-4.8361139,7.5109664v9.402108c0,1.1616364-.7025538,1.6479732-1.3239505,1.6479732-.7564566,0-1.1077335-.3782283-1.1077335-.3782283v-11.8065378c0-3.566369-.7564566-6.3762814-3.1339351-6.3762814-3.4582605,0-4.8633682,3.7553318-4.8633682,8.8076627v3.4582605c0,4.1877658-1.2155392,7.267798-4.4306314,7.267798-2.7290581,0-4.1608144-1.4859619-4.1608144-3.5933205,0-1.7021789.6752996-2.0804072,1.350902-2.0804072.7025538,0,.9726736.6213967.9726736.6213967,0,0-.216217.5674939-.216217,1.5129133,0,1.8372388.9726736,2.4316841,2.0534558,2.4316841,1.1077335,0,1.918093-1.0265765,1.918093-4.5390427v-10.4556359c0-2.1073586-.9457222-3.4582605-2.2963213-3.4582605-1.3781562,0-2.4858897.7564566-2.4858897,3.9985002,0,.5405425.216217.9726736.216217.9726736,0,0-.2431684.3243255-.9454194.3243255-.432434,0-1.215842-.3512769-1.215842-1.7291303,0-2.8368638,1.8641902-4.8091625,4.7549568-4.8091625,2.6748525,0,3.8364889,1.5668161,4.2416686,3.8903917.7837109-2.350527,2.6209497-3.9715488,5.1065366-3.9715488,2.8099124.0269514,4.4578856,1.7291303,5.1604394,4.3770313.702251-2.566744,2.6206468-4.3770313,5.2412937-4.3770313,3.8906945.0269514,5.5925706,3.2692978,5.5925706,7.7271834v7.6460263c0,2.1073586.9457222,3.4582605,2.2966242,3.4582605,1.4859619,0,2.5394897-1.1888906,2.5394897-5.0795851,0,0,.0272542-.1620113.4054826-.1620113Z"/>
        <path class="cls-6" d="m49.8871802,83.3847958c.216217,0,.4863368.2701198.4863368,1.432059,0,2.9988751-1.350902,5.0523309-3.7556346,5.0523309-1.8641902,0-3.052778-.8645651-3.6202719-2.4047327-.6483481,1.4051076-1.8641902,2.4047327-3.4313091,2.4047327-2.9719237,0-4.7280054-1.7833359-4.7280054-6.1870159,0-4.4039828,2.3774784-6.1061616,5.3766564-6.1061616,1.3778534,0,2.1882128.3243255,2.6475982.7834081.2431684-.5402397.7295052-.7834081,1.2427935-.7834081.7564566,0,1.0265765.3782283,1.0265765.3782283v7.7541348c0,2.1073586.7295052,3.1069836,1.8102873,3.1069836,1.4859619,0,2.5397926-1.3778534,2.5397926-5.2685479,0,0,.0269514-.1620113.4051797-.1620113Zm-7.2138952,1.7833359v-3.701429c0-1.7833359-1.1077335-2.8368638-2.2151643-2.8368638-1.7833359,0-3.0530808.5402397-3.0530808,5.0523309,0,4.5117884,1.1616364,5.1331852,2.4855869,5.1331852.918468,0,2.7826582-1.2427935,2.7826582-3.6472233Z"/>
        <path class="cls-5" d="m56.3979159,81.7368226c0-2.3774784-.648651-3.2150921-1.6213246-3.2150921-1.6749246,0-2.7826582,1.4317562-2.7826582,6.7272555v4.2419714s-.2701198.3782283-1.0265765.3782283c-.7295052,0-1.4051076-.4863368-1.4051076-1.648276v-10.2666731s.2701198-.3782283,1.0268793-.3782283c.7292024,0,1.4048048.4863368,1.4048048,1.6479732.5944453-1.0535279,1.5671189-1.6479732,3.1069836-1.6479732,1.5940704,0,2.8638152.7295052,3.4582605,2.1885157.5944453-1.4051076,1.6752274-2.1885157,3.4313091-2.1885157,2.2693699,0,3.8364889,1.4590104,3.8364889,4.2958743v3.8364889c0,2.1073586.7295052,3.1069836,1.8102873,3.1069836,1.2155392,0,2.5394897-1.1077335,2.5394897-5.2685479,0,0,.0269514-.1620113.4051797-.1620113.216217,0,.4863368.2701198.4863368,1.432059,0,2.9988751-1.350902,5.0523309-3.7553318,5.0523309-2.7287553,0-4.0257544-1.8914444-4.0257544-4.9714767v-3.1608865c0-2.3774784-.6483481-3.2150921-1.6210218-3.2150921-1.4048048,0-2.7557067,1.4048048-2.7557067,6.7814612v4.1877658s-.2701198.3782283-1.0265765.3782283c-.7295052,0-1.4859619-.4863368-1.4859619-1.648276v-6.4840871Z"/>
        <path class="cls-6" d="m85.2522852,83.3847958c.216217,0,.4863368.2701198.4863368,1.432059,0,2.9988751-1.350902,5.0523309-3.7556346,5.0523309-1.8641902,0-3.052778-.8645651-3.6202719-2.4047327-.6483481,1.4051076-1.8641902,2.4047327-3.4313091,2.4047327-2.9719237,0-4.7280054-1.7833359-4.7280054-6.1870159,0-4.4039828,2.3774784-6.1061616,5.3766564-6.1061616,1.3778534,0,2.1882128.3243255,2.6475982.7834081.2431684-.5402397.7295052-.7834081,1.2427935-.7834081.7564566,0,1.0265765.3782283,1.0265765.3782283v7.7541348c0,2.1073586.7295052,3.1069836,1.8102873,3.1069836,1.4859619,0,2.5397926-1.3778534,2.5397926-5.2685479,0,0,.0269514-.1620113.4051797-.1620113Zm-7.2138952,1.7833359v-3.701429c0-1.7833359-1.1077335-2.8368638-2.2151643-2.8368638-1.7833359,0-3.0530808.5402397-3.0530808,5.0523309,0,4.5117884,1.1616364,5.1331852,2.4855869,5.1331852.918468,0,2.7826582-1.2427935,2.7826582-3.6472233Z"/>
        <path class="cls-6" d="m87.4401952,77.1708285c-.7295052,0-1.2700477-.4863368-1.2700477-1.648276l-.0269514-4.9169682s.1350599-.3782283.8915166-.3782283c.7295052,0,1.2700477.4863368,1.2700477,1.6479732l.0269514,4.917271s-.1350599.3782283-.8915166.3782283Z"/>
        <path class="cls-5" d="m89.6823109,80.3859207c.0269514-1.6752274,1.4317562-2.8099124,4.5117884-2.8099124,2.9449723,0,4.5659941,1.2697449,4.5659941,2.5125383,0,.7025538-.6213967,1.0807821-1.1616364,1.0807821-.648651,0-.8106623-.3240227-.8106623-.3240227,0,0,.1620113-.1892656.1620113-.6213967,0-.9726736-1.4587076-1.5940704-2.6475982-1.5940704-1.350902,0-2.4316841.4590826-2.4316841,1.4859619,0,2.9449723,7.4570636,2.1612614,7.4570636,6.3220758,0,2.4044298-2.3777812,3.4313091-5.4305592,3.4313091-3.350152,0-5.5117163-2.2154671-5.5117163-4.9442224,0-1.0268793.4593854-1.6210218,1.0807821-1.6210218.6483481,0,.7564566.3240227.7564566.3240227,0,0-.1620113.4051797-.1620113.999625,0,2.2966242,1.4048048,4.1877658,3.9715488,4.1877658,1.8911416,0,2.8638152-.5944453,2.8907667-2.0262015.0269514-3.1342379-7.3217008-2.2154671-7.2405438-6.4032329Z"/>
        <path class="cls-5" d="m139.7986233,83.3847958c.216217,0,.4863368.2701198.4863368,1.432059,0,2.9988751-1.350902,5.0523309-3.7556346,5.0523309-1.8641902,0-3.052778-.8645651-3.6202719-2.4047327-.6483481,1.4051076-1.8641902,2.4047327-3.4313091,2.4047327-2.9719237,0-4.7280054-1.7833359-4.7280054-6.1870159,0-4.4039828,2.3774784-6.1061616,5.3766564-6.1061616,1.3778534,0,2.1882128.3243255,2.6475982.7834081.2431684-.5402397.7295052-.7834081,1.2427935-.7834081.7564566,0,1.0265765.3782283,1.0265765.3782283v7.7541348c0,2.1073586.7295052,3.1069836,1.8102873,3.1069836,1.4859619,0,2.5397926-1.3778534,2.5397926-5.2685479,0,0,.0269514-.1620113.4051797-.1620113Zm-7.2138952,1.7833359v-3.701429c0-1.7833359-1.1077335-2.8368638-2.2154671-2.8368638-1.7830331,0-3.052778.5402397-3.052778,5.0523309,0,4.5117884,1.1616364,5.1331852,2.4855869,5.1331852.918468,0,2.7826582-1.2427935,2.7826582-3.6472233Z"/>
        <path class="cls-6" d="m146.1200934,89.8419315c-1.3778534,0-3.1611893-.8373109-3.1611893-3.6202719,0-3.268995,1.8372388-5.3494021,4.4039828-6.619147-.5671911-.7837109-1.2966963-.9726736-1.9722987-.9726736-1.3239505,0-3.5121634,1.2966963-3.5121634,4.9711738v16.0754607s-.2701198.3782283-1.0268793.3782283c-.7295052,0-1.4048048-.4863368-1.4048048-1.6479732v-20.452492s.2701198-.3782283,1.0265765-.3782283c.7295052,0,1.4051076.4863368,1.4051076,1.6479732v.5944453c.8103595-1.2966963,2.1882128-2.2424185,3.8364889-2.2424185,1.3778534,0,2.5936954.4051797,3.485212,1.2969991,1.9992501-.648651,4.2689228-.9187708,6.3490272-.9187708.6213967,0,.7295052.4051797.7295052.5944453,0,.216217-.1620113.4051797-.1620113.4051797-1.5940704,0-3.9445974.216217-6.1600644.9187708.5674939.9726736.8915166,2.2963213.8915166,3.9715488,0,3.7553318-1.9450444,5.9977503-4.7280054,5.9977503Zm1.7830331-9.1047339c-2.0262015,1.1077335-3.5660662,2.8368638-3.5660662,5.5656191,0,1.7021789.8645651,2.4855869,1.7291303,2.4855869,1.3778534,0,2.2154671-.9457222,2.2154671-4.9442224,0-1.350902-.1623142-2.350527-.3785311-3.1069836Z"/>
        <path class="cls-5" d="m160.9524578,89.8419315c-1.3778534,0-3.1611893-.8373109-3.1611893-3.6202719,0-3.268995,1.8372388-5.3494021,4.4039828-6.619147-.5671911-.7837109-1.2966963-.9726736-1.9722987-.9726736-1.3239505,0-3.5121634,1.2966963-3.5121634,4.9711738v16.0754607s-.2701198.3782283-1.0268793.3782283c-.7295052,0-1.4048048-.4863368-1.4048048-1.6479732v-20.452492s.2701198-.3782283,1.0265765-.3782283c.7295052,0,1.4051076.4863368,1.4051076,1.6479732v.5944453c.8103595-1.2966963,2.1882128-2.2424185,3.8364889-2.2424185,1.3778534,0,2.5936954.4051797,3.485212,1.2969991,1.9992501-.648651,4.26862-.9187708,6.3490272-.9187708.6213967,0,.729808.4051797.729808.5944453,0,.216217-.1623142.4051797-.1623142.4051797-1.5940704,0-3.9445974.216217-6.1600644.9187708.5674939.9726736.8915166,2.2963213.8915166,3.9715488,0,3.7553318-1.9453473,5.9977503-4.7280054,5.9977503Zm1.7830331-9.1047339c-2.0262015,1.1077335-3.5660662,2.8368638-3.5660662,5.5656191,0,1.7021789.8645651,2.4855869,1.7291303,2.4855869,1.3778534,0,2.2151643-.9457222,2.2151643-4.9442224,0-1.350902-.1617085-2.350527-.3782283-3.1069836Z"/>
        <path class="cls-6" d="m176.4870732,79.2239815c0-1.1616364.6759052-1.6479732,1.4051076-1.6479732.7564566,0,1.0265765.3782283,1.0265765.3782283v13.7249337c.3246283-.0269514.648651-.0269514.9999279-.0269514.6213967,0,.7292024.4051797.7292024.5944453,0,.216217-.1617085.4051797-.1617085.4051797-.5135911,0-1.0271821,0-1.5674218.0269514v1.350902c0,3.7556346-1.8369359,5.9980531-4.6198969,5.9980531-1.3778534,0-3.1608865-.7295052-3.1608865-3.0800322,0-2.8907667,2.3771756-4.3767285,5.3490993-4.9711738v-4.2147172c-.7292024,1.350902-1.918093,2.1073586-3.6472233,2.1073586-2.2693699,0-3.7283804-1.4590104-3.7283804-4.2958743v-6.34933c0-1.1616364.6752996-1.6479732,1.4051076-1.6479732.7564566,0,1.0265765.3782283,1.0265765.3782283v7.7541348c0,2.3774784.6480453,3.2150921,1.620719,3.2150921,1.6752274,0,3.3232006-1.432059,3.3232006-6.7272555v-2.9722266Zm-3.971246,17.8048938c0,1.3236477.8642623,1.9450444,1.7291303,1.9450444,1.3778534,0,2.2421157-.9454194,2.2421157-5.9707989-2.1882128.4863368-3.971246,1.5671189-3.971246,4.0257544Z"/>
        <path class="cls-5" d="m178.9681309,70.6034678c0-1.1948112.7968716-1.9916828,2.7002336-1.9916828h4.205656v-6.3749726s.1329773-.6197339,1.3724451-.6197339c1.1948112,0,1.9916828.7968716,1.9916828,2.7002336v4.2944729l6.3303161-.0446566s.6202301.1329773.6202301,1.3724451c0,1.1953074-.7968716,1.992179-2.7002336,1.992179l-4.2503126.0441604.0446566,6.2419953s-.1329773.6197339-1.3724451.6197339c-1.1958036,0-1.9916828-.7968716-1.9916828-2.7002336l-.0446566-4.1614956h-6.2866519s-.6192377-.1324811-.6192377-1.3724451Z"/>
        <path class="cls-6" d="m122.0632846,81.7054376h2.3420479c.6316928,0,.9475392.3685379.9475392.7897674,0,.4209266-.2368091.5790012-.2368091.5790012h-3.052778v5.000245c0,1.1316567-.6843843,1.6052749-1.2897313,1.6052749-.736773,0-1.0789652-.3685379-1.0789652-.3685379v-6.236982h-7.7108308v1.473546c0,4.2898178-1.2370398,6.5531312-4.1844347,6.5531312-1.7370037,0-2.7896231-1.1580025-2.7896231-3.2368955,0-3.526699,2.3157021-5.5005118,4.6053613-5.9477842v-11.0270665c0-1.1316567.6843843-1.6052749,1.2897313-1.6052749.736773,0,1.0789652.3682351,1.0789652.3682351v12.0796859h7.7108308v-13.1586511c0-1.1316567.6843843-1.6052749,1.2897313-1.6052749.736773,0,1.0789652.3685379,1.0789652.3685379v14.3690423Zm-12.4482238,3.0530808v-1.4738489c-1.9211213.4209266-3.3949701,2.0528501-3.3949701,4.6580529,0,1.3684658.6843843,2.0528501,1.5792319,2.0528501,1.1053109,0,1.7893924-1.0262736,1.8157382-5.2370541Z"/>
        <path class="cls-6" d="m177.5871688,91.6220101h2.6898253c1.2161449,0,2.5400954-1.1077335,2.5400954-5.2685479,0,0,.0266486-.1620113.4051797-.1620113.216217,0,.4863368.2701198.4863368,1.432059,0,2.9988751-1.3512048,5.0523309-3.7556346,5.0523309h-1.9472769"/>
        <g>
          <path class="cls-6" d="m192.2003034,61.2920903h3.0325535c-.0365033-.1460131-.0184255-.2739484.0549287-.3834583.0730066-.1216776.1946842-.1828641.3653805-.1828641.12133,0,.2249297.042761.3104517.1279353.0730066.0730066.1157675.1644386.1279353.2739484.0118201.1220253-.0121678.225625-.0730066.3104517-.0611865.0976897-.1585285.1585285-.2923739.1828641-.2558706.8649539-.5910055,1.5466961-1.0047093,2.0459219-.3900636.4874057-.9317028.9014572-1.6259604,1.2425021l-.4568125-.5847478c1.2299867-.5600646,1.9791731-1.3638321,2.2472115-2.4113024h-2.6855985v-.6212511Zm3.5804503.0184255c.0368509-.0365033.0549287-.0792643.0549287-.1279353s-.0180778-.091432-.0549287-.1279353c-.0365033-.0365033-.0792643-.0549287-.1275877-.0549287-.0490187,0-.091432.0184255-.1279353.0549287s-.0549287.0792643-.0549287.1279353.0184255.091432.0549287.1279353.0789166.0545811.1279353.0545811c.0483234,0,.0910844-.0180778.1275877-.0545811Z"/>
          <path class="cls-6" d="m196.4458087,62.7720376v-.6212511h2.9960502l.0549287-.0549287.4564648.3288772c-.1825164.5604123-.4505548,1.053728-.8037675,1.4799473-.4262193.5235613-.9132773.8826841-1.4615218,1.0777159l-.438387-.5482445c.9254451-.3893683,1.5282707-.9435229,1.8088244-1.662116h-2.6125919Zm.438387-1.005057v-.6028256h2.4846566v.6028256h-2.4846566Z"/>
          <path class="cls-6" d="m200.3989401,64.0871986c.6455866-.2676907,1.1569802-.5847478,1.5345284-.9501282.4022314-.3772006.6942576-.834013.8771217-1.3700898h-1.9913408v-.6393289h2.4113024l.091432-.0545811.4203092.3650328c-.3288772.7307609-.57258,1.2240767-.7307609,1.4799473.4748903.389716.919535.7978574,1.3335801,1.2240767l-.5482382.5663223c-.3775482-.4870581-.7794319-.8889418-1.2056512-1.2059988-.4630702.5360767-1.0474703.9563859-1.753548,1.2605799l-.4387347-.6758322Z"/>
        </g>
      </g>
      <g>
        <path class="cls-1" d="m244.6375797,34.8014722v10.2069993c0,3.1621445-1.9764675,4.6002231-8.3379043,4.6002231l-1.509321-3.2344046c5.4627649,0,6.1456741-.5037855,6.1456741-1.9408463v-9.6319715h-15.0229851v-3.2344046h15.0229851v-5.3553924h1.9403374c1.3296884-.6818915,3.70206-2.0843489,6.2174254-4.3122002h-19.6226993v-3.2344046h24.8340803v2.8395182c-3.4862974,4.1320588-8.3379043,6.8280744-9.7037227,7.5109837l.0361301,2.5514954h13.11776v3.2344046h-13.11776Z"/>
        <path class="cls-1" d="m295.3423171,31.6026888c-.8986719-1.1134168-1.9408463-2.1555912-2.8033881-3.0186419-4.8159857.4315253-11.7880716.7551694-24.2229223.8986719l-.5394067-3.1631622h4.1330765c1.2940672-.8976541,2.9112695-2.2278514,3.8455626-3.305647h-8.9129322v-3.127541h13.3696527v-2.4792353h4.0251952v2.4792353h13.4408951v3.127541h-6.6484418c1.2579371,1.0421744,4.0969464,3.4501673,6.7563232,6.109544l-2.4436141,2.4792353Zm-10.8537785,14.5202173c6.2891766,0,6.433188-.2157627,6.433188-2.4079929h-17.3587178v6.0372839h-3.5219186v-18.4721346h24.4025549v12.8653583c0,4.636862-1.9408463,5.498895-8.5175369,5.498895l-1.4375697-3.5214097Zm6.433188-12.0043431h-17.3587178v2.1922302h17.3587178v-2.1922302Zm0,4.7081044h-17.3587178v2.3001115h17.3587178v-2.3001115Zm-10.7458972-15.8127579c-.9704232,1.1134168-2.4797441,2.5158742-3.6297999,3.342286,6.0377928-.0722601,9.9912367-.1801415,13.4052739-.4671465-1.0421744-.970932-2.0843489-1.832965-2.0843489-1.832965l2.3718628-1.0421744h-10.0629879Z"/>
        <path class="cls-1" d="m332.498278,48.0627347c-5.6423975,0-18.0777571-.8264118-18.0777571-11.5361788,0-5.2108721,3.7376812-9.8467164,9.9194854-12.0033254-5.5706462.3592652-12.7223647.8620329-16.9277013,1.185677l-.3948864-3.8816926h1.5810722c6.6128206,0,19.7305806-.7185304,27.1341918-1.4370608l.7907906,3.629291c-10.3148807.5394067-18.2573897,5.8947991-18.2573897,12.3636083,0,5.9294026,7.0799672,7.7623675,12.2913482,7.7623675.8625418,0,1.7612137-.0712424,2.6593767-.1435025l-.7185304,4.0608164Z"/>
        <path class="cls-1" d="m356.6082303,38.7187861c-1.4014396,3.2344046-2.1561001,6.4688092-3.1626534,8.266153-.5388978.970932-1.1139257,1.4380786-1.6533324,1.4380786-1.7607048,0-2.9107606-4.5646019-2.9107606-11.1056712,0-5.2475111.6829092-11.6440602,1.9408463-17.9693669l3.8811838.6829092c-1.7968349,5.8215212-2.3362416,12.9376185-2.3362416,16.6758086,0,2.4436141.1801415,3.4135283.7190393,3.4135283.3592652,0,.9342931-.7185304,1.832965-2.9107606l1.6889536,1.509321Zm20.3783775,7.6911251c-2.156609.2513839-4.5646019.3959042-6.8290922.3959042-4.1692066,0-10.8176484,0-10.8176484-6.146183,0-.9699143.1796326-2.0120887.5388978-3.1621445l3.378416.6829092c-.2513839.6106491-.3592652,1.185677-.3592652,1.7250836,0,2.9107606,2.7672581,3.2700258,6.0016627,3.2700258,2.480253,0,5.4632738-.2880228,8.0870293-.7907906v4.0251952Zm-.7195482-20.8088851c-3.1621445.1801415-6.433188.323644-9.5597113.323644-2.0125976,0-3.989574-.0356212-5.8581602-.1801415l-.1078813-3.7371724c1.9047163.2870051,4.6363531.4315253,7.4036112.4315253,2.9112695,0,5.858669-.1445203,8.1221416-.4671465v3.629291Z"/>
        <path class="cls-1" d="m397.5380025,46.7691764s-.9342931-1.6884447-2.7316369-3.5936698c-1.5449422,2.5514954-3.2700258,4.6002231-5.1752509,6.2896855l-2.6237555-2.480253c1.9764675-1.5815811,3.8816926-3.4857885,5.2831323-6.1451652-1.3291795-1.294576-2.8751394-2.6237555-4.4567205-3.6303088,0,0,1.2579371-4.5646019,1.9774853-10.9255298h-1.9774853v-3.1987834h2.3001115c.1445203-1.832965.2157627-3.66593.2157627-5.6057585l3.1987834.0712424c0,2.0131065-.1078813,3.8094325-.2870051,5.5345161h5.7136399c0,7.7267463-.9342931,13.0821388-2.6237555,17.0717127,2.480253,2.4079929,3.66593,3.9885562,3.66593,3.9885562l-2.4792353,2.6237555Zm-4.5289807-20.4852411c-.4671465,4.5646019-1.2212982,7.8346277-1.7250836,9.3805876.8274295.6462703,1.6894625,1.4370608,2.480253,2.1555912,1.185677-3.0898843,1.9042074-6.9359558,1.9042074-11.5361788h-2.6593767Zm7.0448549-.4315253v-2.5158742h7.0071982v-1.9042074h-8.0137514v-2.6593767h8.0137514v-1.4380786h3.5580486v1.4380786h8.4819157v2.6593767h-8.4819157v1.9042074h7.3674811v2.5158742h-17.9327279Zm-1.0065532,13.11776v-2.6593767h4.7793468c-.3592652-.6829092-.8264118-1.6528235-.9342931-2.0120887h-2.0120887v-6.8647134h16.3521646v6.8647134h-1.7973438s-.323644,1.0421744-.7907906,2.0120887h4.6724832v2.6593767h-20.2694784Zm15.561374,10.7820272v-1.3658184h-10.9255298v1.3658184h-3.4501673v-9.2360673h17.8258644v9.2360673h-3.4501673Zm0-6.6489507h-10.9255298v2.6960157h10.9255298v-2.6960157Zm-.8264118-13.441404h-9.45183v2.4079929h9.45183v-2.4079929Zm-7.2239786,4.636862c.1435025.5383889.4671465,1.3658184.7185304,2.0120887h3.8816926c.2870051-.5750279.5750279-1.4736998.6829092-2.0120887h-5.2831323Z"/>
        <path class="cls-1" d="m457.0121695,37.460849c-3.342286,5.7502788-8.6620572,11.3926763-16.8203289,11.3926763-4.6002231,0-8.8768021-2.2278514-8.8768021-9.2360673v-.4315253c.1435025-4.7437256.3592652-11.5005576.3592652-18.1851296v-2.4079929l4.2053367.1435025c-.4315253,7.4397413-.6106491,15.4188892-.7907906,20.198236v.3959042c0,3.7727936,1.9052251,5.8215212,5.2475111,5.8215212.7541516,0,1.5805634-.1078813,2.4792353-.323644,3.9173138-.9342931,8.6620572-4.6714655,10.9621687-10.3861231l3.2344046,3.0186419Z"/>
        <path class="cls-1" d="m480.0081961,39.2225716c-2.7316369,6.1451652-4.2409579,8.6254182-7.0082159,8.6254182-5.4632738,0-5.7502788-10.3505019-5.7502788-13.5136641,0-4.6358443.6106491-9.8833553,1.6884447-14.5548208l3.9539528.7897728c-1.1866947,4.2409579-1.9408463,9.8833553-1.9408463,14.5558385,0,2.6949979.323644,7.942509,2.0843489,7.942509,1.4370608,0,3.342286-4.4567205,4.0608164-6.6489507l2.9117784,2.803897Zm12.9019973,2.8028793c-.323644-4.9951095-3.4145461-12.9386362-6.3253067-16.2442832l3.2700258-1.832965c3.1987834,3.8816926,6.3609279,10.9967722,7.0804761,16.8915713l-4.0251952,1.185677Z"/>
        <path class="cls-1" d="m253.7301445,76.6604488v-3.9539528h-23.8636571v3.989574h-3.5219186v-7.0438371h13.6927878v-2.3367505h3.5219186v2.3367505h13.6927878v7.0082159h-3.5219186Zm1.7250836,21.8510595c-6.0739228-4.5646019-9.6675927-12.4714897-10.7097671-20.0903547h-1.7973438c-.4310165.5394067-.9342931,1.0777956-1.509321,1.6172023,1.8690951,1.6894625,4.2770879,5.2475111,4.2770879,13.2612625,0,5.5345161-2.8033881,6.3619457-7.6193739,6.3619457l-1.4375697-3.2344046h.5388978c4.0251952,0,4.9956183-.7907906,4.9956183-3.127541,0-.5383889,0-1.0421744-.0356212-1.509321-5.7146576,4.8882459-13.5492853,6.6489507-13.5492853,6.6489507l-2.1561001-2.9107606s10.0268579-2.0487277,15.2382389-7.4397413c-.1440114-.7185304-.3597741-1.3658184-.5394067-1.9408463-4.9233582,3.989574-12.3987207,6.1818042-12.3987207,6.1818042l-2.156609-2.9107606s8.1221416-1.6538413,13.2617714-5.9660415c-.4315253-.6116668-.7907906-1.0421744-1.0783045-1.3658184-2.3718628,1.509321-5.3187535,2.7316369-8.5175369,3.4857885l-2.156609-3.1265233c4.7442345-.7185304,8.6615483-2.3357327,10.386632-4.0251952h-7.3313511v-3.0552809h21.1681503v3.0552809h-4.0974553c.2518927,2.3001115.7907906,4.6724832,1.6894625,6.9359558,1.4014396-1.2935583,2.6955068-2.9830207,3.8094325-4.8159857l3.2705347,2.4079929c-1.7612137,2.3723717-3.4862974,4.2775968-5.3910136,5.8581602,1.5815811,2.6237555,3.6297999,4.9594883,6.3614368,6.8290922l-2.5158742,2.8751394Z"/>
        <path class="cls-1" d="m292.4671777,96.0668766v-1.796326h-8.3740344c0,3.4501673-1.1139257,5.3910136-7.6549951,5.3910136l-1.5815811-3.4868062h1.2579371c3.70206,0,4.3127091-.3592652,4.3127091-1.9042074h-11.8598229v-2.8395182h11.8598229v-2.0843489h-14.3756971v-2.5881343h14.3756971v-1.9764675h-11.8959529v-2.6949979h11.8959529v-1.7973438h-11.0690323v-6.7924533h11.0690323v-1.7607048h-13.7289179v-2.7316369h13.7289179v-1.6894625h3.66593v1.6894625h13.9085505v2.7316369h-13.9085505v1.7607048h11.2491738v6.7924533h-11.2491738v1.7973438h11.8959529v4.6714655h2.4079929v2.5881343h-2.4079929v6.7201931h-3.5219186Zm-12.0399643-20.3050996h-7.4392324v2.1922302h7.4392324v-2.1922302Zm11.2853038,0h-7.6193739v2.1922302h7.6193739v-2.1922302Zm.7546605,9.0203046h-8.3740344v1.9764675h8.3740344v-1.9764675Zm0,4.5646019h-8.3740344v2.0843489h8.3740344v-2.0843489Z"/>
        <path class="cls-1" d="m313.3427253,95.1325835c10.9255298-.9342931,17.3587178-6.6123118,18.93979-13.6561489-5.6062674,0-18.7245362.1068636-23.7557758.2870051v-3.8450537c4.276579.1078813,9.9551066.2147449,15.2382389.2147449,4.1686977,0,8.0865204-.0712424,10.8893997-.2147449l2.6237555,1.9398286c-3.2705347,10.3505019-8.7694296,16.9994526-21.2760316,19.0125591l-2.6593767-3.7381901Zm20.2338572-21.9589409c-2.480253-.1078813-6.6133295-.1435025-10.7820272-.1435025-4.1330765,0-8.3379043.0356212-10.997281.1435025v-3.5936698c2.2639815.0722601,5.6062674.1078813,9.0564347.1078813,4.7442345,0,9.775474-.0722601,12.7228736-.1435025v3.629291Z"/>
        <path class="cls-1" d="m348.7023602,95.636369c12.3625906-2.5525131,19.2990553-10.3148807,21.5991668-19.1560616-.898163-.0356212-1.8685862-.0356212-2.9112695-.0356212-3.0186419,0-6.397058.1078813-9.2721974.1791237-2.3001115,3.1987834-5.3187535,6.0739228-9.2360673,8.3740344l-3.2349135-2.6237555c6.9003346-3.3779072,11.0695412-9.1638072,12.6149922-14.4469395l3.952935,1.1500558c-.5388978,1.3291795-1.1500558,2.6593767-1.8685862,3.952935h1.8685862c3.3427948,0,7.1160973-.0722601,10.135757-.2513839l2.6227378,2.4792353c-3.5580486,11.2135526-8.9129322,19.8033496-22.7853526,23.8285448l-3.4857885-3.4501673Z"/>
        <path class="cls-1" d="m383.3780681,76.4803074v-3.0542631h13.9808107v3.0542631h-13.9808107Zm4.6724832,21.8154383v1.3658184h-3.4501673v-11.1779314h11.5728178v9.8121129h-8.1226505Zm-3.0909021-26.8105478v-2.8395182h10.8176484v2.8395182h-10.8176484Zm0,14.8784648v-2.8395182h10.8176484v2.8395182h-10.8176484Zm.0356212-4.9594883v-2.8395182h10.7820272v2.8395182h-10.7820272Zm7.7277641,9.9189765h-4.6724832v3.9173138h4.6724832v-3.9173138Zm21.0592512,8.3384132c-2.9107606-.8630507-6.0729051-2.4446318-7.618865-3.7738113-1.5449422,1.3291795-4.5279629,2.9463818-7.3308422,3.7738113l-2.1209878-3.5946876c2.7316369-.4671465,5.4632738-1.2935583,6.7924533-2.3357327-2.9463818-2.9830207-4.3844604-5.8581602-4.3844604-5.8581602l2.9473996-1.832965s1.4014396,2.9117784,4.0251952,5.4632738c1.832965-1.6172023,3.1977657-4.6002231,3.4501673-5.9304203h-11.3570551v-3.2344046h15.274369v2.8751394s-1.2579371,5.0317484-4.7447433,8.3740344c1.4024574.9342931,3.9173138,1.9764675,7.0082159,2.3713539l-1.9408463,3.7025689Zm-2.9107606-18.9402989c-1.9408463,0-3.1621445-1.2223159-3.1621445-3.0552809v-5.7859h-3.9173138c-.0356212,4.5646019-.5394067,7.7267463-4.8159857,9.6319715l-2.156609-3.0909021c3.342286-.9699143,3.7015512-3.7738113,3.7015512-7.1883574,0-.8264118-.0356212-1.7250836-.0356212-2.5871166h10.5296256v8.1226505c0,.5750279.2157627.7185304.8986719.7185304.9342931,0,1.0065532-.2157627,1.0065532-2.1922302v-1.8685862l2.8028793,1.7250836c-.1791237,4.6358443-.7907906,5.5701373-3.2700258,5.5701373h-1.5815811Z"/>
        <path class="cls-1" d="m427.218601,99.6615641v-18.5810337c-.8264118,1.7250836-1.7250836,2.9830207-1.7250836,2.9830207l-1.832965-4.0251952c2.6237555-3.0186419,5.2475111-8.4452768,6.5054482-12.7228736l3.342286,1.2579371c-.8264118,2.3723717-1.7973438,5.0673696-2.8395182,7.0804761v24.0076685h-3.4501673Zm9.7398528-20.3417386v6.2530466c0,3.5580486-.2157627,9.4162088-2.6949979,13.6215454l-3.127541-2.4079929c2.2644903-3.4868062,2.4079929-8.9490622,2.4079929-12.0043431v-8.266153h22.6062289v2.803897h-19.1916828Zm13.8362904-6.1818042v2.2644903h-3.5936698v-2.2644903h-5.3187535v2.4079929h-3.5224274v-2.4079929h-4.5279629v-2.8028793h4.5279629v-2.6593767h3.5224274v2.6593767h5.3187535v-2.6593767h3.5936698v2.6593767h4.5289807v2.8028793h-4.5289807Zm-1.7607048,23.1446178c2.5514954,0,2.9473996-.2513839,2.9473996-1.185677v-1.0421744h-3.7738113v4.7081044h-3.0186419v-4.7081044h-3.5946876v5.6067763h-3.0909021v-18.5454125h16.6045662v13.9808107c0,3.7738113-1.7617226,4.276579-4.6358443,4.4200816l-1.4380786-3.2344046Zm-3.8450537-12.3625906h-3.5946876v2.6237555h3.5946876v-2.6237555Zm0,5.0317484h-3.5946876v2.6227378h3.5946876v-2.6227378Zm6.7924533-5.0317484h-3.7738113v2.6237555h3.7738113v-2.6237555Zm0,5.0317484h-3.7738113v2.6227378h3.7738113v-2.6227378Z"/>
        <path class="cls-1" d="m475.084329,93.8390252c1.2579371.1801415,2.3357327.323644,3.2344046.323644,1.832965,0,2.9473996-.6106491,3.2710436-2.803897.4671465-2.982003.7185304-7.295221.7185304-9.5230724v-.6829092c-.0722601-1.8696039-.7551694-2.1922302-2.3723717-2.1922302-.7185304,0-2.156609.0356212-3.9173138.0712424-1.9408463,7.1160973-4.4567205,14.5558385-6.5410694,19.0838015l-3.8094325-2.1922302c2.2644903-3.7371724,4.7081044-10.2426205,6.4688092-16.747051-1.9408463.0712424-3.952935.1791237-5.6423975.2870051l-.3226263-3.8816926c.7185304.0366389,1.5805634.0366389,2.5514954.0366389,1.3658184,0,2.8385005,0,4.3488392-.0366389.6106491-2.7672581,1.1134168-5.4266348,1.3291795-7.7623675l4.0974553.4671465c-.3592652,2.156609-.8986719,4.6358443-1.5459599,7.2239786,1.509321-.0366389,2.8395182-.0366389,3.7738113-.0722601h.1435025c3.0196597,0,5.2831323,1.0777956,5.2831323,4.6724832,0,3.66593-.4671465,9.775474-.7185304,11.9677042-.6106491,5.0307307-2.6237555,6.1807864-9.45183,6.1807864l-.8986719-4.4200816Zm18.4365134-8.4819157c-.8976541-3.1621445-3.5936698-8.3740344-5.5345161-10.9967722l3.3789249-1.5815811c2.0843489,2.8751394,4.6002231,7.3674811,5.8937814,10.7820272l-3.7381901,1.796326Zm-.323644-12.4704719c-.9342931-1.3301972-2.1199701-2.803897-3.2700258-4.0251952l2.0843489-1.4736998c1.185677,1.185677,2.3723717,2.5158742,3.3789249,3.8816926l-2.1932479,1.6172023Zm3.4501673-2.156609c-.8976541-1.3291795-2.0843489-2.6593767-3.342286-3.952935l2.0487277-1.3658184c1.2223159,1.185677,2.3723717,2.4792353,3.3789249,3.7738113l-2.0853666,1.5449422Z"/>
        <path class="cls-1" d="m504.7282885,96.4627807c5.822539-2.4436141,8.6976784-4.9594883,9.2370851-11.5361788l3.4857885.1435025c-.647288,8.9490622-4.9961272,11.8598229-10.1713782,14.5914597l-2.5514954-3.1987834Zm28.140745-10.422762c-.6106491-1.0777956-1.2579371-2.1199701-1.9408463-3.0542631-6.9359558.9342931-14.052053,1.0055355-24.6905777,1.0055355l-.5383889-3.5580486c1.5805634.0366389,2.9463818.0722601,4.3844604.1078813,2.1199701-2.0120887,4.5279629-4.8516069,5.462256-6.5400516h-10.0268579v-3.2354224h13.441404v-3.4501673h3.7738113v3.4501673h13.404765v3.2354224h-16.1720231c-.8986719,1.5805634-3.1987834,4.4557028-5.3197712,6.5766906,6.9725947-.0366389,11.6806991-.2880228,14.2321945-.6116668-1.796326-2.4079929-3.305647-4.0608164-3.305647-4.0608164l3.1265233-1.4370608s3.7015512,4.0608164,7.4387235,9.5597113l-3.2700258,2.0120887Zm-5.8937814,12.7228736c-1.9408463,0-3.4868062-.4671465-3.4868062-3.5580486v-10.1347392h3.4868062v9.2004461c0,.7541516.2157627,1.2579371,1.4370608,1.2579371h2.8395182c1.9042074,0,1.9764675-.0722601,2.156609-5.7146576l3.5936698,1.9408463c-.3959042,5.2108721-1.4014396,7.0082159-4.8159857,7.0082159h-5.2108721Z"/>
        <path class="cls-1" d="m575.7752733,99.4458015s-9.7398528-1.5815811-14.7716012-8.7332996c-2.4792353,4.6358443-7.6555039,7.1873397-13.8729293,8.7689208l-2.0120887-3.4145461c5.5701373-.8976541,9.9556155-2.8751394,12.1478457-5.7136399h-11.3214339v-3.1631622h12.7941159c.2880228-.7541516.5037855-1.6884447.6116668-2.5158742h-9.2004461v-2.9830207h9.4162088v-2.6593767h-10.7107848v-1.832965h-3.0542631v-7.1160973h13.6927878v-2.7672581h3.5224274v2.7672581h13.6927878v7.0804761h-2.9830207v1.8685862h-10.6385247v2.6593767h9.3805876v2.9830207h-9.5240901c-.0722601.8274295-.2157627,1.7617226-.4671465,2.5158742h14.0876742v3.1631622h-11.8231839c4.5279629,4.8159857,12.6506134,5.7859,12.6506134,5.7859l-1.6172023,3.3066648Zm-2.5881343-26.2355199h-23.8631482v2.8385005h10.2426205v-2.0120887h3.5214097v2.0120887h10.099118v-2.8385005Z"/>
        <path class="cls-1" d="m591.0811925,88.9151581l-.5027677-19.9824733h4.3122002l-.4671465,19.9824733h-3.342286Zm-.4315253,8.0503904v-4.7793468h4.2053367v4.7793468h-4.2053367Z"/>
      </g>
      <g>
        <path class="cls-1" d="m636.0019531,69.5575705s1.6191406-1.8671875,2.5898438-4.71875l1.1708984.3486328c-.9462891,3.0625-2.6894531,5.2167969-2.6894531,5.2167969l-1.0712891-.8466797Zm3.5117188,3.9472656l-.5478516-1.1826172c1.8671875,0,2.2158203-.0625,2.2158203-.4111328v-9.5625h1.2705078v9.625c0,1.1953125-.8837891,1.53125-2.8271484,1.53125h-.1113281Zm6.6113281-3.25s-1.3203125-2.1914062-2.4160156-4.9550781l1.1083984-.4980469c1.0830078,2.7265625,2.390625,4.6064453,2.390625,4.6064453l-1.0830078.8466797Z"/>
        <path class="cls-1" d="m659.7216797,67.1542501v-1.4443359h-8.2548828v1.4570312h-1.2207031v-2.5771484h1.71875s-.4238281-.6845703-1.0957031-1.4570312l1.1210938-.6972656c.7460938.9335938,1.1074219,1.5693359,1.1074219,1.5693359l-.9082031.5849609h2.8261719s-.3867188-.6728516-1.0957031-1.4941406l1.1328125-.6728516c.7226562.9091797,1.0957031,1.5693359,1.0957031,1.5693359l-1.0087891.5976562h2.3535156s.9335938-1.2080078,1.3320312-2.1289062l1.2578125.5849609c-.3232422.5478516-.7597656,1.1455078-1.0957031,1.5439453h1.9550781v2.5644531h-1.2207031Zm-3.1621094,3.5488281v1.1455078c0,1.5068359-.9716797,1.6308594-2.4902344,1.6806641l-.4980469-1.1826172h.8095703c.671875,0,.9580078-.0498047.9580078-.4980469v-1.1455078h-5.0546875v-1.1201172h5.0546875v-.9462891h.6601562c.6845703-.2988281,1.3076172-.796875,1.3076172-.796875h-5.1425781v-1.1210938h6.8476562v1.0830078s-.9082031.9960938-2.4648438,1.7431641v.0380859h4.3828125v1.1201172h-4.3701172Z"/>
        <path class="cls-1" d="m665.7861328,73.5546408v-6.5615234c-.1748047.8710938-.5976562,2.3027344-1.0458984,3.2744141l-.734375-1.2578125c.734375-.9707031,1.3066406-2.5527344,1.46875-3.4492188h-1.1455078v-1.1201172h1.4570312v-2.0917969h1.1572266v2.0917969h1.2578125v1.1201172h-.9833984c.4980469,1.3574219,1.1328125,2.1542969,1.1328125,2.1542969l-.7216797,1.1455078s-.3867188-.9960938-.6855469-2.2539062v6.9482422h-1.1572266Zm8.6660156,0c-.9960938-.5976562-1.9794922-1.3818359-2.6152344-2.1171875-.6845703.7470703-1.7802734,1.5693359-3.0126953,2.1171875l-.7226562-1.2080078c1.2949219-.4228516,2.328125-1.0585938,3.0253906-1.7929688-1.0576172-1.3076172-1.5185547-2.8632812-1.5185547-2.8632812l1.0585938-.4980469s.3486328,1.3447266,1.1455078,2.4648438c.7714844-1.1582031.9833984-2.5400391.9833984-2.5400391l1.1083984.4482422s-.2988281,1.53125-1.3574219,2.9882812c.5849609.6601562,1.6191406,1.3447266,2.6640625,1.8681641l-.7587891,1.1328125Zm-6.1513672-6.4746094c1.3701172-.9091797,1.6933594-2.3408203,1.6933594-2.3408203l1.0458984.5849609s-.5351562,1.5439453-2.0292969,2.7890625l-.7099609-1.0332031Zm.2246094-2.5029297v-1.1201172h2.4775391v-1.1083984h1.2197266v1.1083984h2.8271484v1.1201172h-6.5244141Zm5.8271484,3.4238281c-1.1826172-1.2822266-1.9179688-2.7011719-1.9179688-2.7011719l.9589844-.5732422s.6845703,1.2949219,1.7802734,2.3037109l-.8212891.9707031Z"/>
        <path class="cls-1" d="m677.3525391,72.9071798l3.8466797-10.2851562h1.1337891l-3.8476562,10.2851562h-1.1328125Z"/>
        <path class="cls-1" d="m694.0742188,70.6532736v-.9335938h-3.2988281v3.8349609h-1.2207031v-3.8349609h-3.3125v.9335938h-1.2197266v-6.3251953h4.5322266v-1.9794922h1.2207031v1.9794922h4.5195312v6.3251953h-1.2207031Zm-4.5195312-5.2041016h-3.3125v3.1494141h3.3125v-3.1494141Zm4.5195312,0h-3.2988281v3.1494141h3.2988281v-3.1494141Z"/>
        <path class="cls-1" d="m708.28125,67.1542501v-1.4443359h-8.2548828v1.4570312h-1.2197266v-2.5771484h1.7177734s-.4228516-.6845703-1.0957031-1.4570312l1.1201172-.6972656c.7480469.9335938,1.1083984,1.5693359,1.1083984,1.5693359l-.9091797.5849609h2.8271484s-.3857422-.6728516-1.0957031-1.4941406l1.1328125-.6728516c.7216797.9091797,1.0957031,1.5693359,1.0957031,1.5693359l-1.0087891.5976562h2.3535156s.9335938-1.2080078,1.3320312-2.1289062l1.2578125.5849609c-.3242188.5478516-.7597656,1.1455078-1.0957031,1.5439453h1.9550781v2.5644531h-1.2207031Zm-3.1621094,3.5488281v1.1455078c0,1.5068359-.9716797,1.6308594-2.4902344,1.6806641l-.4980469-1.1826172h.8085938c.6728516,0,.9589844-.0498047.9589844-.4980469v-1.1455078h-5.0546875v-1.1201172h5.0546875v-.9462891h.6601562c.6845703-.2988281,1.3076172-.796875,1.3076172-.796875h-5.1425781v-1.1210938h6.8486328v1.0830078s-.9091797.9960938-2.4658203,1.7431641v.0380859h4.3828125v1.1201172h-4.3701172Z"/>
        <path class="cls-1" d="m714.3457031,73.5546408v-6.5615234c-.1748047.8710938-.5976562,2.3027344-1.0458984,3.2744141l-.7353516-1.2578125c.7353516-.9707031,1.3076172-2.5527344,1.4697266-3.4492188h-1.1455078v-1.1201172h1.4570312v-2.0917969h1.1582031v2.0917969h1.2568359v1.1201172h-.9833984c.4980469,1.3574219,1.1328125,2.1542969,1.1328125,2.1542969l-.7216797,1.1455078s-.3857422-.9960938-.6845703-2.2539062v6.9482422h-1.1582031Zm8.6660156,0c-.9960938-.5976562-1.9804688-1.3818359-2.6152344-2.1171875-.6845703.7470703-1.7802734,1.5693359-3.0126953,2.1171875l-.7226562-1.2080078c1.2949219-.4228516,2.3291016-1.0585938,3.0263672-1.7929688-1.0585938-1.3076172-1.5195312-2.8632812-1.5195312-2.8632812l1.0585938-.4980469s.3486328,1.3447266,1.1455078,2.4648438c.7714844-1.1582031.9833984-2.5400391.9833984-2.5400391l1.1083984.4482422s-.2988281,1.53125-1.3574219,2.9882812c.5849609.6601562,1.6181641,1.3447266,2.6650391,1.8681641l-.7597656,1.1328125Zm-6.1513672-6.4746094c1.3701172-.9091797,1.6933594-2.3408203,1.6933594-2.3408203l1.0458984.5849609s-.5351562,1.5439453-2.0292969,2.7890625l-.7099609-1.0332031Zm.2246094-2.5029297v-1.1201172h2.4775391v-1.1083984h1.2207031v1.1083984h2.8261719v1.1201172h-6.5244141Zm5.8271484,3.4238281c-1.1835938-1.2822266-1.9179688-2.7011719-1.9179688-2.7011719l.9589844-.5732422s.6845703,1.2949219,1.7802734,2.3037109l-.8212891.9707031Z"/>
        <path class="cls-1" d="m643.7714844,85.1796408h.1123047c1.7431641,0,1.8173828-.0498047,1.8173828-4.8564453v-1.4443359h-1.40625c-.0625,3.0009766-.3359375,5.5537109-2.1914062,7.6083984l-.6728516-.8964844-.7216797.1738281s-.1367188-.8710938-.2363281-1.1953125c-1.6933594.3857422-4.2089844.796875-4.2089844.796875l-.2490234-1.2324219s.4482422-.0253906.859375-.0996094c.5351562-.796875,1.0830078-1.8798828,1.4316406-2.6269531-.4355469-.5859375-1.4316406-1.7685547-2.2783203-2.4033203l.7216797-1.1328125c.1748047.1738281.3115234.3603516.4365234.4853516.4101562-.6103516.9833984-1.6806641,1.4189453-2.9755859l1.1953125.3857422c-.5605469,1.5068359-1.2949219,2.7138672-1.7431641,3.3867188.2246094.2236328.6474609.7470703.8837891,1.0332031.6357422-1.1201172,1.0341797-2.3779297,1.0341797-2.3779297l1.2197266.3613281s-1.1582031,2.8261719-2.8886719,5.7148438c.6474609-.0751953,1.2822266-.2246094,1.8925781-.3740234-.0996094-.3486328-.2490234-.8583984-.4853516-1.3447266l1.0830078-.4355469c.3984375.9589844.7724609,2.2412109.9960938,3.0009766,1.0712891-1.5068359,1.2451172-3.5488281,1.2705078-5.8525391h-1.5693359v-1.1201172h1.5810547v-2.4404297h1.2324219v2.4404297h2.6152344c0,7.8066406-.0371094,8.4169922-2.5771484,8.6162109l-.5732422-1.1953125Z"/>
        <path class="cls-1" d="m656.1357422,85.8144064v.7099609h-1.2080078v-7.0976562c-.1367188.2373047-.2988281.4736328-.4726562.6855469l-.5107422-.7597656v.3486328h-.6347656c.5224609.9833984,1.1083984,1.8056641,1.1083984,1.8056641l-.6474609,1.2197266s-.5234375-1.1826172-.8222656-2.2041016v6.0019531h-1.2080078v-5.7529297c-.2480469.984375-.6220703,1.9179688-1.1201172,3.1259766l-.6347656-1.3574219c.7099609-1.1083984,1.4316406-2.8388672,1.4316406-2.8388672h-1.1201172v-1.0712891h1.4433594v-1.7050781c-.2734375.0498047-.7460938.0996094-1.0449219.1240234l-.3984375-1.0703125c2.0664062-.1494141,3.3115234-.5976562,3.3115234-.5976562l.5849609,1.0078125s-.4980469.2246094-1.2451172.3486328v1.8925781h.9960938v.2246094c1.5322266-1.6933594,1.9677734-3.4990234,1.9677734-3.4990234l1.2578125.2861328s-.3867188.8964844-.8349609,1.65625h1.4326172c.671875-1.0830078.8837891-1.9423828.8837891-1.9423828l1.2451172.2617188s-.3613281.859375-.9091797,1.6806641h1.9169922v1.0957031h-1.9794922v1.2705078h1.5693359v.9960938h-1.5693359v1.3447266h1.5693359v.9960938h-1.5693359v1.6933594h2.2783203v1.1201172h-5.0673828Zm1.5810547-7.4208984h-1.5810547v1.2705078h1.5810547v-1.2705078Zm0,2.2666016h-1.5810547v1.3447266h1.5810547v-1.3447266Zm0,2.3408203h-1.5810547v1.6933594h1.5810547v-1.6933594Z"/>
        <path class="cls-1" d="m673.5683594,86.5243673v-.5849609h-7.9072266v.5849609h-1.2197266v-10.8447266h10.3466797v10.8447266h-1.2197266Zm0-9.8115234h-7.9072266v8.1923828h7.9072266v-8.1923828Zm-1.2460938,7.9560547s-1.8046875-.9091797-2.6894531-2.2412109v2.1171875h-1.1699219v-1.8554688c-.7597656,1.1201172-1.9052734,1.6308594-1.9052734,1.6308594l-.6845703-1.0585938s1.1455078-.2363281,1.8671875-.8964844h-1.0576172v-2.1787109h5.8017578v2.0791016l.5859375.5732422c-.2871094.1738281-.7353516.3857422-1.0214844.4980469.4238281.1992188,1.0703125.4228516,1.0703125.4228516l-.796875.9091797Zm-6.2626953-4.9804688v-.8212891h2.9267578v-.5732422h-2.2539062v-.8212891h2.2539062v-.4482422h1.1953125v.4482422h2.3154297v.8212891h-2.3154297v.5732422h2.9882812v.8212891h-7.1103516Zm5.2294922,1.2324219h-3.4111328v.6972656h3.4111328v-.6972656Zm-.6474609,1.4443359c.1865234.2119141.4365234.4111328.6474609.5361328.2490234-.0996094.734375-.3613281.9716797-.5361328h-1.6191406Z"/>
        <path class="cls-1" d="m677.3525391,85.8769064l3.8466797-10.2851562h1.1337891l-3.8476562,10.2851562h-1.1328125Z"/>
        <path class="cls-1" d="m693.9755859,85.7401876c-.9960938-1.1582031-2.3535156-2.3037109-3.6113281-3.2001953-1.1455078,1.2695312-2.6025391,2.4150391-4.5322266,3.4609375l-1.1953125-1.0576172c3.6113281-1.4941406,6.375-4.5947266,7.2597656-7.1972656h-.6357422c-1.5439453,0-3.6230469.0371094-5.1171875.0996094v-1.3691406c.9589844.0244141,2.3037109.0498047,3.6230469.0498047,1.1210938,0,2.2412109-.0126953,3.1005859-.0625l.8095703.6601562c-.6845703,1.6181641-1.4697266,3.1123047-2.515625,4.4824219,1.2822266.8212891,2.7021484,1.9042969,4.0224609,3.0878906l-1.2080078,1.0458984Z"/>
        <path class="cls-1" d="m708.4804688,81.4813986c-1.0957031-.0371094-3.1132812-.0498047-5.1425781-.0498047s-4.0712891.0126953-5.2167969.0498047v-1.3691406c.8837891.0244141,2.8261719.0371094,4.8310547.0371094,2.3037109,0,4.65625-.0126953,5.5283203-.0371094v1.3691406Z"/>
        <path class="cls-1" d="m711.3818359,84.3827658c1.8925781-1.9677734,3.1748047-4.8681641,3.4736328-7.4707031l1.5068359.2734375c-.5361328,2.8271484-1.8056641,5.8154297-3.4619141,8.0068359l-1.5185547-.8095703Zm10.2724609.5107422c-.6230469-2.390625-1.9052734-5.5166016-3.2255859-7.6201172l1.3203125-.4980469c1.3691406,2.3027344,2.4775391,4.71875,3.3994141,7.3583984l-1.4941406.7597656Zm.5722656-6.8359375c-.671875,0-1.2080078-.5351562-1.2080078-1.2080078,0-.671875.5361328-1.2080078,1.2080078-1.2080078s1.2080078.5361328,1.2080078,1.2080078c0,.6728516-.5361328,1.2080078-1.2080078,1.2080078Zm0-1.8300781c-.3857422,0-.6230469.2861328-.6230469.6220703,0,.3857422.2871094.6230469.6230469.6230469.3857422,0,.6230469-.2871094.6230469-.6230469,0-.3857422-.2871094-.6220703-.6230469-.6220703Z"/>
        <path class="cls-1" d="m736.4960938,81.4813986c-1.0957031-.0371094-3.1132812-.0498047-5.1425781-.0498047s-4.0712891.0126953-5.2167969.0498047v-1.3691406c.8837891.0244141,2.8261719.0371094,4.8310547.0371094,2.3037109,0,4.65625-.0126953,5.5283203-.0371094v1.3691406Z"/>
        <path class="cls-1" d="m637.9199219,99.4198751c.0498047-2.0419922.0878906-5.3662109.0878906-8.09375,0-1.1328125-.0126953-2.1660156-.0253906-2.9628906l1.4316406.0244141c-.0244141,1.0341797-.0498047,2.4902344-.0625,4.0722656l.6972656-.7597656c1.3945312.6220703,3.2753906,1.5810547,4.5332031,2.4150391l-.7851562,1.1953125c-1.3818359-.9960938-2.9130859-1.8427734-4.4453125-2.5517578v1.6806641c0,1.8300781.0126953,3.6601562.0507812,4.9677734l-1.4824219.0126953Zm5.1054688-8.2177734c-.3613281-.4238281-.8095703-.8964844-1.2451172-1.2822266l.671875-.5732422c.4482422.3740234.8964844.796875,1.2822266,1.2324219l-.7089844.6230469Zm1.1328125-.8466797c-.3486328-.4355469-.796875-.859375-1.2695312-1.2578125l.6591797-.5351562c.4609375.3730469.8964844.7841797,1.2822266,1.1953125l-.671875.5976562Z"/>
        <path class="cls-1" d="m650.6328125,97.9257345c3.7851562-.3242188,6.0136719-2.2910156,6.5615234-4.7314453-1.9423828,0-6.4873047.0371094-8.2304688.0996094v-1.3320312c1.4814453.0371094,3.4492188.0742188,5.2792969.0742188,1.4443359,0,2.8017578-.0244141,3.7724609-.0742188l.9091797.671875c-1.1328125,3.5859375-3.0380859,5.8896484-7.3710938,6.5869141l-.9208984-1.2949219Zm7.0097656-7.6074219c-.859375-.0380859-2.2910156-.0498047-3.7353516-.0498047-1.4316406,0-2.8886719.0117188-3.8095703.0498047v-1.2451172c.7841797.0244141,1.9414062.0371094,3.1367188.0371094,1.6445312,0,3.3867188-.0253906,4.4082031-.0498047v1.2578125Z"/>
        <path class="cls-1" d="m663.9677734,94.2030783c-.2363281-.9589844-.6103516-1.9677734-.9707031-2.7519531l1.0703125-.3115234c.3857422.7470703.7724609,1.7060547,1.0214844,2.6396484l-1.1210938.4238281Zm.4482422,4.1835938c4.3710938-1.0458984,5.6279297-3.8847656,5.8398438-7.4335938l1.2451172.1621094c-.3984375,4.0087891-1.8681641,6.9101562-6.2255859,8.2421875l-.859375-.9707031Zm2.2666016-4.5576172c-.1376953-.9589844-.4111328-2.0048828-.6728516-2.7265625l1.1083984-.2119141c.3115234.8095703.5478516,1.7431641.734375,2.6269531l-1.1699219.3115234Z"/>
        <path class="cls-1" d="m676.1455078,98.0995626c4.2832031-.8837891,6.6865234-3.5732422,7.4833984-6.6357422-.3115234-.0126953-.6474609-.0126953-1.0087891-.0126953-1.0458984,0-2.2158203.0371094-3.2119141.0625-.796875,1.1074219-1.84375,2.1035156-3.2001953,2.9003906l-1.1210938-.9082031c2.390625-1.1708984,3.8349609-3.1757812,4.3701172-5.0058594l1.3701172.3984375c-.1865234.4609375-.3984375.921875-.6474609,1.3701172h.6474609c1.1582031,0,2.4658203-.0253906,3.5107422-.0878906l.9091797.859375c-1.2324219,3.8847656-3.0878906,6.8603516-7.8935547,8.2548828l-1.2080078-1.1953125Zm8.2802734-8.1796875c-.3740234-.4365234-.8222656-.8964844-1.2705078-1.2832031l.6845703-.5722656c.4365234.3857422.9091797.8095703,1.2832031,1.2578125l-.6972656.5976562Zm1.3945312-.5859375c-.3613281-.4228516-.796875-.8583984-1.2578125-1.2568359l.6601562-.5361328c.4482422.3740234.8964844.7851562,1.2695312,1.2080078l-.671875.5849609Z"/>
        <path class="cls-1" d="m697.2128906,98.7099142c-.9960938-1.1582031-2.3535156-2.3037109-3.6113281-3.2001953-1.1455078,1.2705078-2.6015625,2.4160156-4.5322266,3.4619141l-1.1953125-1.0585938c3.6113281-1.4941406,6.375-4.5947266,7.2587891-7.1962891h-.6347656c-1.5439453,0-3.6230469.0371094-5.1171875.0996094v-1.3701172c.9589844.0253906,2.3037109.0498047,3.6230469.0498047,1.1210938,0,2.2412109-.0126953,3.1005859-.0625l.8095703.6601562c-.6855469,1.6191406-1.4697266,3.1132812-2.515625,4.4824219,1.2832031.8222656,2.7021484,1.9052734,4.0214844,3.0878906l-1.2070312,1.0458984Z"/>
        <path class="cls-1" d="m703.2265625,99.4198751c.0498047-2.0419922.0878906-5.3662109.0878906-8.09375,0-1.1328125-.0126953-2.1660156-.0253906-2.9628906l1.4316406.0244141c-.0244141,1.0341797-.0498047,2.4902344-.0625,4.0722656l.6972656-.7597656c1.3945312.6220703,3.2753906,1.5810547,4.5332031,2.4150391l-.7851562,1.1953125c-1.3818359-.9960938-2.9130859-1.8427734-4.4453125-2.5517578v1.6806641c0,1.8300781.0126953,3.6601562.0507812,4.9677734l-1.4824219.0126953Z"/>
        <path class="cls-1" d="m718.2675781,93.7167501c1.7304688-.7089844,2.6152344-1.8925781,3.0009766-3.0996094h-.8466797c-2.1289062,0-5.3789062.0371094-7.6455078.0996094l-.0498047-1.3701172c1.5068359.0498047,3.5234375.0869141,5.3671875.0869141,1.5683594,0,3.0126953-.0244141,3.8720703-.0869141l1.0703125.8339844c-.734375,1.9804688-1.7675781,3.5986328-3.6103516,4.6445312l-1.1582031-1.1083984Zm-5.2421875,4.3828125c3.0634766-1.0576172,3.7480469-3.3613281,3.7480469-5.6894531,0-.1992188,0-.3867188-.0126953-.5859375l1.4697266.0625c-.2246094,3.3369141-.6972656,5.6279297-4.0839844,7.3339844l-1.1210938-1.1210938Z"/>
        <path class="cls-1" d="m730.1455078,90.0312033c.2246094.3115234.4238281.6855469.4238281.6855469l-1.0458984.5478516s-.2617188-.6728516-.5605469-1.2333984h-.5351562c-.7597656,1.0214844-1.4443359,1.5566406-1.4443359,1.5566406l-.9091797-.8710938s1.2080078-.7597656,2.1171875-2.4287109l1.1699219.2490234c-.0742188.1621094-.2246094.3486328-.3115234.4980469h2.7763672v.9960938h-1.6806641Zm4.7197266,6.5996094v1.2451172c0,1.2949219-.9091797,1.6181641-2.7402344,1.6181641l-.6220703-1.1953125c1.7802734,0,2.0917969-.1865234,2.0917969-.4980469v-1.1572266h-4.1591797c.6855469.5224609,1.4072266,1.2451172,1.4072266,1.2451172l-.9462891.8964844s-.8212891-1.0214844-1.7177734-1.7314453l.5595703-.4228516h-2.2783203v-1.0585938h7.1347656v-.9208984h-7.4707031v-.9589844h4.7060547v-.9833984h-3.8095703v-.9345703h3.8095703v-.671875h1.1210938l-.5722656-.5605469s.9335938-.7470703,1.5058594-2.2539062l1.2207031.1748047c-.0751953.1738281-.1875.4111328-.2617188.5722656h3.1132812v.9960938h-1.8681641c.2363281.3613281.4355469.7353516.4355469.7353516l-1.0703125.5478516s-.2119141-.6357422-.5605469-1.2832031h-.5976562c-.4853516.8095703-.9833984,1.4443359-.9833984,1.4443359l-.2119141-.2109375v.5097656h3.9716797v.9345703h-3.9716797v.9833984h4.8808594v.9589844h-2.1162109v.9208984h1.7929688v1.0585938h-1.7929688Z"/>
        <path class="cls-1" d="m740.7167969,98.5605001v-1.7431641h1.5566406v1.7431641h-1.5566406Z"/>
        <path class="cls-1" d="m746.5683594,98.5605001v-1.7431641h1.5566406v1.7431641h-1.5566406Z"/>
        <path class="cls-1" d="m752.4208984,98.5605001v-1.7431641h1.5566406v1.7431641h-1.5566406Z"/>
      </g>
      <g>
        <rect class="cls-8" x="612.380491" y="16.9531005" width="3.8311356" height="83.6627134"/>
        <rect class="cls-5" x="616.2116266" y="16.9531005" width="3.8311356" height="83.6627134"/>
      </g>
      <g>
        <rect class="cls-5" x="636.0146484" y="16.9531005" width="120.9912109" height="31.2235383"/>
        <g>
          <path class="cls-4" d="m656.2239295,26.6302613h-2.942814l1.4206689-2.3846941h4.109792v16.9206833h-2.5876468v-14.5359892Z"/>
          <path class="cls-4" d="m665.7627061,39.6192337c-1.7768309-2.0295269-2.1568698-4.6937785-2.1568698-6.9003916,0-2.1817414.3800389-4.8967311,2.1568698-6.9262581,1.0645068-1.2177162,2.333956-1.8265742,3.8302346-1.8265742s2.7657279.6088581,3.8302346,1.8265742c1.7768309,2.0295269,2.1568698,4.7445166,2.1568698,6.9262581,0,2.2066131-.3800389,4.8708646-2.1568698,6.9003916-1.0645068,1.2177162-2.3080894,1.8265742-3.8302346,1.8265742s-2.7657279-.6088581-3.8302346-1.8265742Zm1.5470169-11.9742089c-.9381588,1.3948023-1.166978,3.5765438-1.166978,5.0479508,0,1.4972735.2288192,3.6531485,1.166978,5.0738173.7352061,1.1162398,1.6236215,1.3957972,2.2832178,1.3957972s1.5480117-.2795574,2.2832178-1.3957972c.9381588-1.4206689,1.166978-3.5765438,1.166978-5.0738173,0-1.471407-.2288192-3.6531485-1.166978-5.0479508-.7352061-1.1162398-1.6236215-1.3957972-2.2832178-1.3957972s-1.5480117.2795574-2.2832178,1.3957972Z"/>
          <path class="cls-4" d="m679.4620128,30.6405668c2.8672042-1.6584419,4.5057488-3.4531804,5.6767062-6.5939728l1.7559387.7411753c-1.1898599,3.2382893-2.7309076,5.46281-5.9701917,7.5301418l-1.4624532-1.6773443Zm8.9348928,8.7786988c3.5695797,0,3.589477-.3312904,3.589477-1.9897323v-4.623143h-3.8819677c-.156194,1.8534356-1.1122603,6.8864634-6.555173,8.7786988l-1.1510601-1.7947385c4.7017374-1.3460539,5.5603069-4.9355309,5.6578037-6.9839603h-3.2780839v-1.7559387h11.178316v5.4230153c0,3.7655683-.2138962,4.6828349-4.7594396,4.7992343l-.7998724-1.8534356Zm7.1013545-7.2376512c-2.7120051-2.0484294-4.585338-4.0182643-5.9502944-7.3938452l1.6773443-.7411753c1.3271514,2.9845984,3.0432955,4.8768338,5.7354033,6.4765786l-1.4624532,1.6584419Z"/>
          <path class="cls-4" d="m715.34385,41.5850892v-.9948661h-12.6805638v.9948661h-1.8723381v-16.9336166h16.4262349v16.9336166h-1.8733329Zm0-15.2950721h-12.6805638v12.6616614h12.6805638v-12.6616614Zm-8.5449053,11.8806915c-.2337935,0-1.4435508-.0586971-1.4435508-1.4236534v-1.8922354h4.4480465v-.7023755h-3.2969864v-.6436784c-.7023755.6824782-1.5211503,1.3062592-2.5558111,1.9111379l-1.0336659-1.5599501c.9948661-.4486846,1.9708298-.9759637,2.5946109-1.6196421h-2.0484294v-1.3072541h3.0243931c.2138962-.2725933.4287873-.7023755.565084-.9749688h-2.9647011v-1.2684543h1.5022479c-.4486846-.6436784-.8973693-1.1510601-.8973693-1.1510601l1.6385445-.565084s.5849813.7998724,1.0724657,1.7161441h.1949938c.3909824-.9749688.5073817-1.969835.5073817-1.969835l1.7370363.1949938s-.1760913.936169-.468582,1.7748412h1.2674595c.468582-.7411753.7809699-1.6773443.7809699-1.6773443l1.8335383.4675871s-.3700902.683473-.7411753,1.2097572h1.5798474v1.2684543h-2.8085071c.1163993.2536909.3511877.7023755.565084.9749688h2.8483018v1.3072541h-1.7161441c.565084.468582,1.3848537.9172666,2.2434231,1.3072541l-1.0734606,1.404751c-1.4435508-.8973693-2.497114-1.8345332-3.2382893-2.7120051h-3.2969864c-.1949938.2924906-.3899875.5272791-.6635757.8197697h4.6629376v2.906004h-4.4281492v.4297822c0,.4287873.1362967.4486846.4287873.4486846h3.4720828c.9560664,0,1.1510601-.0785944,1.1510601-1.4823506l1.7957334.9162717c-.2347884,1.5997448-.7222728,1.8922354-2.1469211,1.8922354h-5.0917249Zm2.1071265-8.21262c-.1163993.2725933-.312388.721278-.4675871.9749688h1.5798474c-.1750964-.2536909-.4098849-.7411753-.4874844-.9749688h-.6247759Z"/>
          <path class="cls-4" d="m734.2542656,39.6142594c2.5946109,0,2.653308-.2337935,2.653308-.721278v-10.5545349h-4.9743307c0,.5073817-.0974969,1.3848537-.2536909,2.0295269,2.9845984,2.2822229,5.0529251,4.8967311,5.0529251,4.8967311l-1.4634481,1.4823506s-1.9708298-2.965696-4.0769614-4.7793369c-.6436784,1.8922354-1.9509325,3.8819677-4.8778287,5.1494271l-1.092363-1.7748412c3.6869739-1.2286597,4.7405372-4.4480465,4.7793369-7.0038576h-4.9355309v13.2466427h-1.9111379v-15.0025814h6.8665661v-2.5548163h1.9121327v2.5548163h6.8864634v12.3880732c0,2.0872292-.9948661,2.5170113-3.7844708,2.5369087l-.7809699-1.8932303Z"/>
        </g>
      </g>
    </g>
    <rect class="cls-2" width="756.992126" height="100.6299213"/>
  </g>
</svg>