<?xml version="1.0" encoding="UTF-8"?>
<svg id="_レイヤー_2" data-name="レイヤー 2" xmlns="http://www.w3.org/2000/svg" viewBox="0 0 402.8046875 77.2470703">
  <defs>
    <style>
      .cls-1 {
        fill: #231815;
        stroke-width: 0px;
      }
    </style>
  </defs>
  <g id="_ヘッダー" data-name="ヘッダー">
    <g>
      <path class="cls-1" d="m.3535156,3.0410156h12.4467773l.2827148-.2119141,1.7680664,2.0507812c-2.4521484,2.9697266-4.4321289,5.1386719-5.9404297,6.5058594l1.6264648,1.9091797-2.121582,1.6972656c-1.6972656-2.0742188-3.5356445-3.9599609-5.5161133-5.6572266l1.9804688-1.9091797c.7070312.7070312,1.4140625,1.390625,2.121582,2.0507812,1.0839844-.9433594,2.3564453-2.2636719,3.8183594-3.9609375H.3535156v-2.4746094Z"/>
      <path class="cls-1" d="m18.4575195,3.0410156h12.4467773l.2822266-.2119141,1.7675781,2.0507812c-2.4511719,2.9697266-4.4311523,5.1386719-5.9394531,6.5058594l1.6264648,1.9091797-2.121582,1.6972656c-1.6972656-2.0742188-3.5356445-3.9599609-5.5161133-5.6572266l1.9804688-1.9091797c.7070312.7070312,1.4140625,1.390625,2.121582,2.0507812,1.0839844-.9433594,2.3564453-2.2636719,3.8183594-3.9609375h-10.4663086v-2.4746094Z"/>
      <path class="cls-1" d="m35.7841797,14.7089844c1.6494141-2.2148438,2.9697266-4.7138672,3.9599609-7.4960938-.6611328.1416016-1.7216797.4013672-3.1826172.7783203l-.5654297-2.4755859c1.4609375-.2353516,2.9228516-.4707031,4.3847656-.7070312.2822266-1.0361328.4951172-2.3095703.6357422-3.8183594l2.7587891.5654297-.8486328,2.9707031c1.7431641-.2832031,2.921875.1650391,3.5351562,1.3427734.5185547.9443359.6367188,2.3818359.3535156,4.3144531-.140625,1.1308594-.3779297,2.1455078-.7070312,3.0410156-.4716797,1.3203125-1.0605469,2.1679688-1.7675781,2.5458984-.6132812.3291016-1.5800781.4238281-2.8994141.2822266l-.5654297-2.5458984c.9892578.0478516,1.6015625.0478516,1.8378906,0,.3300781-.09375.6123047-.3535156.8486328-.7773438.4248047-.8017578.7304688-1.6728516.9199219-2.6171875.2353516-1.0361328.2587891-1.8613281.0703125-2.4746094-.1416016-.5185547-.4482422-.8017578-.9189453-.8486328-.2832031,0-.7314453.0244141-1.34375.0703125-.9902344,3.3945312-2.4521484,6.5058594-4.3847656,9.3349609l-2.1210938-1.4853516ZM46.6035156,1.9091797l1.2021484-.9189453,1.4853516,1.9794922-1.2021484.8486328-1.4853516-1.9091797Zm.2119141,3.0410156l2.1220703-1.34375c.8486328,1.2734375,1.7675781,3.3486328,2.7578125,6.2236328l-2.3339844,1.1308594c-.8017578-2.7333984-1.6503906-4.7382812-2.5458984-6.0107422Zm1.6972656-3.9599609l1.2021484-.8486328,1.4150391,1.9794922-1.2021484.8486328-1.4150391-1.9794922Z"/>
      <path class="cls-1" d="m53.5341797,7.0712891h16.4765625v2.5458984h-16.4765625v-2.5458984Z"/>
      <path class="cls-1" d="m75.3857422,6.4355469h-3.6777344v-2.1923828h3.1113281l-.2822266-.9199219h-1.4853516l-.7070312-2.4746094c4.5722656.2363281,9.0273438-.046875,13.3652344-.8486328l1.34375,2.3339844c-.5654297.2363281-1.4384766.3535156-2.6162109.3535156l1.0605469.3535156-.7070312,1.2021484h3.2529297v2.1923828h-3.6064453c.7070312.8955078,2.0029297,1.8154297,3.8896484,2.7578125l-1.4150391,2.3339844c-.4716797-.1884766-.8955078-.4707031-1.2724609-.8486328v5.7988281h-2.4755859v-.6367188h-6.5761719v.7070312h-2.4755859v-5.7285156c-.4238281.4248047-.9189453.7548828-1.4853516.9902344l-1.2021484-2.6162109c.6123047-.1875,1.3193359-.5654297,2.1220703-1.1318359.9423828-.6591797,1.5556641-1.2021484,1.8388672-1.6259766Zm1.2021484,4.7382812h1.9794922v-.7080078h-1.9794922v.7080078Zm0,2.6162109h1.9794922v-.7783203h-1.9794922v.7783203Zm.4238281-5.375h1.5556641v-1.9091797c-.4238281.8027344-.9433594,1.4384766-1.5556641,1.9091797Zm.1416016-5.0917969l.2832031.9199219h1.1308594v-.9902344l-1.4140625.0703125Zm3.9599609.9199219h.9199219l.5654297-1.34375-1.4853516.1416016v1.2021484Zm0,4.171875h1.6269531c-.6611328-.5175781-1.2021484-1.1308594-1.6269531-1.8378906v1.8378906Zm0,2.7587891h2.0507812v-.7080078h-2.0507812v.7080078Zm0,2.6162109h2.0507812v-.7783203h-2.0507812v.7783203Z"/>
      <path class="cls-1" d="m92.640625.1416016l2.4746094.4951172c-.1884766.4716797-.3779297.8486328-.5654297,1.1308594h3.2529297v1.0615234c.6591797-.5664062,1.1777344-1.4609375,1.5556641-2.6875l2.5458984.4951172c-.0947266.3779297-.2597656.7539062-.4951172,1.1308594h4.3847656v2.2636719h-2.4042969l.3535156,1.34375-.9902344.2119141,1.2021484,1.7675781c-1.5097656.2832031-3.0878906.4951172-4.7382812.6367188v.7070312h6.8603516v2.2626953h-5.7998047c1.3193359,1.8867188,3.2539062,3.0888672,5.7998047,3.6074219l-1.4853516,2.3330078c-2.9238281-.7548828-5.1162109-2.3798828-6.5771484-4.8789062-1.5556641,2.4990234-3.7724609,4.1474609-6.6474609,4.9501953l-1.6259766-2.4042969c1.1777344-.2353516,2.2382812-.6367188,3.1816406-1.203125,1.2734375-.7070312,2.1220703-1.5078125,2.5458984-2.4042969h-5.6572266v-2.2626953h6.7890625v-.5654297c-1.0380859.0947266-2.4755859.1416016-4.3134766.1416016l-.8486328-2.2636719c4.1953125.0957031,7.3779297-.09375,9.546875-.5654297l-.2128906-1.4140625h-.7070312c-.2822266.6132812-.7314453,1.1074219-1.34375,1.484375l-1.6259766-1.484375h-1.2021484l.3535156,1.4140625-2.4755859.2119141-.2119141-1.6259766h-.6367188c-.6132812.7539062-1.1552734,1.2490234-1.6259766,1.484375l-1.5556641-1.8378906c1.2724609-.8955078,2.2382812-2.0742188,2.8994141-3.5361328Z"/>
      <path class="cls-1" d="m109.3291016,6.6474609c1.8388672-.5654297,3.3476562-.9658203,4.5263672-1.2021484,2.0263672-.3769531,3.5585938-.4003906,4.5966797-.0703125,1.6494141.5654297,2.6396484,1.6962891,2.9697266,3.3935547.3769531,1.7451172-.0703125,3.2070312-1.34375,4.3847656-.8486328.8486328-2.0751953,1.4150391-3.6767578,1.6972656-1.1318359.1884766-2.3818359.2353516-3.7480469.1416016l-.1416016-2.1210938c1.1318359.046875,2.1210938.0234375,2.9697266-.0712891,1.2734375-.1416016,2.1923828-.4707031,2.7587891-.9902344.6113281-.5654297.9423828-1.2958984.9892578-2.1923828.046875-.8945312-.3066406-1.5556641-1.0605469-1.9794922-.9433594-.5185547-2.3105469-.5664062-4.1015625-.1416016-.6611328.1884766-1.4140625.4238281-2.2626953.7070312-.6611328.2363281-1.2978516.4716797-1.9091797.7070312l-.5664062-2.2626953Z"/>
      <path class="cls-1" d="m126.4423828,2.7578125c5.6103516-.2832031,10.4189453-.8242188,14.4267578-1.6259766l.4248047,2.4746094c-1.1796875.1894531-1.9335938.3300781-2.2636719.4248047-.6601562.1884766-1.3671875.5419922-2.1210938,1.0605469-1.0380859.7070312-1.9091797,1.6738281-2.6162109,2.8994141-.8486328,1.4619141-.9902344,2.6875-.4248047,3.6767578.4248047.7080078,1.1318359,1.203125,2.1220703,1.4853516.4238281.1416016,1.2958984.3076172,2.6162109.4951172l-.7783203,2.4755859c-1.3203125-.2363281-2.3574219-.4951172-3.1113281-.7783203-1.1318359-.3769531-2.0273438-.9423828-2.6875-1.6972656-1.2724609-1.3671875-1.5556641-2.9931641-.8486328-4.8798828.6123047-1.6015625,1.6972656-3.0166016,3.2529297-4.2421875-1.5087891.2363281-4.0546875.4941406-7.6367188.7773438l-.3544922-2.5458984Z"/>
      <path class="cls-1" d="m148.4355469,2.4042969c-.3300781.8964844-.5654297,1.8632812-.7070312,2.8994141-.1416016.8964844-.2363281,1.7216797-.2822266,2.4755859-.0478516.5185547,0,1.2490234.140625,2.1923828.0947266.5654297.2128906,1.0136719.3535156,1.3427734.1884766.4248047.4003906.6367188.6367188.6367188.3291016,0,.6601562-.3769531.9902344-1.1318359l.7070312-1.5556641,1.9804688,1.4853516c-.2832031.8964844-.7070312,1.7919922-1.2734375,2.6875-.6601562,1.0371094-1.296875,1.6728516-1.9091797,1.9091797-.6132812.2353516-1.25.046875-1.9091797-.5654297-.6611328-.5664062-1.1318359-1.2255859-1.4140625-1.9804688-1.0859375-2.7333984-1.0380859-6.4580078.140625-11.1738281l2.5458984.7783203Zm6.3652344,1.5556641l2.1923828-1.1308594c1.4599609,2.5927734,2.5214844,5.3505859,3.1816406,8.2734375l-2.4746094.9199219c-.6611328-2.9228516-1.6269531-5.6103516-2.8994141-8.0625Z"/>
      <path class="cls-1" d="m163.78125,10.6787109c.5654297-2.1679688,1.1552734-4.3603516,1.7685547-6.5771484l2.4746094.7783203c-.3300781,1.2724609-.6835938,2.4990234-1.0605469,3.6767578,2.5458984-1.7910156,4.9257812-2.4277344,7.1425781-1.9091797,1.1777344.2832031,2.0507812.9433594,2.6162109,1.9804688.5654297.9892578.6826172,2.0751953.3535156,3.2529297-.4716797,1.8857422-2.1923828,3.1816406-5.1621094,3.8896484-1.2265625.2822266-3.0654297.3759766-5.5166016.2822266l-.5654297-2.4042969c3.3466797.3300781,5.7519531.0478516,7.2138672-.8486328.6113281-.3769531,1.0361328-.8007812,1.2724609-1.2724609.2353516-.4707031.2587891-.9199219.0703125-1.34375-.4238281-.9423828-1.5556641-1.2734375-3.3945312-.9902344-1.5556641.3300781-3.0644531,1.1787109-4.5253906,2.5458984l-2.6875-1.0605469Zm2.9707031-7.5673828l.7773438-2.2626953c2.4511719.4238281,4.4306641.9433594,5.9404297,1.5556641l-1.0605469,2.4042969c-1.5556641-.6591797-3.4423828-1.2255859-5.6572266-1.6972656Z"/>
      <path class="cls-1" d="m180.7529297,12.6582031l3.3945312-4.4550781v-.9189453l-2.6865234.8486328-.4951172-2.5458984,3.1816406-.8486328.0712891-3.8193359,2.5458984.1416016c-.0957031,1.2265625-.1416016,2.2402344-.1416016,3.0410156l.5654297-.2119141.5664062.9902344,1.1308594-.8486328c1.1318359-.8486328,2.1220703-1.1318359,2.9707031-.8486328,1.2724609.4238281,1.8378906,1.6259766,1.6972656,3.6064453l-.3535156,4.7382812c-.0478516.6601562.2822266.8017578.9892578.4238281.5185547-.2353516.9658203-.5410156,1.34375-.9189453l1.0615234,2.2626953c-.7548828.6611328-1.4150391,1.15625-1.9804688,1.4853516-.9902344.6123047-1.8388672.8242188-2.5458984.6357422-1.1318359-.3300781-1.6269531-1.484375-1.4853516-3.4648438l.2119141-2.9697266c.046875-.6123047.0947266-1.1777344.1416016-1.6972656,0-.5185547-.1416016-.8242188-.4238281-.9199219-.2363281-.0458984-.5195312.0244141-.8486328.2128906-.3300781.1884766-.7548828.5185547-1.2734375.9892578-.7070312.6132812-1.3203125,1.2021484-1.8378906,1.7685547.0458984,2.3105469.09375,4.6210938.140625,6.9296875l-2.4746094.0712891-.0712891-4.3847656-1.6972656,2.4755859-1.6972656-1.7685547Z"/>
      <path class="cls-1" d="m199.4931641,10.7490234c2.4990234-2.2158203,4.9257812-4.4785156,7.2841797-6.7890625-1.7451172.2832031-3.4648438.4951172-5.1621094.6367188l-.4951172-2.4755859c3.6298828-.2822266,6.4355469-.6591797,8.4150391-1.1308594l1.4150391,1.9794922-3.4658203,3.4658203c1.1318359-.1884766,2.1679688-.1171875,3.1113281.2119141,1.0371094.3300781,1.8144531.9667969,2.3339844,1.9091797.6601562,1.2265625.7304688,2.5.2119141,3.8193359-.4716797,1.2724609-1.296875,2.2392578-2.4746094,2.8994141-.9902344.5654297-2.1464844.8710938-3.4658203.9189453-1.3203125.046875-2.4511719-.2119141-3.3935547-.7783203-.9443359-.5175781-1.34375-1.2958984-1.203125-2.3330078.1416016-1.0371094.7080078-1.7441406,1.6972656-2.1220703,1.1318359-.4238281,2.2158203-.4951172,3.2539062-.2119141,1.1308594.2832031,1.9091797.9433594,2.3330078,1.9804688.6123047-.4248047.9658203-.9902344,1.0615234-1.6972656.09375-.7070312-.1191406-1.3193359-.6367188-1.8388672-.5195312-.5185547-1.4619141-.7304688-2.8291016-.6367188-.8955078.0957031-1.6972656.3310547-2.4042969.7070312-1.5097656.8486328-2.8291016,1.9804688-3.9599609,3.3945312l-1.6269531-1.9091797Zm8.3447266,3.0410156c-.1416016-.6601562-.4951172-1.0605469-1.0605469-1.2021484-.4238281-.09375-.8251953-.0712891-1.2021484.0703125-.3779297.1416016-.5195312.3779297-.4248047.7070312.0947266.2832031.4248047.4726562.9902344.5664062.7539062.1416016,1.3193359.0947266,1.6972656-.1416016Z"/>
      <path class="cls-1" d="m223.7490234,10.0419922c-.046875-2.6875-.1181641-5.7509766-.2119141-9.1933594l2.8291016.1416016c-.0478516,1.1787109-.0957031,2.3574219-.1416016,3.5361328,1.4609375,0,3.0869141-.1171875,4.8798828-.3544922l-.0712891,2.4052734c-1.5556641.140625-3.1591797.2587891-4.8085938.3535156,0,1.2724609.0458984,2.4746094.1416016,3.6064453,2.0742188.4716797,3.9833984,1.4384766,5.7275391,2.8994141l-1.6259766,1.9794922c-1.4140625-1.1777344-2.7353516-2.0029297-3.9599609-2.4746094-.0957031,1.6972656-.9199219,2.6875-2.4755859,2.9697266-1.4140625.2832031-2.734375.2587891-3.9599609-.0703125-1.6513672-.4248047-2.4755859-1.2958984-2.4755859-2.6162109,0-1.3671875.7070312-2.3095703,2.1220703-2.8291016,1.0839844-.3769531,2.4277344-.4951172,4.0302734-.3535156Zm.0712891,2.2626953c-.7070312-.1416016-1.3203125-.2119141-1.8388672-.2119141-.7070312.0478516-1.2021484.2363281-1.4853516.5654297-.1884766.3779297-.1181641.6845703.2119141.9199219.2832031.1884766.6601562.3066406,1.1318359.3535156.5185547.046875,1.0136719-.0712891,1.4853516-.3535156.4238281-.2832031.5888672-.7070312.4951172-1.2734375Z"/>
      <path class="cls-1" d="m236.4072266,6.7177734c2.5927734-1.0839844,4.6435547-1.7431641,6.1533203-1.9794922,2.4980469-.3769531,4.265625-.046875,5.3037109.9902344.8945312.9433594,1.3193359,2.0976562,1.2724609,3.4648438-.0478516,1.2724609-.4716797,2.4287109-1.2724609,3.4648438-1.3681641,1.7929688-3.6542969,3.0166016-6.8603516,3.6777344l-1.0605469-2.2626953c1.0839844-.1416016,2.1445312-.4248047,3.1826172-.8486328,1.1777344-.5185547,2.0263672-1.0839844,2.5458984-1.6972656.6123047-.7080078.9189453-1.5556641.9189453-2.5458984,0-1.0371094-.4716797-1.6728516-1.4140625-1.9101562-1.7451172-.3759766-4.3378906.3076172-7.7792969,2.0517578l-.9902344-2.4052734Zm3.3945312-3.6064453l.3535156-2.3330078c1.7441406.3769531,3.8193359.6835938,6.2236328.9189453l-.3535156,2.2626953c-2.1220703-.1416016-4.1972656-.4238281-6.2236328-.8486328Z"/>
      <path class="cls-1" d="m253.7333984,12.5878906c1.3662109-2.1220703,2.4042969-4.2900391,3.1113281-6.5058594-1.0849609.140625-1.8857422.2119141-2.4042969.2119141l-.2119141-2.4755859c1.0361328,0,2.1210938-.0703125,3.2529297-.2119141.1875-.5185547.3994141-1.4140625.6367188-2.6875l2.6162109.4951172c-.1416016.6611328-.3300781,1.2978516-.5654297,1.9091797.5654297-.0458984,1.2480469-.1640625,2.0507812-.3535156l.2822266,2.4052734c-.9902344.1884766-1.9570312.3300781-2.8994141.4238281-.8955078,2.8759766-2.0976562,5.5634766-3.6064453,8.0615234l-2.2626953-1.2724609Zm8.203125-1.6269531c-.0478516-1.6015625.2353516-2.8994141.8486328-3.8896484l2.1210938,1.0615234c-.5654297.9433594-.7314453,2.0273438-.4941406,3.2529297,1.3662109.4716797,2.5683594,1.0605469,3.6064453,1.7675781l-1.2734375,1.8388672c-1.0371094-.7539062-1.8388672-1.2255859-2.4042969-1.4140625.1416016,1.4140625-.5195312,2.2626953-1.9804688,2.5458984-.9433594.1875-1.8154297.1875-2.6162109,0-1.0371094-.2363281-1.7451172-.7080078-2.1210938-1.4150391-.6132812-1.1777344-.4716797-2.1679688.4238281-2.9697266.8955078-.8007812,2.1923828-1.0605469,3.8896484-.7783203Zm.1416016,1.9804688c-.4716797-.09375-.8964844-.1416016-1.2734375-.1416016-.5654297-.0458984-.9189453.0478516-1.0605469.2832031-.2832031.4238281-.1416016.7314453.4248047.9189453.5175781.1894531.9892578.2119141,1.4140625.0712891.4238281-.1416016.5888672-.5185547.4951172-1.1318359Zm.7773438-7.0009766l1.2734375-2.0507812c1.9326172.8486328,3.3232422,1.5322266,4.171875,2.0507812l-1.34375,2.1923828c-1.7919922-1.0371094-3.1582031-1.7685547-4.1015625-2.1923828Z"/>
      <path class="cls-1" d="m270.9169922,13.0830078l1.6269531-1.4150391,3.3232422,3.5361328-1.9794922,1.4853516-2.9707031-3.6064453Z"/>
      <path class="cls-1" d="m0,37.1035156c1.4145508-.1416016,2.8291016-.3066406,4.2431641-.4951172l3.3945312-2.8994141c-1.5556641.1884766-3.0883789.3535156-4.5966797.4951172l-.3535156-2.4755859c2.6396484-.1416016,5.4916992-.4003906,8.5566406-.7773438l.8486328,2.1210938-3.6772461,3.1113281c2.0263672-.2822266,4.0307617-.5888672,6.0112305-.9189453l.3535156,2.4042969-2.4042969.2832031c-1.0375977.140625-1.9804688.5185547-2.8291016,1.1308594-.8486328.6611328-1.4140625,1.4384766-1.6972656,2.3339844-.3774414,1.2724609.046875,2.0751953,1.2729492,2.4042969.7075195.1894531,1.8388672.2119141,3.3945312.0712891l-.3535156,2.4042969c-1.8862305.09375-3.1591797.09375-3.8188477,0-1.2729492-.1894531-2.2163086-.7783203-2.8286133-1.7685547-.5195312-.8007812-.6606445-1.7910156-.4243164-2.9697266.2353516-1.1318359.753418-2.0742188,1.5556641-2.8291016l-6.2231445.9199219-.4243164-2.5458984Z"/>
      <path class="cls-1" d="m18.2456055,45.0947266c1.9326172-4.7617188,3.9360352-9.5,6.0112305-14.2148438l2.6162109.9189453c-1.1313477,2.3105469-2.0751953,4.4326172-2.8286133,6.3652344.8950195-.6601562,1.7680664-.8486328,2.6166992-.5654297.8950195.3300781,1.34375.9667969,1.34375,1.9091797v3.1113281c0,.5654297.1875.8027344.5654297.7070312.4243164-.1416016,1.0131836-.6367188,1.7680664-1.4853516.565918-.6113281.9418945-1.1542969,1.1313477-1.6259766l1.8378906,1.9804688c-.9882812,1.6503906-2.2382812,2.8525391-3.7470703,3.6064453-.9902344.5175781-1.909668.6591797-2.7583008.4238281-.9897461-.2822266-1.4614258-.9433594-1.4140625-1.9794922l.0708008-3.1826172c0-.9902344-.4487305-1.2255859-1.34375-.7070312-.9438477.5195312-1.6264648,1.3203125-2.0507812,2.4042969-.2363281.6611328-.6367188,1.8154297-1.2021484,3.4648438l-2.6166992-1.1308594Z"/>
      <path class="cls-1" d="m36.4912109,42.7607422c1.3662109-2.1220703,2.4042969-4.2900391,3.1113281-6.5058594-1.0849609.140625-1.8857422.2119141-2.4042969.2119141l-.2119141-2.4755859c1.0361328,0,2.1210938-.0703125,3.2529297-.2119141.1875-.5185547.3994141-1.4140625.6367188-2.6875l2.6162109.4951172c-.1416016.6611328-.3300781,1.2978516-.5654297,1.9091797.5654297-.0458984,1.2480469-.1640625,2.0507812-.3535156l.2822266,2.4052734c-.9902344.1884766-1.9570312.3300781-2.8994141.4238281-.8955078,2.8759766-2.0976562,5.5634766-3.6064453,8.0615234l-2.2626953-1.2724609Zm8.203125-1.6269531c-.0478516-1.6015625.2353516-2.8994141.8486328-3.8896484l2.1210938,1.0615234c-.5654297.9433594-.7314453,2.0273438-.4941406,3.2529297,1.3662109.4716797,2.5683594,1.0605469,3.6064453,1.7675781l-1.2734375,1.8388672c-1.0371094-.7539062-1.8388672-1.2255859-2.4042969-1.4140625.1416016,1.4140625-.5195312,2.2626953-1.9804688,2.5458984-.9433594.1875-1.8154297.1875-2.6162109,0-1.0371094-.2363281-1.7451172-.7080078-2.1210938-1.4150391-.6132812-1.1777344-.4716797-2.1679688.4238281-2.9697266.8955078-.8007812,2.1923828-1.0605469,3.8896484-.7783203Zm.1416016,1.9804688c-.4716797-.09375-.8964844-.1416016-1.2734375-.1416016-.5654297-.0458984-.9189453.0478516-1.0605469.2832031-.2832031.4238281-.1416016.7314453.4248047.9189453.5175781.1894531.9892578.2119141,1.4140625.0712891.4238281-.1416016.5888672-.5185547.4951172-1.1318359Zm.7773438-7.0009766l1.2734375-2.0507812c1.9326172.8486328,3.3232422,1.5322266,4.171875,2.0507812l-1.34375,2.1923828c-1.7919922-1.0371094-3.1582031-1.7685547-4.1015625-2.1923828Z"/>
      <path class="cls-1" d="m67.4648438,36.890625l1.7685547,1.8388672-2.5458984,2.2626953c.5654297,1.1318359,1.7910156,2.1699219,3.6767578,3.1123047l-1.6972656,2.2626953c-.8486328-.4716797-1.6972656-1.1318359-2.5449219-1.9804688-.8486328-.8007812-1.5810547-1.7910156-2.1923828-2.9697266l.140625.8486328c.0947266.5654297.1171875,1.25.0712891,2.0507812,0,.6132812-.0712891,1.0839844-.2119141,1.4140625-.1416016.3769531-.3310547.6367188-.5664062.7783203-.1416016.1875-.6601562.3056641-1.5556641.3535156h-2.0507812l-.7070312-2.1210938c-1.4619141.8007812-2.8056641,1.3662109-4.03125,1.6962891l-1.1308594-2.1210938c1.5556641-.4238281,2.875-.8945312,3.9599609-1.4140625,1.4609375-.7070312,2.6396484-1.4609375,3.5361328-2.2636719l-.2128906-.4238281c-1.7441406,1.4619141-3.7714844,2.4042969-6.0810547,2.8291016l-1.0615234-1.9101562c2.8759766-.4707031,5.0449219-1.34375,6.5068359-2.6162109l-.1416016-.2832031c-1.7919922.9443359-3.5605469,1.5556641-5.3037109,1.8388672l-1.0615234-2.0507812c.8017578-.0458984,1.7207031-.2119141,2.7587891-.4951172,1.0839844-.2832031,1.7431641-.5410156,1.9794922-.7773438h-2.1210938v-2.0507812h10.1835938v2.0507812h-3.6074219l-.6357422.4238281.4238281.8486328,2.1923828-.4951172c.09375.3779297.1875.7314453.2832031,1.0605469l1.9794922-1.6972656Zm-13.5068359-.8486328v-4.3134766h6.4355469v-1.2724609h2.7578125v1.2724609h6.4355469v4.3134766h-2.4755859v-2.1914062h-10.7490234v2.1914062h-2.4042969Zm7.7792969,6.9306641c-.3779297.4716797-1.1083984.9667969-2.1923828,1.4853516h.9902344c.3291016,0,.5654297-.0234375.7070312-.0712891.4238281-.140625.5888672-.6113281.4951172-1.4140625Z"/>
      <path class="cls-1" d="m72.1318359,32.9306641c5.6103516-.2832031,10.4189453-.8242188,14.4267578-1.6259766l.4248047,2.4746094c-1.1796875.1894531-1.9335938.3300781-2.2636719.4248047-.6601562.1884766-1.3671875.5419922-2.1210938,1.0605469-1.0380859.7070312-1.9091797,1.6738281-2.6162109,2.8994141-.8486328,1.4619141-.9902344,2.6875-.4248047,3.6767578.4248047.7080078,1.1318359,1.203125,2.1220703,1.4853516.4238281.1416016,1.2958984.3076172,2.6162109.4951172l-.7783203,2.4755859c-1.3203125-.2363281-2.3574219-.4951172-3.1113281-.7783203-1.1318359-.3769531-2.0273438-.9423828-2.6875-1.6972656-1.2724609-1.3671875-1.5556641-2.9931641-.8486328-4.8798828.6123047-1.6015625,1.6972656-3.0166016,3.2529297-4.2421875-1.5087891.2363281-4.0546875.4941406-7.6367188.7773438l-.3544922-2.5458984Zm11.1035156,3.5361328l1.4140625-.6367188.9902344,1.9091797-1.4140625.7080078-.9902344-1.9804688Zm1.9091797-.8486328l1.4853516-.6367188.9189453,1.9091797-1.34375.6367188-1.0605469-1.9091797Z"/>
      <path class="cls-1" d="m95.0449219,37.5273438c0-.2832031.0458984-.8007812.1416016-1.5556641-.9902344.0947266-1.8632812.1416016-2.6171875.1416016l-.1416016-2.3339844c1.5087891,0,2.5214844-.0234375,3.0410156-.0703125.09375-.5664062.2832031-1.4853516.5664062-2.7578125l2.6865234.4941406c-.2822266.8486328-.4951172,1.5332031-.6357422,2.0507812,1.7431641-.1875,3.1816406-.3994141,4.3134766-.6357422l.3535156,2.4042969c-1.6503906.3300781-3.3242188.5419922-5.0205078.6367188l-.0712891.8486328c1.2255859-.0947266,2.1445312-.1171875,2.7578125-.0712891,1.0371094.0947266,1.9101562.3535156,2.6171875.7783203.9892578.5654297,1.6494141,1.3681641,1.9794922,2.4042969.4248047,1.2265625.3535156,2.3808594-.2119141,3.4648438-.9433594,1.7919922-2.7119141,2.8291016-5.3037109,3.1113281l-.9902344-2.0507812c.8486328-.140625,1.53125-.3056641,2.0507812-.4941406.8955078-.3300781,1.5087891-.8251953,1.8388672-1.4853516.3291016-.6601562.3769531-1.2958984.1416016-1.9091797-.1894531-.6123047-.5898438-1.0615234-1.2021484-1.34375-1.0849609,1.8378906-2.1923828,3.2060547-3.3242188,4.1015625l.2119141.7070312-2.4042969,1.2724609-.0703125-.2119141c-1.0380859.6123047-2.0273438.8955078-2.9707031.8486328-.7539062-.0478516-1.3427734-.4482422-1.7675781-1.2021484-.3779297-.6591797-.4951172-1.34375-.3535156-2.0507812.3769531-2.0263672,1.8388672-3.7236328,4.3847656-5.0917969Zm.2822266,5.2333984c-.0947266-.3291016-.1650391-.7539062-.2119141-1.2734375,0-.4707031-.0244141-.9423828-.0703125-1.4140625-1.2265625.9433594-1.8632812,1.8388672-1.9091797,2.6875-.0478516.5654297.2353516.8017578.8476562.7070312.5185547-.09375.9658203-.3291016,1.34375-.7070312Zm2.3339844-2.3339844c.3769531-.3769531.7783203-.9423828,1.2021484-1.6972656-.5654297,0-.9902344.0244141-1.2724609.0712891,0,.7539062.0224609,1.296875.0703125,1.6259766Z"/>
      <path class="cls-1" d="m109.3291016,36.8203125c1.8388672-.5654297,3.3476562-.9658203,4.5263672-1.2021484,2.0263672-.3769531,3.5585938-.4003906,4.5966797-.0703125,1.6494141.5654297,2.6396484,1.6962891,2.9697266,3.3935547.3769531,1.7451172-.0703125,3.2070312-1.34375,4.3847656-.8486328.8486328-2.0751953,1.4150391-3.6767578,1.6972656-1.1318359.1884766-2.3818359.2353516-3.7480469.1416016l-.1416016-2.1210938c1.1318359.046875,2.1210938.0234375,2.9697266-.0712891,1.2734375-.1416016,2.1923828-.4707031,2.7587891-.9902344.6113281-.5654297.9423828-1.2958984.9892578-2.1923828.046875-.8945312-.3066406-1.5556641-1.0605469-1.9794922-.9433594-.5185547-2.3105469-.5664062-4.1015625-.1416016-.6611328.1884766-1.4140625.4238281-2.2626953.7070312-.6611328.2363281-1.2978516.4716797-1.9091797.7070312l-.5664062-2.2626953Z"/>
      <path class="cls-1" d="m126.7255859,45.0947266c1.5556641-2.640625,2.78125-5.421875,3.6777344-8.3447266-1.0380859.140625-2.0751953.2119141-3.1123047.2119141v-2.3339844c1.2734375-.0458984,2.4990234-.1416016,3.6777344-.2832031.2832031-1.0361328.4951172-2.1210938.6367188-3.2529297l2.6162109.4248047c-.1416016.8486328-.3066406,1.6738281-.4951172,2.4746094,1.3193359-.1875,2.3095703-.3535156,2.9707031-.4951172l.2822266,2.4052734c-1.1787109.2822266-2.4990234.4941406-3.9599609.6357422-.9433594,3.5361328-2.2626953,6.8134766-3.9599609,9.8300781l-2.3339844-1.2724609Zm8.9814453-3.5361328c-.4716797.7070312-.5429688,1.2021484-.2119141,1.4853516.3759766.3300781,1.2958984.4482422,2.7578125.3535156,1.2255859-.0947266,2.2382812-.2128906,3.0410156-.3535156l.2119141,2.3330078c-2.6875.4707031-4.8085938.5664062-6.3642578.2832031-1.2265625-.2363281-1.9804688-.8242188-2.2636719-1.7675781-.2822266-.9433594-.0947266-1.9560547.5664062-3.0410156l2.2626953.7070312Zm-.6367188-4.3847656c1.9804688,0,3.9599609-.0458984,5.9404297-.1416016l.0703125,2.3339844c-2.0273438.0478516-4.0302734.0703125-6.0107422.0703125v-2.2626953Z"/>
      <path class="cls-1" d="m145.6777344,40.8515625c.5654297-2.1679688,1.1552734-4.3603516,1.7685547-6.5771484l2.4746094.7783203c-.3300781,1.2724609-.6835938,2.4990234-1.0605469,3.6767578,2.5458984-1.7910156,4.9257812-2.4277344,7.1425781-1.9091797,1.1777344.2832031,2.0507812.9433594,2.6162109,1.9804688.5654297.9892578.6826172,2.0751953.3535156,3.2529297-.4716797,1.8857422-2.1923828,3.1816406-5.1621094,3.8896484-1.2265625.2822266-3.0654297.3759766-5.5166016.2822266l-.5654297-2.4042969c3.3466797.3300781,5.7519531.0478516,7.2138672-.8486328.6113281-.3769531,1.0361328-.8007812,1.2724609-1.2724609.2353516-.4707031.2587891-.9199219.0703125-1.34375-.4238281-.9423828-1.5556641-1.2734375-3.3945312-.9902344-1.5556641.3300781-3.0644531,1.1787109-4.5253906,2.5458984l-2.6875-1.0605469Zm2.9707031-7.5673828l.7773438-2.2626953c2.4511719.4238281,4.4306641.9433594,5.9404297,1.5556641l-1.0605469,2.4042969c-1.5556641-.6591797-3.4423828-1.2255859-5.6572266-1.6972656Z"/>
      <path class="cls-1" d="m162.2958984,43.2558594l1.6269531-1.4150391,3.3232422,3.5361328-1.9794922,1.4853516-2.9707031-3.6064453Z"/>
      <path class="cls-1" d="m194.1894531,36.890625l1.7685547,1.8388672-2.5458984,2.2626953c.5654297,1.1318359,1.7910156,2.1699219,3.6767578,3.1123047l-1.6972656,2.2626953c-.8486328-.4716797-1.6972656-1.1318359-2.5449219-1.9804688-.8486328-.8007812-1.5810547-1.7910156-2.1923828-2.9697266l.140625.8486328c.0947266.5654297.1171875,1.25.0712891,2.0507812,0,.6132812-.0712891,1.0839844-.2119141,1.4140625-.1416016.3769531-.3310547.6367188-.5664062.7783203-.1416016.1875-.6601562.3056641-1.5556641.3535156h-2.0507812l-.7070312-2.1210938c-1.4619141.8007812-2.8056641,1.3662109-4.03125,1.6962891l-1.1308594-2.1210938c1.5556641-.4238281,2.875-.8945312,3.9599609-1.4140625,1.4609375-.7070312,2.6396484-1.4609375,3.5361328-2.2636719l-.2128906-.4238281c-1.7441406,1.4619141-3.7714844,2.4042969-6.0810547,2.8291016l-1.0615234-1.9101562c2.8759766-.4707031,5.0449219-1.34375,6.5068359-2.6162109l-.1416016-.2832031c-1.7919922.9443359-3.5605469,1.5556641-5.3037109,1.8388672l-1.0615234-2.0507812c.8017578-.0458984,1.7207031-.2119141,2.7587891-.4951172,1.0839844-.2832031,1.7431641-.5410156,1.9794922-.7773438h-2.1210938v-2.0507812h10.1835938v2.0507812h-3.6074219l-.6357422.4238281.4238281.8486328,2.1923828-.4951172c.09375.3779297.1875.7314453.2832031,1.0605469l1.9794922-1.6972656Zm-13.5068359-.8486328v-4.3134766h6.4355469v-1.2724609h2.7578125v1.2724609h6.4355469v4.3134766h-2.4755859v-2.1914062h-10.7490234v2.1914062h-2.4042969Zm7.7792969,6.9306641c-.3779297.4716797-1.1083984.9667969-2.1923828,1.4853516h.9902344c.3291016,0,.5654297-.0234375.7070312-.0712891.4238281-.140625.5888672-.6113281.4951172-1.4140625Z"/>
      <path class="cls-1" d="m199.5644531,39.2958984v-4.3144531h-1.2021484v-2.3339844h2.0507812v-2.2626953h2.4042969v2.2626953h2.0507812v.6367188c.8486328-.8486328,1.4375-1.8388672,1.7675781-2.9697266l2.4042969.4951172c-.0947266.4716797-.2822266.8955078-.5654297,1.2724609h6.1523438v2.2626953h-6.5058594l1.8388672.7080078-.4951172.7773438h4.6669922v2.1923828h-3.1816406v1.2021484h3.6064453v2.2626953h-3.0410156c.4238281,1.0859375,1.6494141,2.1220703,3.6767578,3.1123047l-1.484375,2.3330078c-1.5556641-.6601562-2.8769531-1.7910156-3.9609375-3.3945312-.3779297.7548828-.9189453,1.4619141-1.6259766,2.1220703-.7070312.6591797-1.4619141,1.1542969-2.2626953,1.4853516l-1.2021484-2.4042969c.7070312-.2832031,1.3896484-.7304688,2.0507812-1.34375.6591797-.6601562,1.0839844-1.296875,1.2724609-1.9101562h-3.0410156v-2.2626953h1.2734375l-1.5556641-1.4853516-.1416016,4.03125-.1416016,3.3945312c-.0478516,1.0839844-.5195312,1.6269531-1.4140625,1.6269531h-1.4150391l-.7070312-1.9804688c-.2363281.8945312-.5654297,1.5556641-.9902344,1.9804688l-1.9091797-2.1923828c.5185547-.7070312.9189453-1.5791016,1.2021484-2.6171875.2832031-.9902344.4248047-1.8847656.4248047-2.6865234Zm2.6865234,4.5253906l.1416016-1.8388672.1416016-2.8994141h-.4951172c-.0947266,2.4042969-.4238281,4.1494141-.9902344,5.2333984h.8486328c.2353516-.046875.3535156-.2119141.3535156-.4951172Zm5.375-9.4765625h-.4951172c-.0947266.2373047-.3779297.6132812-.8486328,1.1318359-.4716797.5654297-.9189453.9667969-1.34375,1.2021484l-1.6259766-1.6972656h-1.2734375v1.9091797h2.6171875v.6367188c1.4140625-.8945312,2.4042969-1.9560547,2.9697266-3.1826172Zm-1.2021484,4.8798828h2.1210938v-1.2021484h-.9189453c-.3300781.4248047-.7314453.8251953-1.2021484,1.2021484Z"/>
      <path class="cls-1" d="m218.3037109,31.3046875l2.6875.5654297c-.8486328,3.4892578-1.1787109,6.8134766-.9902344,9.9707031.1416016-.5175781.3066406-.9648438.4951172-1.3427734l1.4150391,1.2724609c-.5664062,1.3203125-1.0380859,2.7578125-1.4150391,4.3134766l-2.2626953.1416016c-.9433594-4.3847656-.9189453-9.3574219.0703125-14.9208984Zm8.3447266,9.1933594c-.140625-1.0839844-.2119141-2.1923828-.2119141-3.3242188l-4.3134766.0703125v-2.4042969c1.4140625,0,2.828125-.0224609,4.2431641-.0703125v-3.6064453l2.6162109.0703125-.1416016,3.3242188c.9902344-.09375,1.9091797-.1650391,2.7578125-.2128906l.0712891,2.4052734c-.5195312.0947266-1.4619141.1884766-2.8291016.2822266,0,1.4619141.09375,2.7353516.2832031,3.8193359,1.5078125.5654297,2.6875,1.1308594,3.5361328,1.6972656l-1.1318359,2.1923828c-.9433594-.6601562-1.6503906-1.0839844-2.1210938-1.2734375,0,1.5556641-.8027344,2.4980469-2.4052734,2.8291016-.8017578.1875-1.6025391.1875-2.4042969,0-1.0371094-.1894531-1.7441406-.5908203-2.1210938-1.2021484-.7548828-1.2255859-.6845703-2.3574219.2119141-3.3945312.9423828-1.0371094,2.2626953-1.4375,3.9599609-1.2021484Zm.2128906,2.2626953c-.4726562-.09375-.8730469-.1416016-1.2021484-.1416016-.5195312,0-.8730469.1416016-1.0615234.4248047-.140625.2363281-.140625.4716797,0,.7070312.1884766.2363281.4482422.3535156.7783203.3535156,1.1318359.046875,1.6259766-.4003906,1.4853516-1.34375Z"/>
      <path class="cls-1" d="m236.4785156,37.1738281l-1.9804688-2.4042969,1.1318359-2.0507812.3535156.4951172,1.2724609-2.8291016,1.9804688.8486328-1.7675781,3.6064453.3535156.4248047,1.484375-2.5458984,1.8388672,1.0605469c.4248047-.3291016.8955078-.8007812,1.4150391-1.4140625.6591797-.7539062,1.1064453-1.4375,1.3427734-2.0507812l2.3339844.6367188-.6367188.9892578h2.4755859l.1416016-.1416016,1.5556641,1.7685547-1.6972656,2.0507812h2.1923828v6.0820312h-6.4355469v1.484375c-.0947266.7080078.1416016,1.0615234.7070312,1.0615234h3.4648438c.2363281,0,.3769531-.1171875.4248047-.3535156,0-.1416016.0703125-.6835938.2119141-1.6269531l2.4042969.6367188c0,1.1308594-.1884766,2.0273438-.5654297,2.6865234-.3300781.6123047-1.0146484.9199219-2.0507812.9199219h-5.0917969c-.5195312,0-.9433594-.1181641-1.2724609-.3535156-.3779297-.2832031-.5664062-.6367188-.5664062-1.0605469v-4.9501953l-1.484375.4941406-.1416016-.7773438-.5664062.0703125v6.9306641h-2.4042969v-6.7177734l-2.1210938.140625-.3535156-2.2626953h1.4140625l.6367188-.8486328Zm-1.9804688,8.0615234c.1416016-.4238281.2587891-1.1308594.3535156-2.1210938.09375-1.0361328.1650391-1.8388672.2119141-2.4042969l1.6269531.2119141c0,.8027344-.0478516,1.7216797-.1416016,2.7578125-.0947266,1.1318359-.1660156,1.7910156-.2119141,1.9804688l-1.8388672-.4248047Zm4.1015625-7.4248047l.7783203-.0712891-.1416016-.4238281,1.5556641-.5654297.7070312,2.1914062v-2.2626953l-.2822266.2119141-.9902344-1.484375-1.6269531,2.4042969Zm.9199219,3.2529297l1.5556641-.2119141.2822266,3.7480469-1.6972656.1416016-.140625-3.6777344Zm3.3232422-5.4453125h2.2626953l1.34375-1.4140625h-2.2626953c-.4716797.5654297-.9189453,1.0371094-1.34375,1.4140625Zm.9902344,3.8896484h.9189453v-1.6269531h-.9189453v1.6269531Zm3.1113281,0h.9199219v-1.6269531h-.9199219v1.6269531Z"/>
      <path class="cls-1" d="m257.5517578,35.0527344h-4.8085938v-2.3339844h3.2529297v-2.2626953h2.5458984v2.2626953h2.4042969v1.5556641h4.1015625v-3.8183594h2.4755859v3.8183594h1.5556641v2.2626953h-1.5556641v8.4863281c0,1.2255859-.5429688,1.8388672-1.6269531,1.8388672h-3.5361328l-.7070312-2.4755859h2.6875c.5185547.0478516.7539062-.1640625.7070312-.6357422v-7.2138672h-4.1015625v-1.484375h-.9189453c-.0957031,1.0371094-.2363281,1.9794922-.4248047,2.828125-.2363281.9902344-.4716797,1.7685547-.7070312,2.3339844.7539062.8486328,1.390625,1.7675781,1.9091797,2.7578125l-1.8378906,1.7685547c-.1416016-.2832031-.3779297-.6835938-.7080078-1.203125-.2822266-.4707031-.5185547-.7773438-.7070312-.9189453-.5195312.8027344-1.0849609,1.5556641-1.6972656,2.2626953-.5195312.6123047-1.1552734,1.2255859-1.9091797,1.8388672l-1.4853516-2.4042969c.7539062-.5185547,1.4150391-1.0839844,1.9804688-1.6972656.6591797-.7070312,1.1318359-1.3896484,1.4140625-2.0507812-.1416016-.2353516-.4716797-.6367188-.9902344-1.2021484-.6601562-.7070312-1.2265625-1.2490234-1.6972656-1.6269531l1.4853516-1.9091797c.3769531.2363281,1.1552734,1.0380859,2.3339844,2.4042969.3769531-.9902344.5654297-2.0507812.5654297-3.1816406Zm3.1826172,3.3232422l2.0507812-1.0605469c.4707031.4716797,1.0361328,1.6972656,1.6972656,3.6767578l-2.1923828.9199219c-.0478516-.3769531-.2597656-.9902344-.6367188-1.8388672-.3779297-.8486328-.6835938-1.4140625-.9189453-1.6972656Z"/>
      <path class="cls-1" d="m272.4736328,30.4560547l2.4746094.4951172c-.9902344,3.7246094-1.296875,7.0253906-.9189453,9.9003906.2353516-.4707031.4951172-.9199219.7773438-1.34375l1.4150391,1.5556641c-.7080078,1.1318359-1.2978516,2.6875-1.7685547,4.6669922l-2.1210938.2128906c-1.2265625-5.2802734-1.1796875-10.4423828.1416016-15.4873047Zm4.7373047,9.1933594l2.6875.4951172c-.0947266.2822266-.2119141.6123047-.3535156.9892578-.1416016.4716797-.0947266.8027344.1416016.9902344.2832031.2832031,1.2724609.3779297,2.9697266.2832031,1.4609375-.09375,2.6630859-.1884766,3.6074219-.2832031l.0703125,2.6875c-1.6972656.1884766-3.2294922.2832031-4.5966797.2832031-2.1689453,0-3.5830078-.3066406-4.2431641-.9199219-.6132812-.5654297-.8730469-1.2958984-.7783203-2.1923828.046875-.5654297.2128906-1.34375.4951172-2.3330078Zm.4248047-4.8798828v-2.4755859c2.7333984-.09375,5.4912109-.2353516,8.2734375-.4238281l.0712891,2.5458984c-2.7822266.1884766-5.5634766.3066406-8.3447266.3535156Z"/>
      <path class="cls-1" d="m289.0205078,35.1230469h6.8603516v-.9902344h-5.375v-2.2626953h5.375v-1.4140625h2.6162109v1.4140625h5.3037109v2.2626953h-5.3037109v.9902344h6.7890625v2.2626953h-3.4648438l-.6367188,1.2734375h4.1015625v2.1923828h-6.7890625v.9892578h5.6572266v2.3339844h-5.6572266v2.7578125h-2.6162109v-2.7578125h-5.7285156v-2.2626953h5.7285156v-1.0605469h-6.8603516v-2.1923828h4.03125l-.4951172-1.2734375h-3.5361328v-2.2626953Zm6.5068359,2.2626953l.4951172,1.2734375h2.4042969l.4238281-1.2734375h-3.3232422Z"/>
      <path class="cls-1" d="m307.4072266,38.8007812l-.2832031-2.7587891,3.3945312-.3535156v-3.8896484l2.5458984-.0703125v3.6777344l3.8896484-.3535156c-.0478516-1.3671875-.0703125-2.734375-.0703125-4.1015625h2.6875c0,1.2724609.0224609,2.5449219.0703125,3.8183594l2.8994141-.2119141.0703125,2.4746094-3.0400391.1416016v2.6162109c0,.9443359-.4492188,1.5800781-1.34375,1.9101562-.9443359.3300781-1.9335938.3779297-2.9707031.140625l-.3535156-2.3330078c.4707031.046875.8720703.0703125,1.2021484.0703125.5185547,0,.7783203-.2353516.7783203-.7070312v-1.34375l-3.8193359.4248047.0712891,4.3134766c0,.4716797.09375.7783203.2822266.9189453.1884766.1416016.5888672.2128906,1.2021484.2128906,1.9326172,0,4.1728516-.1171875,6.71875-.3535156v2.6865234c-2.2626953.1884766-4.4550781.3066406-6.5771484.3535156-1.4619141.046875-2.5224609-.1650391-3.1816406-.6357422-.6611328-.4707031-.9902344-1.2255859-.9902344-2.2636719l-.0712891-4.8789062-3.1113281.4951172Z"/>
      <path class="cls-1" d="m325.8642578,45.0947266c1.5556641-2.640625,2.78125-5.421875,3.6777344-8.3447266-1.0380859.140625-2.0751953.2119141-3.1123047.2119141v-2.3339844c1.2734375-.0458984,2.4990234-.1416016,3.6777344-.2832031.2832031-1.0361328.4951172-2.1210938.6367188-3.2529297l2.6162109.4248047c-.1416016.8486328-.3066406,1.6738281-.4951172,2.4746094,1.3193359-.1875,2.3095703-.3535156,2.9707031-.4951172l.2822266,2.4052734c-1.1787109.2822266-2.4990234.4941406-3.9599609.6357422-.9433594,3.5361328-2.2626953,6.8134766-3.9599609,9.8300781l-2.3339844-1.2724609Zm8.9814453-3.5361328c-.4716797.7070312-.5429688,1.2021484-.2119141,1.4853516.3759766.3300781,1.2958984.4482422,2.7578125.3535156,1.2255859-.0947266,2.2382812-.2128906,3.0410156-.3535156l.2119141,2.3330078c-2.6875.4707031-4.8085938.5664062-6.3642578.2832031-1.2265625-.2363281-1.9804688-.8242188-2.2636719-1.7675781-.2822266-.9433594-.0947266-1.9560547.5664062-3.0410156l2.2626953.7070312Zm-.6367188-4.3847656c1.9804688,0,3.9599609-.0458984,5.9404297-.1416016l.0703125,2.3339844c-2.0273438.0478516-4.0302734.0703125-6.0107422.0703125v-2.2626953Zm2.5458984-3.8183594l1.2021484-.8486328,1.4853516,1.8378906-1.2021484.9902344-1.4853516-1.9794922Zm1.5556641-1.1318359l1.1318359-.8486328,1.5556641,1.7675781-1.2021484.9902344-1.4853516-1.9091797Z"/>
      <path class="cls-1" d="m345.9482422,46.8623047c-.6611328,0-1.25-.2597656-1.7685547-.7783203s-.7773438-1.1064453-.7773438-1.7675781c0-.6591797.2587891-1.2490234.7773438-1.7675781s1.1074219-.7783203,1.7685547-.7783203c.6591797,0,1.2480469.2597656,1.7675781.7783203.5185547.5185547.7783203,1.1083984.7783203,1.7675781,0,.6611328-.2597656,1.2490234-.7783203,1.7675781-.5195312.5185547-1.1083984.7783203-1.7675781.7783203Zm.7773438-1.8388672c.1884766-.1875.2832031-.4238281.2832031-.7070312s-.0947266-.5185547-.2832031-.7070312c-.2363281-.2353516-.4951172-.3535156-.7773438-.3535156-.2832031,0-.5429688.1181641-.7783203.3535156-.1884766.1884766-.2822266.4238281-.2822266.7070312s.09375.5195312.2822266.7070312c.2353516.2353516.4951172.3535156.7783203.3535156.2822266,0,.5410156-.1181641.7773438-.3535156Z"/>
      <path class="cls-1" d="m0,67.2763672c1.4145508-.1416016,2.8291016-.3066406,4.2431641-.4951172l3.3945312-2.8994141c-1.5556641.1884766-3.0883789.3535156-4.5966797.4951172l-.3535156-2.4755859c2.6396484-.1416016,5.4916992-.4003906,8.5566406-.7773438l.8486328,2.1210938-3.6772461,3.1113281c2.0263672-.2822266,4.0307617-.5888672,6.0112305-.9189453l.3535156,2.4042969-2.4042969.2832031c-1.0375977.140625-1.9804688.5185547-2.8291016,1.1308594-.8486328.6611328-1.4140625,1.4384766-1.6972656,2.3339844-.3774414,1.2724609.046875,2.0751953,1.2729492,2.4042969.7075195.1894531,1.8388672.2119141,3.3945312.0712891l-.3535156,2.4042969c-1.8862305.09375-3.1591797.09375-3.8188477,0-1.2729492-.1894531-2.2163086-.7783203-2.8286133-1.7685547-.5195312-.8007812-.6606445-1.7910156-.4243164-2.9697266.2353516-1.1318359.753418-2.0742188,1.5556641-2.8291016l-6.2231445.9199219-.4243164-2.5458984Z"/>
      <path class="cls-1" d="m27.2973633,76.3984375l-1.2729492-2.2626953c1.7915039-.6123047,2.9936523-1.3671875,3.6069336-2.2626953,1.1782227-1.7441406,1.3901367-3.4179688.6362305-5.0214844-.7070312-1.5556641-1.9799805-2.3095703-3.8188477-2.2626953,0,4.9033203-1.0375977,8.2509766-3.1113281,10.0419922-.8486328.7070312-1.7216797.8945312-2.6166992.5654297-.9438477-.3769531-1.6508789-1.0605469-2.121582-2.0507812-.9433594-1.8847656-.9667969-3.8896484-.0708008-6.0107422.8950195-2.0263672,2.3569336-3.4414062,4.3847656-4.2431641,1.4604492-.5654297,2.8994141-.7539062,4.3134766-.5654297,1.5083008.140625,2.78125.7070312,3.8193359,1.6972656,1.2246094,1.1308594,1.9082031,2.5449219,2.0507812,4.2421875.140625,1.8388672-.2832031,3.4658203-1.2734375,4.8798828-1.0371094,1.4619141-2.5454102,2.5458984-4.5258789,3.2529297Zm-3.2529297-11.5263672c-2.121582.7539062-3.300293,2.2871094-3.5356445,4.5966797-.0952148.6601562-.0244141,1.3203125.2119141,1.9794922.2827148.8027344.659668,1.0849609,1.1313477.8486328.6123047-.2832031,1.1318359-1.0605469,1.5561523-2.3339844.4243164-1.2724609.6362305-2.9697266.6362305-5.0908203Z"/>
      <path class="cls-1" d="m37.2685547,61.4775391l2.6875.5654297c-.8486328,3.4892578-1.1787109,6.8134766-.9902344,9.9707031.1416016-.5175781.3066406-.9648438.4951172-1.3427734l1.4150391,1.2724609c-.5664062,1.3203125-1.0380859,2.7578125-1.4150391,4.3134766l-2.2626953.1416016c-.9433594-4.3847656-.9189453-9.3574219.0703125-14.9208984Zm8.5576172,9.1220703c-.0957031-.9423828-.1416016-1.6494141-.1416016-2.1210938-1.4619141.046875-2.8994141.0703125-4.3144531.0703125l-.0703125-2.3339844c1.9804688,0,3.4648438-.0458984,4.4550781-.140625v-1.5566406c-1.2724609.0957031-2.5458984.1416016-3.8183594.1416016v-2.4042969c2.3095703.0478516,4.9960938-.09375,8.0615234-.4238281v2.3330078l-1.6972656.1416016-.0703125,1.5556641c1.1308594-.0458984,2.0263672-.140625,2.6875-.2822266v2.3330078c-.6611328.0957031-1.5566406.1894531-2.6875.2832031,0,1.1318359.0703125,2.1689453.2119141,3.1113281,1.0361328.4248047,2.1445312,1.0380859,3.3242188,1.8388672l-1.1318359,2.1220703c-.6132812-.5664062-1.3681641-1.0615234-2.2626953-1.4853516-.0478516.5195312-.2373047.9902344-.5664062,1.4140625-.3779297.5185547-.8955078.8486328-1.5556641.9902344-1.1787109.2832031-2.2167969.2353516-3.1113281-.1416016-1.1318359-.4716797-1.7451172-1.2480469-1.8388672-2.3339844-.0947266-1.1777344.3535156-2.0732422,1.34375-2.6865234.8945312-.5664062,1.9560547-.7070312,3.1826172-.4248047Zm.140625,2.1923828c-1.1308594-.3291016-1.8378906-.2353516-2.1210938.2832031-.1884766.3300781-.1884766.5898438,0,.7773438.1416016.1894531.4003906.2832031.7783203.2832031.9892578,0,1.4375-.4472656,1.3427734-1.34375Z"/>
      <path class="cls-1" d="m54.453125,75.2675781c1.9326172-4.7617188,3.9355469-9.5,6.0107422-14.2148438l2.6171875.9189453c-1.1318359,2.3105469-2.0751953,4.4326172-2.8291016,6.3652344.8955078-.6601562,1.7675781-.8486328,2.6162109-.5654297.8955078.3300781,1.34375.9667969,1.34375,1.9091797v3.1113281c0,.5654297.1884766.8027344.5664062.7070312.4238281-.1416016,1.0126953-.6367188,1.7675781-1.4853516.5654297-.6113281.9423828-1.1542969,1.1318359-1.6259766l1.8378906,1.9804688c-.9892578,1.6503906-2.2392578,2.8525391-3.7480469,3.6064453-.9892578.5175781-1.9091797.6591797-2.7578125.4238281-.9902344-.2822266-1.4619141-.9433594-1.4140625-1.9794922l.0703125-3.1826172c0-.9902344-.4482422-1.2255859-1.34375-.7070312-.9433594.5195312-1.6259766,1.3203125-2.0507812,2.4042969-.2363281.6611328-.6357422,1.8154297-1.2021484,3.4648438l-2.6162109-1.1308594Z"/>
      <path class="cls-1" d="m81.6083984,76.3984375l-1.2724609-2.2626953c1.7910156-.6123047,2.9931641-1.3671875,3.6064453-2.2626953,1.1777344-1.7441406,1.3896484-3.4179688.6367188-5.0214844-.7080078-1.5556641-1.9804688-2.3095703-3.8193359-2.2626953,0,4.9033203-1.0371094,8.2509766-3.1113281,10.0419922-.8486328.7070312-1.7216797.8945312-2.6162109.5654297-.9443359-.3769531-1.6513672-1.0605469-2.1220703-2.0507812-.9433594-1.8847656-.9667969-3.8896484-.0703125-6.0107422.8945312-2.0263672,2.3564453-3.4414062,4.3837891-4.2431641,1.4609375-.5654297,2.8994141-.7539062,4.3144531-.5654297,1.5078125.140625,2.78125.7070312,3.8183594,1.6972656,1.2255859,1.1308594,1.9091797,2.5449219,2.0507812,4.2421875.1416016,1.8388672-.2822266,3.4658203-1.2724609,4.8798828-1.0380859,1.4619141-2.5458984,2.5458984-4.5263672,3.2529297Zm-3.2529297-11.5263672c-2.1210938.7539062-3.3007812,2.2871094-3.5361328,4.5966797-.0947266.6601562-.0244141,1.3203125.2128906,1.9794922.2822266.8027344.6591797,1.0849609,1.1308594.8486328.6123047-.2832031,1.1318359-1.0605469,1.5556641-2.3339844.4248047-1.2724609.6367188-2.9697266.6367188-5.0908203Z"/>
      <path class="cls-1" d="m89.6699219,68.5488281c.7539062-.6123047,1.5556641-1.5078125,2.4042969-2.6875.7070312-.9423828,1.1777344-2.0507812,1.4150391-3.3232422l2.1914062,1.1308594c-.1884766,1.1796875-.6357422,2.3339844-1.3427734,3.4658203-.8027344,1.2724609-1.7451172,2.3808594-2.8291016,3.3232422l-1.8388672-1.9091797Zm10.5371094-4.6669922l2.1923828-1.34375c.3769531.9902344.9423828,2.0039062,1.6972656,3.0410156.8945312,1.2724609,1.6972656,2.1923828,2.4042969,2.7578125l-1.6269531,2.0507812c-.5654297-.4248047-.9433594-.8007812-1.1308594-1.1318359-.5195312,1.3681641-1.2978516,2.6171875-2.3339844,3.7480469-1.1787109,1.2734375-2.640625,2.2636719-4.3847656,2.9707031-1.6972656.7070312-3.4892578,1.1308594-5.3740234,1.2724609l-1.34375-2.5458984c1.8388672-.09375,3.3945312-.3291016,4.6669922-.7070312,1.6503906-.4707031,3.0644531-1.2480469,4.2431641-2.3339844.4707031-.4238281.9423828-1.0126953,1.4150391-1.7675781.4707031-.7539062.7773438-1.4140625.9189453-1.9804688l2.1210938,1.2734375c-.8955078-.8007812-2.0507812-2.5693359-3.4648438-5.3037109Zm-3.3232422,4.5966797v-7.6376953h2.3330078v8.9101562c0,1.2265625-.5654297,1.8388672-1.6972656,1.8388672h-2.4746094l-.7783203-2.4042969h2.0507812c.4248047.0478516.6123047-.1875.5664062-.7070312Z"/>
      <path class="cls-1" d="m110.9560547,61.0527344l2.6875.2119141c-.1416016,1.4619141-.2373047,2.9238281-.2832031,4.3847656-.0478516,1.5097656-.0947266,2.9941406-.1416016,4.4550781v1.4150391c0,.6601562.09375,1.1552734.2832031,1.484375.2353516.5195312.7773438.7783203,1.6259766.7783203.7080078,0,1.3671875-.1650391,1.9804688-.4951172,1.6025391-.8007812,2.9228516-2.3574219,3.9599609-4.6669922l2.0507812,1.7675781c-1.1308594,2.0751953-2.6162109,3.6777344-4.4550781,4.8085938-2.0273438,1.2734375-4.0078125,1.6025391-5.9404297.9902344-.8017578-.2363281-1.34375-.6835938-1.6259766-1.34375-.2832031-.6123047-.4248047-1.4853516-.4248047-2.6162109.046875-3.6777344.1416016-7.4013672.2832031-11.1738281Z"/>
      <path class="cls-1" d="m127.2910156,69.8925781c.9902344-1.4140625,1.9326172-2.8515625,2.8291016-4.3134766h-1.8388672v-2.2636719h3.1826172l1.1318359-2.0507812,2.6162109.4248047-.9902344,1.6259766c1.2255859-.09375,2.4980469-.2119141,3.8193359-.3535156v2.2636719c-1.6035156.140625-3.3007812.2587891-5.0917969.3535156l-.7070312.9892578c1.9794922-.8945312,3.4648438-.6113281,4.4550781.8486328,1.0361328-.4238281,2.0507812-.8007812,3.0410156-1.1308594l.9189453,2.1923828c-1.2734375.4716797-2.4755859.9433594-3.6064453,1.4140625l-.0712891,2.5458984-2.5458984-.0703125.0712891-1.203125c-.5654297.2832031-.9433594.5195312-1.1318359.7080078-.3779297.3300781-.5898438.7070312-.6367188,1.1308594,0,.3779297.3066406.6367188.9199219.7783203.5185547.0947266,1.2480469.1416016,2.1923828.1416016,1.0839844,0,2.4277344-.1171875,4.0302734-.3535156l-.2822266,2.4746094c-1.6035156.2832031-3.4189453.3535156-5.4453125.2119141-1.0380859-.0947266-1.8632812-.3066406-2.4755859-.6357422-.9902344-.5185547-1.4853516-1.3193359-1.4853516-2.4042969,0-.8486328.3544922-1.6503906,1.0615234-2.4052734.6591797-.7070312,1.6259766-1.4140625,2.8994141-2.1210938-.1416016-.2832031-.4248047-.4248047-.8486328-.4248047-.3779297.0478516-.8486328.2128906-1.4150391.4951172-.8017578.4248047-1.7207031,1.25-2.7578125,2.4755859l-1.8388672-1.34375Z"/>
      <path class="cls-1" d="m144.1923828,73.4287109l1.6269531-1.4150391,3.3232422,3.5361328-1.9794922,1.4853516-2.9707031-3.6064453Z"/>
      <path class="cls-1" d="m176.0859375,67.0634766l1.7685547,1.8388672-2.5458984,2.2626953c.5654297,1.1318359,1.7910156,2.1699219,3.6767578,3.1123047l-1.6972656,2.2626953c-.8486328-.4716797-1.6972656-1.1318359-2.5449219-1.9804688-.8486328-.8007812-1.5810547-1.7910156-2.1923828-2.9697266l.140625.8486328c.0947266.5654297.1171875,1.25.0712891,2.0507812,0,.6132812-.0712891,1.0839844-.2119141,1.4140625-.1416016.3769531-.3310547.6367188-.5664062.7783203-.1416016.1875-.6601562.3056641-1.5556641.3535156h-2.0507812l-.7070312-2.1210938c-1.4619141.8007812-2.8056641,1.3662109-4.03125,1.6962891l-1.1308594-2.1210938c1.5556641-.4238281,2.875-.8945312,3.9599609-1.4140625,1.4609375-.7070312,2.6396484-1.4609375,3.5361328-2.2636719l-.2128906-.4238281c-1.7441406,1.4619141-3.7714844,2.4042969-6.0810547,2.8291016l-1.0615234-1.9101562c2.8759766-.4707031,5.0449219-1.34375,6.5068359-2.6162109l-.1416016-.2832031c-1.7919922.9443359-3.5605469,1.5556641-5.3037109,1.8388672l-1.0615234-2.0507812c.8017578-.0458984,1.7207031-.2119141,2.7587891-.4951172,1.0839844-.2832031,1.7431641-.5410156,1.9794922-.7773438h-2.1210938v-2.0507812h10.1835938v2.0507812h-3.6074219l-.6357422.4238281.4238281.8486328,2.1923828-.4951172c.09375.3779297.1875.7314453.2832031,1.0605469l1.9794922-1.6972656Zm-13.5068359-.8486328v-4.3134766h6.4355469v-1.2724609h2.7578125v1.2724609h6.4355469v4.3134766h-2.4755859v-2.1914062h-10.7490234v2.1914062h-2.4042969Zm7.7792969,6.9306641c-.3779297.4716797-1.1083984.9667969-2.1923828,1.4853516h.9902344c.3291016,0,.5654297-.0234375.7070312-.0712891.4238281-.140625.5888672-.6113281.4951172-1.4140625Z"/>
      <path class="cls-1" d="m180.6123047,75.0546875c1.6494141-2.2148438,2.9697266-4.7138672,3.9599609-7.4960938-.6611328.1416016-1.7216797.4013672-3.1826172.7783203l-.5654297-2.4755859c1.4609375-.2353516,2.9228516-.4707031,4.3847656-.7070312.2822266-1.0361328.4951172-2.3095703.6357422-3.8183594l2.7587891.5654297-.8486328,2.9707031c1.7431641-.2832031,2.921875.1650391,3.5351562,1.3427734.5185547.9443359.6367188,2.3818359.3535156,4.3144531-.140625,1.1308594-.3779297,2.1455078-.7070312,3.0410156-.4716797,1.3203125-1.0605469,2.1679688-1.7675781,2.5458984-.6132812.3291016-1.5800781.4238281-2.8994141.2822266l-.5654297-2.5458984c.9892578.0478516,1.6015625.0478516,1.8378906,0,.3300781-.09375.6123047-.3535156.8486328-.7773438.4248047-.8017578.7304688-1.6728516.9199219-2.6171875.2353516-1.0361328.2587891-1.8613281.0703125-2.4746094-.1416016-.5185547-.4482422-.8017578-.9189453-.8486328-.2832031,0-.7314453.0244141-1.34375.0703125-.9902344,3.3945312-2.4521484,6.5058594-4.3847656,9.3349609l-2.1210938-1.4853516Zm10.3242188-10.890625l2.3339844-1.2021484c1.2255859,2.0751953,2.3095703,4.4794922,3.2529297,7.2138672l-2.3339844,1.1308594c-.8955078-2.9697266-1.9794922-5.3496094-3.2529297-7.1425781Z"/>
      <path class="cls-1" d="m199.9882812,71.0244141c.5654297-2.1679688,1.1552734-4.3603516,1.7685547-6.5771484l2.4746094.7783203c-.3300781,1.2724609-.6835938,2.4990234-1.0605469,3.6767578,2.5458984-1.7910156,4.9257812-2.4277344,7.1425781-1.9091797,1.1777344.2832031,2.0507812.9433594,2.6162109,1.9804688.5654297.9892578.6826172,2.0751953.3535156,3.2529297-.4716797,1.8857422-2.1923828,3.1816406-5.1621094,3.8896484-1.2265625.2822266-3.0654297.3759766-5.5166016.2822266l-.5654297-2.4042969c3.3466797.3300781,5.7519531.0478516,7.2138672-.8486328.6113281-.3769531,1.0361328-.8007812,1.2724609-1.2724609.2353516-.4707031.2587891-.9199219.0703125-1.34375-.4238281-.9423828-1.5556641-1.2734375-3.3945312-.9902344-1.5556641.3300781-3.0644531,1.1787109-4.5253906,2.5458984l-2.6875-1.0605469Zm2.9707031-7.5673828l.7773438-2.2626953c2.4511719.4238281,4.4306641.9433594,5.9404297,1.5556641l-1.0605469,2.4042969c-1.5556641-.6591797-3.4423828-1.2255859-5.6572266-1.6972656Z"/>
      <path class="cls-1" d="m217.3144531,67.2050781v-2.4042969h3.0400391v-3.2529297h2.6171875v3.2529297h3.4648438v-3.3945312h2.6171875v3.3945312h2.9697266v2.4042969h-2.9697266c0,2.2636719-.4248047,4.1259766-1.2734375,5.5869141-.8964844,1.5097656-2.3105469,2.7333984-4.2431641,3.6777344l-1.9091797-1.9804688c1.7431641-.8486328,2.9697266-1.8144531,3.6767578-2.8994141.7539062-1.0839844,1.1318359-2.5458984,1.1318359-4.3847656h-3.4648438v3.8896484h-2.6171875v-3.8896484h-3.0400391Z"/>
      <path class="cls-1" d="m234.9931641,72.296875c1.2255859-.9902344,2.3574219-2.3564453,3.3945312-4.1015625l2.2626953,1.4140625c-.9902344,1.7929688-2.2158203,3.3486328-3.6767578,4.6679688l-1.9804688-1.9804688Zm.6367188-7.5664062h5.9404297v-3.4658203h2.6865234v3.4658203h5.6582031v2.4042969h-5.6582031v6.859375c0,1.6025391-.8720703,2.4042969-2.6162109,2.4042969h-1.34375l-.7070312-2.6162109h1.0605469c.6123047,0,.9199219-.3066406.9199219-.9199219v-5.7275391h-5.9404297v-2.4042969Zm9.4755859,4.8789062l1.9804688-1.484375c1.2255859,1.3203125,2.3574219,2.828125,3.3945312,4.5253906l-2.2626953,1.4853516c-.9902344-1.6972656-2.0283203-3.2060547-3.1123047-4.5263672Zm3.8896484-5.5859375c-.5654297.046875-1.0136719-.1171875-1.34375-.4951172-.2822266-.3300781-.4238281-.7304688-.4238281-1.2021484,0-.4707031.1171875-.8486328.3535156-1.1318359.3291016-.4248047.7783203-.6367188,1.34375-.6367188.5185547,0,.9658203.2119141,1.34375.6367188.2353516.2832031.3535156.6367188.3535156,1.0605469,0,.4248047-.1181641.8027344-.3535156,1.1318359-.3310547.4238281-.7548828.6367188-1.2734375.6367188Zm.4248047-1.203125c.1416016-.140625.2119141-.3056641.2119141-.4941406s-.0703125-.3544922-.2119141-.4951172c-.1416016-.1416016-.3076172-.2128906-.4951172-.2128906-.1894531,0-.3535156.0712891-.4951172.2128906-.1416016.140625-.2119141.3066406-.2119141.4951172s.0703125.3535156.2119141.4941406c.1416016.1416016.3056641.2128906.4951172.2128906.1875,0,.3535156-.0712891.4951172-.2128906Z"/>
      <path class="cls-1" d="m254.0869141,67.7001953h13.71875v2.4042969h-13.71875v-2.4042969Z"/>
      <path class="cls-1" d="m275.3730469,61.1240234h2.6865234v6.0107422l1.2734375-1.5556641c1.5556641.8955078,3.5361328,2.2626953,5.9404297,4.1015625l-1.6972656,2.1210938c-2.6416016-2.0742188-4.4794922-3.3945312-5.5166016-3.9599609v8.6279297h-2.6865234v-15.3457031Z"/>
      <path class="cls-1" d="m289.3740234,63.1035156c5.6103516-.2832031,10.4189453-.8242188,14.4267578-1.6259766l.4248047,2.4746094c-1.1796875.1894531-1.9335938.3300781-2.2636719.4248047-.6601562.1884766-1.3671875.5419922-2.1210938,1.0605469-1.0380859.7070312-1.9091797,1.6738281-2.6162109,2.8994141-.8486328,1.4619141-.9902344,2.6875-.4248047,3.6767578.4248047.7080078,1.1318359,1.203125,2.1220703,1.4853516.4238281.1416016,1.2958984.3076172,2.6162109.4951172l-.7783203,2.4755859c-1.3203125-.2363281-2.3574219-.4951172-3.1113281-.7783203-1.1318359-.3769531-2.0273438-.9423828-2.6875-1.6972656-1.2724609-1.3671875-1.5556641-2.9931641-.8486328-4.8798828.6123047-1.6015625,1.6972656-3.0166016,3.2529297-4.2421875-1.5087891.2363281-4.0546875.4941406-7.6367188.7773438l-.3544922-2.5458984Zm11.1035156,3.5361328l1.4140625-.6367188.9902344,1.9091797-1.4140625.7080078-.9902344-1.9804688Zm1.9091797-.8486328l1.4853516-.6367188.9189453,1.9091797-1.34375.6367188-1.0605469-1.9091797Z"/>
      <path class="cls-1" d="m308.5390625,67.0634766c2.1679688-.2353516,4.2890625-.4951172,6.3642578-.7773438l-.4951172-.8486328c-1.4140625.2832031-2.9941406.4716797-4.7382812.5654297l-.3535156-2.3339844c1.9804688-.09375,3.3945312-.2119141,4.2431641-.3535156-.1884766-.3759766-.4238281-1.0126953-.7070312-1.9091797l2.7578125-.4238281c.3291016.9892578.5664062,1.6259766.7070312,1.9091797.8955078-.1416016,1.8857422-.3769531,2.9707031-.7070312l.7070312,2.1210938c-.9433594.2832031-1.9335938.4951172-2.9697266.6367188l.4238281.8486328c1.3193359-.2832031,2.4980469-.5654297,3.5361328-.8486328l.6367188,2.2626953c-.5664062.1416016-1.6269531.3779297-3.1826172.7070312.8007812,1.3681641,1.4375,2.3818359,1.9091797,3.0410156l-1.4853516,1.6972656c-1.2265625-.7070312-2.734375-1.1074219-4.5253906-1.2021484-.5664062-.0458984-1.0380859-.0234375-1.4150391.0712891-.5654297.140625-.8955078.4003906-.9892578.7773438-.2832031,1.0380859.5175781,1.6513672,2.4042969,1.8388672,1.6494141.1416016,3.2529297-.0234375,4.8085938-.4951172l.1416016,2.4042969c-2.0751953.4707031-3.9599609.6123047-5.6572266.4248047-2.4052734-.2363281-3.8193359-1.2255859-4.2431641-2.9707031-.2832031-1.0361328-.0957031-1.9091797.5654297-2.6162109.6123047-.6601562,1.4375-1.0605469,2.4755859-1.2021484,1.0361328-.1416016,2.4042969-.1171875,4.1015625.0703125l-.6367188-1.2021484c-2.3105469.3300781-4.6445312.6367188-7.0009766.9199219l-.3535156-2.4052734Z"/>
      <path class="cls-1" d="m325.8642578,75.2675781c1.5556641-2.640625,2.78125-5.421875,3.6777344-8.3447266-1.0380859.140625-2.0751953.2119141-3.1123047.2119141v-2.3339844c1.2734375-.0458984,2.4990234-.1416016,3.6777344-.2832031.2832031-1.0361328.4951172-2.1210938.6367188-3.2529297l2.6162109.4248047c-.1416016.8486328-.3066406,1.6738281-.4951172,2.4746094,1.3193359-.1875,2.3095703-.3535156,2.9707031-.4951172l.2822266,2.4052734c-1.1787109.2822266-2.4990234.4941406-3.9599609.6357422-.9433594,3.5361328-2.2626953,6.8134766-3.9599609,9.8300781l-2.3339844-1.2724609Zm8.9814453-3.5361328c-.4716797.7070312-.5429688,1.2021484-.2119141,1.4853516.3759766.3300781,1.2958984.4482422,2.7578125.3535156,1.2255859-.0947266,2.2382812-.2128906,3.0410156-.3535156l.2119141,2.3330078c-2.6875.4707031-4.8085938.5664062-6.3642578.2832031-1.2265625-.2363281-1.9804688-.8242188-2.2636719-1.7675781-.2822266-.9433594-.0947266-1.9560547.5664062-3.0410156l2.2626953.7070312Zm-.6367188-4.3847656c1.9804688,0,3.9599609-.0458984,5.9404297-.1416016l.0703125,2.3339844c-2.0273438.0478516-4.0302734.0703125-6.0107422.0703125v-2.2626953Z"/>
      <path class="cls-1" d="m344.2509766,72.9335938c1.3662109-2.1220703,2.4042969-4.2900391,3.1113281-6.5058594-1.0849609.140625-1.8857422.2119141-2.4042969.2119141l-.2119141-2.4755859c1.0361328,0,2.1210938-.0703125,3.2529297-.2119141.1875-.5185547.3994141-1.4140625.6367188-2.6875l2.6162109.4951172c-.1416016.6611328-.3300781,1.2978516-.5654297,1.9091797.5654297-.0458984,1.2480469-.1640625,2.0507812-.3535156l.2822266,2.4052734c-.9902344.1884766-1.9570312.3300781-2.8994141.4238281-.8955078,2.8759766-2.0976562,5.5634766-3.6064453,8.0615234l-2.2626953-1.2724609Zm8.203125-1.6269531c-.0478516-1.6015625.2353516-2.8994141.8486328-3.8896484l2.1210938,1.0615234c-.5654297.9433594-.7314453,2.0273438-.4941406,3.2529297,1.3662109.4716797,2.5683594,1.0605469,3.6064453,1.7675781l-1.2734375,1.8388672c-1.0371094-.7539062-1.8388672-1.2255859-2.4042969-1.4140625.1416016,1.4140625-.5195312,2.2626953-1.9804688,2.5458984-.9433594.1875-1.8154297.1875-2.6162109,0-1.0371094-.2363281-1.7451172-.7080078-2.1210938-1.4150391-.6132812-1.1777344-.4716797-2.1679688.4238281-2.9697266.8955078-.8007812,2.1923828-1.0605469,3.8896484-.7783203Zm.1416016,1.9804688c-.4716797-.09375-.8964844-.1416016-1.2734375-.1416016-.5654297-.0458984-.9189453.0478516-1.0605469.2832031-.2832031.4238281-.1416016.7314453.4248047.9189453.5175781.1894531.9892578.2119141,1.4140625.0712891.4238281-.1416016.5888672-.5185547.4951172-1.1318359Zm.7773438-7.0009766l1.2734375-2.0507812c1.9326172.8486328,3.3232422,1.5322266,4.171875,2.0507812l-1.34375,2.1923828c-1.7919922-1.0371094-3.1582031-1.7685547-4.1015625-2.1923828Z"/>
      <path class="cls-1" d="m362.9199219,71.0244141c.5654297-2.1679688,1.1552734-4.3603516,1.7685547-6.5771484l2.4746094.7783203c-.3300781,1.2724609-.6835938,2.4990234-1.0605469,3.6767578,2.5458984-1.7910156,4.9257812-2.4277344,7.1425781-1.9091797,1.1777344.2832031,2.0507812.9433594,2.6162109,1.9804688.5654297.9892578.6826172,2.0751953.3535156,3.2529297-.4716797,1.8857422-2.1923828,3.1816406-5.1621094,3.8896484-1.2265625.2822266-3.0654297.3759766-5.5166016.2822266l-.5654297-2.4042969c3.3466797.3300781,5.7519531.0478516,7.2138672-.8486328.6113281-.3769531,1.0361328-.8007812,1.2724609-1.2724609.2353516-.4707031.2587891-.9199219.0703125-1.34375-.4238281-.9423828-1.5556641-1.2734375-3.3945312-.9902344-1.5556641.3300781-3.0644531,1.1787109-4.5253906,2.5458984l-2.6875-1.0605469Zm2.9707031-7.5673828l.7773438-2.2626953c2.4511719.4238281,4.4306641.9433594,5.9404297,1.5556641l-1.0605469,2.4042969c-1.5556641-.6591797-3.4423828-1.2255859-5.6572266-1.6972656Z"/>
      <path class="cls-1" d="m379.4677734,69.7509766v-2.1210938h16.40625v2.1210938h-16.40625Z"/>
      <path class="cls-1" d="m400.2587891,77.0351562c-.6611328,0-1.25-.2597656-1.7685547-.7783203s-.7773438-1.1064453-.7773438-1.7675781c0-.6591797.2587891-1.2490234.7773438-1.7675781s1.1074219-.7783203,1.7685547-.7783203c.6591797,0,1.2480469.2597656,1.7675781.7783203.5185547.5185547.7783203,1.1083984.7783203,1.7675781,0,.6611328-.2597656,1.2490234-.7783203,1.7675781-.5195312.5185547-1.1083984.7783203-1.7675781.7783203Zm.7773438-1.8388672c.1884766-.1875.2832031-.4238281.2832031-.7070312s-.0947266-.5185547-.2832031-.7070312c-.2363281-.2353516-.4951172-.3535156-.7773438-.3535156-.2832031,0-.5429688.1181641-.7783203.3535156-.1884766.1884766-.2822266.4238281-.2822266.7070312s.09375.5195312.2822266.7070312c.2353516.2353516.4951172.3535156.7783203.3535156.2822266,0,.5410156-.1181641.7773438-.3535156Z"/>
    </g>
  </g>
</svg>