<?xml version="1.0" encoding="UTF-8"?>
<svg id="_レイヤー_2" data-name="レイヤー 2" xmlns="http://www.w3.org/2000/svg" viewBox="0 0 355.3868852 143.871893">
  <defs>
    <style>
      .cls-1 {
        fill: #c5252c;
      }

      .cls-1, .cls-2, .cls-3, .cls-4, .cls-5 {
        stroke-width: 0px;
      }

      .cls-2 {
        fill: #c96b90;
      }

      .cls-3 {
        fill: #211613;
      }

      .cls-4 {
        fill: #c31d1d;
      }

      .cls-5 {
        fill: #143367;
      }
    </style>
  </defs>
  <g id="top">
    <g>
      <path class="cls-4" d="m161.5454643,17.672763s7.4777586-21.7152924,27.3477684-17.0036374c19.8728803,4.7124219,18.8469987,21.9202183,17.0038296,29.70302-1.8460551,7.7979271-14.3404868,20.8960825-25.6067796,28.2708886-11.2670597,7.374806-18.1288293,15.3636839-18.7448183,18.0277935-.613305-2.6641096-7.4777586-10.6529875-18.7440515-18.0277935-11.2670597-7.374806-23.7597709-20.4729615-25.6075465-28.2708886-1.8431743-7.7828017-2.8673305-24.9905982,17.0045964-29.70302,19.8692429-4.711655,27.3470015,17.0036374,27.3470015,17.0036374Z"/>
      <g>
        <g>
          <g>
            <path class="cls-5" d="m68.5395746,81.8207644h1.2959389c.4196399,0,.955444.0757757.9547476.5703895.0006964.4984895.0006964,4.5039124.0006964,4.5039124,0,0-1.4493895.5337713-4.0824295.5325685-2.6304727,0-6.1393051-1.4493614-6.1393051-5.4541161s3.6622269-5.5689157,6.3702407-5.5689157c1.2189604,0,2.7446321.0769785,2.7446321.7621677l.0006682,1.3338936c-1.0303897-.8379434-1.449896-.9893612-3.0140289-.9893612-1.5636264-.0006682-4.3669559,1.0297215-4.3662877,4.3682644,0,3.33587,3.7567127,5.319671,6.8843664,4.0602167,0,0-.0005346-2.021622,0-2.5553933,0-.5337713-.0384893-1.5636264-.6492391-1.5636264Z"/>
            <path class="cls-5" d="m88.1827315,87.160081h3.3176945c-.9155615-.3419932-1.2967408-1.4486932-1.6027839-2.2500184-.3033703-.8013251-2.7061428-6.6365919-2.9742312-7.4379171-.2663225-.8013251-.6448288-.8013251-.9515402-.8013251h-1.9080251c.9167929.3041721.4189717.9540794.2675539,1.4122086-.1532888.4567927-3.358723,8.3918628-3.358723,8.3918628-1.1053636-.3067113-3.8891532-4.3865736-3.8891532-4.3865736,3.6999427-1.0682108,3.1296584-5.4174979-.493411-5.4174979h-4.1587117c.841819.1919118.7621676,1.068879.7621676,1.7554046v7.209387c0,.9919005-.3053749,1.2581179-.7986523,1.524469l3.0493388-.0013364c-.8352705-.3798142-.6100816-1.2567815-.6100816-1.6770896-.0013364-.4203081-.0013364-7.7804448-.0013364-7.7804448h1.6418077c.8757644,0,1.5243353,1.067008,1.5243353,1.7952303,0,1.1791347-.9154565,1.6365957-1.8310466,1.9811281-.9149219.3419932-.4189717,1.1067,0,1.7169153.4215109.6100816,1.6411395,2.3249922,2.3648179,3.1642721.7243466.8404826,1.3730511.7999887,1.7189199.7999887h2.7446321c-1.0663397-.3406567-.4966184-1.1818076-.3445039-1.6014475.1525922-.4176353.8391177-2.2108609.8391177-2.2108609h4.1182177s.4972867,1.2947361.9540794,2.4405937c.457461,1.1439865.114265,1.2986118-.3804824,1.3730511Zm-4.2715066-5.0351444l1.564161-4.081065,1.6776241,4.0817332-3.2417851-.0006682Z"/>
            <path class="cls-5" d="m121.5896763,87.1587445h3.3182291c-.9142537-.3406567-1.2946025-1.4473568-1.6006456-2.2486819-.3041721-.8001223-2.7074498-6.6365919-2.9763695-7.4379171-.2662174-.8013251-.6460316-.8013251-.9514065-.8013251h-1.9061541c.9187976.3053749.4183035.9540794.2656828,1.4122086-.1540907.4567927-3.3573865,8.3918628-3.3573865,8.3918628-.2140673.4919409-.52602.5037015-.7204709.6851891.3438642-.0013364,2.7446321,0,2.7446321,0-1.0668743-.341325-.4966184-1.1818076-.3452006-1.6027839.1527543-.4176353.838478-2.2108609.838478-2.2108609h4.119049s.497153,1.2960726.9539163,2.4405937c.4581292,1.1433183.1149332,1.2986118-.3823534,1.3717147Zm-4.2682991-5.033808l1.5614881-4.081065,1.678426,4.081065h-3.2399141Z"/>
            <path class="cls-5" d="m109.8522169,87.3511909c.3829925-.3418595.7243466-.6094134.7243466-1.8317149v-7.209387c0-.5703895-.0366474-1.2189604-.7243466-1.4473568h2.9371829c-.3048403.2662174-.6682164.6094134-.6682164,1.3729175v7.2824899c0,.6500409-.1325741,1.6039867.7053692,1.8323831l-2.9743358.0006682Z"/>
            <path class="cls-5" d="m94.0576901,79.1127505s-.0384893,5.7588228-.0384893,6.405389c0,.6500409.078315,1.6039867.9155901,1.8323831l-2.7857942.0006682c.3830503-.3425277.687862-.6094134.687862-1.8330513,0-1.2201632.0763103-6.6357901.0763103-7.2080506,0-.5715923-.0763103-1.2189604-.7641723-1.4473568h2.1391231l6.4055227,8.0473304v-6.5614844c0-.4196399.0756132-1.2196286-.8020222-1.5243353l2.8633073.0006682c-.3438642.2662174-.8397855.3796806-.8397855,1.4851778v9.4620783s-.8026905.1512842-2.0979612-1.4128768c-1.2979147-1.5621564-5.7594909-7.2465399-5.7594909-7.2465399Z"/>
            <path class="cls-1" d="m112.2776797,95.4775045c-8.3839777-7.0762783-11.5932874-15.3977111-.1186752-26.754183.356293-.358164.6981525-.1447357.4162988.1782801-5.0344761,5.7509379-10.6386735,14.9473333-.1200117,26.2182734.1689251.1762755.1043754.5468683-.1776119.3576294Z"/>
          </g>
          <path class="cls-5" d="m127.6506665,87.6232886c-.2813191,0-.5455319-.0534573-.7909009-.1605056-.2460077-.1070483-.460802-.2519176-.6448288-.4358108-.1833586-.1834922-.3281984-.3981233-.435113-.6441606-.1070778-.2460373-.1606688-.5095818-.1606688-.790901,0-.277978.053591-.5403198.1606688-.7863571.1069146-.2453691.2517544-.459332.435113-.6413541.1840268-.1814876.3988211-.3256887.6448288-.432737.2453691-.1069146.5095818-.1605056.7909009-.1605056.277978,0,.5396516.053591.7856889.1605056.2459036.1070483.4606684.2512494.644027.432737.1840268.1820222.3282279.3959851.4332715.6413541.1050436.2460373.1579664.5083791.1579664.7863571,0,.2813191-.0529227.5448637-.1579664.790901s-.2492447.4606684-.4332715.6441606c-.1833586.1838932-.3981233.3287625-.644027.4358108-.2460373.1070483-.5077108.1605056-.7856889.1605056Zm0-.2675539c.2459036,0,.4730972-.0455724.6811798-.1363162.2088844-.0907438.3876992-.2152993.5378102-.3739339.1493836-.1585009.266856-.3452006.3522541-.5586289.0861999-.2139629.1285648-.4457004.1285648-.6949451,0-.2460373-.0423649-.4756365-.1285648-.689733-.0853981-.2139629-.2028705-.3993261-.3522541-.5559561-.150111-.1566299-.3289257-.2806509-.5378102-.371261-.2080826-.091412-.4352762-.1364498-.6811798-.1364498-.2460373,0-.4737654.0450378-.6845209.1364498-.2102209.0906101-.3909066.2146311-.5423244.371261s-.2700931.3419932-.3556248.5559561c-.0855317.2140965-.1278966.4436957-.1278966.689733,0,.2492447.0423649.4809822.1278966.6949451.0855317.2134283.2042069.400128.3556248.5586289.1514178.1586346.3321036.2831901.5423244.3739339.2107555.0907438.4384836.1363162.6845209.1363162Zm1.0100759-.63093h-.3314353l-.6466998-1.0421503h-.5077108v1.0421503h-.277978v-2.2611107h.9885594c.2996282,0,.5084086.0534573.6258515.1605056.1174724.1070483.1761418.253254.1761418.4384836,0,.1102557-.0175073.2048752-.0534573.2831901-.0352818.078315-.0855317.1416619-.1494132.1899071-.0639855.0477107-.1396572.0835271-.2270303.1070483-.0875659.022853-.180849.0364846-.2806509.0398257l.6838231,1.0421503Zm-1.0636669-1.261459h.2564615c.0927484,0,.1795125-.0104242.2598025-.0319407.0795178-.0215166.1454039-.0606741.197688-.1174724.0515567-.0574666.0769489-.1428647.0769489-.2571297,0-.0887391-.0163045-.1591692-.0502203-.2107555-.033975-.0515863-.0776763-.0907438-.1311337-.1174724-.053591-.0267287-.114265-.0450378-.1820222-.0534573-.0672226-.0092214-.1351134-.0137653-.2030041-.0137653h-.6466998v.8019934h.4221791Z"/>
        </g>
        <path class="cls-2" d="m61.4640751,115.7243403c.3760591,0,1.1745264.4229349,1.1745264,2.443331,0,5.2163722-2.6782363,8.8347563-6.8607092,8.8347563-6.1554666,0-7.7065789-4.6991592-7.7065789-10.9963064v-10.4785667c0-6.202869-1.3156803-11.0900578-5.4507508-11.0900578-5.4981532,0-8.4112948,5.403875-8.4112948,13.0635782v16.352779c0,2.0203962-1.2219289,2.8662659-2.3027039,2.8662659-1.3156803,0-1.9266447-.6578401-1.9266447-.6578401v-20.5347252c0-6.202869-1.3156803-11.0900578-5.4507508-11.0900578-6.0148395,0-8.4586972,6.5315258-8.4586972,15.3188797v6.0148395c0,7.2836441-2.1141476,12.6406434-7.7060522,12.6406434-4.7465616,0-7.2367683-2.5844849-7.2367683-6.2497448,0-2.960544,1.1745264-3.6183842,2.3495796-3.6183842,1.2219289,0,1.6917394,1.080775,1.6917394,1.080775,0,0-.3760591.9870236-.3760591,2.6313606,0,3.1954493,1.6917394,4.2293486,3.5715084,4.2293486,1.9266447,0,3.3360765-1.7854909,3.3360765-7.8946085v-18.1851456c0-3.6652599-1.6448637-6.0148395-3.9939166-6.0148395-2.396982,0-4.3236267,1.3156803-4.3236267,6.9544606,0,.9401479.3760591,1.6917394.3760591,1.6917394,0,0-.4229349.5640887-1.644337.5640887-.7521183,0-2.1146743-.6109644-2.1146743-3.0074197,0-4.9340645,3.242325-8.3644191,8.2701409-8.3644191,4.6522835,0,6.6726796,2.725112,7.3773955,6.7664311,1.3630827-4.0881947,4.558532-6.9075849,8.8816321-6.9075849,4.8871887.0468757,7.7534546,3.0074197,8.9753835,7.6128275,1.2214022-4.4642539,4.5580053-7.6128275,9.1160107-7.6128275,6.7669578.0468757,9.7269751,5.6861827,9.7269751,13.4396374v13.2984835c0,3.6652599,1.6448637,6.0148395,3.9944433,6.0148395,2.5844849,0,4.4168515-2.0677986,4.4168515-8.8347563,0,0,.0474024-.281781.7052426-.281781Z"/>
        <path class="cls-3" d="m86.743255,114.8784706c.3760591,0,.8458697.4698106.8458697,2.4907334,0,5.2158455-2.3495796,8.7873539-6.5320525,8.7873539-3.242325,0-5.3095969-1.5037099-6.2966205-4.1824729-1.1276507,2.4438577-3.242325,4.1824729-5.9679638,4.1824729-5.1689698,0-8.2232652-3.1016979-8.2232652-10.7608744,0-7.6597032,4.1350705-10.6202472,9.3514426-10.6202472,2.3964553,0,3.805887.5640887,4.604881,1.362556.4229349-.9396212,1.2688046-1.362556,2.16155-1.362556,1.3156803,0,1.7854909.6578401,1.7854909.6578401v13.4865131c0,3.6652599,1.2688046,5.403875,3.1485736,5.403875,2.5844849,0,4.4173782-2.3964553,4.4173782-9.1634131,0,0,.0468757-.281781.7047159-.281781Zm-12.5468919,3.1016979v-6.4377743c0-3.1016979-1.9266447-4.9340645-3.8527628-4.9340645-3.1016979,0-5.3101236.9396212-5.3101236,8.7873539,0,7.8472061,2.0203962,8.9279811,4.3231,8.9279811,1.5974613,0,4.8397863-2.16155,4.8397863-6.3434962Z"/>
        <path class="cls-2" d="m98.0671647,112.0122047c0-4.1350705-1.1281774-5.5919046-2.8199169-5.5919046-2.9131416,0-4.8397863,2.4902067-4.8397863,11.7004955v7.3779222s-.4698106.6578401-1.7854909.6578401c-1.2688046,0-2.4438577-.8458697-2.4438577-2.8667926v-17.8564889s.4698106-.6578401,1.7860176-.6578401c1.2682779,0,2.443331.8458697,2.443331,2.8662659,1.0338993-1.8323666,2.7256387-2.8662659,5.403875-2.8662659,2.7725144,0,4.9809402,1.2688046,6.0148395,3.8064137,1.0338993-2.4438577,2.9136683-3.8064137,5.9679638-3.8064137,3.9470409,0,6.6726796,2.5376092,6.6726796,7.4716736v6.6726796c0,3.6652599,1.2688046,5.403875,3.1485736,5.403875,2.1141476,0,4.4168515-1.9266447,4.4168515-9.1634131,0,0,.0468757-.281781.7047159-.281781.3760591,0,.8458697.4698106.8458697,2.4907334,0,5.2158455-2.3495796,8.7873539-6.5315258,8.7873539-4.7460349,0-7.001863-3.2897274-7.001863-8.6467268v-5.4976265c0-4.1350705-1.1276507-5.5919046-2.8193902-5.5919046-2.443331,0-4.7929106,2.443331-4.7929106,11.7947737v7.2836441s-.4698106.6578401-1.7854909.6578401c-1.2688046,0-2.5844849-.8458697-2.5844849-2.8667926v-11.2775607Z"/>
        <path class="cls-3" d="m148.2526257,114.8784706c.3760591,0,.8458697.4698106.8458697,2.4907334,0,5.2158455-2.3495796,8.7873539-6.5320525,8.7873539-3.242325,0-5.3095969-1.5037099-6.2966205-4.1824729-1.1276507,2.4438577-3.242325,4.1824729-5.9679638,4.1824729-5.1689698,0-8.2232652-3.1016979-8.2232652-10.7608744,0-7.6597032,4.1350705-10.6202472,9.3514426-10.6202472,2.3964553,0,3.805887.5640887,4.604881,1.362556.4229349-.9396212,1.2688046-1.362556,2.16155-1.362556,1.3156803,0,1.7854909.6578401,1.7854909.6578401v13.4865131c0,3.6652599,1.2688046,5.403875,3.1485736,5.403875,2.5844849,0,4.4173782-2.3964553,4.4173782-9.1634131,0,0,.0468757-.281781.7047159-.281781Zm-12.5468919,3.1016979v-6.4377743c0-3.1016979-1.9266447-4.9340645-3.8527628-4.9340645-3.1016979,0-5.3101236.9396212-5.3101236,8.7873539,0,7.8472061,2.0203962,8.9279811,4.3231,8.9279811,1.5974613,0,4.8397863-2.16155,4.8397863-6.3434962Z"/>
        <path class="cls-3" d="m152.0579861,104.0707205c-1.2688046,0-2.2089524-.8458697-2.2089524-2.8667926l-.0468757-8.5519219s.2349053-.6578401,1.5505856-.6578401c1.2688046,0,2.2089524.8458697,2.2089524,2.8662659l.0468757,8.5524486s-.2349053.6578401-1.5505856.6578401Z"/>
        <path class="cls-2" d="m155.9576246,109.6626251c.0468757-2.9136683,2.4902067-4.8871887,7.8472061-4.8871887,5.122094,0,7.9414842,2.2084257,7.9414842,4.3699758,0,1.2219289-1.080775,1.879769-2.0203962,1.879769-1.1281774,0-1.4099584-.563562-1.4099584-.563562,0,0,.281781-.3291834.281781-1.080775,0-1.6917394-2.5370825-2.7725144-4.604881-2.7725144-2.3495796,0-4.2293486.7984673-4.2293486,2.5844849,0,5.122094,12.9698268,3.7590113,12.9698268,10.9957797,0,4.1819462-4.1355972,5.9679638-9.4451941,5.9679638-5.8268099,0-9.5863479-3.8532895-9.5863479-8.5993244,0-1.7860176.798994-2.8193902,1.879769-2.8193902,1.1276507,0,1.3156803.563562,1.3156803.563562,0,0-.281781.7047159-.281781,1.7386152,0,3.9944433,2.443331,7.2836441,6.9075849,7.2836441,3.2892007,0,4.9809402-1.0338993,5.0278159-3.524106.0468757-5.4512775-12.7343948-3.8532895-12.593241-11.1369335Z"/>
        <path class="cls-2" d="m243.1232878,114.8784706c.3760591,0,.8458697.4698106.8458697,2.4907334,0,5.2158455-2.3495796,8.7873539-6.5320525,8.7873539-3.242325,0-5.3095969-1.5037099-6.2966205-4.1824729-1.1276507,2.4438577-3.242325,4.1824729-5.9679638,4.1824729-5.1689698,0-8.2232652-3.1016979-8.2232652-10.7608744,0-7.6597032,4.1350705-10.6202472,9.3514426-10.6202472,2.3964553,0,3.805887.5640887,4.604881,1.362556.4229349-.9396212,1.2688046-1.362556,2.16155-1.362556,1.3156803,0,1.7854909.6578401,1.7854909.6578401v13.4865131c0,3.6652599,1.2688046,5.403875,3.1485736,5.403875,2.5844849,0,4.4173782-2.3964553,4.4173782-9.1634131,0,0,.0468757-.281781.7047159-.281781Zm-12.5468919,3.1016979v-6.4377743c0-3.1016979-1.9266447-4.9340645-3.8532895-4.9340645-3.1011712,0-5.3095969.9396212-5.3095969,8.7873539,0,7.8472061,2.0203962,8.9279811,4.3231,8.9279811,1.5974613,0,4.8397863-2.16155,4.8397863-6.3434962Z"/>
        <path class="cls-3" d="m254.118014,126.1091556c-2.3964553,0-5.4981532-1.4563075-5.4981532-6.2966205,0-5.6856561,3.1954493-9.3040402,7.6597032-11.512466-.9864969-1.3630827-2.2553015-1.6917394-3.4303546-1.6917394-2.3027039,0-6.1085909,2.2553015-6.1085909,8.6462001v27.9595231s-.4698106.6578401-1.7860176.6578401c-1.2688046,0-2.443331-.8458697-2.443331-2.8662659v-35.5723506s.4698106-.6578401,1.7854909-.6578401c1.2688046,0,2.4438577.8458697,2.4438577,2.8662659v1.0338993c1.4094317-2.2553015,3.805887-3.9001652,6.6726796-3.9001652,2.3964553,0,4.5111296.7047159,6.0617152,2.2558281,3.4772303-1.1281774,7.4247979-1.597988,11.0426554-1.597988,1.080775,0,1.2688046.7047159,1.2688046,1.0338993,0,.3760591-.281781.7047159-.281781.7047159-2.7725144,0-6.8607092.3760591-10.7139987,1.597988.9870236,1.6917394,1.5505856,3.9939166,1.5505856,6.9075849,0,6.5315258-3.3829522,10.4316909-8.2232652,10.4316909Zm3.1011712-15.835566c-3.524106,1.9266447-6.2023424,4.9340645-6.2023424,9.6800994,0,2.960544,1.5037099,4.3231,3.0074197,4.3231,2.3964553,0,3.8532895-1.6448637,3.8532895-8.5993244,0-2.3495796-.2823077-4.0881947-.6583668-5.403875Z"/>
        <path class="cls-2" d="m279.9154604,126.1091556c-2.3964553,0-5.4981532-1.4563075-5.4981532-6.2966205,0-5.6856561,3.1954493-9.3040402,7.6597032-11.512466-.9864969-1.3630827-2.2553015-1.6917394-3.4303546-1.6917394-2.3027039,0-6.1085909,2.2553015-6.1085909,8.6462001v27.9595231s-.4698106.6578401-1.7860176.6578401c-1.2688046,0-2.443331-.8458697-2.443331-2.8662659v-35.5723506s.4698106-.6578401,1.7854909-.6578401c1.2688046,0,2.4438577.8458697,2.4438577,2.8662659v1.0338993c1.4094317-2.2553015,3.805887-3.9001652,6.6726796-3.9001652,2.3964553,0,4.5111296.7047159,6.0617152,2.2558281,3.4772303-1.1281774,7.4242712-1.597988,11.0426554-1.597988,1.080775,0,1.2693313.7047159,1.2693313,1.0338993,0,.3760591-.2823077.7047159-.2823077.7047159-2.7725144,0-6.8607092.3760591-10.7139987,1.597988.9870236,1.6917394,1.5505856,3.9939166,1.5505856,6.9075849,0,6.5315258-3.3834789,10.4316909-8.2232652,10.4316909Zm3.1011712-15.835566c-3.524106,1.9266447-6.2023424,4.9340645-6.2023424,9.6800994,0,2.960544,1.5037099,4.3231,3.0074197,4.3231,2.3964553,0,3.8527628-1.6448637,3.8527628-8.5993244,0-2.3495796-.2812543-4.0881947-.6578401-5.403875Z"/>
        <path class="cls-3" d="m306.9343089,107.6417023c0-2.0203962,1.1755798-2.8662659,2.4438577-2.8662659,1.3156803,0,1.7854909.6578401,1.7854909.6578401v23.8713283c.5646154-.0468757,1.1281774-.0468757,1.7391419-.0468757,1.080775,0,1.2682779.7047159,1.2682779,1.0338993,0,.3760591-.2812543.7047159-.2812543.7047159-.8932721,0-1.7865443,0-2.7261654.0468757v2.3495796c0,6.5320525-3.1949226,10.4322176-8.0352356,10.4322176-2.3964553,0-5.4976265-1.2688046-5.4976265-5.3569993,0-5.0278159,4.1345438-7.6123008,9.3035135-8.6462001v-7.3305198c-1.2682779,2.3495796-3.3360765,3.6652599-6.3434962,3.6652599-3.9470409,0-6.4846501-2.5376092-6.4846501-7.4716736v-11.0431821c0-2.0203962,1.1745264-2.8662659,2.4438577-2.8662659,1.3156803,0,1.7854909.6578401,1.7854909.6578401v13.4865131c0,4.1350705,1.127124,5.5919046,2.8188635,5.5919046,2.9136683,0,5.7799342-2.4907334,5.7799342-11.7004955v-5.1694964Zm-6.9070582,30.9674695c0,2.3021772,1.5031832,3.3829522,3.0074197,3.3829522,2.3964553,0,3.8996385-1.644337,3.8996385-10.3848152-3.805887.8458697-6.9070582,2.7256387-6.9070582,7.001863Z"/>
        <path class="cls-2" d="m311.2495316,92.6483249c0-2.078096,1.3859727-3.4640687,4.696428-3.4640687h7.3147599v-11.0877814s.2312831-1.0778829,2.3870488-1.0778829c2.078096,0,3.4640687,1.3859727,3.4640687,4.696428v7.4692363l11.0101117-.0776697s1.0787459.2312831,1.0787459,2.3870488c0,2.078959-1.3859727,3.4649317-4.696428,3.4649317l-7.3924296.0768067.0776697,10.8564983s-.2312831,1.0778829-2.3870488,1.0778829c-2.079822,0-3.4640687-1.3859727-3.4640687-4.696428l-.0776697-7.2379532h-10.934168s-1.0770199-.2304201-1.0770199-2.3870488Z"/>
        <path class="cls-3" d="m212.2767932,111.9576179h4.0734473c1.0986826,0,1.6480239.640986,1.6480239,1.3736166,0,.7321039-.4118743,1.0070379-.4118743,1.0070379h-5.3095969v8.6967626c0,1.9682535-1.1903273,2.7920021-2.2431875,2.7920021-1.2814452,0-1.8766088-.640986-1.8766088-.640986v-10.8477788h-13.4111959v2.5628904c0,7.4611398-2.1515428,11.3976468-7.2778504,11.3976468-3.0211138,0-4.8519003-2.0140758-4.8519003-5.6298265,0-6.1338722,4.027625-9.5668603,8.0099544-10.3447865v-19.1790162c0-1.9682535,1.1903273-2.7920021,2.2431875-2.7920021,1.2814452,0,1.8766088.6404593,1.8766088.6404593v21.0098027h13.4111959v-22.8864115c0-1.9682535,1.1903273-2.7920021,2.2431875-2.7920021,1.2814452,0,1.8766088.640986,1.8766088.640986v24.9916053Zm-21.6507886,5.3101236v-2.5634171c-3.3413434.7321039-5.9047605,3.5704551-5.9047605,8.101599,0,2.3801278,1.1903273,3.5704551,2.7467065,3.5704551,1.9224312,0,3.1122317-1.7849642,3.1580541-9.1086369Z"/>
        <path class="cls-3" d="m308.8476693,129.2051881h4.6783252c2.115201,0,4.4179049-1.9266447,4.4179049-9.1634131,0,0,.046349-.281781.7047159-.281781.3760591,0,.8458697.4698106.8458697,2.4907334,0,5.2158455-2.3501063,8.7873539-6.5320525,8.7873539h-3.386835"/>
        <g>
          <path class="cls-3" d="m334.2638165,76.4533504h5.2744211c-.063489-.2539558-.0320468-.4764695.0955358-.6669364.1269779-.2116299.3386078-.3180495.6354943-.3180495.2110252,0,.3912129.0743728.5399585.2225137.1269779.1269779.2013507.2860027.2225137.4764695.0205583.2122345-.021163.3924222-.1269779.5399585-.1064196.1699086-.2757235.2757235-.5085163.3180495-.4450274,1.5043861-1.0279165,2.690118-1.7474581,3.5584051-.6784249.8477288-1.6204802,1.567875-2.8279797,2.1610433l-.794519-1.0170327c2.1392757-.9741021,3.442311-2.3720685,3.9085014-4.1938994h-4.6709736v-1.0805217Zm6.2273601.0320468c.0640936-.063489.0955358-.1378617.0955358-.2225137s-.0314422-.1590247-.0955358-.2225137c-.063489-.063489-.1378617-.0955358-.221909-.0955358-.0852566,0-.1590247.0320468-.2225137.0955358s-.0955358.1378617-.0955358.2225137.0320468.1590247.0955358.2225137.1372571.0949311.2225137.0949311c.0840473,0,.1584201-.0314422.221909-.0949311Z"/>
          <path class="cls-3" d="m341.647885,79.0273743v-1.0805217h5.2109321l.0955358-.0955358.7939143.5720053c-.3174448.9747067-.7836352,1.8327147-1.3979665,2.5740239-.7413092.9106131-1.5884333,1.5352236-2.5419771,1.874436l-.7624722-.9535437c1.6095963-.6772156,2.6580712-1.6410385,3.1460292-2.890864h-4.5439957Zm.7624722-1.7480627v-1.0484748h4.321482v1.0484748h-4.321482Z"/>
          <path class="cls-3" d="m348.5234372,81.3147909c1.1228476-.4655857,2.0122977-1.0170327,2.668955-1.652527.6995879-.6560526,1.2074996-1.4505716,1.525549-2.3829524h-3.463474v-1.1119638h4.1938994l.1590247-.0949311.73103.6348896c-.5720053,1.2709885-.9958697,2.1289965-1.2709885,2.5740239.8259612.6778202,1.5993172,1.3876873,2.3194523,2.1289965l-.9535327.9849859c-.6566573-.8471241-1.3556405-1.5461074-2.0969497-2.0975544-.8054028.9323807-1.8218309,1.6634108-3.0498888,2.1924855l-.7630769-1.1754528Z"/>
        </g>
      </g>
    </g>
  </g>
</svg>